<svg width="56" height="56" viewBox="0 0 56 56" fill="none" xmlns="http://www.w3.org/2000/svg">
<rect width="56" height="56" fill="#1F4075"/>
<path d="M28.0033 8.00003C23.302 7.9924 18.7488 9.64336 15.145 12.6623H40.8583C37.2561 9.64283 32.7036 7.99175 28.0033 8.00003ZM28.0033 48C32.6601 48.0085 37.1732 46.3877 40.7605 43.4185H15.2427C18.8316 46.3873 23.3456 48.008 28.0033 48ZM37.5501 18.1532H45.4397C44.7898 17.0082 44.0293 15.9296 43.1692 14.9328H12.851C11.5859 16.3907 10.5397 18.0248 9.74498 19.7838H36.388L37.5501 18.1532ZM27.8113 29.1756H8.00337C8.09837 30.8234 8.39824 32.4529 8.89607 34.0266H25.9585L27.1343 32.3725H47.5519C47.7873 31.3208 47.9371 30.2516 47.9999 29.1756H27.8113ZM32.2681 25.2612H47.8483C47.7009 24.1696 47.462 23.0923 47.1341 22.0408H8.86913C8.3795 23.6154 8.08755 25.2449 8 26.8916H31.1092L32.2681 25.2612ZM12.9082 41.148H20.8415L22.0003 39.5176H44.3786C45.0969 38.5047 45.7184 37.4265 46.2347 36.2971H9.77193C10.5766 38.0576 11.633 39.6917 12.9082 41.148Z" fill="white"/>
</svg>
