<svg width="56" height="56" viewBox="0 0 56 56" fill="none" xmlns="http://www.w3.org/2000/svg">
<rect width="56" height="56" fill="#1D3778"/>
<path fill-rule="evenodd" clip-rule="evenodd" d="M44.0904 16.3577C44.7373 16.3577 45.2663 15.8287 45.2663 15.1819V15.1759C45.2663 14.5289 44.7373 14 44.0904 14H12.2666C11.6197 14 11.0907 14.5289 11.0907 15.1759V15.1819C11.0907 15.8287 11.6197 16.3577 12.2666 16.3577H26.9996V40.9299C26.9996 41.5194 27.4802 42 28.0697 42H28.3025C28.8918 42 29.3725 41.5194 29.3725 40.9299V16.3577H44.0904ZM23.3935 18.7184H12.1789C11.532 18.7184 11 19.2474 11 19.8973C11 20.5441 11.529 21.0762 12.1789 21.0762H22.0724V29.0896H13.3971C12.7804 29.0896 12.2756 29.5944 12.2756 30.211V30.3229C12.2756 30.9395 12.7804 31.4444 13.3971 31.4444H22.0724V39.621H12.2424C11.5955 39.621 11.0665 40.15 11.0665 40.7968V40.8029C11.0665 41.4498 11.5955 41.9787 12.2424 41.9787H23.3964C23.8469 41.9787 24.2398 41.7218 24.4362 41.347C24.5602 41.1504 24.6328 40.9178 24.6328 40.6668V20.0273C24.6328 19.7613 24.5511 19.5134 24.409 19.3079C24.2066 18.9573 23.8256 18.7184 23.3935 18.7184ZM45.363 19.8946C45.363 20.5444 44.831 21.0734 44.184 21.0734H34.2906V29.0869H42.9659C43.5826 29.0869 44.0873 29.5916 44.0873 30.2083V30.3201C44.0873 30.9368 43.5826 31.4415 42.9659 31.4415H34.2906V39.6152H44.1176C44.7645 39.6152 45.2935 40.1442 45.2935 40.791V40.7971C45.2935 41.444 44.7645 41.9729 44.1176 41.9729H32.9636C32.5131 41.9729 32.1202 41.7161 31.9237 41.3412C31.7997 41.1417 31.7272 40.9089 31.7272 40.661V20.0246C31.7272 19.7585 31.8118 19.5107 31.9509 19.3051C32.1564 18.9545 32.5374 18.7156 32.9695 18.7156H44.184C44.834 18.7156 45.363 19.2477 45.363 19.8946Z" fill="white"/>
</svg>
