<svg width="56" height="56" viewBox="0 0 56 56" fill="none" xmlns="http://www.w3.org/2000/svg">
<rect width="56" height="56" fill="#51AF88"/>
<path fill-rule="evenodd" clip-rule="evenodd" d="M34.8181 12C31.9993 12 30.4503 12.8303 29.0688 14.4361C27.6315 16.0966 27.3554 18.1999 27.2995 19.695L27.2448 23.9581L29.621 24.014L29.6758 19.7508C29.6755 18.6895 30.0259 17.6578 30.6725 16.8164C31.3354 15.986 32.2195 15.5435 33.2144 15.5435H33.2701C34.4304 15.5435 35.2596 15.8196 35.8677 16.318C36.5315 16.8721 36.8635 17.6466 36.8076 18.6992C36.8065 19.2195 36.6979 19.7339 36.4887 20.2102C36.2795 20.6866 35.974 21.1145 35.5916 21.4672C34.8181 22.1859 33.8224 22.6294 32.7728 22.5746L30.4503 22.5188L30.3945 24.014L32.7169 24.0687H32.8285C34.2629 24.0705 35.6405 23.5085 36.6642 22.5038C37.6879 21.4991 38.2757 20.1323 38.3008 18.6983C38.3008 17.9785 38.1901 17.2589 37.9131 16.595L37.8024 16.318L37.9689 16.5393C38.7424 17.4812 39.1291 18.6434 39.1291 19.8614C39.11 21.2096 38.5589 22.4956 37.5959 23.4394C36.633 24.3831 35.3361 24.908 33.9878 24.9001H33.8781L29.5662 24.8442L27.1332 24.7885L20.4448 24.6778H20.2793C17.957 24.6778 15.7471 25.5639 14.0327 27.2245C12.319 28.8842 11.3263 31.151 11.2687 33.536C11.2129 34.9204 11.5448 36.2492 12.098 37.5231L12.0422 37.5778C10.9378 36.0279 10.3846 34.2567 10.4394 32.3738C10.4835 30.0726 11.4376 27.8828 13.0927 26.2836C13.9109 25.4861 14.88 24.86 15.9432 24.4419C17.0064 24.0237 18.1425 23.822 19.2846 23.8485L26.3048 23.9581L26.3597 22.4629L19.3395 22.3523H19.174C16.5278 22.3415 13.9846 23.3766 12.098 25.232C10.1639 27.1106 9.05099 29.6778 9.00204 32.3738C8.94722 35.7508 9.99681 38.6852 11.9873 40.7336C14.1423 42.8935 17.2392 44 21.3289 44C24.0382 44 26.1393 43.1696 27.5767 41.5081C28.682 40.1804 29.3449 38.3533 29.4008 36.305L29.4555 32.0418L27.0783 31.986L27.0234 36.2492C27.0234 37.3566 26.6367 38.4082 26.0287 39.1836C25.3648 40.014 24.4249 40.5123 23.4302 40.4565C22.2689 40.4565 21.4396 40.1804 20.8316 39.682C20.1687 39.1278 19.8368 38.3533 19.8926 37.3017C19.9475 35.1418 21.7167 33.3705 23.8727 33.3705H23.9276L26.2489 33.4263L26.3048 31.9312L23.9833 31.8754H23.8717C22.4373 31.8736 21.0598 32.4357 20.0361 33.4403C19.0124 34.445 18.4246 35.8118 18.3995 37.2459C18.3995 37.9656 18.5101 38.6852 18.7872 39.3501L18.8968 39.6262L18.7315 39.4049C17.957 38.464 17.5702 37.2459 17.5702 36.0837C17.5896 34.7356 18.1408 33.4498 19.1037 32.5061C20.0665 31.5624 21.3633 31.0373 22.7114 31.045H22.8221L27.1341 31.1009L29.5662 31.1568L36.2555 31.2664H36.4209C41.2851 31.2664 45.321 27.3351 45.3758 22.4092C45.3784 21.0371 45.096 19.6794 44.5465 18.4221L44.6023 18.3673C45.7077 19.9173 46.2609 21.6885 46.2051 23.5703C46.1608 25.8715 45.2068 28.0613 43.5517 29.6606C42.7337 30.4581 41.7649 31.0843 40.7019 31.5026C39.6388 31.9209 38.503 32.1229 37.3609 32.0967L30.3397 31.986L30.2849 33.4812L37.305 33.5918H37.4715C40.1239 33.5918 42.8331 32.5402 44.8784 30.7131C47.0354 28.7745 47.6982 26.2287 47.7531 23.5713C47.8089 20.4704 46.7025 17.5908 44.713 15.4876C42.4463 13.2729 39.0195 12 34.8181 12ZM36.3641 29.7712H36.2535L29.5652 29.6596L27.1332 29.6048L22.8202 29.549H22.7104C21.8595 29.5461 21.0164 29.7109 20.2291 30.034C19.4419 30.3571 18.726 30.832 18.1224 31.4318C16.8506 32.6499 16.1318 34.3104 16.0771 36.0827C16.0771 37.0237 16.2425 37.9646 16.6302 38.7948L16.7398 39.1268L16.5186 38.8507C15.6345 37.6874 15.192 36.3039 15.192 34.8637C15.2477 31.4318 18.0666 28.6639 21.4944 28.6639H21.6051L26.248 28.7745L26.3038 27.2793L21.6599 27.1687H21.4944C17.2382 27.1687 13.7546 30.6015 13.6998 34.8647C13.7007 36.0223 13.9258 37.1687 14.3626 38.2407L14.5291 38.6294L14.3078 38.2965C13.3172 36.9744 12.8098 35.3525 12.8705 33.7014C12.9263 29.6048 16.2983 26.3384 20.3881 26.3384H20.4997L27.1879 26.449L29.5652 26.5038H29.62L33.933 26.5597H34.0426C34.8936 26.5625 35.7368 26.3977 36.524 26.0747C37.3112 25.7516 38.0272 25.2766 38.6307 24.6768C39.9026 23.4587 40.6212 21.7982 40.6761 20.0269C40.6761 19.085 40.5106 18.144 40.1228 17.3138L40.0132 16.9818L40.2345 17.2579C41.1041 18.4043 41.5702 19.8061 41.5602 21.2449C41.5053 22.9613 40.8416 24.5113 39.6255 25.6736C38.4652 26.8367 36.8615 27.4448 35.2587 27.4448H35.148L30.5051 27.3351L30.4493 28.8303L35.0932 28.94H35.2587C37.304 28.94 39.184 28.1655 40.6761 26.7261C42.1682 25.2858 42.9976 23.3481 43.0533 21.2449C43.0524 20.0866 42.8269 18.9395 42.3895 17.8669L42.2241 17.4801L42.4453 17.8121C43.436 19.1342 43.9433 20.7561 43.8827 22.4072C43.772 26.5038 40.4548 29.7712 36.3641 29.7712ZM29.621 28.8861L27.0783 28.8303L27.1332 27.1697L29.621 27.2255V28.8861Z" fill="white"/>
</svg>
