<svg width="56" height="56" viewBox="0 0 56 56" fill="none" xmlns="http://www.w3.org/2000/svg">
<rect width="56" height="56" fill="#9F9400"/>
<path fill-rule="evenodd" clip-rule="evenodd" d="M38 20.7652L33.4403 18.1758L27.1229 21.841L27.1278 14.5894L22.5681 12L18.0075 14.646L18.0027 21.8976L18.0009 25.2854L18.0126 28.4632L18.0302 30.1533L18.0009 34.2946L18 37.6037L18.0004 41.4156L22.5573 44L27.1179 41.3541L27.1173 37.5422L33.4349 41.1255L33.4803 41.0992L37.9955 38.4795L37.9993 33.2492L31.6818 29.6657L37.9992 26.0005L38 20.7652ZM25.9751 15.2582L25.9702 22.5097L23.1413 24.1511L23.1493 13.6567L25.9751 15.2582ZM19.1592 15.3048L21.9882 13.6635L21.9831 30.7181L19.1542 32.3594L19.1592 15.3048ZM18 37.6037L18.0015 33.0282L18.001 36.2759L18 37.6037ZM19.1542 32.3594L21.9831 30.7181L21.9837 38.4377L19.1548 40.079L19.1542 32.3594ZM25.9691 40.7002L22.5612 42.6774L19.7327 41.0708L23.1404 39.0936V30.014L25.9679 31.4779L25.9691 40.7002ZM33.4339 39.8058L27.1163 36.2223L27.1167 32.9745L36.2628 38.1644L33.4339 39.8058ZM36.8466 33.918L36.8433 37.1608L27.6972 31.9708L30.5261 30.3295L36.8466 33.918ZM25.9679 31.4779L23.1404 30.014L33.44 24.071L36.2686 25.6775L25.9679 31.4779ZM33.4439 22.7483L33.3986 22.7746L21.9835 29.3251L21.9845 25.9666L33.4494 19.4976L36.8524 21.431L36.8469 24.6817L33.4439 22.7483Z" fill="white"/>
</svg>
