<svg width="56" height="56" viewBox="0 0 56 56" fill="none" xmlns="http://www.w3.org/2000/svg">
<rect width="56" height="56" fill="#4EE59A"/>
<path fill-rule="evenodd" clip-rule="evenodd" d="M39.1114 11.3706C35.8224 9.17298 31.9556 8 28 8C22.6956 8 17.6086 10.1071 13.8579 13.8579C10.1071 17.6086 8 22.6956 8 28C8 31.9556 9.17298 35.8224 11.3706 39.1114C13.5682 42.4005 16.6918 44.9638 20.3463 46.4776C24.0009 47.9913 28.0222 48.3874 31.9018 47.6157C35.7815 46.844 39.3451 44.9392 42.1422 42.1422C44.9392 39.3451 46.844 35.7815 47.6157 31.9018C48.3874 28.0222 47.9913 24.0009 46.4776 20.3463C44.9638 16.6918 42.4005 13.5682 39.1114 11.3706ZM19.0695 14.6348C21.713 12.8685 24.8208 11.9257 28 11.9257C32.2632 11.9257 36.3518 13.6193 39.3664 16.6338C42.381 19.6483 44.0745 23.7369 44.0745 28.0002C44.0745 31.1794 43.1318 34.2873 41.3655 36.9307C39.5992 39.5741 37.0887 41.6344 34.1514 42.8511C31.2143 44.0677 27.9822 44.3861 24.864 43.7658C21.7459 43.1456 18.8816 41.6146 16.6336 39.3666C14.3855 37.1185 12.8546 34.2543 12.2344 31.1361C11.6142 28.018 11.9325 24.786 13.1491 21.8487C14.3657 18.9115 16.426 16.401 19.0695 14.6348ZM35.3623 19.2327C35.9682 20.4458 40.018 28.0089 40.018 28.0089L40.0165 28.0117C39.924 28.1771 35.6953 35.7431 35.2 36.7852L35.1344 36.9239C34.6284 37.997 33.8063 39.7402 31.9161 39.7402C29.942 39.7402 28.972 37.9985 28.3661 36.7852C27.7601 35.572 23.7104 28.0089 23.7104 28.0089C23.7104 28.0089 28.0276 20.2863 28.5283 19.2327L28.594 19.094C29.1 18.0209 29.9221 16.2777 31.8123 16.2777C33.7864 16.2777 34.7564 18.0195 35.3623 19.2327ZM23.7104 28.0089C23.7104 28.0089 22.6948 24.9446 22.1259 23.4377L22.1033 23.3778C21.5481 21.9064 21.2095 21.0091 19.8095 21.0124C19.2089 21.0137 18.5818 21.7948 17.8807 23.4381C17.0603 25.5762 16.1275 28.0089 16.1275 28.0089L16.1279 28.0102C16.1534 28.0871 17.1499 31.0927 17.7116 32.5803L17.7357 32.6444C18.29 34.1132 18.6279 35.0088 20.0278 35.006C20.6284 35.0045 21.2555 34.2236 21.9566 32.5803C22.777 30.4418 23.7104 28.0089 23.7104 28.0089Z" fill="black"/>
</svg>
