<svg width="56" height="56" viewBox="0 0 56 56" fill="none" xmlns="http://www.w3.org/2000/svg">
<rect width="56" height="56" fill="#6A5B7A"/>
<path d="M28.2699 8.00219C20.1453 7.86157 13.1924 14.5019 13.005 22.6265C12.8643 28.1419 15.708 33.001 20.0202 35.7196C20.2233 35.8447 20.5046 35.7665 20.614 35.5477L23.9888 28.8138C24.4887 27.8294 24.4107 26.642 23.8013 25.7201C23.2858 24.9232 22.9888 23.9702 23.0045 22.9546C23.0357 20.3297 25.1138 18.158 27.723 18.0173C30.7385 17.8611 33.2227 20.3767 32.9883 23.4077C32.8009 25.845 30.8322 27.7981 28.4105 28.0013C28.3948 28.0013 28.3793 28.0013 28.3636 28.0013C27.2542 28.0793 26.27 28.7199 25.77 29.7199L22.3951 36.4384C22.2857 36.6571 22.3951 36.9227 22.6139 37.0008C24.317 37.657 26.1606 38.0008 28.098 38.0008C36.3007 37.9539 43.0035 31.2198 43.0035 23.0171C43.0192 14.8143 36.4414 8.14281 28.2699 8.00219Z" fill="white"/>
<path d="M18.0043 48C20.7656 48 23.004 45.7616 23.004 43.0003C23.004 40.239 20.7656 38.0005 18.0043 38.0005C15.243 38.0005 13.0045 40.239 13.0045 43.0003C13.0045 45.7616 15.243 48 18.0043 48Z" fill="white"/>
</svg>
