<svg width="36" height="36" viewBox="0 0 36 36" fill="none" xmlns="http://www.w3.org/2000/svg">
<circle cx="18" cy="18" r="18" fill="white"/>
<circle cx="18" cy="18" r="2.53125" fill="#0E9AB3"/>
<circle cx="6.46875" cy="18" r="2.53125" fill="#E54829"/>
<circle cx="29.3906" cy="18" r="2.53125" fill="#E54829"/>
<circle cx="18" cy="4.78125" r="2.53125" fill="#7A88B8"/>
<circle cx="18" cy="31.2188" r="2.53125" fill="#0E9AB3"/>
<circle cx="18" cy="11.3906" r="2.53125" fill="#670D35"/>
<circle cx="18" cy="24.6094" r="2.53125" fill="#670D35"/>
<circle cx="6.46875" cy="11.3906" r="2.53125" fill="#0E9AB3"/>
<circle cx="6.46875" cy="24.6094" r="2.53125" fill="#7A88B8"/>
<circle cx="29.3906" cy="11.3906" r="2.53125" fill="#0E9AB3"/>
<circle cx="29.3906" cy="24.6094" r="2.53125" fill="#7A88B8"/>
<circle cx="23.7656" cy="21.375" r="2.53125" fill="#670D35"/>
<circle cx="23.7656" cy="8.15625" r="2.53125" fill="#E54829"/>
<circle cx="23.7656" cy="14.7656" r="2.53125" fill="#670D35"/>
<circle cx="23.7656" cy="27.9844" r="2.53125" fill="#E54829"/>
<circle cx="12.2344" cy="21.375" r="2.53125" fill="#670D35"/>
<circle cx="12.2344" cy="8.15625" r="2.53125" fill="#E54829"/>
<circle cx="12.2344" cy="14.7656" r="2.53125" fill="#670D35"/>
<circle cx="12.2344" cy="27.9844" r="2.53125" fill="#E54829"/>
</svg>
