<svg width="56" height="56" viewBox="0 0 56 56" fill="none" xmlns="http://www.w3.org/2000/svg">
<rect width="56" height="56" fill="#282828"/>
<path fill-rule="evenodd" clip-rule="evenodd" d="M18.7825 18.1002H43.456L35.8508 13.405H11.1773L18.7825 18.1002ZM45.9306 19.5052H18.5826C18.4523 19.5052 18.325 19.4689 18.214 19.4008L8.33328 13.3006C8.06606 13.1355 7.94096 12.8128 8.02682 12.5108C8.11195 12.2087 8.38806 12 8.70192 12H36.0499C36.1802 12 36.3083 12.037 36.4193 12.1044L46.3 18.2053C46.5672 18.3697 46.6923 18.6924 46.6064 18.9944C46.5206 19.2964 46.2452 19.5052 45.9306 19.5052ZM20.4844 42.595H45.1579L37.5527 37.8997H12.8792L20.4844 42.595ZM47.6325 44H20.2845C20.1542 44 20.0269 43.9637 19.9159 43.8956L10.0352 37.7954C9.76799 37.6303 9.64289 37.3075 9.72876 37.0055C9.81389 36.7035 10.09 36.4948 10.4039 36.4948H37.7518C37.8821 36.4948 38.0102 36.5318 38.1212 36.5991L48.0019 42.7001C48.2691 42.8645 48.3942 43.1872 48.3083 43.4892C48.2225 43.7913 47.9471 44 47.6325 44ZM24.6181 28.0686C24.6418 30.4292 26.5693 32.333 28.9248 32.333C28.9396 32.333 28.9536 32.3323 28.9677 32.3323C31.3424 32.3086 33.2551 30.3574 33.2314 27.9827C33.2196 26.8324 32.7607 25.7553 31.939 24.9499C31.1284 24.1557 30.0603 23.7189 28.927 23.7189C28.9122 23.7189 28.8966 23.7189 28.8818 23.7197C27.7315 23.7308 26.6545 24.1897 25.8491 25.0106C25.0437 25.833 24.607 26.919 24.6181 28.0686Z" fill="white"/>
</svg>
