<svg width="56" height="56" viewBox="0 0 56 56" fill="none" xmlns="http://www.w3.org/2000/svg">
<rect width="56" height="56" fill="#D422D0"/>
<path d="M22.6906 16.0003L11.3458 16C11.1548 16 11 16.1548 11 16.3456L11.0002 30.4112C11.0002 30.6022 11.155 30.7571 11.3461 30.7571H17.5119C17.703 30.7571 17.8578 30.6022 17.8578 30.4112V24.2459L17.8575 24.2441V23.2627C17.8575 23.0391 18.0383 22.8576 18.262 22.8571H22.6908C22.8819 22.8571 23.0366 22.7024 23.0366 22.5113V16.3458C23.0361 16.1551 22.8814 16.0003 22.6906 16.0003Z" fill="white"/>
<path d="M17.5117 33.1429H11.3458C11.1548 33.1429 11 33.2977 11 33.4887V39.654C11 39.845 11.1548 39.9998 11.3458 39.9998H17.5117C17.7028 39.9998 17.8575 39.845 17.8575 39.654V33.4887C17.8575 33.2977 17.7028 33.1429 17.5117 33.1429Z" fill="white"/>
<path d="M40.6939 16.0996L45.1832 20.5872C45.2443 20.6583 45.2852 20.748 45.2856 20.849V39.6542C45.2856 39.8452 45.1309 40 44.9398 40H38.774C38.583 40 38.4281 39.8452 38.4281 39.6542V23.356C38.4286 23.1865 38.3936 22.8571 37.9477 22.8571H31.9758C31.752 22.8571 31.5711 23.0384 31.5709 23.2619V39.6542C31.5709 39.8452 31.4161 40 31.225 40H25.0591C24.8681 40 24.7133 39.8452 24.7133 39.6542V16.3458C24.7133 16.1548 24.8681 16 25.0591 16H40.4361C40.4859 16 40.5328 16.0101 40.5759 16.0276C40.619 16.0451 40.6586 16.0697 40.6939 16.0996Z" fill="white"/>
</svg>
