<svg width="56" height="56" viewBox="0 0 56 56" fill="none" xmlns="http://www.w3.org/2000/svg">
<rect width="56" height="56" fill="#2842EA"/>
<path fill-rule="evenodd" clip-rule="evenodd" d="M25.1515 30.8524L24.8547 30.36C24.1542 29.1975 23.4291 27.9954 22.634 26.8738C22.0256 26.0165 21.942 25.3413 22.345 24.541C22.8414 23.5594 22.6405 22.5135 22.4468 21.8131C21.9783 20.1205 21.4444 18.463 20.8916 16.7724C20.6046 15.8925 19.7933 14.1539 19.1784 13.2312C18.847 12.7487 18.4297 12.3314 17.9472 12L17.7158 12.3888C18.1413 12.6845 18.5098 13.0546 18.8038 13.4813C19.3902 14.36 20.1911 16.0765 20.4639 16.9117C21.014 18.5965 21.5468 20.2495 22.012 21.9323C22.2887 22.9315 22.2666 23.6948 21.9426 24.3357C21.4651 25.281 21.5649 26.1435 22.2666 27.1316C23.0475 28.2324 23.7631 29.4183 24.456 30.5665L24.4698 30.5893L24.7672 31.0825C25.0704 31.584 24.9655 32.1523 24.508 32.4964C24.185 32.7344 23.8272 32.921 23.4473 33.0497C22.7345 33.2966 22.4636 33.5532 22.75 34.4254C23.0539 35.3514 22.9023 35.8594 22.2089 36.2397L21.9938 36.357L22.128 36.5624C22.4669 37.0808 22.5751 37.3653 22.3224 37.675C21.8118 38.3004 21.6744 38.9671 21.8798 39.838C22.1837 41.1307 21.9356 42.0943 21.1217 42.7831C20.7194 43.1201 20.2257 43.3297 19.7038 43.385C19.6553 43.3902 19.4019 43.3961 19.0481 43.4019C19.264 43.2997 19.4652 43.1689 19.6462 43.0131C20.8527 41.9588 20.8307 40.7315 20.8125 39.838C20.8125 39.7923 20.812 39.7476 20.8114 39.7039C20.8102 39.6195 20.8092 39.5388 20.8125 39.4615C20.8186 38.879 20.9608 38.306 21.228 37.7884C21.4671 37.327 21.4061 36.8664 21.3076 36.4594C21.71 35.9676 21.8778 35.365 21.8351 34.5751C21.7712 34.281 21.6905 33.9909 21.5934 33.7062C21.4249 33.3692 21.5195 33.1715 21.7496 32.7568C22.2097 31.9267 22.9053 30.6717 20.867 27.0144C20.8078 26.9082 20.7536 26.8114 20.7044 26.7241C20.4788 26.3249 20.3551 26.1047 20.3402 25.9556C20.3279 25.8293 20.3939 25.6919 20.5566 25.3659C20.6486 25.1819 20.762 24.9538 20.8987 24.646C21.0652 24.3751 21.3718 23.5633 20.775 21.7301C20.5456 21.0245 20.3506 20.3292 20.1626 19.6566C19.9222 18.796 19.6734 17.907 19.3533 17.0076C19.0332 16.1082 18.3061 14.4805 17.7794 13.5811C17.7696 13.5642 17.7597 13.548 17.7499 13.5318C17.74 13.5156 17.7301 13.4994 17.7204 13.4826C17.6139 13.3109 17.496 13.1463 17.3679 12.9901L17.1132 13.4055C17.1865 13.5027 17.2584 13.607 17.3271 13.7178C17.3453 13.7476 17.3634 13.7774 17.3808 13.8079C17.8954 14.6839 18.6043 16.2761 18.9192 17.1573C19.2295 18.0257 19.4624 18.8589 19.7078 19.7367L19.7187 19.7758C19.908 20.453 20.1037 21.1528 20.3363 21.8674C20.9098 23.6313 20.5754 24.2974 20.5028 24.4134C20.4954 24.4248 20.4889 24.4367 20.4834 24.449C20.348 24.7543 20.2346 24.981 20.1438 25.1619C19.7738 25.9025 19.7589 25.9815 20.302 26.9445C20.3512 27.0308 20.4052 27.1269 20.4639 27.2327C22.38 30.671 21.782 31.7486 21.3452 32.5352L21.3445 32.5365C21.1161 32.9494 20.9003 33.3393 21.1768 33.8992C21.2091 33.9874 21.3562 34.5129 21.3757 34.6088C21.412 35.3151 21.2558 35.836 20.8838 36.2475L20.8068 36.3395L20.8378 36.4581C20.9577 36.9195 20.994 37.2506 20.8236 37.5804C20.5224 38.159 20.3612 38.8002 20.3532 39.4524V39.8458V39.8479C20.3681 40.7003 20.3866 41.76 19.3391 42.6748C18.9969 42.9742 18.5362 43.1427 18.0891 43.28C17.9303 43.3218 17.7684 43.3511 17.605 43.3675L17.5753 43.3708L17.548 43.3818C17.5098 43.3967 17.4637 43.4116 17.4126 43.4259L17.1061 43.4298C17.4126 43.2885 17.7068 43.1103 17.8954 42.8738C18.7254 41.8288 19.0146 40.4423 19.1876 39.6126L19.1881 39.6106L19.204 39.534C19.2327 39.3956 19.2574 39.2757 19.2826 39.1829C19.6968 37.5843 19.8211 34.4267 19.8348 34.0502C20.7821 31.1285 19.7868 28.7737 19.1907 27.3643C18.982 26.8706 18.8019 26.4441 18.7902 26.1901C18.7656 25.6258 18.9062 25.1087 19.043 24.6091C19.1855 24.0862 19.3203 23.5918 19.2211 23.133C19.1421 22.7708 19.0566 22.3489 18.9664 21.9018C18.6522 20.3512 18.2608 18.4215 17.8 17.2364C17.5532 16.6001 17.0264 15.3048 16.565 14.3334L16.2857 14.8058C16.7063 15.7207 17.156 16.8288 17.3783 17.3977C17.826 18.5498 18.2148 20.4601 18.5265 21.9919C18.6172 22.4403 18.7034 22.8641 18.7824 23.2283C18.8582 23.5793 18.7431 24.0009 18.6097 24.4891L18.5997 24.5261C18.4665 25.0235 18.3147 25.5903 18.3444 26.2102C18.3593 26.545 18.545 26.9839 18.7799 27.5392L18.7805 27.5406C19.3902 28.9836 20.3122 31.1656 19.4012 33.9394L19.3909 33.9705V34.0029C19.3909 34.0372 19.271 37.4521 18.8518 39.0688C18.8207 39.1894 18.787 39.3417 18.7526 39.5179C18.5881 40.3084 18.312 41.631 17.5486 42.5919C17.3245 42.8745 16.8093 43.0791 16.4147 43.2224L16.8729 44C17.097 43.963 17.3083 43.9222 17.4806 43.8769C18.4662 43.8659 19.6469 43.8497 19.7583 43.8353C20.3676 43.7699 20.9436 43.5242 21.4126 43.1297C22.3561 42.3314 22.6613 41.189 22.3198 39.7349C22.1461 38.9949 22.2478 38.4811 22.6723 37.9621C23.0967 37.4431 22.8745 36.9097 22.6327 36.5125C23.5541 35.8892 23.4155 35.0034 23.1803 34.2867C22.9924 33.7132 23.0539 33.6672 23.595 33.4806C24.0194 33.3362 24.4189 33.1274 24.7796 32.8612C25.4198 32.3791 25.5746 31.5523 25.1515 30.8524ZM15.678 17.6128L15.6261 17.423C15.5445 17.1236 15.448 16.773 15.3436 16.4095L15.6585 15.8763C15.812 16.3841 15.9507 16.89 16.0634 17.3013L16.1154 17.4904C16.6791 19.5432 17.5875 23.192 17.3368 24.5618C17.0466 26.1441 17.3206 27.1622 17.6381 28.3409C18.0172 29.7469 18.4461 31.341 18.161 34.314C18.1448 34.4905 18.1272 34.6959 18.1079 34.9215L18.0962 35.0571L18.0958 35.063C17.9953 36.2314 17.858 37.8296 17.6187 38.8382C17.3115 40.1529 16.7606 41.3984 15.9948 42.5102L15.7402 42.0768C16.413 41.0558 16.8999 39.9238 17.1781 38.7332C17.4061 37.7721 17.5417 36.2112 17.6418 35.0587L17.6453 35.0196C17.6673 34.7383 17.6893 34.4843 17.71 34.2718C17.9868 31.3806 17.5688 29.8287 17.2001 28.4595L17.1998 28.4583C16.8681 27.2276 16.582 26.1657 16.8904 24.4814C17.0621 23.5458 16.6202 21.042 15.678 17.6128ZM14.6145 22.1097L14.6403 22.325C15.0697 25.9149 15.5908 30.2708 15.8055 30.9644C15.8178 31.006 16.7328 35.0467 14.704 40.3207L14.9936 40.8145C15.7984 38.8237 16.2844 36.7184 16.4334 34.5763C16.5702 32.4711 16.3083 31.0662 16.239 30.8316C16.0339 30.164 15.4756 25.493 15.0669 22.0737L15.0649 22.0567C14.8283 20.0783 14.6236 18.367 14.5316 17.7832L14.1622 18.4085C14.2641 19.1818 14.4183 20.4706 14.5919 21.9206L14.6145 22.1097ZM13.8473 38.8629L13.5078 38.2796C13.59 37.8908 13.6684 37.4833 13.7352 37.0575C14.3287 33.4482 14.1324 30.1196 13.152 27.1628C12.987 26.666 12.9739 25.2862 12.9622 24.0669L12.9621 24.0609L12.9615 23.9998C12.9553 23.3786 12.9495 22.7999 12.92 22.5427C12.8526 21.9647 12.7982 21.379 12.7477 20.8029L13.1436 20.1322C13.1465 20.1706 13.1498 20.2078 13.153 20.2444C13.1556 20.2733 13.1581 20.3019 13.1604 20.3305L13.1832 20.5798C13.2407 21.2085 13.2997 21.8547 13.3723 22.4902C13.4054 22.7799 13.4112 23.3714 13.4177 24.0564C13.4274 25.1256 13.4417 26.5894 13.5842 27.0197C15.0421 31.4168 14.5432 35.8601 13.8473 38.8629ZM11.339 27.1777C11.0714 26.393 11.1472 25.539 11.2567 24.8068C11.3263 24.2845 11.3456 23.7568 11.3144 23.2309L11.7226 22.5388C11.7234 22.5475 11.7244 22.5561 11.7254 22.5648C11.7276 22.5845 11.7298 22.6043 11.7298 22.6237C11.7823 23.2996 11.8205 24.0959 11.7045 24.8735C11.604 25.552 11.5328 26.3392 11.7693 27.0313C12.7652 29.9504 12.7335 33.3731 12.3693 36.3428L11.9805 35.6838C12.4101 31.5413 11.8943 28.8054 11.339 27.1777ZM10.5835 33.305L10.1299 32.5345C10.1059 30.3813 9.90311 28.5676 9.52016 27.1815C9.45665 26.9461 9.41884 26.7046 9.40741 26.461L9.87136 25.6757C9.83961 26.1694 9.83896 26.6366 9.95625 27.061C10.3949 28.6453 10.6036 30.7681 10.5835 33.305ZM8.4484 29.673C8.4484 29.4129 8.44962 29.13 8.45091 28.8277C8.45194 28.5886 8.45302 28.3371 8.45358 28.0751L8 28.8462V28.9071L8.4484 29.673ZM41.2466 38.8628L41.5862 38.2795C41.5039 37.8908 41.4255 37.4832 41.3562 37.0542C40.7626 33.445 40.9589 30.1163 41.9393 27.1596C42.1043 26.6627 42.1175 25.283 42.1291 24.0636L42.1292 24.0576L42.1294 24.0375C42.1358 23.401 42.1418 22.8023 42.1713 22.5394C42.2393 21.9615 42.2931 21.3756 42.3443 20.7996L41.9485 20.1289C41.9426 20.1969 41.9368 20.261 41.9311 20.3252L41.931 20.3272C41.8693 21.0367 41.8052 21.7703 41.7216 22.4875C41.6886 22.7772 41.6827 23.3688 41.6763 24.0537C41.6665 25.123 41.6523 26.5867 41.5098 27.017C40.0518 31.4142 40.5508 35.8574 41.2466 38.8628ZM43.8373 24.8068C43.9467 25.539 44.0226 26.393 43.755 27.1777C43.1997 28.8054 42.6838 31.5413 43.1135 35.6838L42.7247 36.3428C42.3605 33.3731 42.3294 29.9504 43.3253 27.0313C43.5612 26.3392 43.49 25.552 43.3901 24.8735C43.2748 24.0959 43.3124 23.2996 43.3649 22.6237C43.3649 22.6043 43.3671 22.5845 43.3693 22.5647C43.3703 22.5561 43.3712 22.5475 43.3721 22.5388L43.7802 23.2309C43.7488 23.7568 43.7679 24.2845 43.8373 24.8068ZM40.4671 22.2138L40.4796 22.1097L40.5019 21.9228L40.5022 21.9207L40.5025 21.9181C40.6759 20.4691 40.83 19.1813 40.9318 18.4085L40.5625 17.7832C40.4704 18.367 40.2657 20.0783 40.0292 22.0567L40.0272 22.0734L40.027 22.0749C39.6183 25.494 39.0601 30.1641 38.8551 30.8316C38.7858 31.0662 38.5239 32.4711 38.6607 34.5763C38.8097 36.7184 39.2956 38.8237 40.1004 40.8145L40.3901 40.3207C38.3613 35.0467 39.2762 31.006 39.2886 30.9644C39.5055 30.2636 40.0358 25.8242 40.4671 22.2138ZM39.4686 17.4229L39.4168 17.6128C38.4746 21.0419 38.0327 23.5457 38.2045 24.4813C38.5127 26.1656 38.2266 27.2276 37.895 28.4583L37.8947 28.4594C37.526 29.8285 37.1081 31.3806 37.3853 34.2717C37.4055 34.4843 37.4275 34.7383 37.4501 35.0195L37.4509 35.0277C37.5499 36.1824 37.6853 37.7596 37.9167 38.7344C38.195 39.9251 38.6818 41.0571 39.3546 42.078L39.0999 42.5114C38.3341 41.3996 37.7834 40.1541 37.4761 38.8394C37.2363 37.8292 37.0989 36.2274 36.9992 35.0584C36.9752 34.7791 36.9532 34.5264 36.9344 34.3152C36.6494 31.3439 37.0784 29.75 37.4566 28.3445L37.4573 28.3421C37.7748 27.1634 38.0489 26.1454 37.7586 24.563C37.5078 23.1932 38.4163 19.5444 38.98 17.4916L39.0319 17.303C39.1446 16.8916 39.2834 16.3854 39.4369 15.8775L39.7518 16.4107C39.6462 16.773 39.5503 17.1236 39.4686 17.4229ZM30.2407 30.36L29.9433 30.8524C29.5195 31.5523 29.6743 32.3791 30.3139 32.8612C30.6746 33.1274 31.0741 33.3362 31.4984 33.4806C32.0395 33.6672 32.1017 33.7132 31.9131 34.2867C31.6785 35.0034 31.5393 35.8892 32.4607 36.5125C32.219 36.9097 31.9967 37.4431 32.4211 37.9621C32.8456 38.4811 32.9473 38.9949 32.7736 39.7349C32.4322 41.189 32.7373 42.3314 33.6808 43.1297C34.1498 43.5242 34.7258 43.7699 35.3351 43.8353C35.4466 43.8497 36.6272 43.8659 37.6128 43.8769C37.7851 43.9222 37.9964 43.963 38.2212 44L38.6787 43.2224C38.2841 43.0791 37.7696 42.8745 37.5454 42.5919C36.7814 41.631 36.506 40.3084 36.3414 39.5179C36.3064 39.3417 36.2728 39.1894 36.2417 39.0688C35.8224 37.4521 35.7025 34.0372 35.7025 34.0029V33.9705L35.6929 33.9394C34.7811 31.1654 35.7032 28.9836 36.3136 27.5406L36.317 27.5325C36.5499 26.9804 36.7342 26.5437 36.749 26.2102C36.7775 25.576 36.6205 25 36.4819 24.4918L36.4814 24.4899C36.348 24.0013 36.2333 23.5795 36.3084 23.2283C36.3896 22.8718 36.4732 22.4581 36.5619 22.0203L36.5676 21.9919C36.8767 20.4601 37.2655 18.5498 37.7113 17.3977C37.9329 16.8288 38.3826 15.7207 38.8032 14.8058L38.5238 14.3334C38.0625 15.3048 37.5357 16.6001 37.2888 17.2364C36.8281 18.4215 36.4368 20.3512 36.1224 21.9018C36.0324 22.3489 35.9469 22.7708 35.8678 23.133C35.7693 23.5918 35.9034 24.0862 36.0467 24.6091L36.0476 24.6126C36.1834 25.1111 36.3239 25.6271 36.2987 26.1901C36.287 26.4441 36.1069 26.8706 35.8983 27.3643L35.8974 27.3662C35.3018 28.7758 34.3072 31.1298 35.2542 34.0502C35.2678 34.4267 35.3922 37.5843 35.8062 39.1829C35.835 39.2885 35.8638 39.4292 35.8972 39.5926L35.9008 39.6106L35.905 39.63C36.081 40.4616 36.3719 41.8361 37.1968 42.8738C37.3847 43.1103 37.6789 43.2885 37.986 43.4298L37.6789 43.4259C37.6277 43.4116 37.5823 43.3967 37.5441 43.3818L37.5162 43.3708L37.4864 43.3675C37.3231 43.3511 37.1612 43.3218 37.0024 43.28C36.5553 43.1427 36.0946 42.9742 35.7524 42.6748C34.7049 41.76 34.7234 40.7003 34.7383 39.8479V39.8458V39.4524C34.7321 38.7995 34.573 38.157 34.2737 37.5766C34.1027 37.2467 34.139 36.9156 34.2595 36.4542L34.2899 36.3356L34.2083 36.2456C33.8357 35.8341 33.6795 35.3131 33.7158 34.6068C33.7353 34.5109 33.8823 33.9854 33.9147 33.8972C34.1915 33.3379 33.976 32.9483 33.7477 32.5358L33.7462 32.5332C33.3095 31.7466 32.7115 30.669 34.6275 27.2309C34.6863 27.125 34.7403 27.0289 34.7895 26.9425C35.3325 25.9796 35.3176 25.9006 34.9483 25.1599C34.8569 24.9791 34.7435 24.7523 34.6087 24.4471L34.6061 24.4421C34.6029 24.4357 34.5974 24.425 34.5886 24.4114C34.5161 24.2955 34.1818 23.6294 34.7552 21.8656C34.9879 21.1508 35.1835 20.451 35.3727 19.7739L35.3952 19.6936C35.6364 18.8307 35.8663 18.0083 36.1723 17.1554C36.488 16.2761 37.1961 14.6839 37.7107 13.8079C37.7281 13.7775 37.7462 13.7477 37.7644 13.718C37.8331 13.6072 37.905 13.5027 37.9783 13.4055L37.7321 12.9901C37.6041 13.1464 37.4865 13.3109 37.3801 13.4826C37.3702 13.4993 37.3604 13.5154 37.3506 13.5315C37.3408 13.5475 37.3305 13.5644 37.3206 13.5811C36.7937 14.4805 36.0668 16.1082 35.7467 17.0076C35.4265 17.907 35.1777 18.796 34.9373 19.6566C34.7494 20.3292 34.5549 21.0245 34.3249 21.7301C33.7282 23.5633 34.0346 24.3751 34.2011 24.646C34.3317 24.9401 34.4417 25.1613 34.5308 25.3409L34.5433 25.3659C34.7066 25.6919 34.7721 25.8293 34.7597 25.9556C34.7448 26.1047 34.621 26.3249 34.3956 26.7241C34.3463 26.8114 34.2921 26.9082 34.233 27.0144C32.1944 30.6723 32.8903 31.9267 33.351 32.7568C33.581 33.1715 33.6757 33.3692 33.5072 33.7062C33.4089 33.9923 33.3276 34.2839 33.2635 34.5796C33.2208 35.3695 33.3886 35.9721 33.791 36.464C33.6932 36.8709 33.6316 37.3316 33.8707 37.793C34.1378 38.3106 34.2801 38.8836 34.286 39.466C34.2891 39.5434 34.2881 39.6241 34.2871 39.7085C34.2866 39.7521 34.286 39.7968 34.286 39.8425C34.2679 40.7361 34.2459 41.9634 35.4524 43.0176C35.6336 43.1733 35.8347 43.304 36.0506 43.4064C35.6968 43.4006 35.444 43.3948 35.3947 43.3896C34.8728 43.3342 34.3793 43.1247 33.977 42.7876C33.1631 42.0988 32.9149 41.1352 33.2188 39.8425C33.4243 38.9717 33.2869 38.3048 32.7763 37.6795C32.5235 37.3698 32.6318 37.0854 32.9707 36.567L33.1048 36.3616L32.8896 36.2443C32.1964 35.8639 32.0447 35.3559 32.3486 34.43C32.635 33.5577 32.3642 33.3012 31.6514 33.0542C31.2715 32.9257 30.9139 32.739 30.5913 32.5008C30.1338 32.1568 30.0288 31.5886 30.332 31.0869L30.6276 30.5932L30.6413 30.5702C31.3343 29.4221 32.0498 28.2363 32.8307 27.1356C33.5324 26.1474 33.6322 25.2849 33.1547 24.3395C32.8307 23.6987 32.8086 22.9354 33.0854 21.9361C33.5512 20.2533 34.0832 18.6004 34.6334 16.9156C34.9062 16.0803 35.7071 14.3638 36.2935 13.4852C36.5863 13.0574 36.954 12.6859 37.3789 12.3888L37.1475 12C36.6651 12.3314 36.2477 12.7487 35.9163 13.2312C35.3015 14.1539 34.4902 15.8925 34.2031 16.7724C33.6504 18.463 33.1165 20.1205 32.648 21.8131C32.4542 22.5135 32.254 23.5594 32.7497 24.541C33.1528 25.3413 33.0692 26.0165 32.4607 26.8738C31.6663 27.9954 30.9405 29.1975 30.2407 30.36ZM44.9641 32.5345L44.5105 33.305C44.4904 30.7681 44.6991 28.6453 45.1378 27.061C45.2551 26.6366 45.2544 26.1694 45.2226 25.6757L45.6892 26.461C45.6777 26.7045 45.6401 26.946 45.577 27.1815C45.1909 28.5676 44.988 30.3813 44.9641 32.5345ZM46.6431 28.8276C46.6444 29.13 46.6456 29.4129 46.6456 29.673L47.094 28.9071V28.8462L46.6404 28.0751C46.641 28.3371 46.6421 28.5886 46.6431 28.8276Z" fill="white"/>
</svg>
