<svg width="180" height="180" viewBox="0 0 180 180" fill="none" xmlns="http://www.w3.org/2000/svg">
<path fill-rule="evenodd" clip-rule="evenodd" d="M90 180C139.706 180 180 139.706 180 90C180 40.2944 139.706 0 90 0C40.2944 0 0 40.2944 0 90C0 139.706 40.2944 180 90 180ZM57 75C57 71.7 59.7 69 63 69H117C120.3 69 123 71.7 123 75V105C123 108.3 120.3 111 117 111H63C59.7 111 57 108.3 57 105V75ZM99 99C99 100.65 97.65 102 96 102H84C82.35 102 81 100.65 81 99V90C81 88.35 82.35 87 84 87V84C84 80.7 86.67 78 90 78C93.3 78 96 80.67 96 84V87C97.65 87 99 88.35 99 90V99ZM69 105H111V75H69V105ZM90 80.4C88.02 80.4 86.4 82.02 86.4 84V87H93.6V84C93.6 82.02 91.98 80.4 90 80.4Z" fill="#49494D"/>
</svg>
