<svg width="56" height="56" viewBox="0 0 56 56" fill="none" xmlns="http://www.w3.org/2000/svg">
<rect width="56" height="56" fill="#E79317"/>
<path fill-rule="evenodd" clip-rule="evenodd" d="M39.0898 44.6463C44.4617 41.0605 48 34.9434 48 28C48 16.9543 39.0457 8 28 8C16.9543 8 8 16.9543 8 28C8 39.0457 16.9543 48 28 48C28.3471 48 28.6921 47.9912 29.035 47.9737L30.2928 37.1365C30.1639 37.1407 30.0345 37.1429 29.9047 37.1429H29.8809C29.1081 37.1429 28.0533 37.1429 27.0398 37.0409C26.6303 36.9998 26.1825 36.9385 25.7367 36.8381C25.6134 37.1579 25.4451 37.4983 25.2153 37.8304C24.7453 38.5094 24.028 39.1338 22.9855 39.4555C21.9622 39.7714 20.7357 39.7622 19.2845 39.3859C18.5175 39.1871 17.6162 38.7299 16.8546 38.1104C16.1037 37.4995 15.3201 36.5919 15.0787 35.4225C15.0161 35.1194 14.8751 34.8464 14.7177 34.68C14.0303 33.9528 13.6494 33.0257 13.4353 32.2087C13.2175 31.3777 13.1429 30.5481 13.1429 29.9048C13.1429 28.4627 13.5381 27.3105 14.2542 26.4486C14.9585 25.6008 15.8704 25.1575 16.6907 24.9296C17.2951 24.7617 17.8839 24.7006 18.3771 24.6872C19.1058 19.1013 24.0968 14.6666 29.9047 14.6666C36.1925 14.6666 41.3333 19.6743 41.3333 25.9048C41.3333 27.4407 41.0192 28.9072 40.4502 30.2433L39.0898 44.6463ZM36.2629 46.2187L37.3784 34.4071C36.1329 35.4665 34.6527 36.2651 33.0259 36.7183L31.7574 47.6477C33.3323 47.3482 34.8421 46.8641 36.2629 46.2187ZM20.9586 25.7744C22.0301 27.7771 23.1546 29.6789 24.2245 31.488C24.7434 32.3656 25.2501 33.2223 25.7309 34.0573C26.059 34.1946 26.585 34.3151 27.3067 34.3877C28.1761 34.4751 29.1098 34.4762 29.9047 34.4762C30.4731 34.4762 31.0278 34.4234 31.564 34.323C34.4253 33.7869 36.7869 31.8887 37.9272 29.3571C38.4024 28.3022 38.6666 27.1352 38.6666 25.9048C38.6666 21.1947 34.7679 17.3334 29.9047 17.3334C25.153 17.3334 21.1391 21.2022 20.9586 25.7744ZM21.9779 32.9289C20.9463 31.1835 19.8299 29.2952 18.7802 27.3537L18.7743 27.3535C18.3721 27.3411 17.8742 27.3685 17.4045 27.499C16.9392 27.6282 16.5654 27.8397 16.3054 28.1526C16.0571 28.4513 15.8095 28.9658 15.8095 29.9048C15.8095 30.3632 15.8649 30.9606 16.0149 31.5326C16.1683 32.1184 16.3927 32.5699 16.6555 32.848C17.2063 33.4306 17.5445 34.1769 17.6903 34.8834C17.7578 35.2106 18.0294 35.6285 18.5374 36.0417C19.0347 36.4463 19.5963 36.7119 19.9536 36.8046C21.0738 37.095 21.7759 37.0382 22.199 36.9075C22.6029 36.7829 22.8499 36.5621 23.0227 36.3125C23.2094 36.043 23.3177 35.7232 23.3757 35.4422C23.3827 35.4078 23.3889 35.3747 23.3943 35.3434C22.9533 34.5789 22.4758 33.7711 21.9786 32.9302L21.9779 32.9289ZM30.2528 24.3042C29.3053 24.7449 28.7154 25.2354 28.5379 25.5015C28.1295 26.1142 27.3017 26.2798 26.6889 25.8713C26.0762 25.4629 25.9107 24.635 26.3192 24.0223C26.9037 23.1456 28.0281 22.3979 29.1281 21.8863C30.2685 21.3559 31.6541 20.9523 32.9523 20.9523C33.6888 20.9523 34.2857 21.5494 34.2857 22.2857C34.2857 23.0221 33.6888 23.6191 32.9523 23.6191C32.1555 23.6191 31.1601 23.8822 30.2528 24.3042Z" fill="white"/>
</svg>
