<svg width="56" height="56" viewBox="0 0 56 56" fill="none" xmlns="http://www.w3.org/2000/svg">
<rect width="56" height="56" fill="#06A284"/>
<path d="M32.1748 37.0008C32.0576 37.0299 32.0872 37.1466 32.2031 37.1175C32.0872 37.1466 32.0872 37.2926 32.2031 37.2633H32.2327C32.2031 37.2926 32.2327 37.3509 32.2907 37.3509C32.2907 37.4092 32.3203 37.4675 32.3203 37.4675C32.3783 37.4675 32.4079 37.4383 32.4079 37.4092C32.4363 37.3799 32.4955 37.3799 32.5238 37.4092C32.5831 37.4092 32.641 37.4092 32.641 37.4968C32.7286 37.4968 32.7582 37.5551 32.7866 37.5843C32.9334 37.701 32.9618 37.8759 33.0197 38.0511L32.9914 38.0803C32.9914 38.0803 33.0494 38.197 33.1665 38.2846C33.2541 38.5762 33.4292 38.7222 33.6623 38.8679C33.7203 38.9555 33.8659 39.0722 33.9831 39.189L33.9535 39.1015V39.0139C34.041 39.0722 34.1286 39.1306 34.2162 39.2182C34.2458 39.2182 34.2754 39.189 34.2754 39.189C34.3334 39.2473 34.363 39.3349 34.421 39.364C34.4494 39.364 34.479 39.364 34.5086 39.3349C34.7121 39.5682 34.7713 39.8892 34.9465 40.0933C35.0921 40.2393 35.4423 40.4435 35.5878 40.6769C35.763 40.9103 36.0837 40.9979 36.2589 41.2313C36.3169 41.1437 36.3465 41.2605 36.4045 41.2313C36.4045 41.2605 36.4045 41.3189 36.4341 41.3189L36.6672 41.4063C36.6092 41.3771 36.5796 41.3189 36.55 41.2896C36.9879 41.5813 37.3962 41.9315 37.8341 42.2525C38.9726 43.2153 40.0803 44.3239 41.2188 45.3158C41.1892 45.2283 41.1892 45.17 41.2484 45.1409C41.4223 45.2867 41.6851 45.6076 41.8603 45.6369C41.394 45.1409 40.8686 44.674 40.6934 44.0905C40.8686 44.1196 40.9561 44.1196 41.1016 44.2364C41.0436 44.2656 41.014 44.2947 41.014 44.353C41.1312 44.2656 41.1608 44.353 41.1892 44.3822C41.9775 45.2576 42.794 46.0745 43.6402 46.8622C43.1739 46.1329 42.4437 45.6952 42.065 44.9949C42.7657 45.6076 43.465 46.2203 44.1077 46.9497L44.8663 47.7376C44.8663 47.65 44.8946 47.5916 44.8946 47.5332L44.1077 46.6872C43.845 46.4245 43.523 46.1329 43.3491 45.8702C43.1147 45.4909 42.9988 45.1116 42.6189 44.8782C42.6189 44.9658 42.736 45.0825 42.678 45.1409C42.1526 44.6449 41.5099 44.0905 41.1608 43.4778C41.2188 43.4195 41.3064 43.6237 41.3064 43.5069C41.1312 43.3902 40.9857 43.1569 40.8686 42.8942C40.781 42.8942 40.8686 43.0109 40.7514 42.9526C40.4307 42.515 39.8472 42.2816 39.614 41.7273C39.7016 41.7565 39.7892 41.7856 39.9064 41.7856C40.0519 41.8149 39.0602 41.4355 39.2057 40.9979C39.3513 40.6478 39.4092 41.2605 39.9348 41.3771C40.1395 41.4063 40.1099 41.2313 40.1975 41.1437C41.014 41.9315 41.6851 42.5733 41.9775 42.8069V42.7193C41.8899 42.5733 41.7727 42.5442 41.7727 42.3982L41.8023 42.3109C42.3278 42.9235 43.3491 44.3822 44.1941 44.4698C44.1077 44.3822 44.0485 44.3239 44.0485 44.2072C44.0781 44.0613 44.1657 44.0905 44.3113 44.0905C44.1657 44.0029 44.0781 43.9738 43.9326 43.9738V44.0905C43.7574 44.0613 43.5526 44.0322 43.465 43.8279C43.5526 43.8279 43.6982 43.8279 43.7278 43.7112C43.4947 43.7112 43.3491 43.682 43.2023 43.4486C43.2899 43.3902 43.3775 43.3902 43.4367 43.3902C43.4367 43.3027 43.4367 43.3027 43.3775 43.2153C43.2899 43.1569 43.0863 42.8942 43.0271 42.8942C42.9396 42.8069 42.8236 42.7484 42.8236 42.7484L42.7064 42.7776L42.6485 42.4858C42.503 42.5442 42.5905 42.7193 42.4437 42.7776L41.9195 42.194V41.9606C41.9195 41.8149 42.065 41.8731 42.0934 41.8731C42.065 42.1066 41.8319 42.0482 42.2686 42.3109L42.2982 42.1357C42.2982 41.8439 41.9478 41.8149 41.9478 41.5813H41.9195C41.9195 41.5522 41.9478 41.4938 41.9478 41.4646C41.8899 41.4938 41.8603 41.4355 41.8023 41.4063C41.7727 41.4063 41.7727 41.4063 41.7443 41.3771H41.7147V41.2605C41.4519 41.2605 41.3644 40.9979 41.2484 40.8519C40.9857 40.4435 40.665 40.035 40.2851 39.7142C40.2555 39.5975 40.1099 39.4223 39.8188 39.0722C39.672 38.9263 40.839 39.8017 40.781 39.6849C40.5478 39.3057 42.4154 39.7142 42.4154 39.7142L41.8899 39.3057C42.0071 39.2765 41.8603 38.8097 41.8603 38.7513V38.6638L41.7147 38.7806V38.693L41.5099 38.8389H41.4816C41.4816 38.6638 41.5395 38.5471 41.6567 38.4595H41.6271C41.5099 38.4595 41.4816 38.3137 41.5975 38.3137C41.6567 38.3137 41.6851 38.4012 41.6567 38.4303L41.8319 38.3429L41.8603 38.5179H41.9775C41.9775 38.6346 42.0354 38.7222 42.123 38.8972H42.0071L42.0934 39.2473C42.2402 39.2473 42.2402 38.8972 42.2106 38.7513C42.2106 38.5179 42.123 38.4303 42.0934 38.197H42.181V38.1386H42.065L41.7147 37.9928L41.5975 38.0803C41.5975 37.9343 41.4816 37.9343 41.4519 37.9343C41.2484 37.9343 41.2188 37.9343 41.2188 38.0803L41.2484 38.1678L41.2188 38.2262C41.2188 38.2262 41.0732 38.197 40.9857 38.1095L40.8982 38.0219L40.9857 37.8759C40.9857 37.9635 41.0732 37.9635 41.1312 37.9635L41.1016 37.7886H41.1892C41.2188 37.7593 41.2188 37.5551 41.2188 37.4675C41.2188 37.4675 41.1892 37.3509 41.1016 37.3509H41.0436L41.014 37.1175C41.014 37.1175 41.1608 37.2633 41.1892 37.2342L41.394 37.1466C41.1892 36.9715 41.0141 37.0299 40.781 37.0299C40.781 36.8841 40.8389 36.8841 40.8105 36.7673C40.7229 36.6215 40.6354 36.5632 40.5182 36.5632C40.5182 36.5923 40.5775 36.7966 40.6934 36.7966C40.5478 36.9132 40.4603 37.0299 40.4023 37.1466L40.3147 37.0591L40.1679 37.1466L40.0803 37.1759H39.9927C40.3147 37.0299 40.4603 36.9132 40.4307 36.5632C40.2851 36.5632 39.9644 36.4756 39.9064 36.4464L39.8768 36.213L39.5561 36.2422V36.0379L39.7312 36.0088V35.9796C39.6436 35.8922 39.4968 35.8629 39.4968 35.8629L39.1761 36.0088C39.1761 36.0088 39.1477 36.0088 39.0885 36.0379C39.2353 35.9796 39.1477 35.7754 39.2933 35.7754V35.6879C39.2933 35.6003 39.2637 35.5128 39.2353 35.4545C39.2933 35.4252 39.2637 35.3086 39.2353 35.3086C39.1761 35.3086 39.1761 35.3377 39.1761 35.367C38.9726 35.221 38.6507 35.3086 38.6223 34.9585L38.4768 35.0752C38.2424 35.0752 38.0389 34.7542 38.0092 34.6083L37.8921 34.6375C37.8921 34.4916 37.9796 34.2875 37.7465 34.3166C37.7465 34.2583 37.7181 34.1707 37.8637 34.1707C37.8637 34.1415 37.8057 34.0248 37.7181 34.0248L37.5713 34.1707C37.6305 34.0248 37.4837 34.0248 37.4837 33.9082H37.6305V33.7915H37.6009C37.6009 33.6747 37.6885 33.6163 37.6009 33.4412C37.3962 33.3539 37.2802 33.4412 37.2211 33.558L37.1631 33.5872L36.9879 33.4705H37.1631V33.3539C37.0755 33.3246 36.9004 33.1203 36.9004 33.1203L36.7548 33.2663L36.5796 33.1203L36.7252 33.0328L36.6672 32.8579C36.7548 32.7995 36.8128 32.7412 36.7844 32.6536C36.7548 32.4785 36.3465 32.5076 36.4045 32.7995C36.2589 32.7412 35.705 32.2452 35.6458 32.1868C35.5582 32.0992 35.3547 31.8659 35.3831 31.7783C35.4127 31.7783 35.4423 31.8075 35.4706 31.8075H35.5003C35.5003 31.8366 35.5582 31.8659 35.5878 31.9242L35.6175 31.9534L35.7334 32.0992C35.705 32.1283 35.705 32.1868 35.7334 32.2452C35.763 32.2743 35.8506 32.2743 35.9086 32.2452C35.9962 32.3326 36.0541 32.3619 36.0541 32.3326C36.0541 32.3035 36.0258 32.2743 35.9665 32.2159C35.9962 32.2159 36.0258 32.1868 36.0541 32.1576C36.0258 31.9825 35.879 31.9534 35.7914 32.0409L35.7334 31.9825C35.821 31.9534 35.879 31.7783 35.7914 31.7199C35.705 31.6908 35.6175 31.7492 35.5878 31.8366C35.5582 31.8075 35.5299 31.8075 35.5299 31.7783C35.6754 31.7492 35.6754 31.6908 35.8506 31.6325C35.9086 31.574 35.9382 31.5156 35.9665 31.4573C35.9665 31.5449 36.0258 31.5449 36.0258 31.4573C36.0258 31.4282 35.9962 31.399 35.9962 31.399V31.3407V31.2823C35.9962 30.9614 35.6175 30.7572 35.2376 30.7863C35.208 30.8739 35.2376 30.9614 35.2376 31.0781H35.208C35.1796 31.0196 35.1204 30.9905 35.0921 30.9614L35.2376 30.7572C35.3547 30.7572 35.3831 30.7572 35.4706 30.6405H35.3547L35.2672 30.6988C35.3252 30.5821 35.3547 30.4654 35.3251 30.3195C35.0624 30.2612 34.5962 30.5236 34.479 30.8447L34.0127 30.4363C34.0707 30.4363 34.1286 30.407 34.1582 30.3487C34.2162 30.3487 34.2162 30.3195 34.2162 30.2903C34.2458 30.232 34.2458 30.1736 34.2458 30.1152H34.6245C34.5962 29.8819 34.2162 29.8819 34.3038 29.736L33.8375 29.3567C33.8955 29.2692 33.8659 29.1525 33.7499 29.0358C33.6623 29.0358 33.6044 29.0649 33.5451 29.0941C33.0494 28.6565 32.4659 28.1896 32.4079 28.248L31.6776 27.5478L31.5322 27.5769C31.3286 27.5769 31.1535 26.7309 30.7735 26.9935L30.5983 26.8184C31.4446 25.6805 32.2907 24.5427 33.079 23.4049C33.1369 23.4049 33.2245 23.3756 33.3121 23.2882C33.2825 23.1422 33.3416 23.0256 33.3121 22.8796C33.4576 22.6755 33.5748 22.5004 33.6044 22.3837L33.1949 22.9089C33.079 22.9089 32.9914 22.7922 32.8458 22.9089C32.7582 22.9964 32.7582 23.2006 32.8742 23.3173C32.3783 23.8716 31.912 24.426 31.357 24.8345C31.3866 24.6302 31.357 24.5427 31.5618 24.2802C31.5901 24.3093 31.6492 24.3093 31.7072 24.2802C31.5913 24.2218 31.7072 24.1342 31.7652 24.0758L33.1665 22.3253C33.2825 22.3837 33.3996 22.3837 33.4576 22.3837C33.5451 22.2378 33.5168 22.0919 33.4576 21.946L33.8659 21.45C33.8659 21.5959 33.9831 21.7418 34.1003 21.8293C34.0127 21.9169 33.8955 22.0044 33.8659 22.0919C33.9831 21.9753 34.1003 21.8877 34.1582 21.9753C34.1878 22.0919 34.0127 22.2378 33.9535 22.3545C34.1582 22.1795 34.3334 21.9753 34.479 21.8002C34.5369 21.7418 34.5962 21.6835 34.6245 21.5959C34.9169 21.2166 35.15 20.8666 35.4127 20.4873C34.9749 20.8373 34.8589 21.1291 34.6245 21.45C34.5962 21.3625 34.5369 21.275 34.4494 21.2458C34.8589 20.8957 35.2376 20.4873 35.4127 20.1079L35.2376 20.283C35.2376 20.1371 35.0921 19.9913 34.9465 20.0205L35.2956 19.5245C34.5086 20.283 33.9831 21.1291 33.3416 21.8585C33.3121 21.8293 33.2541 21.8002 33.2245 21.8002C33.5748 21.275 33.9831 20.7498 34.363 20.2246C34.421 20.2246 34.4494 20.1955 34.479 20.1371V20.1079L35.4423 18.8826L36.1417 17.9782C36.2009 18.0949 36.3761 18.1531 36.4341 17.949C36.4341 17.9198 36.3465 17.8614 36.2885 17.8322L36.3465 17.7447V17.8614C36.4921 17.6863 36.8128 17.453 36.872 17.2195L36.3761 17.7155C36.5796 17.453 36.7844 17.1903 37.0176 16.957C37.0176 16.9862 37.0176 17.0445 37.0471 17.0445C37.1346 17.0445 37.163 16.9278 37.0754 16.8986C37.1926 16.7527 37.3087 16.6361 37.4258 16.5485C37.8921 15.6441 38.7383 14.7979 39.5561 13.8351C40.2555 13.0474 40.8981 12.0846 41.5975 11.2093L43.1739 9.22538C43.3195 9.05033 43.7858 8.49599 43.5822 8.72939C40.665 12.143 37.7761 15.6732 35.0624 19.0577C35.0624 19.0577 35.034 19.0869 35.034 19.1159C34.8873 19.0285 34.7997 19.0285 34.7121 19.1451C34.7121 19.2618 34.7713 19.3202 34.8589 19.3202L34.5962 19.6703C34.5665 19.6411 34.5086 19.6411 34.479 19.6703C34.5086 19.6995 34.5086 19.7287 34.5086 19.7578L34.3914 19.9329C34.3334 19.9037 34.2754 19.9037 34.2162 19.9037C34.1286 19.9913 34.1582 20.1079 34.2162 20.1663L33.8659 20.5456C33.5451 20.8666 33.2245 21.1291 32.9618 21.3917C33.0494 21.2458 33.1073 21.0709 33.1369 20.8666C33.2541 20.0496 33.8079 19.4953 34.3914 18.9701C34.5369 18.8534 34.7417 18.7075 34.7417 18.445C34.6837 18.4158 34.6837 18.2991 34.7713 18.2991C34.8293 18.2991 34.8589 18.2991 34.8589 18.3574C34.8873 18.2991 34.9169 18.2699 34.8873 18.2115H35.0045V18.1823H34.9749C34.9749 18.1823 35.0045 18.1531 35.034 18.1531C35.1204 18.0949 35.15 17.9782 35.15 17.8906C35.1796 17.8614 35.15 17.8031 35.1204 17.7739C35.1796 17.7739 35.2956 17.6863 35.4127 17.5989C35.4423 17.5697 35.4706 17.5697 35.4706 17.5405C35.5582 17.6863 35.7334 17.7447 35.879 17.5989C35.879 17.5113 35.821 17.4238 35.705 17.3363C35.879 17.1612 36.0258 17.0154 36.0258 16.9278C35.9962 16.7819 36.1713 16.8694 36.2885 16.6361H35.9962L36.1417 16.4902C36.3761 16.4026 36.3465 16.2567 36.4921 16.1401L36.4045 16.0817V15.9942L36.4921 15.9066C36.6376 15.8483 36.7844 15.5274 36.7844 15.5274L36.93 15.5857C36.93 15.4982 36.9595 15.469 37.0754 15.3523C36.9595 15.2356 36.9596 15.2647 36.93 15.2647C36.9004 15.0314 37.1348 15.0022 37.3678 15.0022L37.1346 14.8855C37.163 14.6229 37.3678 14.4479 37.5134 14.2728C37.5134 14.3603 37.6009 14.3603 37.6009 14.2728C37.6009 14.2436 37.5713 14.2144 37.543 14.2436C37.6305 14.0978 37.7181 13.9811 37.7181 13.806L37.3382 14.1561C37.3382 13.9227 37.4554 13.6602 37.4258 13.4267C37.1927 13.4559 36.1417 14.8271 36.0541 15.0898H36.2009C36.0837 15.2939 35.5582 15.5857 35.5878 15.8191H35.7914C35.6458 15.9066 35.4127 15.965 35.2672 15.9942V15.9358C35.2376 15.7024 35.3831 15.5857 35.5582 15.5857C35.5582 15.5566 35.4706 15.4398 35.4706 15.4398C35.5582 15.4398 35.6175 15.3815 35.705 15.2647C35.7334 15.2939 35.7334 15.3231 35.763 15.3231C35.821 15.3231 35.821 15.2064 35.7914 15.1481C35.9382 14.973 36.0541 14.7688 36.1713 14.6812L35.7334 14.7104C36.1713 14.6521 37.0755 13.9227 37.0471 13.4559C37.0471 13.31 36.7252 13.3392 36.7252 13.1058L36.6968 13.0182C36.6968 12.9599 37.1346 12.3764 37.1346 12.318L36.9879 12.3764V12.318C36.9595 11.9679 37.9513 11.326 37.9217 10.9176L37.2211 11.7345H37.1926C37.1926 11.7637 37.1926 11.9679 37.105 11.9679H36.9879L36.9596 11.8512C37.1926 11.7345 37.1631 11.5011 37.1631 11.2677V10.9759C37.0755 11.1218 36.7548 11.6178 36.6376 11.6178L35.763 12.5222L35.6754 12.5514C35.763 12.4347 36.1713 12.0263 36.1713 11.9096C36.1713 11.822 36.1134 11.7929 36.0258 11.7929C36.1713 11.647 36.8128 10.8884 36.93 10.7425L37.1346 10.5091C36.6968 10.5966 36.3169 11.151 36.0837 11.4427H35.9962L36.0541 11.326L36.3465 10.9176H36.2885C36.2885 10.9176 36.1417 11.1802 36.0837 11.0926L35.3547 11.8512L35.1796 11.8804C35.2672 11.822 35.6175 11.4719 35.6175 11.3552C35.6175 11.2385 35.5299 11.2093 35.4706 11.2093C35.6175 11.0635 35.7334 10.8592 35.821 10.7134C35.5878 10.8884 35.3252 11.2093 35.2672 11.5886L35.1796 11.6178C35.1204 11.6178 34.9465 11.7345 34.8873 11.8512V11.7345C34.6541 11.7637 34.5962 11.9096 34.5962 12.1138C34.6837 12.1138 34.6837 12.2013 34.5962 12.2305V12.1138C34.5665 12.1138 34.5665 12.2305 34.5962 12.2305V12.3472C34.363 12.3472 34.4494 12.3764 34.3334 12.2305L34.421 11.9971V11.9096H34.3038C34.3334 12.2305 33.8955 13.1058 33.4292 13.1349C33.4576 13.1933 33.5451 13.1933 33.6044 13.1933C33.5748 13.31 33.4872 13.3392 33.4292 13.3683C33.4576 13.3975 33.4576 13.5142 33.3996 13.5142C33.3416 13.5142 33.3121 13.4559 33.3416 13.4267C33.2541 13.4559 33.1949 13.5142 33.2541 13.7476L33.1665 13.6602L33.0494 13.7768L33.1073 13.8643V13.9227C32.9618 14.0686 32.7866 14.1852 32.6706 14.302L32.7582 14.3895C32.6707 14.6229 32.5238 14.5062 32.3783 14.5062V14.3311C32.2327 14.3311 32.2327 14.5062 32.0576 14.5354H31.912L32.2327 14.3311L32.0279 14.2144L32.4363 14.0978L32.4955 14.1852H32.5831L32.641 14.0102V13.9227L32.1155 13.9519C32.1155 13.9519 31.97 14.2144 31.8824 14.127L31.5322 14.5646L31.5037 14.2436L31.0363 14.7104C31.0659 14.6229 31.2114 14.477 31.2114 14.3895V14.3311H31.1818C31.1818 14.0978 31.8528 13.8351 31.6197 13.6018L32.4955 12.4347C32.3783 12.4931 32.2623 12.5514 32.2031 12.639C32.0872 12.7265 31.9996 12.8432 31.912 12.9599V12.9891L31.7948 13.1058C31.7072 13.2516 31.5913 13.3683 31.4742 13.4851V13.5434L31.3865 13.631L31.4161 13.5434C31.357 13.631 31.299 13.6602 31.241 13.7184C31.357 13.7184 31.3866 13.8643 31.2694 13.8643C31.2114 13.8643 31.1818 13.806 31.1818 13.7768L30.8031 14.0394C30.7451 14.127 30.6576 14.2144 30.57 14.2728C30.57 14.3603 30.4232 14.4479 30.4232 14.6229V14.6812L30.57 14.5062H30.5983C30.57 14.5938 30.5108 14.7396 30.4232 14.7688H30.3356L30.248 14.6812C30.248 14.6229 30.2776 14.5646 30.2776 14.5062C30.248 14.623 30.19 14.7396 30.1321 14.8271C30.1617 14.8855 30.2196 14.9147 30.2776 14.9147L30.1321 15.1481C29.9865 15.2647 29.4611 15.9066 29.3439 16.0234L29.3155 15.9358C29.577 15.5566 29.8693 15.2939 30.1321 15.0022C29.0528 15.2064 29.1687 16.6652 28.4101 17.1612L28.5569 17.1321L28.1769 17.5405C28.061 17.453 27.3604 18.2407 27.1852 18.4741V18.445C27.2432 18.2115 27.1556 18.2991 27.3308 18.2407C27.39 18.0949 27.4764 18.0949 27.4764 17.949L27.39 17.9782C26.4266 18.3282 26.8349 19.291 26.1059 20.0496C25.7556 20.3706 24.7638 22.2086 24.4715 22.2086C23.217 21.5376 21.8454 20.3706 21.2336 19.8746C20.9708 19.6703 19.5412 18.5617 18.7246 18.6491V18.445L18.5779 18.5033L18.637 18.2991L18.4618 18.2115V18.4158L18.3742 18.445C18.3163 18.445 17.966 18.2407 17.8784 18.2407C17.966 18.0949 17.9068 18.0073 17.8192 17.949C17.8784 17.7155 17.9364 17.5405 17.7316 17.4238C17.3825 17.3654 17.3529 17.5989 17.0606 17.5989C17.0322 17.6572 17.0322 17.6863 17.0026 17.6863L16.4192 17.8614C16.4772 17.8031 16.5068 17.7447 16.5068 17.6281C16.3316 17.453 16.0985 17.7739 16.2737 17.9198C16.1565 17.949 16.0109 17.9782 15.8357 17.9782C15.4854 18.0073 15.2226 18.2115 15.0475 18.445C14.9599 18.4741 14.9315 18.5325 14.8723 18.5617C14.8439 18.4741 14.8439 18.4158 14.7564 18.3866C14.786 18.1823 14.9315 18.0949 14.9599 17.8906C14.7269 17.9198 14.6393 17.9198 14.3765 17.8614C14.4061 17.7739 14.3482 17.7155 14.2889 17.6863C14.2606 17.9782 13.8806 18.1823 13.6179 17.949C13.3847 18.0073 13.1812 18.0949 13.1812 18.2991C13.1812 18.7075 13.8226 18.5909 13.9398 18.2991C14.0854 18.5617 14.4641 18.8242 14.8143 18.6491C14.8439 18.6491 14.8439 18.6783 14.8723 18.7075L14.6393 19.1743V19.0869C14.4357 18.9118 14.173 19.0869 14.0854 19.2618C14.173 19.4369 14.3765 19.4661 14.5517 19.4078C14.4357 19.6411 14.3482 19.787 14.2014 19.8162C13.9682 19.8162 15.6902 20.6039 15.457 20.6039C15.457 20.779 14.115 19.8162 14.115 20.0496C14.173 20.7498 12.3634 20.9249 13.0344 23.2006L13.2096 23.6674C13.4427 23.7842 14.3765 24.426 14.3765 24.6593C14.4061 25.1262 12.7433 23.8425 12.7433 24.1633L14.3482 25.2429L14.2606 25.2721C14.4061 25.2429 14.786 25.2429 14.9019 25.4472C14.8723 25.2429 14.9599 25.1845 15.1067 25.1845C15.0191 25.3305 15.1647 25.3305 15.1943 25.4472C15.2819 25.4472 15.4274 25.4472 15.4274 25.418C17.1198 26.264 18.7825 27.3143 20.3577 28.3356C19.2205 31.1072 12.335 37.4383 13.122 38.7513C13.0344 38.7806 12.9765 38.8679 12.8593 38.8389C12.8309 38.9555 12.7717 39.043 12.6854 39.1015C12.5978 39.3639 12.7717 39.5682 13.0061 39.539C13.0061 39.6266 13.064 39.7142 13.064 39.8309C12.8593 39.8309 12.8593 40.2102 13.0937 40.0933C13.122 39.7725 13.6179 39.8309 13.793 39.5682C13.8226 39.5099 13.8226 39.4223 13.7647 39.3932C13.8226 39.3932 13.8523 39.364 13.9102 39.364C13.8806 39.4806 13.9682 39.5682 13.9682 39.7142C13.9978 39.7433 14.0274 39.7725 14.0558 39.7725C14.0274 39.7725 13.9978 39.7725 13.9398 39.8017C13.8226 40.035 14.0558 40.2102 14.173 40.0059C14.173 39.9183 14.173 39.8599 14.115 39.8017C14.231 39.8599 14.3185 39.8017 14.4641 39.8017V39.8309C14.4937 39.8309 14.5233 39.8017 14.5517 39.8017H14.6109C14.6689 39.8017 14.6984 39.8599 14.7564 39.8599C14.8143 39.8599 14.8723 39.8309 14.9315 39.8309C14.9315 40.035 14.9599 40.3559 15.1647 40.2977C15.2226 40.2393 15.2523 40.1809 15.2819 40.0933C15.2819 40.2102 15.3695 40.1809 15.457 40.1518C15.4854 40.0933 15.4854 40.0059 15.457 39.9183C15.3695 39.9766 15.3398 40.0059 15.2819 39.9766V39.8309C15.1943 39.8309 15.1647 39.8017 15.1067 39.7725C15.1647 39.7433 15.2226 39.6849 15.2819 39.6266L15.3102 39.8309C15.3695 39.8017 15.5434 39.8017 15.5434 39.6558H15.457L15.4274 39.5975L15.515 39.5099V39.4223L15.457 39.364C15.4854 39.3349 15.4854 39.3349 15.4854 39.3057H15.515C15.5434 39.2473 15.5434 39.2182 15.515 39.189C15.631 39.189 15.6606 39.2765 15.6606 39.364C15.6606 39.5975 15.6026 39.8017 15.6026 39.9766C15.6902 39.9766 15.7778 39.8892 15.8357 39.8017C15.9233 39.8599 16.0689 39.8599 16.0689 39.9475L15.9813 40.0933H16.0689L16.1565 40.0059C16.1565 40.0059 16.2737 39.8599 16.4192 39.6266C16.4488 39.7142 16.4772 39.7725 16.5364 39.7725L16.4487 39.9183H16.4192C16.3896 39.9183 16.3896 39.9475 16.3896 39.9766C16.2737 40.1809 16.1861 40.3269 16.1861 40.3559L16.2441 40.5602C16.2441 40.6478 16.2157 40.7062 16.2157 40.7936C16.2157 40.8229 16.3611 40.9686 16.4487 40.9395L16.5944 40.9103V41.1437L16.5648 41.1146C16.5363 41.1729 16.5648 41.2313 16.5944 41.2313C16.6239 41.2022 16.6239 41.1729 16.6239 41.1729C16.6239 41.1146 16.6523 40.9395 16.8274 40.9395C16.857 40.9395 16.973 40.9103 16.973 40.9979L16.857 41.1729L16.973 41.1437C17.0902 41.1437 17.1482 41.1146 17.2357 41.1146L17.2074 40.9979V40.9103C17.3529 40.9395 17.4701 40.9979 17.5577 41.0853L17.7612 40.9686C17.8784 40.8519 17.8784 40.7645 17.9944 40.6769C18.1412 40.5602 18.2868 40.3851 18.4027 40.2102H18.5198V40.0933C18.5778 40.0933 18.637 40.0642 18.695 40.035C18.9873 39.6558 19.2784 39.3639 19.6868 39.1598C19.7164 39.1306 19.7164 39.043 19.7447 38.9846C20.1826 38.5762 20.4749 38.1095 20.8536 37.6426C20.9412 37.5259 21.0288 37.4383 21.1743 37.3799C21.2039 37.3509 21.2039 37.2342 21.2336 37.205L21.6123 36.8841C21.3495 37.6426 19.9495 39.1015 19.6584 39.7142C19.3081 39.7725 18.6074 40.9103 18.6654 40.9395C19.1909 41.2313 19.7164 40.0059 19.8915 39.9766C20.0075 39.8309 20.766 38.7513 21.0004 38.5762C21.0004 38.7806 20.7377 39.0139 20.7081 39.2182C20.4749 39.3349 20.0371 40.1809 20.2123 40.1809C20.2419 40.2977 20.9708 39.1306 20.9708 39.2473C21.2336 39.043 20.9128 39.9766 21.5247 39.3932C21.5839 39.3349 21.6419 39.2473 21.7295 39.189C21.6998 39.1598 21.6715 39.1015 21.6998 39.0722C21.6998 38.9846 21.6998 38.8972 21.8454 38.8389C21.817 38.7513 21.933 38.6638 21.9626 38.6055C22.1673 38.3137 22.5164 38.1386 22.8087 37.8759C22.8667 37.8177 22.8667 37.7302 22.9543 37.701C23.7425 37.1466 23.8596 36.4464 24.3259 35.7754L24.2963 35.7462L24.5591 35.4252C24.5591 35.4252 24.5307 35.3962 24.5307 35.367C24.8218 34.9585 25.3473 34.6667 25.6384 34.2875C25.8432 34.0248 26.1342 33.4996 26.4846 33.1496L26.6314 32.9745L26.7769 33.0912C26.7769 33.0328 26.7769 32.9452 26.8645 32.9452C26.9225 32.9452 26.9521 33.0912 26.8645 33.0912H26.8349C27.3604 33.4705 27.9734 34.0539 28.1473 34.229H28.061L27.9143 34.1999C27.9438 34.4625 28.2349 34.6959 28.4977 34.6667L28.6445 34.6375L28.79 34.7542L28.6728 34.9002L28.8776 34.8126H28.906C29.1404 34.7834 29.4031 35.3377 29.7521 35.367V35.3086C29.7521 35.2794 29.6646 35.1919 29.6363 35.1626H29.7521C30.1024 35.1335 30.4232 35.5128 30.8611 35.4836C30.8907 35.8629 30.9783 35.863 31.4161 35.8922L31.2694 35.9796C31.357 35.9796 31.3865 36.0672 31.3865 36.1255C31.6196 36.1546 31.6492 36.2422 31.7072 36.3297C31.7072 36.3006 31.7368 36.2713 31.7652 36.2713C31.7948 36.2713 31.7948 36.4172 31.7652 36.4172C31.8528 36.4756 31.97 36.4756 32.2327 36.4172L32.1748 36.5632L32.0576 36.6799C32.0576 36.7966 32.2623 36.8841 32.2623 36.8841C32.2907 36.8841 32.4079 36.8841 32.4079 36.8549V37.0299C32.4363 37.0299 32.641 36.8549 32.641 36.8549L32.6706 36.8841V37.0008L32.641 37.0299L32.5831 37.1466C32.5238 37.205 32.4363 37.2633 32.3487 37.2633H32.3203L32.2907 37.2342H32.2623C32.2623 37.1759 32.2623 37.1175 32.2327 37.1175C32.2907 37.0883 32.2327 37.0008 32.1748 37.0008ZM32.0872 13.5726V13.6602C32.1748 13.5726 32.3203 13.4267 32.4079 13.4267C32.4659 13.4267 32.6114 13.4559 32.699 13.4559C32.6114 13.5434 32.4659 13.5726 32.4659 13.7184L32.4955 13.806C32.5535 13.7184 32.8458 13.4559 32.9334 13.2225V13.3975C32.9334 13.631 32.8458 13.631 32.8162 13.7768L33.2245 13.2808V13.1933L33.1369 13.1349L33.4292 12.6681C33.4576 12.6973 33.5748 12.639 33.6907 12.5222C33.6623 12.5514 33.6623 12.5514 33.7203 12.5514C33.7499 12.5514 33.7499 12.5514 33.7499 12.4931L33.7203 12.4639C34.1286 12.0263 34.7417 11.0635 34.7417 10.9176C34.5369 11.1218 34.3334 11.7345 33.9535 11.7637H33.9251C33.9535 11.6761 34.1286 11.5011 34.1582 11.2969C33.8079 11.5303 33.0197 12.2305 33.0197 12.6098L33.0494 12.6973L33.1665 12.5806C33.1369 12.9891 32.9038 12.6973 32.8162 13.0182C32.8162 13.0766 32.7866 13.31 32.7866 13.31H32.699L32.6706 13.1641C32.4363 13.1933 32.0872 13.3392 32.0872 13.5726ZM35.0045 36.9424C34.9169 37.0008 34.9169 37.1175 35.0624 37.1759L35.1796 37.0883L35.4423 37.3217L36.3465 38.1678C36.7548 38.4887 37.2506 38.8972 37.1926 38.8972C37.1347 38.8972 37.0471 38.8679 36.9596 38.8097L37.1631 39.1015C37.1927 39.1015 37.1927 39.0722 37.2507 39.0722C37.3087 39.0722 37.3087 39.1598 37.2507 39.1598H37.2211V39.189C37.0755 39.043 36.93 38.8679 36.7548 38.7222C36.2885 38.4303 35.9086 37.9343 35.879 37.8469C35.5878 37.5843 35.2956 37.3509 34.9749 37.1466C34.9465 37.2342 35.0921 37.2633 35.0624 37.3217C34.7997 37.1759 34.5086 36.8549 34.3038 36.7966C34.3914 36.8841 34.5665 36.9715 34.5665 37.1175C34.363 36.9424 34.1878 36.7382 34.041 36.4464C34.1878 36.4756 34.2754 36.5923 34.421 36.6506C34.2754 36.4464 34.0706 36.3006 33.8955 36.1839C33.8955 36.2713 33.9831 36.3881 33.8955 36.4464C33.8659 36.3881 33.6623 36.3006 33.6623 36.0963C33.7203 36.1839 33.7783 36.2713 33.8659 36.213C33.7203 36.0672 33.5748 35.8922 33.3996 35.7462C33.3996 35.6879 33.3996 35.6295 33.3416 35.5712C33.9535 36.0379 34.5086 36.5339 35.0045 36.9424ZM31.299 23.8133C31.0942 23.7842 30.8327 23.9592 30.9783 24.1926L30.5404 24.6593C30.57 24.5426 30.5983 24.426 30.6576 24.3676L30.7451 24.2218H30.8031C30.8327 24.1926 30.8031 24.1342 30.8031 24.105C30.9191 23.8425 30.9783 23.5507 31.1238 23.2589C31.299 23.5507 31.7072 23.1131 31.357 22.9089L31.1818 22.9672C31.1818 22.938 31.1818 22.9089 31.2114 22.8796C31.6196 22.5296 32.0872 22.3545 32.4955 21.9753C32.4659 22.0336 32.4363 22.0629 32.4363 22.0919C32.5535 22.0336 32.7286 21.8002 32.7866 21.8293C32.6114 22.1211 32.4079 22.3837 32.2031 22.6755C32.2031 22.5004 31.9996 22.3837 31.8528 22.5879C31.8244 22.7046 31.9404 22.8505 32.0872 22.8213L31.9404 22.9964C31.8824 22.9672 31.7948 22.9964 31.6776 23.0547C31.6492 23.1422 31.6777 23.2298 31.7072 23.3173C31.5617 23.4632 31.4445 23.6382 31.299 23.8133ZM27.9143 32.0116C27.8858 31.9534 27.8267 31.8659 27.8267 31.8075L28.061 31.6908C28.1473 31.6908 28.2645 31.7199 28.3521 31.7783C28.1769 31.8075 28.0314 31.8366 28.0314 31.9825C28.0893 32.2159 28.5852 32.07 28.3817 31.8075C28.5569 31.895 28.7024 32.0409 28.848 32.1576C28.9652 32.2452 29.0811 32.3326 29.1983 32.391C28.9936 32.6828 29.3735 33.2079 29.6067 32.7995C29.6362 32.7995 29.6363 32.7412 29.6363 32.7119L30.0741 33.0328C29.9865 33.1496 29.9273 33.2955 29.9273 33.4412L27.9143 32.0116ZM12.1007 40.2393H12.0723C12.1599 40.0933 12.0143 39.8309 11.8392 40.0642C11.8392 40.2102 11.8675 40.2977 11.9551 40.2977L11.7516 40.3851C11.4592 40.7062 11.6048 41.2605 11.9551 41.2313C12.0143 41.2313 12.1007 41.1437 12.1882 41.1729C12.2178 40.9979 12.3634 40.8229 12.3634 40.6186C12.3634 40.3269 12.1599 40.4143 12.1007 40.2393ZM35.5878 29.3859C35.4706 28.5689 34.3914 29.1233 34.7417 29.6776C34.9465 29.9694 35.5003 29.7943 35.5878 29.3859ZM11.3717 41.2022C11.3421 41.0853 11.2557 41.0562 11.2261 40.9979C11.3421 40.8229 11.2261 40.531 10.993 40.7353C10.993 40.8229 10.9634 40.8811 10.993 40.9686C10.9054 41.027 10.8758 41.1437 10.8462 41.2605C10.7302 41.3189 10.7006 41.4063 10.6427 41.523C10.6427 41.8731 10.7882 42.0482 11.0806 41.9898C11.2261 41.9022 11.1681 41.6397 11.2261 41.4646C11.2841 41.3479 11.3717 41.3189 11.3717 41.2022ZM33.0494 27.1393C33.2541 26.7016 32.9914 26.1182 32.4079 26.2056C32.2327 26.5849 32.4363 27.256 33.0494 27.1393ZM39.9644 43.3319C39.8768 43.3611 39.8188 43.3902 39.8768 43.4778C39.7596 43.4486 39.7016 43.332 39.614 43.3028C39.614 43.2444 39.7016 43.2736 39.7016 43.186C39.3217 42.7484 38.8555 42.5442 38.4472 42.1357C38.3892 42.0773 38.4176 42.2525 38.3016 42.194C38.0672 42.0773 37.9513 41.6689 37.7465 41.4646C37.6305 41.4938 37.8341 41.6689 37.6885 41.698C37.5713 41.6106 37.6305 41.4355 37.6305 41.3479V41.3189H37.7761C38.0389 41.523 38.272 41.7565 38.5051 41.9606C39.0602 42.4275 39.614 42.9526 40.1099 43.4778C40.0223 43.5069 39.9927 43.4195 39.9644 43.3319ZM13.064 40.1809C12.9765 40.1518 12.9765 40.2685 12.8889 40.2685C12.8013 40.2977 12.8013 40.2393 12.7433 40.2685C12.6853 40.2977 12.6261 40.3851 12.5682 40.3851C12.5102 40.531 12.5386 40.6769 12.5978 40.7645C12.6557 40.7936 12.7137 40.7936 12.8013 40.7645C12.7717 40.8519 12.7717 40.9395 12.8013 41.0562H13.0344C13.1812 40.9395 13.0937 40.6477 13.0061 40.6186H12.9765C12.9765 40.5893 13.0061 40.5602 13.0061 40.531C13.0937 40.5019 13.122 40.4435 13.1516 40.3851C13.1516 40.2685 13.1516 40.1809 13.064 40.1809ZM15.7185 17.4238C15.6606 17.3071 15.6026 17.1612 15.4854 17.1029C15.3398 17.2779 14.9599 17.2779 14.9895 17.5697C15.0475 17.8906 15.6902 17.8322 15.7185 17.4238ZM28.5273 16.7235C28.6149 16.7235 28.6149 16.5777 28.5273 16.5777C28.7321 16.2859 28.9356 15.9358 29.0232 15.7024C28.6445 16.2859 27.8563 16.8986 27.8267 17.3946V17.4822C27.8858 17.4238 28.2065 17.0445 28.4977 16.6069C28.4977 16.6361 28.4977 16.7235 28.5273 16.7235ZM35.0045 20.5165C34.7417 20.7498 34.5086 20.9833 34.3914 21.2166C34.2754 21.1582 34.1582 21.1291 34.041 21.1875L34.7417 20.2538C34.7997 20.3706 34.8873 20.4873 35.0045 20.5165ZM16.6819 39.5682C16.6239 39.5099 16.5648 39.4806 16.5068 39.5099C17.0606 38.7513 18.082 37.3217 18.1116 37.3217C18.1116 37.4092 17.2357 38.693 16.6819 39.5682ZM32.4955 25.8265C32.641 25.7389 32.7286 25.6222 32.699 25.3889C32.6114 25.3013 32.4955 25.2137 32.2623 25.2429C32.0576 25.418 32.1748 25.914 32.4955 25.8265ZM38.214 12.7265L38.0389 12.639C38.0389 12.5806 38.0672 12.4931 38.0672 12.4347C37.9513 12.5514 37.8057 12.4639 37.6589 12.6681H37.7465C37.7761 12.6681 37.8341 12.6098 37.8637 12.5806C37.8341 12.7848 37.6589 12.8724 37.6589 13.0474H37.7465L37.9217 13.1641H38.0092C38.1548 13.0766 38.214 12.9307 38.214 12.7848V12.7265ZM31.3286 36.6799H31.299V36.6215C31.299 36.6506 31.3286 36.6506 31.3286 36.6799C31.299 36.5632 31.241 36.5048 31.1818 36.4464H31.2114C31.241 36.4464 31.2694 36.4172 31.2694 36.3881C31.299 36.4464 31.357 36.5048 31.4161 36.5632C31.4161 36.6215 31.4446 36.6799 31.4742 36.6799C31.5038 36.6799 31.5038 36.6506 31.5322 36.6215C31.5322 36.6506 31.5617 36.6506 31.5913 36.6799L31.5322 36.5923C31.5322 36.5339 31.5038 36.4756 31.4446 36.4756C31.357 36.3006 31.241 36.1546 31.0942 36.0963L31.1818 36.2713C31.1535 36.3006 31.1535 36.3881 31.1818 36.4464C31.0363 36.3006 30.8611 36.2422 30.7735 36.0088C30.7735 35.9796 30.8031 35.9796 30.8611 35.9796C30.8031 35.9504 30.7735 35.9212 30.7735 35.8922C30.7735 35.9212 30.7735 35.9796 30.7155 35.9796C30.6279 36.0088 30.5983 35.8922 30.5108 35.8629C30.57 35.9796 30.6279 36.0672 30.6859 36.1255C30.5983 36.1255 30.5983 36.3006 30.6859 36.3006C30.7155 36.3006 30.7451 36.1839 30.7155 36.1546L30.8031 36.2422C30.7735 36.2713 30.7735 36.3881 30.8327 36.3881C30.8907 36.3881 30.9191 36.3297 30.8907 36.3006C30.9191 36.3006 30.9191 36.3297 30.9487 36.3297C30.8907 36.3881 30.9191 36.4756 30.9783 36.4756C31.0067 36.4756 31.0363 36.4464 31.0363 36.4172L31.0942 36.4756H31.0659C31.0066 36.4756 31.0363 36.6215 31.0942 36.6215C31.1535 36.5923 31.1535 36.5339 31.1238 36.5048L31.241 36.5923C31.1818 36.5923 31.1818 36.709 31.241 36.709C31.2694 36.709 31.2694 36.709 31.299 36.6799C31.241 36.709 31.241 36.8257 31.3286 36.8257C31.4161 36.8257 31.4161 36.6799 31.3286 36.6799ZM31.3286 34.0248C31.299 34.0248 31.2694 34.0248 31.241 34.0539L31.3286 33.9956C31.6776 34.229 31.9996 34.4916 32.3487 34.7542C32.2327 34.725 32.0576 34.7834 32.0576 34.9585L31.9996 34.9002C31.9404 34.8126 31.97 34.7542 31.97 34.6959C31.8528 34.6375 31.7368 34.5499 31.6197 34.4625C31.6492 34.4625 31.6492 34.4332 31.6492 34.4332C31.5913 34.2583 31.4741 34.2583 31.3865 34.3459C31.3285 34.3459 31.299 34.3166 31.2694 34.3166C31.357 34.3166 31.4446 34.1123 31.3286 34.0248ZM36.1713 19.9037C36.0541 19.8162 36.1417 19.6703 36.1134 19.5537C35.9086 19.4953 35.7334 19.4661 35.5878 19.6995C35.6458 19.9913 35.9962 19.9621 36.1713 19.9037ZM39.4092 34.0832C39.2933 33.9956 39.1181 33.9082 38.9135 34.0539C38.9135 34.1415 38.8555 34.229 38.9135 34.375C39.0885 34.4916 39.4685 34.3166 39.4092 34.0832ZM38.5644 40.0642C38.4768 40.1518 37.4258 39.3349 37.4837 39.2765C37.6009 39.2473 38.6803 40.035 38.5644 40.0642ZM32.699 23.7258C32.3487 24.2802 31.97 24.8345 31.4446 25.3889C31.7948 24.8345 32.2031 24.2802 32.699 23.7258ZM34.5665 11.647V11.7637C34.7713 11.7053 35.0921 11.2677 35.0921 11.0926C34.8589 11.2093 34.5369 11.3844 34.5665 11.647ZM38.272 11.0635L37.3678 12.0554C37.6009 11.9679 38.272 11.4427 38.272 11.0926V11.0635ZM34.041 29.1816C34.0707 29.2692 34.1286 29.3567 34.1878 29.415C34.1003 29.415 34.1286 29.5901 34.2162 29.5901C34.2754 29.5901 34.2754 29.4443 34.2162 29.415C34.7713 29.2983 34.1878 28.744 34.041 29.1816ZM13.5895 40.3851C13.6179 40.2977 13.5895 40.0933 13.5019 40.0642C13.4144 40.035 13.3268 40.1226 13.2392 40.1809C13.2096 40.2977 13.2688 40.4435 13.2972 40.5602C13.4143 40.5602 13.5599 40.4726 13.5895 40.3851ZM18.2571 16.0817L18.4903 16.1984C18.5494 16.1401 18.6654 16.1109 18.6654 15.965C18.6074 15.8775 18.4902 15.8483 18.4322 15.8191C18.4322 15.6441 18.2868 15.6732 18.1992 15.7607C18.1696 15.9358 18.3447 15.9066 18.2571 16.0817ZM17.9068 16.9278C17.7909 16.8403 17.5577 16.8694 17.4985 16.9862C17.3233 17.3363 18.0536 17.3654 17.9068 16.9278ZM14.9599 41.0562C14.9599 40.9395 14.8723 41.027 14.6984 40.9395C14.6108 40.8811 14.6393 40.6769 14.4641 40.8229C14.4061 40.9395 14.4937 41.0853 14.5517 41.1437C14.6393 41.1146 14.6984 41.0562 14.7268 41.1437C14.7268 41.2313 14.6984 41.2605 14.7564 41.3189C14.8723 41.2605 14.9895 41.1729 14.9599 41.0562ZM16.3316 40.3269C16.302 40.3269 16.3611 40.2102 16.4487 40.0642C16.4771 40.035 16.4772 40.035 16.4772 40.0059C16.7115 39.6849 17.0902 39.189 17.1482 39.189C17.2357 39.189 16.4192 40.2977 16.3316 40.3269ZM37.105 31.3407C37.0471 31.3407 37.0175 31.3407 36.9879 31.2823C36.7844 31.3407 36.6672 31.4282 36.7548 31.6325C36.872 31.8075 37.2506 31.6032 37.105 31.3407ZM37.0471 12.9891C37.0176 12.9891 36.93 12.9599 36.93 12.8724C36.9004 12.9599 36.8128 13.1058 36.8424 13.1641V13.2225H36.9596L37.0754 13.31H37.1926C37.2802 13.31 37.3086 13.1641 37.2802 13.0766L37.1926 13.1641L37.2507 12.9015C37.2211 12.9599 37.1346 12.9891 37.0471 12.9891ZM32.4079 35.0168C32.4363 34.9585 32.4659 34.9002 32.4363 34.871V34.8418L33.3121 35.5419H33.1369C32.9038 35.3377 32.641 35.1626 32.4079 35.0168ZM36.9004 38.3137C36.8424 38.3137 35.6754 37.2342 35.7334 37.2342C35.821 37.2342 36.9879 38.2846 36.9004 38.3137ZM13.7351 40.4143C13.7055 40.5893 13.8226 40.7645 13.8806 40.8811C13.9682 40.8811 13.9978 40.8229 14.0558 40.7645C14.0274 40.5602 13.9682 40.2393 13.7351 40.4143ZM35.9665 10.5675C36.2589 10.3049 36.4637 9.9256 36.6376 9.60466H36.6092L35.9086 10.4799L35.9665 10.5675ZM35.879 11.9096H35.9665L36.0258 12.0263L35.4423 12.5514C35.4423 12.4055 35.7914 11.9096 35.879 11.9096ZM30.9783 36.8549C30.8611 36.7382 30.6859 36.6215 30.5404 36.4756C30.4528 36.4172 30.1321 36.0672 30.248 36.213C30.7155 36.7966 31.3286 37.1466 31.9404 37.7886C31.6776 37.3509 31.299 37.1466 30.9783 36.8549ZM13.5895 39.3932C13.4427 39.3349 13.3268 39.3057 13.122 39.3932L13.3564 39.189C13.3268 38.9846 13.2096 38.9846 13.1812 38.8389C13.2392 38.8972 13.3268 38.9263 13.4144 38.9555C13.5019 38.9555 13.4427 39.2765 13.4427 39.2765L13.5599 39.364V39.043C13.5895 39.043 13.5895 39.0139 13.6179 39.0139C13.6179 38.9555 13.6179 38.9263 13.5895 38.8972C13.5895 38.868 13.6179 38.8389 13.6475 38.8389C13.6475 38.8389 13.6771 38.9263 13.7351 39.0139C13.7055 39.0139 13.6771 39.0139 13.6475 39.043C13.5599 39.1598 13.5895 39.2765 13.6771 39.3349C13.6475 39.3349 13.6179 39.3639 13.5895 39.3932ZM30.4232 35.8922L29.8693 35.4545H29.7817L29.8989 35.6003V35.6879L29.7817 35.6003C29.8397 35.8337 30.248 35.8629 30.4232 35.9504V35.8922ZM35.0921 28.4815C35.2672 28.6565 35.5299 28.4523 35.4423 28.2189C35.2671 28.1605 35.0045 28.2772 35.0921 28.4815ZM13.0344 41.4355C12.6854 41.4355 12.7717 41.9022 12.9765 41.8149C13.1516 41.7565 13.1812 41.523 13.0344 41.4355ZM12.0143 43.3902C12.1007 43.3027 12.0723 43.1569 12.0427 43.0402C11.6924 42.9235 11.6924 43.6529 12.0143 43.3902ZM15.9529 40.7936C15.8357 41.0853 16.0689 41.2313 16.2737 41.0853C16.2441 40.8519 16.1281 40.7645 15.9529 40.7936ZM13.5019 40.8229C13.4144 40.9395 13.4723 41.1437 13.5599 41.1729C13.793 41.1437 13.793 40.8811 13.7055 40.7645C13.6179 40.8229 13.6179 40.7936 13.5019 40.8229ZM16.4487 17.1321C16.3316 17.1321 16.2157 17.1029 16.1281 17.0445C16.0985 17.1612 16.0689 17.3071 16.1565 17.3946C16.3611 17.4238 16.4771 17.3363 16.4487 17.1321ZM35.9962 29.6776C35.821 29.736 35.763 29.8236 35.7914 29.9694C35.9962 30.1736 36.2885 29.7652 35.9962 29.6776ZM31.299 14.7396L30.8907 15.3815C30.8907 15.469 30.8907 15.5857 30.8611 15.5857L30.7735 15.3815C30.8327 15.2064 31.0942 14.8563 31.299 14.7396ZM16.6523 17.1903C16.7991 17.1612 16.915 17.0737 16.8866 16.8986C16.7398 16.7235 16.4772 16.957 16.5944 17.1612C16.6239 17.1612 16.6523 17.1612 16.6523 17.1903ZM41.0732 45.0242C40.7514 44.7616 40.4306 44.4989 40.1679 44.1489C40.4899 44.3822 40.8106 44.674 41.0732 45.0242ZM37.4258 13.3683C37.543 13.4267 37.4837 13.7476 37.6885 13.7476L37.6589 13.2808C37.543 13.2808 37.4258 13.2808 37.4258 13.3683ZM34.6541 13.8351C34.6541 13.9811 34.5369 14.1561 34.421 14.1561H34.3038L34.4494 13.9811H34.2754C34.3038 13.8351 34.5369 13.8351 34.6541 13.8351ZM32.0279 27.6645V27.5478C31.9996 27.5478 31.3866 27.0226 31.357 27.0226C31.357 27.0518 31.912 27.6353 31.912 27.6353L32.0279 27.6645ZM37.7761 31.6616C37.6885 31.6325 37.543 31.6908 37.4837 31.7492C37.5133 32.0992 38.0092 31.8659 37.7761 31.6616ZM29.8113 16.5194C29.8113 16.6069 29.8397 16.7527 29.8397 16.7527L29.7521 16.8403C29.6941 16.8403 29.2563 17.3654 29.1687 17.4822L29.8113 16.5194ZM14.115 40.9395C14.0854 41.1146 13.8523 41.4355 14.173 41.3479C14.2014 41.2022 14.3185 41.027 14.2014 40.9103C14.173 40.9103 14.1434 40.9395 14.115 40.9395ZM39.1477 36.1546H39.1761C39.3217 36.1546 39.5264 36.3881 39.5844 36.4756C39.3809 36.4756 39.2057 36.3006 39.0305 36.2713L39.1477 36.1546ZM37.2507 10.1882C37.3678 10.159 37.5133 10.159 37.6009 9.9256H37.5134L37.3678 10.0131V9.9256C37.3382 9.86724 37.3382 9.8089 37.4258 9.77973C37.2211 9.83808 37.2506 10.1298 37.105 10.1882H37.2507ZM37.8341 42.194C38.1548 42.019 38.4472 42.5442 38.7383 42.8069C38.3596 42.7776 38.214 42.0773 37.8341 42.194ZM38.272 35.3086L38.4176 35.4545V35.3086C38.5348 35.2794 38.6507 35.2794 38.6803 35.4252C38.6507 35.4252 38.5051 35.4836 38.4176 35.5128H38.3016C38.272 35.5128 38.1844 35.5128 38.1844 35.4545L38.272 35.3086ZM10.2923 41.7273C10.2923 41.8731 10.3219 41.9022 10.3799 41.9606C10.7302 41.8149 10.4675 41.3771 10.2923 41.7273ZM30.57 33.6747C30.5108 33.6163 30.3948 33.6455 30.3072 33.7039L30.19 33.6163C30.3072 33.558 30.4232 33.4705 30.5404 33.383L30.6576 33.4705C30.57 33.5288 30.5983 33.6163 30.57 33.6747ZM37.3962 41.3189C37.3382 41.3189 37.2802 41.3189 37.2211 41.2896C37.1631 41.2313 37.1346 41.1729 37.105 41.1146C37.1926 41.1729 37.2802 41.2022 37.3678 41.2022L37.3382 41.027H37.4258L37.6305 41.2022C37.543 41.2313 37.4554 41.2605 37.3962 41.3189ZM38.8259 32.8579C38.7679 32.7703 38.5927 32.7995 38.5348 32.9162C38.5348 33.0036 38.5927 33.0328 38.6223 33.0912C38.7679 33.1203 38.8851 33.0328 38.8259 32.8579ZM37.2507 34.0539C37.2507 34.1707 37.221 34.2875 37.1346 34.2875H37.0471L37.105 34.1999C36.9595 34.1999 36.872 34.0539 36.872 33.9665H37.0176V34.0539H37.2507ZM39.7892 37.3217C39.614 37.3217 39.4685 37.2633 39.3809 37.1175C39.3809 37.0883 39.4685 37.0883 39.5561 37.0883C39.7016 37.0591 39.7892 37.1759 39.7892 37.3217ZM10.7302 42.6609L10.8462 42.6025C11.0806 42.1066 10.4379 42.3691 10.7302 42.6609ZM31.0363 14.477C31.0066 14.7688 30.8907 15.0022 30.6279 15.0022L31.0363 14.477ZM12.451 39.3932C12.393 39.3932 12.335 39.3349 12.2758 39.3349C12.1303 39.4515 12.2758 39.5975 12.335 39.6849C12.451 39.6266 12.4806 39.539 12.451 39.3932ZM39.1761 35.221C39.2933 35.1919 39.3513 35.1335 39.2933 34.9876H39.2637V34.9292H39.2057L39.2353 34.9876C39.1477 34.9585 39.0602 35.0168 39.0602 35.0752L38.9727 35.1043L39.1181 35.2502L39.1761 35.221ZM18.4903 17.7739C18.5779 17.8322 18.7246 17.7739 18.7825 17.7155C18.8122 17.4238 18.4323 17.5405 18.4903 17.7739ZM37.6009 34.4916C37.6009 34.5499 37.6009 34.5499 37.6589 34.6375C37.6589 34.6375 37.5134 34.725 37.4258 34.725L37.2802 34.6667C37.3086 34.5208 37.4837 34.4916 37.6009 34.4916ZM38.0389 30.6405C37.8921 30.6696 37.8057 30.7279 37.8057 30.8447C37.8341 30.8447 37.8637 30.8447 37.8637 30.903C38.0389 30.9323 38.214 30.7572 38.0389 30.6405ZM30.4232 25.9723C30.5108 26.0306 30.3652 26.1473 30.2196 26.264C30.2776 26.3225 30.3356 26.3516 30.4528 26.2349C30.4232 26.3225 30.3356 26.4392 30.2776 26.5266C30.2196 26.4683 30.1617 26.41 30.1321 26.3516L30.4232 25.9723ZM15.8357 40.531C15.7778 40.6186 15.7185 40.6769 15.7185 40.7936C15.7778 40.8229 15.8061 40.8519 15.8654 40.8519L15.9813 40.7353C15.9529 40.6186 15.9233 40.531 15.8357 40.531ZM42.7064 42.9526C42.8519 42.9818 43.0271 43.0402 42.9988 43.186L42.8236 43.2736C42.8236 43.1277 42.7065 43.0109 42.6189 42.9526H42.7064ZM29.1108 34.725C28.906 34.7542 28.6728 34.5208 28.6445 34.4042L29.1108 34.6375V34.725ZM36.0837 20.3413C35.9962 20.283 35.9086 20.3122 35.8506 20.283C35.705 20.4289 35.9962 20.6331 36.0837 20.4873V20.3413ZM37.8057 15.2356L37.8921 15.2064C37.8921 15.2064 37.9217 15.0022 37.9217 14.9147C37.8057 14.973 37.6009 15.2356 37.6589 15.2647C37.6589 15.2939 37.8057 15.2356 37.8057 15.2356ZM18.1696 16.4902C18.082 16.4026 17.9364 16.4318 17.8784 16.5485C17.8784 16.6069 17.9364 16.6361 17.966 16.6944C18.082 16.6944 18.1696 16.6069 18.1696 16.4902ZM36.6672 12.1138V12.2305L36.0837 12.8432C36.2293 12.6098 36.4341 12.3472 36.6672 12.1138ZM33.8375 11.9096V11.9387C33.7499 12.143 33.7203 12.2597 33.5748 12.2888H33.4872C33.5748 12.2013 33.6907 11.9096 33.8375 11.9096ZM36.2885 30.7572C36.2293 30.7572 36.2293 30.7279 36.2009 30.7279C36.0541 30.7572 36.0258 30.8155 36.0258 30.9323C36.0837 30.9323 36.0837 30.9905 36.1134 30.9905C36.2589 30.9614 36.3169 30.8739 36.2885 30.7572ZM41.6271 36.7673C41.6567 36.8549 41.6271 36.9716 41.5395 37.0008L41.6567 37.1466V37.0008C41.8023 36.9716 41.8023 37.0591 41.8899 37.0591C41.8899 36.9424 41.7727 36.8257 41.6271 36.7673ZM14.9895 41.3189C15.0475 41.4355 14.9315 41.4355 14.9019 41.4646V41.6106C15.0475 41.5813 15.0191 41.4646 15.1351 41.4938C15.2226 41.3479 15.1067 41.2022 14.9895 41.3189ZM29.1404 34.7834H29.2563C29.3735 34.7834 29.5191 34.9292 29.5487 35.0752C29.4031 35.1043 29.2563 34.871 29.1404 34.7834ZM12.335 41.9022C12.2475 42.019 12.3054 42.2233 12.4806 42.1357C12.5682 42.019 12.4806 41.8149 12.335 41.9022ZM32.2327 14.7979H32.2907L31.912 15.2939V15.1772C31.912 15.0606 32.0872 14.9147 32.2327 14.7979ZM40.6354 37.6135C40.7229 37.5843 40.8106 37.6426 40.8686 37.7302L40.665 37.9052L40.6354 37.8177L40.5775 37.6135H40.6354ZM38.6803 35.8046C38.7975 35.8046 38.9135 35.8922 39.0305 35.8922V36.0379C38.9135 36.0379 38.6803 35.9504 38.6803 35.8046ZM36.6672 38.9263C36.55 38.9846 36.4637 38.7806 36.4921 38.693C36.6376 38.6346 36.8128 38.8389 36.6672 38.9263ZM27.6515 33.6163H27.5936L27.1273 33.2371C27.2149 33.2663 27.5356 33.4412 27.6232 33.4412C27.6515 33.4705 27.6231 33.5872 27.6515 33.6163ZM32.9618 35.7462C32.8458 35.6879 32.699 35.6003 32.6706 35.5128C32.8162 35.4836 32.9038 35.5419 33.0197 35.6003C32.9914 35.6586 32.9618 35.6879 32.9618 35.7462ZM34.8293 12.3472C34.8293 12.0846 34.9749 12.2013 35.1204 12.0846L35.15 12.1138L34.8293 12.4347V12.3472ZM36.3465 18.9118C36.1133 19.0869 35.9962 19.2327 35.9962 19.3786C36.1417 19.3202 36.2589 19.0577 36.3465 18.9118ZM11.6924 42.3109C11.7516 42.2233 11.7516 42.019 11.6048 42.0773C11.4889 42.1649 11.5172 42.3982 11.6924 42.3109ZM17.7033 16.1109C17.7612 16.0817 17.8488 16.0526 17.8192 15.9358C17.7316 15.8483 17.5577 15.9358 17.5577 16.0234C17.6157 16.0526 17.6157 16.1401 17.7033 16.1109ZM12.2758 39.9183C12.3054 39.8599 12.2758 39.7433 12.2758 39.6849C12.2178 39.7142 12.2178 39.6558 12.1303 39.7142C12.0723 39.8309 12.1303 39.9766 12.2758 39.9183ZM18.3742 18.3866L18.3446 18.2115L17.9944 18.0949C17.9944 18.1241 18.3163 18.3866 18.3742 18.3866ZM36.0258 40.2685H36.2009C36.2589 40.3851 36.3465 40.5019 36.4637 40.6186C36.2885 40.531 36.1417 40.4143 36.0258 40.2685ZM41.3644 37.8469C41.4223 37.8469 41.4223 37.7302 41.3644 37.701C41.4223 37.6719 41.394 37.5551 41.336 37.5551C41.2188 37.5551 41.2188 37.6719 41.3064 37.701C41.2188 37.7302 41.2484 37.8469 41.3644 37.8469ZM39.0885 37.205C39.1761 37.205 39.2057 37.3217 39.1181 37.3509C39.2057 37.3799 39.2057 37.4968 39.1181 37.4968C39.0305 37.5259 39.001 37.3799 39.0885 37.3509C39.001 37.3799 39.001 37.2342 39.0885 37.205ZM39.0602 11.6178C39.001 11.6178 38.8259 11.6761 38.8259 11.8804L38.9135 11.8512C39.001 11.8512 39.0602 11.7345 39.0602 11.6178ZM37.8057 41.9315C37.543 41.9315 37.3962 41.7856 37.2211 41.6106C37.3087 41.6689 37.6305 41.8149 37.8057 41.9315ZM29.4315 15.2064C29.4315 15.2064 29.5487 15.1189 29.5487 15.0022C29.5191 15.0314 29.3155 15.2064 29.3155 15.2356C29.1983 15.6732 29.2859 15.469 29.4315 15.2064ZM34.8293 11.0051L35.0624 10.8592C34.9749 10.8592 34.9749 10.7717 34.9749 10.6842H34.8873L34.8293 11.0051ZM11.6344 39.8892C11.6344 39.7725 11.6048 39.7142 11.5172 39.7433C11.3421 39.8309 11.5172 40.0933 11.6344 39.8892ZM32.2031 37.4968L32.2327 37.5843C32.2327 37.7302 32.3203 37.8177 32.4659 37.8759H32.4955C32.4659 37.7886 32.3203 37.6719 32.3203 37.5843L32.2031 37.4968ZM12.8889 42.8651C12.8593 42.9818 12.9469 43.0693 13.0344 43.0402C13.0344 42.9818 13.122 42.9818 13.0937 42.8942C13.064 42.8359 13.0061 42.8069 12.8889 42.8651ZM35.034 18.7075C35.1204 18.7367 35.0624 18.795 35.1204 18.8242C35.2376 18.795 35.208 18.7367 35.2672 18.6491C35.15 18.5617 35.0919 18.5617 35.034 18.7075ZM28.4397 32.1283C28.4397 32.2159 28.3225 32.2452 28.3817 32.3326C28.4693 32.3619 28.5273 32.3326 28.5852 32.2743C28.5569 32.1576 28.4977 32.1283 28.4397 32.1283ZM40.5182 39.0139L40.4899 38.8389H40.5478C40.5478 38.8389 40.8106 38.9555 40.8982 38.9555L40.5182 39.0139ZM37.4258 11.326L37.543 10.9468L37.4258 11.0051C37.4258 11.0051 37.3087 11.326 37.4258 11.326ZM12.393 40.7062C12.2474 40.9395 12.5978 40.9686 12.5386 40.7062C12.4806 40.7062 12.451 40.6769 12.393 40.7062ZM14.2014 42.8069C14.2014 42.8359 14.173 42.8359 14.1434 42.8651C14.1434 42.9526 14.1434 42.9818 14.2014 43.0402C14.2889 43.0402 14.2889 42.9818 14.3185 42.9235C14.3185 42.8651 14.2606 42.8069 14.2014 42.8069ZM38.6803 13.31V13.2225C38.5348 13.31 38.4768 13.3975 38.4768 13.5434L38.5051 13.6018L38.6223 13.3683L38.6803 13.31ZM30.5108 15.2356H30.5983L30.248 15.6149C30.3072 15.4107 30.4528 15.2647 30.5108 15.2356ZM39.2637 11.3844C39.2637 11.326 39.2353 11.2677 39.1761 11.2677C39.1181 11.2677 39.1477 11.4719 39.2057 11.4719C39.2353 11.4719 39.2353 11.5011 39.2933 11.5011C39.3809 11.5011 39.3513 11.3844 39.2637 11.3844ZM33.0197 22.2378L32.641 22.6171L32.9618 22.1502L33.0197 22.2378ZM38.7099 12.3764H38.6223C38.4768 12.3764 38.4176 12.4639 38.4472 12.5222C38.5927 12.5222 38.6507 12.5222 38.7099 12.3764ZM35.9665 11.647C35.9665 11.6761 35.7334 11.9096 35.6458 11.9387C35.5582 11.9387 35.9665 11.5594 35.9665 11.647ZM34.2754 11.2969C34.3038 11.2677 34.479 11.0343 34.479 10.9468C34.2754 11.0343 34.2754 11.1802 34.2754 11.2969ZM32.8458 38.1678H32.8162C32.7866 38.1095 32.7866 38.0803 32.7582 38.0803C32.7286 38.1095 32.7286 38.2553 32.7582 38.2262H32.7866C32.7582 38.2846 32.7866 38.3137 32.8458 38.3137C32.9618 38.3137 32.9618 38.1678 32.8458 38.1678ZM40.4603 37.9052L40.3727 37.9928C40.3147 37.9928 40.1099 37.8759 40.1099 37.8177L40.4603 37.9052ZM34.7417 10.5383L34.5962 10.7134V10.8009C34.7121 10.7717 34.7417 10.6842 34.8293 10.6258L34.7417 10.5383ZM35.208 13.3392C35.1204 13.3392 35.1204 13.2225 35.1796 13.1933C35.0921 13.1641 35.0921 13.0474 35.1796 13.0474C35.2376 13.0182 35.2671 13.1641 35.208 13.1933C35.2671 13.1641 35.2671 13.31 35.208 13.3392ZM38.4768 10.4216C38.4472 10.4216 38.4176 10.4508 38.4176 10.4508C38.4472 10.4216 38.4472 10.3924 38.4472 10.3341C38.4472 10.2757 38.2424 10.5091 38.33 10.5091C38.3596 10.5091 38.3892 10.4799 38.4176 10.4508C38.3892 10.5091 38.4176 10.5675 38.4768 10.5675C38.5348 10.5675 38.5348 10.4216 38.4768 10.4216ZM38.7975 11.9971C38.7099 12.0263 38.6223 12.0846 38.5644 12.143V12.2305C38.6223 12.2305 38.7975 12.143 38.7975 11.9971ZM15.2226 40.4143C15.1351 40.5019 15.1647 40.6769 15.3102 40.5893C15.3695 40.5019 15.3102 40.3851 15.2226 40.4143ZM41.7147 41.5522C41.7147 41.6689 41.5099 41.6689 41.5099 41.5522C41.5099 41.4646 41.7147 41.4646 41.7147 41.5522ZM41.6567 39.189C41.7443 39.189 41.7443 39.3932 41.6567 39.3932C41.5395 39.3932 41.5395 39.189 41.6567 39.189ZM31.8824 14.3603C31.8528 14.3311 31.8528 14.2144 31.8824 14.2144C31.97 14.2144 31.9996 14.3603 31.912 14.3603H31.8824C31.912 14.3895 31.912 14.5354 31.8824 14.5354C31.7652 14.5354 31.7652 14.3603 31.8824 14.3603ZM36.6376 32.2743C36.6968 32.2743 36.6672 32.1283 36.6092 32.1283C36.6092 32.0992 36.5796 32.0409 36.5217 32.0409C36.4637 32.0409 36.4921 32.1868 36.55 32.1868C36.55 32.2159 36.5796 32.2743 36.6376 32.2743ZM42.065 37.6719H42.0934C42.0934 37.701 42.123 37.7302 42.1526 37.7302C42.2686 37.701 42.2686 37.5551 42.1526 37.5843H42.123C42.123 37.5551 42.0934 37.5259 42.065 37.5259C42.0354 37.5259 42.0354 37.6719 42.065 37.6719ZM18.2571 16.3151C18.2571 16.1984 18.1696 16.1984 18.082 16.1984C18.082 16.2275 18.0536 16.2567 18.024 16.3151C18.082 16.3443 18.1992 16.3443 18.2571 16.3151ZM36.8424 33.2663C36.9004 33.2663 36.9004 33.2955 36.9004 33.3539C36.9004 33.3539 36.9004 33.3246 36.93 33.3246C36.9879 33.3246 36.9879 33.4705 36.93 33.4705C36.872 33.4996 36.8424 33.4412 36.872 33.383H36.8424C36.7548 33.383 36.7548 33.2663 36.8424 33.2663ZM38.1264 34.375V34.2875C38.0968 34.2583 38.0389 34.229 38.0092 34.229H37.9796C38.0092 34.2875 38.0092 34.4625 38.0092 34.5208L38.1264 34.375ZM31.7948 14.9438C31.912 14.9438 31.912 15.1481 31.7948 15.1481C31.7072 15.1481 31.7072 14.9438 31.7948 14.9438ZM34.9169 16.461C34.9169 16.3151 35.0045 16.1692 35.1796 16.1692L34.9169 16.461ZM33.2245 11.7929C33.3121 11.7929 33.2825 11.5886 33.1949 11.5886C33.1073 11.5886 33.1369 11.7929 33.2245 11.7929ZM34.7417 13.5726C34.8589 13.5726 34.8873 13.7476 34.7713 13.7476C34.6837 13.7768 34.6541 13.6018 34.7417 13.5726ZM28.1473 34.0539C28.061 34.0539 28.0314 33.8499 28.119 33.8499C28.2065 33.8499 28.2349 34.0539 28.1473 34.0539ZM39.5264 35.6879V35.4545L39.3809 35.5419C39.3809 35.6295 39.4685 35.6879 39.5264 35.6879ZM13.6179 17.3946C13.6475 17.2487 13.5019 17.2487 13.4427 17.3071V17.3946C13.5303 17.3946 13.5599 17.453 13.6179 17.3946ZM33.079 38.4595C32.9914 38.4595 33.0197 38.6346 33.1073 38.6346C33.2245 38.6346 33.1949 38.4595 33.079 38.4595ZM18.2288 17.3071C18.1992 17.2779 18.0536 17.2779 18.024 17.3363V17.4238C18.1412 17.4238 18.2288 17.3946 18.2288 17.3071ZM30.3356 16.1109C30.3356 16.2567 30.19 16.3443 30.1024 16.3443H30.0445C30.1024 16.2567 30.2776 16.1984 30.3356 16.1109ZM30.9191 34.1123C30.9487 34.1415 30.9783 34.1415 31.0363 34.1415C31.0942 34.1415 31.1238 34.1123 31.1535 34.1123C31.1238 34.1415 31.1238 34.1999 31.1818 34.2583C31.2114 34.3166 31.241 34.3166 31.2694 34.3166H31.2114L30.9191 34.1123ZM34.7997 16.0817C34.8589 16.0817 34.8873 16.1984 34.8293 16.2275C34.8873 16.2567 34.8873 16.3735 34.8293 16.3735C34.7997 16.4026 34.7713 16.2567 34.7997 16.2275C34.7713 16.2567 34.7713 16.1109 34.7997 16.0817ZM39.4968 11.2093C39.5844 11.2093 39.5844 11.0051 39.4968 11.0051C39.4092 11.0343 39.4092 11.2093 39.4968 11.2093ZM35.9382 12.9891L35.879 13.1349C35.879 13.1349 35.705 13.0474 35.705 12.9599C35.7334 12.9599 35.9086 13.0182 35.9382 12.9891ZM33.37 13.0474L33.6044 12.7557H33.5168C33.5168 12.7557 33.37 12.9015 33.37 12.9891V13.0474ZM17.0322 41.7565C16.915 41.7856 16.915 41.9606 17.0322 41.9315C17.1198 41.9315 17.1198 41.7565 17.0322 41.7565ZM37.2507 32.6536C37.2802 32.5952 37.2507 32.4785 37.1631 32.5076C37.1631 32.566 37.0754 32.5952 37.0754 32.6536C37.163 32.6243 37.1631 32.7119 37.2507 32.6536ZM38.0092 10.6842V10.8301L38.1548 10.5091C38.0092 10.5091 38.0092 10.5966 38.0092 10.6842ZM28.0893 17.5989C28.1769 17.5989 28.1769 17.7739 28.0893 17.7739C27.9734 17.7739 27.9734 17.5989 28.0893 17.5989ZM36.1134 9.22538C36.2009 9.19621 36.2009 8.99198 36.1134 9.02114C36.0258 9.02114 36.0258 9.22538 36.1134 9.22538ZM32.3783 35.221C32.4363 35.1043 32.3203 35.1919 32.2623 35.1626V35.0752C32.2907 35.0752 32.3203 35.0752 32.3487 35.0459C32.4079 35.1043 32.4659 35.1626 32.4955 35.2502C32.4363 35.1626 32.4079 35.221 32.3783 35.221ZM33.4872 20.2538C33.5451 20.2538 33.5748 20.1955 33.5748 20.1371C33.5451 20.0789 33.5168 20.1079 33.4576 20.0789C33.3996 20.1663 33.3996 20.2246 33.4872 20.2538ZM40.3147 42.7776C40.1975 42.6609 40.0803 42.6025 39.9644 42.4566L40.1975 42.5733C40.2555 42.6317 40.2851 42.69 40.3147 42.7776ZM42.2106 37.9343C42.4154 37.9927 42.2982 37.7886 42.181 37.8177C42.0934 37.8177 42.123 37.9343 42.2106 37.9343ZM36.2293 33.4122C36.3169 33.4122 36.3169 33.5872 36.2293 33.6163C36.1417 33.6163 36.1417 33.4122 36.2293 33.4122ZM40.6934 37.1759C40.781 37.1759 40.8105 37.3509 40.7229 37.3509C40.6354 37.3799 40.6058 37.205 40.6934 37.1759ZM14.0274 17.8906C14.0274 17.8031 14.0274 17.7155 13.9102 17.7447C13.9102 17.8031 13.8806 17.8322 13.8806 17.8614C13.9102 17.8906 13.9398 17.9198 14.0274 17.8906ZM36.9879 32.1283L36.93 32.0116C36.8424 32.0116 36.7844 32.0409 36.8128 32.1283C36.872 32.1576 36.9004 32.1576 36.9879 32.1283ZM41.394 38.6055V38.693L41.2484 38.8389L41.1608 38.8097L41.394 38.6055ZM28.5569 34.6375C28.4977 34.6375 28.4693 34.4332 28.5273 34.4332C28.6149 34.4332 28.6445 34.6375 28.5569 34.6375ZM37.0754 39.189C37.163 39.189 37.163 39.3932 37.0754 39.3932C37.0175 39.3932 37.0175 39.189 37.0754 39.189ZM34.1878 13.7184C34.2754 13.6892 34.2754 13.8351 34.1878 13.8643C34.0707 13.8643 34.0707 13.7184 34.1878 13.7184ZM38.3892 8.8461C38.4472 8.8461 38.4176 8.64187 38.3596 8.64187C38.272 8.67104 38.3016 8.8461 38.3892 8.8461ZM39.1477 41.4063C39.0305 41.4063 39.0305 41.2605 39.1477 41.2605C39.2353 41.2313 39.2353 41.3771 39.1477 41.4063ZM36.9596 11.1218C37.0755 11.1218 37.0471 10.9176 36.93 10.9176C36.9004 10.9176 36.93 11.1218 36.9596 11.1218ZM39.7312 36.2422C39.7892 36.2422 39.8188 36.4464 39.7596 36.4464C39.672 36.4464 39.6436 36.2422 39.7312 36.2422ZM39.4685 8.78775C39.5264 8.78775 39.4968 8.58351 39.4389 8.58351C39.3513 8.58351 39.3809 8.78775 39.4685 8.78775ZM37.9217 11.9387H37.9796C38.0672 11.9387 38.1548 11.7053 38.1548 11.6761C37.9796 11.7053 38.0672 11.9096 37.9217 11.9387ZM37.6305 15.0022C37.7465 15.0022 37.7465 14.8855 37.6589 14.8563H37.6305C37.543 14.8563 37.543 15.0022 37.6305 15.0022ZM32.2623 27.9272C32.3783 27.9272 32.3783 27.7812 32.2623 27.7812C32.1748 27.7812 32.1748 27.9272 32.2623 27.9272ZM38.8851 37.7593C39.001 37.7593 39.001 37.9052 38.8851 37.9052C38.7975 37.9052 38.7975 37.7593 38.8851 37.7593ZM39.5264 38.2846C39.4389 38.2846 39.4389 38.1095 39.5264 38.1095C39.614 38.1095 39.614 38.2846 39.5264 38.2846ZM35.4706 37.1175C35.3831 37.1175 35.3831 36.9716 35.4706 36.9716C35.5878 36.9716 35.5878 37.1175 35.4706 37.1175ZM37.5134 12.7557C37.4258 12.7557 37.4258 12.9015 37.5134 12.9015C37.6305 12.9015 37.6305 12.7557 37.5134 12.7557ZM28.4397 35.0459C28.3521 35.0752 28.3521 35.2502 28.4397 35.221C28.5273 35.221 28.5273 35.0459 28.4397 35.0459ZM30.8031 15.9942C30.6859 15.9942 30.6576 15.8483 30.7735 15.8483C30.8611 15.8483 30.8907 15.9942 30.8031 15.9942ZM34.2162 14.302C34.3038 14.302 34.3038 14.4479 34.2162 14.4479C34.1003 14.477 34.1003 14.3311 34.2162 14.302ZM36.7844 10.2757C36.872 10.2757 36.872 10.1298 36.7844 10.1298C36.6672 10.159 36.6672 10.3049 36.7844 10.2757ZM38.8259 36.4172C38.7383 36.4172 38.7099 36.2713 38.7975 36.2713C38.9135 36.2713 38.9431 36.4172 38.8259 36.4172ZM38.9431 8.20423C39.001 8.20423 39.001 8 38.9431 8C38.8555 8 38.8555 8.20423 38.9431 8.20423ZM34.5665 30.232C34.479 30.232 34.479 30.4363 34.5665 30.4363C34.6245 30.4363 34.6245 30.232 34.5665 30.232ZM36.3761 34.0539C36.2885 34.0832 36.2885 33.879 36.3761 33.8499C36.4341 33.8499 36.4341 34.0539 36.3761 34.0539ZM29.1404 15.2939H29.0528C29.0528 15.2939 28.9356 15.469 28.9356 15.4982L29.0232 15.469C29.0811 15.3815 29.1404 15.3231 29.1404 15.2939ZM38.5644 11.0635C38.5348 11.0343 38.5051 10.9759 38.5051 10.9468L38.4176 11.0343V11.0635L38.5644 11.1802V11.0635ZM41.3644 41.2896C41.3644 41.2022 41.5099 41.2313 41.5099 41.3189C41.4816 41.4063 41.336 41.4063 41.3644 41.2896ZM34.6541 23.2589C34.6245 23.3465 34.7417 23.4632 34.7997 23.3756C34.8293 23.2882 34.7121 23.2298 34.6541 23.2589ZM36.7252 11.3844C36.8424 11.3552 36.8424 11.151 36.7252 11.1802C36.6968 11.1802 36.6968 11.3844 36.7252 11.3844ZM38.9135 40.035C38.7975 40.035 38.7679 39.9475 38.8851 39.9475C38.9135 39.9475 38.9135 40.035 38.9135 40.035C39.001 40.035 39.0305 40.1809 38.9431 40.1809C38.9135 40.1809 38.9135 40.035 38.9135 40.035ZM36.2293 31.6908C36.2589 31.8075 36.3169 31.7783 36.4045 31.7492C36.4045 31.6325 36.2589 31.6325 36.2293 31.6908ZM19.1612 15.8191C19.1329 15.7899 19.0737 15.7899 19.0157 15.8191V15.9358C19.1033 15.9358 19.1909 15.9066 19.1612 15.8191ZM32.0279 37.0299C31.9996 37.0008 31.9404 36.9716 31.912 36.9716C31.912 37.0299 31.9404 37.0591 31.97 37.0883C31.9996 37.1175 31.9996 37.1466 32.0576 37.1466C32.0576 37.1466 32.0872 37.1759 32.1155 37.1759L32.0576 37.0883C32.0576 37.0591 32.0576 37.0299 32.0279 37.0299ZM37.6885 40.1226C37.6885 40.0642 37.7181 40.0059 37.7465 40.0059C37.8057 40.0059 37.8341 40.1518 37.7761 40.2102L37.6885 40.1226ZM12.9469 39.8309C12.8889 39.8309 12.9185 39.6849 12.8309 39.7142C12.7137 39.8017 12.8889 39.9475 12.9469 39.8309ZM39.1761 40.7062C39.0602 40.7353 39.0305 40.5602 39.1477 40.531C39.1761 40.531 39.2057 40.7062 39.1761 40.7062ZM28.4101 33.9082C28.4977 33.9082 28.5273 34.0539 28.4397 34.0539C28.3521 34.0832 28.3225 33.9372 28.4101 33.9082ZM35.4706 13.7184C35.3831 13.7184 35.3547 13.5434 35.4423 13.5434C35.5003 13.5434 35.5299 13.7184 35.4706 13.7184ZM30.19 35.9504C30.1321 35.9504 30.1617 36.1255 30.2196 36.1255C30.3072 36.1255 30.2776 35.9504 30.19 35.9504ZM37.8637 14.5938H37.8341L37.7761 14.8271C37.8637 14.7396 37.9513 14.5938 37.9513 14.5646C37.9217 14.5646 37.8921 14.5938 37.8637 14.5938ZM38.8555 13.0766C38.9135 13.0766 38.8851 12.9015 38.8259 12.9015C38.7383 12.9015 38.7679 13.0766 38.8555 13.0766ZM34.8293 13.1058C34.8589 13.1058 34.8873 13.2808 34.8589 13.2808C34.7417 13.2808 34.7121 13.1058 34.8293 13.1058ZM34.2458 13.1349C34.363 13.1349 34.3914 13.31 34.2754 13.31C34.2458 13.31 34.2162 13.1349 34.2458 13.1349ZM37.9796 9.98395C38.0672 9.98395 38.0389 9.83808 37.9513 9.83808C37.8637 9.83808 37.8921 9.98395 37.9796 9.98395ZM37.7465 34.6375C37.8341 34.6375 37.8637 34.7834 37.7761 34.7834C37.6885 34.7834 37.6589 34.6375 37.7465 34.6375ZM35.15 14.0394C35.0624 14.0394 35.0624 13.8935 35.15 13.8935C35.2376 13.8935 35.2376 14.0394 35.15 14.0394ZM36.7548 16.3735C36.8424 16.3735 36.8128 16.2275 36.7252 16.2275C36.6376 16.2275 36.6672 16.3735 36.7548 16.3735ZM36.6092 13.9519C36.5217 13.9519 36.5217 13.806 36.6092 13.806C36.6968 13.806 36.6968 13.9519 36.6092 13.9519ZM36.5796 13.1058C36.6672 13.1058 36.6672 13.2516 36.5796 13.2516C36.4921 13.2516 36.4921 13.1058 36.5796 13.1058ZM36.1713 32.5368C36.2589 32.5368 36.2589 32.391 36.1713 32.391C36.0837 32.391 36.0837 32.5368 36.1713 32.5368ZM35.3547 13.1641C35.2672 13.1641 35.2376 13.0182 35.3251 13.0182C35.4127 13.0182 35.4423 13.1641 35.3547 13.1641ZM42.794 42.8942C42.794 42.8069 42.9396 42.8069 42.9396 42.8942C42.9396 42.9818 42.794 42.9818 42.794 42.8942ZM30.4232 16.0234C30.3356 16.0234 30.3072 15.8775 30.3948 15.8775C30.4824 15.8775 30.5108 16.0234 30.4232 16.0234ZM38.2424 10.8301C38.33 10.8301 38.33 10.6842 38.2424 10.6842C38.1548 10.6842 38.1548 10.8301 38.2424 10.8301ZM29.8113 15.9942C29.8989 15.9942 29.8989 16.1401 29.8113 16.1401C29.7237 16.1401 29.7237 15.9942 29.8113 15.9942ZM31.4446 37.0591C31.5322 37.0591 31.5322 36.9132 31.4446 36.9132C31.357 36.9132 31.357 37.0591 31.4446 37.0591ZM37.543 35.0168C37.6305 35.0168 37.6305 35.1626 37.543 35.1626C37.4554 35.1626 37.4554 35.0168 37.543 35.0168ZM35.5299 9.89644C35.6175 9.89644 35.6175 9.75055 35.5299 9.75055C35.4423 9.75055 35.4423 9.89644 35.5299 9.89644ZM37.7761 35.2502C37.8637 35.2502 37.8921 35.3962 37.8057 35.3962C37.7181 35.3962 37.6885 35.2502 37.7761 35.2502ZM37.1926 38.5471C37.105 38.5471 37.0755 38.4012 37.1631 38.4012C37.2507 38.4012 37.2802 38.5471 37.1926 38.5471ZM39.5844 12.5514C39.672 12.5514 39.6436 12.4055 39.5561 12.4055C39.4685 12.4055 39.4968 12.5514 39.5844 12.5514ZM35.4706 14.0978C35.3831 14.0978 35.3831 13.9227 35.4706 13.9227C35.5299 13.9227 35.5299 14.0978 35.4706 14.0978ZM36.4637 14.0394C36.3761 14.0394 36.3761 13.8643 36.4637 13.8643C36.5217 13.8643 36.5217 14.0394 36.4637 14.0394ZM39.0885 9.63384C39.1761 9.63384 39.1761 9.45878 39.0885 9.45878C39.0305 9.45878 39.0305 9.63384 39.0885 9.63384ZM34.8589 10.4799C34.9465 10.4799 34.9465 10.3049 34.8589 10.3049C34.7997 10.3049 34.7997 10.4799 34.8589 10.4799ZM37.0471 34.5792C37.1346 34.5792 37.1346 34.7542 37.0471 34.7542C36.9879 34.7542 36.9879 34.5792 37.0471 34.5792ZM40.4603 38.2262C40.3727 38.2262 40.3727 38.0511 40.4603 38.0511C40.5182 38.0511 40.5182 38.2262 40.4603 38.2262ZM35.208 36.709C35.2671 36.709 35.2671 36.8841 35.208 36.8841C35.1204 36.8841 35.1204 36.709 35.208 36.709ZM39.8768 38.8679C39.7892 38.8679 39.7892 38.693 39.8768 38.693C39.9348 38.693 39.9348 38.8679 39.8768 38.8679ZM35.208 10.655C35.2956 10.655 35.2956 10.5091 35.208 10.5091C35.1204 10.5383 35.1204 10.6842 35.208 10.655ZM35.3547 17.5405C35.2672 17.5405 35.2672 17.3946 35.3547 17.3946C35.4423 17.3654 35.4423 17.5113 35.3547 17.5405ZM35.2376 15.6149C35.15 15.6149 35.15 15.469 35.2376 15.469C35.3252 15.4398 35.3252 15.5857 35.2376 15.6149ZM36.3465 13.1058C36.4341 13.1058 36.4341 13.2516 36.3465 13.2516C36.2589 13.2808 36.2589 13.1349 36.3465 13.1058ZM38.9431 12.1138C39.0305 12.1138 39.0305 11.9679 38.9431 11.9679C38.8555 11.9971 38.8555 12.143 38.9431 12.1138ZM36.7844 32.4202C36.872 32.391 36.872 32.2452 36.7844 32.2743C36.6968 32.2743 36.6968 32.4202 36.7844 32.4202ZM38.8555 10.7134C38.9431 10.6842 38.9431 10.5383 38.8555 10.5675C38.7679 10.5675 38.7679 10.7134 38.8555 10.7134ZM33.6044 29.9985C33.5168 30.0278 33.5168 29.8819 33.6044 29.8527C33.6907 29.8527 33.6907 29.9985 33.6044 29.9985ZM39.672 40.9979C39.5844 40.9979 39.5844 40.8519 39.672 40.8519C39.7596 40.8229 39.7596 40.9686 39.672 40.9979ZM37.3382 29.8527C37.3087 29.8236 37.3087 29.7943 37.3087 29.7652C37.2211 29.7943 37.1347 29.7943 37.1926 29.8819C37.221 29.911 37.3087 29.911 37.3382 29.8527ZM38.8259 40.9395C38.9431 40.9395 38.9431 41.0853 38.8555 41.1146H38.8259C38.7975 41.0562 38.7975 40.9395 38.8259 40.9395ZM11.3421 40.035C11.2841 40.0642 11.2841 40.0933 11.2841 40.1518C11.2841 40.1809 11.3137 40.2102 11.3717 40.1809C11.4013 40.1518 11.4013 40.0933 11.4013 40.035C11.3717 40.035 11.3421 40.0642 11.3421 40.035ZM35.0921 31.2239C35.0921 31.2532 35.0921 31.2532 35.0624 31.2823C35.0624 31.2532 35.0341 31.2532 35.0045 31.2532V31.1948C34.9465 31.1365 34.9169 31.1072 34.8873 31.1072L34.9465 31.0489L35.0921 31.2239ZM35.763 14.0978L35.8506 13.9811H35.9086L35.9962 14.0686L35.763 14.0978ZM37.5134 12.5806C37.6305 12.5806 37.6305 12.5222 37.6305 12.4347C37.5133 12.4347 37.4837 12.4931 37.5134 12.5806ZM41.5395 36.8549C41.6271 36.8549 41.5975 36.7382 41.5099 36.7382C41.394 36.7382 41.4223 36.8549 41.5395 36.8549ZM41.7727 37.1175C41.6567 37.1466 41.6567 37.3217 41.7727 37.2926C41.8023 37.2926 41.8023 37.1175 41.7727 37.1175ZM34.4494 10.5091C34.479 10.5091 34.479 10.3341 34.4494 10.3341C34.3334 10.3341 34.3334 10.5091 34.4494 10.5091ZM37.7181 12.2888C37.8341 12.2888 37.8341 12.1721 37.7181 12.1721C37.6305 12.1721 37.6305 12.2888 37.7181 12.2888ZM15.0191 41.698C14.8723 41.7273 14.9895 41.9022 15.0475 41.9022C15.0771 41.8439 15.0191 41.7856 15.0191 41.698ZM38.7099 36.0672C38.7975 36.0672 38.7975 36.2713 38.7099 36.2713C38.6803 36.2713 38.6803 36.0672 38.7099 36.0672ZM34.363 12.9307C34.3914 12.9307 34.3914 13.0766 34.363 13.0766C34.2458 13.0766 34.2458 12.9307 34.363 12.9307ZM28.2941 17.3654C28.3225 17.3654 28.3225 17.2195 28.2941 17.2195C28.1769 17.2195 28.1769 17.3654 28.2941 17.3654ZM31.3865 14.2436C31.4161 14.2436 31.4161 14.0978 31.3865 14.0978C31.2694 14.0978 31.2694 14.2436 31.3865 14.2436ZM37.6885 9.86725C37.7181 9.86725 37.7181 9.72137 37.6885 9.72137C37.5713 9.72137 37.5713 9.86725 37.6885 9.86725ZM19.3081 18.3282C19.3956 18.3282 19.4832 18.3282 19.4536 18.2407C19.424 18.2115 19.3364 18.2115 19.3081 18.2407V18.3282ZM41.4519 38.1678L41.4816 38.3137H41.3644C41.3644 38.2262 41.3644 38.1678 41.4519 38.1678ZM38.5348 10.5675C38.4768 10.5675 38.4768 10.7134 38.5348 10.7134C38.6223 10.7134 38.6223 10.5675 38.5348 10.5675ZM40.839 37.1175C40.9265 37.1175 40.9265 37.2633 40.839 37.2633C40.781 37.2633 40.781 37.1175 40.839 37.1175ZM39.8472 34.5208C39.7892 34.5208 39.7892 34.6667 39.8472 34.6667C39.9348 34.6667 39.9348 34.5208 39.8472 34.5208ZM36.6376 34.229C36.5796 34.229 36.5796 34.0832 36.6376 34.0832C36.7252 34.0832 36.7252 34.229 36.6376 34.229ZM37.2802 34.4332C37.221 34.4332 37.221 34.2875 37.2802 34.2875C37.3678 34.2875 37.3678 34.4332 37.2802 34.4332ZM35.4127 16.0526C35.5003 16.0526 35.5003 16.1984 35.4127 16.1984C35.3547 16.1984 35.3547 16.0526 35.4127 16.0526ZM35.034 13.1933C35.1204 13.1933 35.1204 13.3392 35.034 13.3392C34.9749 13.3392 34.9749 13.1933 35.034 13.1933ZM35.3547 10.7425C35.4423 10.7425 35.4423 10.5966 35.3547 10.5966C35.2956 10.5966 35.2956 10.7425 35.3547 10.7425ZM36.6968 12.7265C36.6376 12.7265 36.6376 12.5806 36.6968 12.5806C36.7844 12.5806 36.7844 12.7265 36.6968 12.7265ZM36.93 32.6243C37.0176 32.6243 37.0176 32.4785 36.93 32.4785C36.872 32.4785 36.872 32.6243 36.93 32.6243ZM39.7312 34.9876C39.672 34.9876 39.672 35.1335 39.7312 35.1335C39.8188 35.1335 39.8188 34.9876 39.7312 34.9876ZM38.0092 12.2597C37.9513 12.2597 37.9513 12.4055 38.0092 12.4055C38.0968 12.4055 38.0968 12.2597 38.0092 12.2597ZM27.6232 17.8614C27.7106 17.8614 27.7106 17.7155 27.6232 17.7155C27.5639 17.7155 27.5639 17.8614 27.6232 17.8614ZM31.2114 15.3231L31.241 15.4398H31.1238L31.0942 15.3231H31.2114ZM37.5134 14.7396C37.543 14.7396 37.5133 14.5938 37.4837 14.5938C37.3678 14.6229 37.3962 14.7688 37.5134 14.7396ZM28.2941 34.1999C28.2349 34.1999 28.2349 34.0539 28.2941 34.0539C28.3817 34.0539 28.3817 34.1999 28.2941 34.1999ZM38.5051 10.1882C38.5927 10.1882 38.5927 10.0423 38.5051 10.0423C38.4472 10.0423 38.4472 10.1882 38.5051 10.1882ZM40.5182 37.9052C40.6058 37.9052 40.6058 38.0511 40.5182 38.0511C40.4603 38.0511 40.4603 37.9052 40.5182 37.9052ZM35.4706 10.3632C35.5582 10.3632 35.5582 10.2174 35.4706 10.2174C35.4127 10.2174 35.4127 10.3632 35.4706 10.3632ZM38.0389 12.9307C37.9796 12.9307 37.9796 12.7848 38.0389 12.7848C38.1264 12.7848 38.1264 12.9307 38.0389 12.9307ZM37.9796 40.0933C38.0672 40.0933 38.0672 40.2393 37.9796 40.2393C37.9217 40.2393 37.9217 40.0933 37.9796 40.0933ZM38.0672 13.2516C38.0092 13.2516 38.0092 13.3975 38.0672 13.3975C38.1548 13.3975 38.1548 13.2516 38.0672 13.2516ZM39.4389 38.1095C39.3809 38.1095 39.3809 37.9635 39.4389 37.9635C39.5264 37.9635 39.5264 38.1095 39.4389 38.1095ZM33.1949 12.7557C33.2825 12.7557 33.2825 12.9015 33.1949 12.9015C33.1369 12.9015 33.1369 12.7557 33.1949 12.7557ZM37.2802 10.655C37.3086 10.6258 37.3086 10.4799 37.2802 10.5091C37.163 10.5091 37.163 10.655 37.2802 10.655ZM40.5775 39.364C40.5182 39.364 40.5182 39.2182 40.5775 39.2182C40.665 39.2182 40.665 39.364 40.5775 39.364ZM40.5478 38.5179C40.6354 38.5179 40.6354 38.6638 40.5478 38.6638C40.4899 38.6638 40.4899 38.5179 40.5478 38.5179ZM40.4899 37.6719C40.5775 37.6719 40.5775 37.8177 40.4899 37.8177C40.4307 37.8177 40.4307 37.6719 40.4899 37.6719ZM34.7997 12.7557C34.7713 12.7557 34.7417 12.5806 34.7713 12.5806C34.8589 12.5806 34.8873 12.7557 34.7997 12.7557ZM40.5478 35.8629C40.6354 35.8337 40.6058 35.6879 40.5182 35.717C40.4603 35.717 40.4899 35.8629 40.5478 35.8629ZM36.3169 32.6536C36.4045 32.6536 36.4045 32.5076 36.3169 32.5076C36.2589 32.5368 36.2589 32.6828 36.3169 32.6536ZM29.4315 14.973C29.5191 14.9438 29.4907 14.7979 29.4031 14.8271C29.3439 14.8271 29.3735 14.973 29.4315 14.973ZM38.3596 10.3341C38.4472 10.3341 38.4472 10.1882 38.3596 10.1882C38.3016 10.2174 38.3016 10.3632 38.3596 10.3341ZM39.672 37.9343C39.7596 37.9343 39.7596 38.0803 39.672 38.0803C39.614 38.1095 39.614 37.9635 39.672 37.9343ZM38.6223 40.9686C38.5927 40.9686 38.5927 40.8229 38.6223 40.8229C38.7383 40.7936 38.7679 40.9395 38.6223 40.9686ZM37.9217 35.2502C37.8637 35.2502 37.8637 35.1043 37.9217 35.1043C38.0092 35.0752 38.0092 35.221 37.9217 35.2502ZM36.2589 16.1692C36.3465 16.1692 36.3761 16.3151 36.2885 16.3151C36.2293 16.3151 36.2009 16.1984 36.2589 16.1692ZM36.7844 33.9956C36.7252 33.9956 36.7252 33.8499 36.7844 33.8499C36.872 33.8206 36.872 33.9665 36.7844 33.9956ZM33.1949 14.2144C33.254 14.2144 33.2825 14.3603 33.2245 14.3603C33.1369 14.3895 33.1073 14.2436 33.1949 14.2144ZM14.0854 38.7806H14.173C14.173 38.7806 14.2014 38.7806 14.2014 38.7513C14.1434 38.8097 14.0854 38.868 14.0558 38.9263C14.0274 38.9263 13.9978 38.9263 13.9978 38.8972L14.0854 38.7806ZM41.1608 38.5762C41.2484 38.5471 41.2484 38.693 41.1608 38.7222C41.1016 38.7222 41.1016 38.5762 41.1608 38.5762ZM38.4176 10.9468C38.5051 10.9468 38.4768 10.8009 38.3892 10.8009C38.33 10.83 38.3596 10.9468 38.4176 10.9468ZM31.6776 37.0591C31.7368 37.0591 31.7072 36.9132 31.6492 36.9132C31.5618 36.9424 31.5901 37.0883 31.6776 37.0591ZM40.1975 36.6799C40.2851 36.6799 40.3147 36.8257 40.2271 36.8257C40.1679 36.8257 40.1395 36.6799 40.1975 36.6799ZM35.5003 10.5966C35.5878 10.5966 35.5582 10.4508 35.4706 10.4508C35.4127 10.4508 35.4423 10.5966 35.5003 10.5966ZM29.8989 14.9438C29.9865 14.9438 29.9569 14.7979 29.8693 14.7979C29.8113 14.7979 29.8397 14.9438 29.8989 14.9438ZM36.6376 11.5303C36.7252 11.5303 36.6968 11.3844 36.6092 11.3844C36.55 11.3844 36.5796 11.5303 36.6376 11.5303ZM37.8341 8.90445C37.9217 8.90445 37.8921 8.75857 37.8057 8.75857C37.7465 8.75857 37.7761 8.90445 37.8341 8.90445ZM39.2933 38.8972C39.3217 38.8972 39.3513 39.043 39.3217 39.043C39.2057 39.043 39.1761 38.8972 39.2933 38.8972ZM37.9796 14.4187C37.9796 14.3895 37.9513 14.3311 37.9513 14.3311C37.8341 14.3603 37.8341 14.477 37.9217 14.477H37.9513C37.9796 14.477 37.9796 14.4479 37.9796 14.4187ZM40.7229 35.1626C40.6649 35.1626 40.6934 35.3086 40.7514 35.3086C40.839 35.3086 40.8105 35.1626 40.7229 35.1626ZM39.0885 41.1729C38.9726 41.1729 38.9431 41.027 39.0602 41.027C39.0886 41.027 39.1181 41.1729 39.0885 41.1729ZM37.6009 30.8447L37.543 30.7572C37.4554 30.7863 37.4554 30.8447 37.4837 30.903C37.543 30.903 37.5713 30.8739 37.6009 30.8447ZM37.6009 38.9846C37.6589 38.9846 37.6885 39.1306 37.6305 39.1306C37.543 39.1306 37.5133 39.0139 37.6009 38.9846ZM28.7024 15.965C28.7321 15.965 28.7024 15.8191 28.6728 15.8191C28.5569 15.8191 28.5852 15.965 28.7024 15.965ZM37.1926 33.9665C37.105 33.9665 37.105 33.8206 37.1926 33.8206C37.2506 33.8206 37.2506 33.9665 37.1926 33.9665ZM34.9465 12.814C35.0045 12.814 35.0045 12.9599 34.9465 12.9599C34.8589 12.9599 34.8589 12.814 34.9465 12.814ZM36.6672 13.4851C36.5796 13.4851 36.5796 13.3392 36.6672 13.3392C36.7252 13.3392 36.7252 13.4851 36.6672 13.4851ZM40.7514 36.3881C40.665 36.3881 40.665 36.5339 40.7514 36.5339C40.8106 36.5339 40.8106 36.3881 40.7514 36.3881ZM36.5796 11.8804C36.6376 11.8804 36.6376 12.0263 36.5796 12.0263C36.4921 12.0263 36.4921 11.8804 36.5796 11.8804ZM36.0837 13.7476C36.1417 13.7476 36.1417 13.8935 36.0837 13.8935C35.9962 13.8935 35.9962 13.7476 36.0837 13.7476ZM37.8637 34.9292C37.7761 34.9292 37.7761 34.7834 37.8637 34.7834C37.9217 34.7834 37.9217 34.9292 37.8637 34.9292ZM39.4389 34.8418C39.4968 34.8418 39.4685 34.6959 39.4092 34.6959C39.3217 34.6959 39.3513 34.8418 39.4389 34.8418ZM14.4937 25.1262C14.4061 25.1262 14.4061 24.9803 14.4937 24.9803C14.5517 24.9803 14.5517 25.1262 14.4937 25.1262ZM38.1844 12.1721C38.0968 12.1721 38.0968 12.318 38.1844 12.318C38.2424 12.318 38.2424 12.1721 38.1844 12.1721ZM29.577 14.7979C29.6362 14.7979 29.6362 14.6521 29.577 14.6521C29.4906 14.6521 29.4906 14.7979 29.577 14.7979ZM41.1312 39.189C41.1892 39.189 41.1892 39.3349 41.1312 39.3349C41.0436 39.3349 41.0436 39.189 41.1312 39.189ZM39.8472 35.6586C39.9064 35.6586 39.9064 35.5128 39.8472 35.5128C39.7596 35.5128 39.7596 35.6586 39.8472 35.6586ZM34.2162 39.3349C34.1286 39.3349 34.1286 39.4806 34.2162 39.4806C34.2754 39.4806 34.2754 39.3349 34.2162 39.3349ZM38.0672 14.5646C37.9796 14.5646 38.0092 14.7104 38.0968 14.7104C38.1548 14.7104 38.1264 14.5646 38.0672 14.5646ZM38.0389 13.9519C37.9513 13.9519 37.9513 14.0978 38.0389 14.0978C38.0968 14.0978 38.0968 13.9519 38.0389 13.9519ZM36.8424 38.9555C36.9004 38.9555 36.93 39.1015 36.872 39.1015C36.7844 39.1015 36.7548 38.9555 36.8424 38.9555ZM38.6803 10.1007C38.7383 10.1007 38.7383 9.95477 38.6803 9.95477C38.5927 9.95477 38.5927 10.1007 38.6803 10.1007ZM32.9914 13.0182C33.0494 13.0182 33.0494 13.1641 32.9914 13.1641C32.9038 13.1641 32.9038 13.0182 32.9914 13.0182ZM40.0223 38.9263C39.9348 38.9263 39.9348 38.7806 40.0223 38.7806C40.0803 38.7806 40.0803 38.9263 40.0223 38.9263ZM39.9927 38.4012C39.9064 38.4012 39.9064 38.2553 39.9927 38.2553C40.0519 38.2553 40.0519 38.4012 39.9927 38.4012ZM40.2851 38.9846C40.1975 38.9846 40.1679 38.8389 40.2555 38.8389C40.3147 38.8389 40.3431 38.9846 40.2851 38.9846ZM37.4258 35.4252C37.4837 35.3962 37.4837 35.5419 37.4258 35.5712C37.3382 35.5712 37.3382 35.4252 37.4258 35.4252ZM36.2885 32.9162C36.3465 32.887 36.3465 33.0328 36.2885 33.062C36.2009 33.062 36.2009 32.9162 36.2885 32.9162ZM34.2754 13.5434C34.3914 13.5434 34.421 13.6892 34.3038 13.6892C34.2754 13.6892 34.2458 13.5434 34.2754 13.5434ZM37.4837 38.4886C37.4837 38.5471 37.4837 38.6055 37.4554 38.6055C37.3678 38.6055 37.3382 38.4595 37.4258 38.4595C37.4554 38.4595 37.4554 38.4886 37.4837 38.4886ZM34.8589 31.2532L34.7121 31.1656C34.7713 31.1656 34.7997 31.1365 34.8293 31.1072L34.8589 31.1656L34.9465 31.2532H34.8589ZM31.6197 27.6645C31.7368 27.6645 31.7368 27.8103 31.6197 27.8103C31.5913 27.8103 31.5913 27.6645 31.6197 27.6645ZM37.0471 12.7848C37.0176 12.7848 37.0176 12.9307 37.0471 12.9307C37.163 12.9307 37.163 12.7848 37.0471 12.7848ZM38.33 36.213C38.3016 36.213 38.3016 36.0672 38.33 36.0672C38.4472 36.0672 38.4472 36.213 38.33 36.213ZM41.2768 39.1598C41.2484 39.1598 41.2484 39.0139 41.2768 39.0139C41.394 39.0139 41.394 39.1598 41.2768 39.1598ZM30.8031 14.5062C30.8031 14.5938 30.7155 14.6521 30.5983 14.7396C30.5983 14.6521 30.7155 14.5938 30.8031 14.5062ZM31.8528 37.1466C31.8244 37.1466 31.8244 37.2926 31.8528 37.2926C31.97 37.2926 31.97 37.1466 31.8528 37.1466ZM38.5644 36.1839C38.5348 36.1839 38.5348 36.0379 38.5644 36.0379C38.6803 36.0379 38.6803 36.1839 38.5644 36.1839ZM30.0741 16.6361C29.9865 16.6652 29.9865 16.5194 30.0741 16.4902C30.1321 16.4902 30.1321 16.6361 30.0741 16.6361ZM41.1608 36.5339C41.2768 36.5048 41.2768 36.3589 41.1608 36.3881C41.1312 36.3881 41.1312 36.5339 41.1608 36.5339ZM34.7417 30.1152C34.6837 30.1152 34.6837 30.232 34.7417 30.232C34.8873 30.232 34.8293 30.1152 34.7417 30.1152ZM37.3678 14.1561C37.4837 14.127 37.4837 14.2728 37.3678 14.302C37.3382 14.302 37.3382 14.1561 37.3678 14.1561ZM39.2353 36.8549C39.2057 36.7382 39.3513 36.7382 39.3809 36.8549C39.3809 36.8841 39.2353 36.8841 39.2353 36.8549ZM40.9265 37.0008C41.014 37.0008 41.014 36.8841 40.9265 36.8841C40.839 36.8841 40.839 37.0008 40.9265 37.0008ZM40.4307 39.2473C40.3431 39.2473 40.3431 39.1306 40.4307 39.1306C40.5182 39.1306 40.5182 39.2473 40.4307 39.2473ZM37.6305 10.7134C37.7465 10.7134 37.7465 10.7134 37.7465 10.6258C37.7465 10.5383 37.543 10.7134 37.6305 10.7134ZM41.6271 41.4355C41.6271 41.4646 41.4816 41.4355 41.4816 41.4063C41.5099 41.3189 41.6567 41.3189 41.6271 41.4355ZM29.1687 15.5566C29.2563 15.5566 29.2563 15.4398 29.1687 15.4398C29.0811 15.4398 29.0811 15.5566 29.1687 15.5566ZM39.8472 36.8549L39.9644 36.709V36.8257L39.8472 36.9424V36.8549ZM38.9727 34.9585C38.9727 34.871 38.8555 34.871 38.8555 34.9585C38.8555 35.0459 38.9727 35.0459 38.9727 34.9585ZM38.7383 8.49599C38.8259 8.46682 38.8259 8.35011 38.7383 8.37928C38.6507 8.37928 38.6507 8.49599 38.7383 8.49599ZM38.4472 34.6959C38.4768 34.6667 38.4768 34.4916 38.4472 34.5208C38.3596 34.5208 38.3596 34.6959 38.4472 34.6959ZM40.1395 35.3962V35.4836L40.2271 35.5712H40.3147L40.1395 35.3962ZM37.9796 35.8629V35.9504H37.8341C37.8341 35.8629 37.9217 35.8629 37.9796 35.8629ZM34.3914 30.4654L34.479 30.5821H34.5665C34.5665 30.5529 34.5086 30.4945 34.479 30.4654H34.3914ZM34.9465 36.5339C34.8589 36.5339 34.8293 36.3881 34.9169 36.3881C34.9465 36.3881 34.9749 36.5339 34.9465 36.5339ZM38.6507 38.3137C38.6803 38.3137 38.7099 38.4595 38.6803 38.4595C38.5927 38.4595 38.5644 38.3137 38.6507 38.3137ZM37.4837 39.539C37.543 39.5099 37.5713 39.6266 37.5134 39.6558C37.4258 39.6558 37.3962 39.539 37.4837 39.539ZM41.394 37.2342C41.3064 37.2342 41.336 37.3799 41.4223 37.3799C41.4519 37.3799 41.4223 37.2342 41.394 37.2342ZM37.2211 12.5514C37.1346 12.5514 37.1631 12.6973 37.2507 12.6973C37.2802 12.6973 37.2507 12.5514 37.2211 12.5514ZM37.105 9.95477C37.1346 9.95477 37.105 9.8089 37.0754 9.8089C36.9879 9.8089 37.0175 9.95477 37.105 9.95477ZM31.9404 14.8271C31.912 14.8271 31.8824 14.6812 31.912 14.6812C31.9996 14.6812 32.0279 14.8271 31.9404 14.8271ZM36.6376 10.3924C36.55 10.3924 36.5796 10.5383 36.6672 10.5383C36.6968 10.5383 36.6672 10.3924 36.6376 10.3924ZM37.2507 14.302C37.3382 14.302 37.3382 14.3895 37.2507 14.3895C37.1348 14.3895 37.1348 14.302 37.2507 14.302ZM36.9596 11.5886C36.9879 11.5886 36.9879 11.7345 36.9596 11.7345C36.872 11.7345 36.872 11.5886 36.9596 11.5886ZM14.231 38.6055C14.231 38.5762 14.2606 38.5762 14.2889 38.5471C14.3185 38.5471 14.3185 38.5762 14.3482 38.5762L14.2014 38.7513C14.231 38.7222 14.231 38.6346 14.231 38.6055ZM28.5273 34.2875C28.5273 34.1999 28.6149 34.1999 28.6149 34.2875C28.6149 34.4042 28.5273 34.4042 28.5273 34.2875ZM36.6968 33.733C36.7548 33.733 36.7844 33.8499 36.7252 33.8499C36.6376 33.8499 36.6092 33.733 36.6968 33.733ZM38.2424 35.0752C38.272 35.0752 38.272 35.221 38.2424 35.221C38.1548 35.221 38.1548 35.0752 38.2424 35.0752ZM14.6688 42.4275C14.5813 42.4275 14.6108 42.5442 14.6393 42.5733C14.7268 42.5733 14.6984 42.4275 14.6688 42.4275ZM36.872 11.9971C36.9596 11.9971 36.9879 12.0846 36.9004 12.0846C36.7844 12.1138 36.7548 12.0263 36.872 11.9971ZM39.4389 40.7645C39.4092 40.7645 39.4092 40.6186 39.4389 40.6186C39.5264 40.6186 39.5264 40.7645 39.4389 40.7645ZM34.3334 11.8804C34.421 11.8804 34.421 11.7345 34.3334 11.7345C34.3038 11.7345 34.3038 11.8804 34.3334 11.8804ZM38.0092 14.9438C38.0968 14.9438 38.0968 14.7979 38.0092 14.7979C37.9796 14.7979 37.9796 14.9438 38.0092 14.9438ZM31.299 16.0526C31.2694 16.0526 31.2694 15.9066 31.299 15.9066C31.3865 15.9066 31.3865 16.0526 31.299 16.0526ZM37.8921 12.8724C37.8637 12.9015 37.8637 12.7557 37.8921 12.7265C37.9796 12.7265 37.9796 12.8724 37.8921 12.8724ZM31.8528 37.4968C31.8244 37.4968 31.8528 37.6135 31.8824 37.6135C31.9996 37.6135 31.97 37.4968 31.8528 37.4968ZM11.0214 42.0482C10.993 42.0773 11.0214 42.1649 11.051 42.194L11.1089 42.1357C11.1089 42.0773 11.0806 42.0482 11.0214 42.0482ZM40.0803 41.1146C40.0223 41.1146 39.9927 41.027 40.0223 40.9686L40.1395 41.0562C40.1099 41.0853 40.1099 41.1146 40.0803 41.1146ZM39.8188 39.3932V39.4515C39.7892 39.4515 39.7596 39.4223 39.7312 39.4223V39.3932C39.7312 39.2765 39.8188 39.2765 39.8188 39.3932ZM31.912 14.8271C31.9404 14.8271 31.9404 14.9438 31.912 14.9438C31.7948 14.9438 31.7948 14.8271 31.912 14.8271ZM31.6492 14.5938C31.6777 14.5938 31.6777 14.7104 31.6492 14.7104C31.5322 14.7396 31.5322 14.6229 31.6492 14.5938ZM37.7181 9.63384C37.8057 9.60468 37.8057 9.45878 37.7181 9.48797C37.6885 9.48797 37.6885 9.63384 37.7181 9.63384ZM41.6567 37.6135L41.6851 37.701L41.8023 37.6719L41.6567 37.5551V37.6135ZM37.8057 37.0591C37.7465 37.0591 37.7465 36.9424 37.8057 36.9424C37.8921 36.9424 37.8921 37.0591 37.8057 37.0591ZM34.8873 15.9942C34.8873 15.9358 35.0045 15.9358 35.0045 15.9942C35.0045 16.0817 34.8873 16.0817 34.8873 15.9942ZM31.0363 36.7382C30.9487 36.7382 30.9487 36.8549 31.0363 36.8549C31.0942 36.8549 31.0942 36.7382 31.0363 36.7382ZM12.6854 42.8069V42.9235C12.7137 42.9235 12.7433 42.8942 12.7717 42.8942V42.7776C12.7433 42.8069 12.7137 42.8069 12.6854 42.8069ZM34.3334 30.3487C34.3914 30.3487 34.3914 30.232 34.3334 30.232C34.2458 30.232 34.2458 30.3487 34.3334 30.3487ZM40.1975 36.3297C40.1975 36.4172 40.2851 36.4172 40.2851 36.3297C40.2555 36.213 40.1679 36.213 40.1975 36.3297ZM32.4363 28.0438C32.4659 28.0147 32.4659 27.8979 32.4363 27.9272C32.3203 27.9272 32.3203 28.0438 32.4363 28.0438ZM37.7761 13.2808C37.6885 13.2808 37.6885 13.3683 37.7761 13.3683C37.8921 13.3392 37.8921 13.2516 37.7761 13.2808ZM35.3251 12.7848L35.1796 12.9599V12.9015C35.1796 12.8724 35.208 12.8432 35.2376 12.7848H35.3251ZM38.9431 36.6506C38.9431 36.6799 38.8259 36.6799 38.8259 36.6506C38.8259 36.5339 38.9431 36.5339 38.9431 36.6506ZM34.7997 12.0846C34.8293 12.0846 34.8293 12.2013 34.7997 12.2013C34.6837 12.2013 34.6837 12.1138 34.7997 12.0846ZM11.3421 42.1649V42.019C11.2261 42.0482 11.2261 42.194 11.3421 42.1649ZM41.394 36.5048C41.3644 36.5048 41.3644 36.6215 41.394 36.6215C41.5099 36.6215 41.5099 36.5048 41.394 36.5048ZM28.4693 34.1707C28.5273 34.1707 28.5273 34.2875 28.4693 34.2875C28.3817 34.3166 28.3817 34.1999 28.4693 34.1707ZM42.065 37.9052C42.0354 37.8177 41.9195 37.8177 41.9478 37.9052C41.9478 37.9635 42.065 37.9635 42.065 37.9052ZM39.0305 37.7593L38.8851 37.6135H39.001C39.001 37.6426 39.0305 37.6719 39.0305 37.701V37.7593ZM31.97 37.3799L32.0576 37.4968V37.3799L31.97 37.2926V37.3799ZM11.664 43.9738C11.6924 44.0029 11.78 43.9446 11.78 43.8862C11.722 43.8571 11.664 43.8862 11.664 43.9738ZM32.2623 13.806C32.2623 13.8935 32.3487 13.8935 32.3487 13.806C32.3203 13.7184 32.2327 13.7184 32.2623 13.806ZM35.8506 9.48797C35.821 9.40044 35.7334 9.40044 35.763 9.48797C35.763 9.5755 35.8506 9.5755 35.8506 9.48797ZM35.821 14.8271C35.9086 14.8271 35.9086 14.9147 35.821 14.9147C35.7334 14.9438 35.7334 14.8563 35.821 14.8271ZM38.1264 10.2174L37.8637 10.5091H37.9217L38.1264 10.2174ZM31.4446 15.1772V15.0898C31.4446 15.0606 31.5322 14.973 31.5618 14.9438V14.973L31.4446 15.1772ZM29.0528 16.0234C29.1108 16.0234 29.0811 15.9358 29.0232 15.9358C28.9356 15.965 28.9652 16.0526 29.0528 16.0234ZM31.5037 15.6732C31.5037 15.7899 31.5038 15.7899 31.4742 15.7899C31.357 15.7899 31.5037 15.5857 31.5037 15.6732ZM39.1761 36.6506C39.1761 36.7382 39.0602 36.7382 39.0602 36.6506C39.0602 36.6215 39.1761 36.6215 39.1761 36.6506ZM36.7548 12.2305C36.7844 12.2305 36.7844 12.3472 36.7548 12.3472C36.6672 12.3472 36.6672 12.2305 36.7548 12.2305ZM38.7383 39.8017C38.6507 39.8017 38.6507 39.7142 38.7099 39.6849L38.7679 39.7433C38.7679 39.7725 38.7679 39.8017 38.7383 39.8017ZM38.4472 35.9212C38.4472 35.8337 38.5348 35.8046 38.5348 35.8922C38.5348 35.9504 38.4472 35.9796 38.4472 35.9212ZM11.4013 42.6609V42.7484C11.4592 42.7484 11.4888 42.69 11.4888 42.6317C11.4592 42.6025 11.4592 42.6317 11.4013 42.6609ZM38.1844 14.0102C38.272 14.0102 38.272 14.0102 38.272 13.9519C38.272 13.8643 38.0968 14.0102 38.1844 14.0102ZM37.9217 9.28374C38.0092 9.28374 38.0092 9.28374 38.0092 9.22538C38.0092 9.13786 37.8341 9.28374 37.9217 9.28374ZM15.7185 39.043C15.7778 39.043 15.8061 39.1306 15.7482 39.1306C15.6606 39.1306 15.631 39.043 15.7185 39.043ZM39.0885 40.035C39.0885 40.0642 39.1181 40.0933 39.1477 40.1226V40.1809C39.0602 40.1809 39.0305 40.0933 39.0885 40.035ZM41.6851 38.1678L41.8319 38.1386C41.8319 38.197 41.7147 38.2262 41.6851 38.2262V38.1678ZM34.041 39.2473C33.9831 39.2473 33.9831 39.3349 34.041 39.3349C34.1286 39.3349 34.1286 39.2473 34.041 39.2473ZM36.3465 10.7717C36.3465 10.8301 36.4341 10.8301 36.4341 10.7717C36.4341 10.6842 36.3465 10.6842 36.3465 10.7717ZM39.5264 36.7382C39.5264 36.6506 39.5844 36.6215 39.5844 36.709C39.614 36.8257 39.5561 36.8549 39.5264 36.7382ZM39.1761 39.189C39.1477 39.1598 39.1181 39.1306 39.0885 39.1306C39.0885 39.1015 39.0885 39.0722 39.1181 39.0722C39.1761 39.043 39.2057 39.1306 39.1761 39.189ZM31.8824 13.9227C31.97 13.9227 31.97 13.9227 31.97 13.8351C31.9404 13.7476 31.8528 13.9227 31.8824 13.9227ZM39.4968 35.1626C39.4389 35.1626 39.4389 35.2502 39.4968 35.2502C39.5844 35.221 39.5844 35.1335 39.4968 35.1626ZM36.9004 34.5792C36.9004 34.5208 36.9879 34.5208 36.9879 34.5792C36.9879 34.6667 36.9004 34.6667 36.9004 34.5792ZM34.9749 13.5726C34.9749 13.6602 34.8873 13.6602 34.8873 13.5726C34.8873 13.5142 34.9749 13.5142 34.9749 13.5726ZM37.4837 32.3619C37.3962 32.3619 37.3962 32.4494 37.4837 32.4494C37.543 32.4494 37.543 32.3619 37.4837 32.3619ZM39.2637 13.6602C39.3217 13.6602 39.3217 13.5726 39.2637 13.5726C39.1761 13.5726 39.1761 13.6602 39.2637 13.6602ZM36.4637 33.4996L36.55 33.5872H36.4637L36.3761 33.4996H36.4637ZM39.9064 38.0803H39.7596C39.7596 38.0219 39.8472 38.0219 39.9064 38.0219V38.0803ZM41.7443 39.0722C41.7727 39.043 41.7727 39.1598 41.7443 39.189C41.6567 39.189 41.6567 39.0722 41.7443 39.0722ZM17.9364 41.6689C17.8784 41.7273 17.9364 41.7856 17.966 41.7856C17.966 41.7565 17.9944 41.7273 18.024 41.698C17.966 41.698 17.966 41.6397 17.9364 41.6689ZM37.5713 15.4398C37.5713 15.469 37.6589 15.469 37.6589 15.4398C37.6589 15.3231 37.5713 15.3231 37.5713 15.4398ZM40.2555 35.9796C40.2555 36.0963 40.3431 36.0963 40.3431 35.9796C40.3431 35.9504 40.2555 35.9504 40.2555 35.9796ZM38.8851 9.54632C38.9431 9.54632 38.9431 9.45878 38.8851 9.45878C38.7975 9.48797 38.7975 9.5755 38.8851 9.54632ZM31.4446 14.7396C31.4162 14.7396 31.4162 14.6229 31.4446 14.6229C31.5322 14.6229 31.5322 14.7396 31.4446 14.7396ZM30.8907 15.7024C30.8611 15.7024 30.8611 15.6149 30.8907 15.6149C31.0066 15.6149 31.0066 15.7024 30.8907 15.7024ZM34.8589 30.407C34.8589 30.3195 34.7417 30.3195 34.7417 30.407C34.7417 30.4363 34.8589 30.4363 34.8589 30.407ZM38.7679 36.8841C38.8555 36.8841 38.8555 37.0008 38.7679 37.0008C38.7383 37.0008 38.7383 36.8841 38.7679 36.8841ZM38.5927 36.4172C38.6223 36.4172 38.6803 36.4756 38.7099 36.5048H38.5927L38.5644 36.4172H38.5927ZM38.7679 11.647C38.8259 11.647 38.8259 11.647 38.8259 11.5303C38.8259 11.5011 38.6803 11.647 38.7679 11.647ZM11.78 41.9315C11.6924 41.9315 11.722 42.019 11.7516 42.0482C11.8095 42.0482 11.8096 41.9606 11.78 41.9315ZM38.0092 11.0926C38.0092 11.0635 37.8921 11.2093 37.9217 11.2093C38.0092 11.2093 38.0092 11.2093 38.0092 11.0926ZM38.3016 10.0715C38.3596 10.0423 38.3596 9.95477 38.3016 9.98395C38.214 9.98395 38.214 10.0715 38.3016 10.0715ZM38.214 36.3297L38.2424 36.4464H38.1264L38.214 36.3297ZM39.2933 8.93363C39.2933 8.8461 39.2353 8.8461 39.2353 8.93363C39.2353 9.05033 39.2933 9.05033 39.2933 8.93363ZM14.4357 43.1569C14.4641 43.1569 14.4641 43.1569 14.4641 43.186C14.4641 43.186 14.4937 43.186 14.5233 43.1569C14.5517 43.0693 14.4357 43.0402 14.4357 43.1569ZM38.8555 37.2342C38.9726 37.2342 38.9726 37.2926 38.8555 37.2926C38.7679 37.2926 38.7679 37.2342 38.8555 37.2342ZM32.5831 37.5843C32.4955 37.5843 32.4955 37.6426 32.5831 37.6426C32.699 37.6426 32.699 37.5843 32.5831 37.5843ZM39.2353 34.6375C39.2353 34.6083 39.2057 34.5792 39.1761 34.5499H39.0885L39.1761 34.6375H39.2353ZM39.9927 37.3217C40.0223 37.4092 40.0223 37.4092 39.9644 37.4092C39.8768 37.4092 39.9927 37.2342 39.9927 37.3217ZM11.9268 41.698C11.9551 41.7856 11.9268 41.7565 11.9268 41.8439C12.0143 41.8149 12.0143 41.6689 11.9268 41.698ZM17.6737 41.2313C17.6157 41.2605 17.6157 41.2896 17.6157 41.3479C17.7033 41.3479 17.7033 41.2605 17.6737 41.2313ZM35.3831 15.3231C35.3547 15.2064 35.4423 15.2064 35.4706 15.3231C35.4706 15.3523 35.3831 15.3523 35.3831 15.3231ZM28.3817 34.4625C28.3817 34.4332 28.4693 34.4042 28.4693 34.4332C28.4977 34.5208 28.4101 34.5499 28.3817 34.4625ZM36.6092 13.7184L36.5796 13.5726H36.6672L36.6092 13.7184ZM40.1099 37.6426H39.9644L40.0223 37.5551L40.1099 37.6426ZM39.0602 9.16703C39.1477 9.16703 39.1477 9.16703 39.1477 9.0795C39.1477 9.05033 39.001 9.16703 39.0602 9.16703ZM35.6175 12.6973L35.5582 12.7848L35.4706 12.6973H35.6175ZM17.2654 41.9898H17.3825V41.9315C17.295 41.9315 17.2654 41.9315 17.2654 41.9898ZM42.123 37.2926L42.0354 37.205V37.2926L42.1526 37.3509L42.123 37.2926ZM38.33 12.318L38.2424 12.4931L38.4176 12.2888L38.33 12.318ZM38.5348 36.2713C38.5348 36.3006 38.4472 36.3297 38.4472 36.3006C38.4472 36.213 38.5348 36.1839 38.5348 36.2713ZM33.0197 23.4049C32.9618 23.4632 32.9038 23.4632 32.8742 23.4632L32.9334 23.3756C32.9618 23.4049 32.9914 23.4049 33.0197 23.4049ZM33.6623 12.8724C33.7499 12.8724 33.7499 12.8724 33.7499 12.7848C33.7499 12.7265 33.6044 12.9015 33.6623 12.8724ZM38.9431 10.4508C39.001 10.4508 39.001 10.4508 39.001 10.3924C38.9726 10.3049 38.8555 10.4799 38.9431 10.4508ZM31.1535 16.1401L31.1238 16.2859L31.0363 16.3151L31.1535 16.1401ZM35.9086 10.9468C35.9382 11.0343 35.9962 11.0343 35.9665 10.9468C35.9665 10.8592 35.9086 10.8592 35.9086 10.9468ZM30.5983 36.0963C30.57 36.0088 30.5108 36.0379 30.5404 36.1255C30.5404 36.1839 30.5983 36.1546 30.5983 36.0963ZM33.3996 12.4347C33.3996 12.5222 33.3996 12.5222 33.3416 12.5222C33.2541 12.5222 33.3996 12.4055 33.3996 12.4347ZM39.4968 36.0088C39.4968 36.0379 39.4092 36.0379 39.4092 36.0088C39.4092 35.9212 39.4968 35.9212 39.4968 36.0088ZM29.7521 15.0314C29.7521 14.9438 29.6646 14.9438 29.6646 15.0314C29.6646 15.0606 29.7521 15.0606 29.7521 15.0314ZM37.9217 36.0963C37.9217 36.1255 37.8341 36.1255 37.8341 36.0963C37.8341 36.0088 37.9217 36.0088 37.9217 36.0963ZM35.763 11.1802C35.763 11.2093 35.8506 11.2093 35.8506 11.1802C35.8506 11.0926 35.763 11.0926 35.763 11.1802ZM30.6279 15.8191C30.6279 15.8483 30.6279 15.8483 30.5404 15.8483C30.4824 15.8775 30.6279 15.7024 30.6279 15.8191ZM12.0143 39.8599C11.9551 39.8599 11.9267 39.8892 11.9551 39.9475C12.0427 39.9475 12.0143 39.8892 12.0143 39.8599ZM40.4899 37.3799C40.5775 37.3799 40.5775 37.4383 40.4899 37.4383C40.4307 37.4383 40.4307 37.3799 40.4899 37.3799ZM38.214 40.3559C38.1548 40.3559 38.1548 40.2977 38.214 40.2977C38.3016 40.2977 38.3016 40.3559 38.214 40.3559ZM33.37 35.9504C33.37 36.0088 33.37 36.0379 33.4576 36.0672C33.37 36.0963 33.3416 36.0088 33.2825 35.9796C33.2825 35.9796 33.312 35.9796 33.37 35.9504ZM36.0258 38.8389C35.9962 38.8389 35.9665 38.8097 35.9382 38.7806C35.9665 38.7806 35.9962 38.7513 36.0258 38.7513C36.0541 38.7513 36.0541 38.8389 36.0258 38.8389ZM40.2555 38.6055C40.2555 38.5179 40.3147 38.5179 40.3147 38.6055C40.3147 38.6638 40.2555 38.6638 40.2555 38.6055ZM35.5582 12.0846C35.5582 12.1721 35.4706 12.1721 35.4706 12.0846C35.4423 12.0554 35.5299 12.0554 35.5582 12.0846ZM36.1713 14.3603C36.1713 14.4479 36.1134 14.4479 36.1134 14.3603C36.1134 14.302 36.1713 14.302 36.1713 14.3603ZM38.3016 40.4435C38.33 40.4435 38.33 40.531 38.3016 40.531C38.214 40.531 38.214 40.4435 38.3016 40.4435ZM39.7892 41.1146C39.7596 41.0562 39.8188 41.0562 39.8472 41.1146C39.8472 41.2022 39.7892 41.2022 39.7892 41.1146ZM33.6907 30.0278V29.9985L33.7499 30.0278V30.1445C33.7203 30.1152 33.6907 30.0569 33.6907 30.0278ZM38.5644 40.6769C38.5927 40.6769 38.5927 40.7645 38.5644 40.7645C38.4768 40.7645 38.4768 40.6769 38.5644 40.6769ZM38.6223 34.8126H38.7383L38.5927 34.725L38.6223 34.8126ZM37.2211 33.7039C37.2211 33.733 37.2211 33.7623 37.2507 33.7915L37.105 33.733L37.2211 33.7039ZM36.1417 38.8972H36.2589V38.9846L36.1417 38.8972ZM27.739 33.7623V33.6455L27.8267 33.7623H27.739ZM35.5878 14.973C35.6175 14.973 35.6458 14.9438 35.6754 14.9438L35.5878 15.0898V14.973ZM40.2555 37.3799H40.3431V37.4383H40.2555V37.3799ZM41.0436 39.189C41.0436 39.2182 41.0436 39.2182 40.9562 39.2182C40.8982 39.2182 41.0436 39.1015 41.0436 39.189ZM31.4161 14.5646C31.4446 14.5646 31.4446 14.6229 31.4161 14.6229C31.299 14.6229 31.299 14.5646 31.4161 14.5646ZM39.9348 37.0591C39.9348 36.9424 39.9927 36.9424 39.9927 37.0591C39.9927 37.0883 39.9348 37.0883 39.9348 37.0591ZM40.9857 36.5339C40.9857 36.5632 41.0436 36.5632 41.0436 36.5339C41.0436 36.4172 40.9857 36.4172 40.9857 36.5339ZM15.8061 39.189H15.8357C15.8061 39.2182 15.7778 39.2765 15.7778 39.3349C15.7482 39.2765 15.7482 39.189 15.8061 39.189ZM39.0305 40.5019H38.9431V40.4143L39.0305 40.5019ZM31.7368 14.0686V13.9811L31.6492 14.127L31.7368 14.0686ZM16.0109 40.2393L16.0985 40.3269V40.2393H16.0109ZM30.0741 15.6441L30.1617 15.7316H30.0741V15.6441ZM31.7368 37.1466H31.8244L31.7368 37.0591V37.1466ZM36.4921 11.5303L36.4045 11.6178H36.4921V11.5303ZM36.93 39.189V39.1015L37.0176 39.1598L36.93 39.189ZM13.9398 39.2182C13.9102 39.2182 13.9102 39.1306 13.9398 39.1306H13.9978L13.9398 39.2182ZM35.15 11.4719C35.15 11.3844 35.0921 11.3844 35.0921 11.4719C35.0921 11.5011 35.15 11.5011 35.15 11.4719ZM37.2507 39.539V39.4223L37.3087 39.539H37.2507ZM28.2941 34.4332L28.2349 34.3166H28.2941V34.4332ZM35.9962 15.2939L35.9086 15.1772L35.9382 15.2939H35.9962ZM38.3016 35.8337C38.272 35.7462 38.3016 35.7462 38.33 35.8337C38.33 35.9212 38.3016 35.9212 38.3016 35.8337ZM34.2162 21.8877C34.1582 21.8877 34.1286 21.8585 34.1286 21.8293C34.1582 21.8585 34.2162 21.8585 34.2458 21.8585C34.2458 21.8585 34.2458 21.8877 34.2162 21.8877ZM36.8424 13.4559C36.8424 13.5434 36.8128 13.5726 36.8128 13.4851C36.8128 13.4267 36.8424 13.3975 36.8424 13.4559ZM38.5051 35.6586C38.5051 35.5712 38.5348 35.5712 38.5348 35.6586C38.5348 35.717 38.5051 35.717 38.5051 35.6586ZM38.214 34.4625C38.214 34.5208 38.2424 34.5208 38.2424 34.4625C38.2424 34.375 38.214 34.375 38.214 34.4625ZM38.4176 11.2969C38.5051 11.2969 38.5051 11.2677 38.4176 11.2677C38.3596 11.2677 38.3596 11.2969 38.4176 11.2969ZM35.705 16.957V17.0445H35.6458L35.705 16.957ZM37.4258 32.9162V32.9745H37.5134L37.4258 32.9162ZM31.9996 37.6719H32.0872L31.9996 37.6135V37.6719ZM15.7778 40.035V40.1226H15.8357L15.7778 40.035ZM35.0921 10.3924L35.034 10.4799H35.0921V10.3924ZM40.1679 38.4595L40.0519 38.4012H40.1395L40.1679 38.4595ZM37.8921 35.4836V35.3962L37.9513 35.4836H37.8921ZM35.6458 13.31V13.2516H35.7334L35.6458 13.31ZM29.9273 15.8775C30.0149 15.8483 30.0149 15.8775 29.9273 15.9066C29.8693 15.9066 29.8693 15.8775 29.9273 15.8775ZM37.8637 9.45878V9.51714L37.9513 9.45878H37.8637ZM38.214 34.7542C38.2424 34.8418 38.272 34.8418 38.2424 34.7542C38.2424 34.6959 38.214 34.6959 38.214 34.7542ZM10.0592 40.0933V40.0059H10L10.0592 40.0933ZM45.4202 47.9125C45.4498 47.9416 45.4781 47.9709 45.4781 48V47.9125H45.4202ZM36.6968 10.6842H36.6672L36.5796 10.8301L36.6968 10.6842ZM31.5037 34.5499C31.5037 34.5499 31.5322 34.5499 31.5618 34.5208V34.5499C31.5618 34.6083 31.5321 34.5792 31.5037 34.5499ZM41.0436 37.5843H41.1016L41.0436 37.6426V37.5843ZM31.7072 36.3297C31.7072 36.3881 31.7368 36.4172 31.7652 36.4172L31.7072 36.3297ZM33.3996 13.3683C33.3701 13.3683 33.3416 13.3975 33.3416 13.4267L33.4292 13.3683H33.3996ZM27.9734 33.8499L27.8858 33.8206H27.9734V33.8499ZM34.8589 18.445V18.4158C34.8293 18.4158 34.7997 18.445 34.7713 18.445H34.8589ZM13.9978 38.9846C13.9682 38.9846 13.9682 39.0139 13.9398 39.0139C13.9398 39.0139 13.9398 38.9846 13.9682 38.9555C13.9682 38.9555 13.9682 38.9846 13.9978 38.9846ZM36.9004 10.2757L36.872 10.3632H36.9004V10.2757ZM40.4899 36.1839H40.4023L40.4899 36.213V36.1839ZM39.4389 39.3057C39.4685 39.3057 39.4685 39.3057 39.4968 39.3349C39.4685 39.3349 39.4389 39.3057 39.4092 39.3057H39.4389ZM45.3905 47.8542V47.8249H45.3622L45.3905 47.8542ZM36.55 39.2182L36.5796 39.2473H36.55V39.2182ZM13.9398 39.2473L13.9102 39.2765V39.2473H13.9398ZM37.2507 12.9015C37.2802 12.8724 37.2802 12.8432 37.2802 12.8432L37.2507 12.9015ZM23.7129 33.9956C23.7129 33.9956 23.7129 33.9665 23.7425 33.9665L23.7129 33.9956ZM36.2885 39.043L36.3169 39.0722C36.2885 39.0722 36.2885 39.043 36.2885 39.043ZM30.7451 35.8337C30.7451 35.8629 30.7735 35.863 30.7735 35.8922C30.7451 35.863 30.7451 35.8629 30.7451 35.8337ZM38.0968 12.4055C38.0968 12.4347 38.0968 12.4347 38.0672 12.4347L38.0968 12.4055Z" fill="white"/>
</svg>
