<svg width="935" height="96" viewBox="0 0 935 96" fill="none" xmlns="http://www.w3.org/2000/svg">
<rect y="8" width="80" height="80" rx="40" fill="#E6007A"/>
<path fill-rule="evenodd" clip-rule="evenodd" d="M40 74.5625C54.6701 74.5625 66.5625 62.6701 66.5625 48C66.5625 33.3299 54.6701 21.4375 40 21.4375C25.3299 21.4375 13.4375 33.3299 13.4375 48C13.4375 62.6701 25.3299 74.5625 40 74.5625ZM46.8605 47.0762C45.4626 48.8283 44.0625 50.7834 44.0625 53.0248V60.2656C44.0625 62.4662 42.2786 64.25 40.0781 64.25C37.8776 64.25 36.0938 62.4662 36.0938 60.2656V53.0248C36.0938 50.7834 34.6937 48.8283 33.2958 47.0762C32.1132 45.594 31.4063 43.7155 31.4063 41.6719C31.4063 36.8825 35.2888 33 40.0781 33C44.8675 33 48.75 36.8825 48.75 41.6719C48.75 43.7155 48.0431 45.594 46.8605 47.0762Z" fill="white"/>
<path d="M142.176 14C147.456 14 152.08 14.96 156.048 16.88C160.016 18.8 163.072 21.488 165.216 24.944C167.392 28.368 168.48 32.304 168.48 36.752C168.48 41.2 167.392 45.152 165.216 48.608C163.072 52.032 160.016 54.704 156.048 56.624C152.08 58.544 147.456 59.504 142.176 59.504H116.736V86H104.064V14H142.176ZM141.696 48.56C144.544 48.56 147.008 48.08 149.088 47.12C151.2 46.16 152.816 44.8 153.936 43.04C155.056 41.248 155.616 39.152 155.616 36.752C155.616 34.352 155.056 32.272 153.936 30.512C152.816 28.72 151.2 27.344 149.088 26.384C147.008 25.424 144.544 24.944 141.696 24.944H116.736V48.56H141.696ZM206.078 87.344C199.55 87.344 193.774 86.16 188.75 83.792C183.758 81.392 179.87 78.032 177.086 73.712C174.334 69.392 172.958 64.432 172.958 58.832C172.958 53.232 174.334 48.272 177.086 43.952C179.87 39.632 183.758 36.288 188.75 33.92C193.774 31.52 199.55 30.32 206.078 30.32C212.606 30.32 218.366 31.52 223.358 33.92C228.382 36.288 232.27 39.632 235.022 43.952C237.806 48.272 239.198 53.232 239.198 58.832C239.198 64.432 237.806 69.392 235.022 73.712C232.27 78.032 228.382 81.392 223.358 83.792C218.366 86.16 212.606 87.344 206.078 87.344ZM206.078 77.552C210.238 77.552 213.854 76.8 216.926 75.296C219.998 73.76 222.366 71.584 224.03 68.768C225.694 65.952 226.526 62.64 226.526 58.832C226.526 55.056 225.694 51.76 224.03 48.944C222.366 46.128 219.998 43.952 216.926 42.416C213.854 40.88 210.238 40.112 206.078 40.112C201.918 40.112 198.302 40.88 195.23 42.416C192.158 43.952 189.79 46.128 188.126 48.944C186.462 51.76 185.63 55.056 185.63 58.832C185.63 62.64 186.462 65.952 188.126 68.768C189.79 71.584 192.158 73.76 195.23 75.296C198.302 76.8 201.918 77.552 206.078 77.552ZM249.343 86V12.08H261.823V86H249.343ZM313.67 54.224L334.454 86H319.766L305.75 63.536L286.646 86H275.03V12.08H287.51V69.344L318.422 31.664H332.822L313.67 54.224ZM401.957 31.664L399.077 58.832L401.957 86H389.093L387.701 72.512C384.885 77.184 381.317 80.832 376.997 83.456C372.677 86.048 367.909 87.344 362.693 87.344C357.445 87.344 352.757 86.16 348.629 83.792C344.501 81.392 341.285 78.032 338.981 73.712C336.677 69.392 335.525 64.432 335.525 58.832C335.525 53.232 336.677 48.272 338.981 43.952C341.285 39.632 344.501 36.288 348.629 33.92C352.757 31.52 357.445 30.32 362.693 30.32C367.941 30.32 372.709 31.616 376.997 34.208C381.317 36.8 384.885 40.432 387.701 45.104L389.093 31.664H401.957ZM365.669 77.36C369.029 77.36 372.181 76.592 375.125 75.056C378.101 73.488 380.725 71.312 382.997 68.528C385.301 65.744 387.141 62.512 388.517 58.832C387.141 55.184 385.301 51.968 382.997 49.184C380.725 46.4 378.101 44.224 375.125 42.656C372.181 41.088 369.029 40.304 365.669 40.304C362.309 40.304 359.301 41.104 356.645 42.704C353.989 44.272 351.909 46.464 350.405 49.28C348.933 52.064 348.197 55.248 348.197 58.832C348.197 62.416 348.933 65.616 350.405 68.432C351.909 71.248 353.989 73.44 356.645 75.008C359.301 76.576 362.309 77.36 365.669 77.36ZM479.728 12.08L474.832 58.064L477.616 86H464.848L463.456 72.176C460.64 76.976 457.056 80.704 452.704 83.36C448.352 86.016 443.536 87.344 438.256 87.344C433.008 87.344 428.32 86.16 424.192 83.792C420.064 81.392 416.848 78.032 414.544 73.712C412.24 69.392 411.088 64.432 411.088 58.832C411.088 53.232 412.24 48.272 414.544 43.952C416.848 39.632 420.064 36.288 424.192 33.92C428.32 31.52 433.008 30.32 438.256 30.32C443.568 30.32 448.384 31.648 452.704 34.304C457.056 36.928 460.64 40.64 463.456 45.44L466.864 12.08H479.728ZM441.232 77.36C444.592 77.36 447.744 76.592 450.688 75.056C453.664 73.488 456.288 71.312 458.56 68.528C460.864 65.744 462.704 62.512 464.08 58.832C462.704 55.184 460.864 51.968 458.56 49.184C456.288 46.4 453.664 44.224 450.688 42.656C447.744 41.088 444.592 40.304 441.232 40.304C437.872 40.304 434.864 41.104 432.208 42.704C429.552 44.272 427.472 46.464 425.968 49.28C424.496 52.064 423.76 55.248 423.76 58.832C423.76 62.416 424.496 65.616 425.968 68.432C427.472 71.248 429.552 73.44 432.208 75.008C434.864 76.576 437.872 77.36 441.232 77.36ZM519.672 87.344C513.144 87.344 507.368 86.16 502.344 83.792C497.352 81.392 493.464 78.032 490.68 73.712C487.928 69.392 486.552 64.432 486.552 58.832C486.552 53.232 487.928 48.272 490.68 43.952C493.464 39.632 497.352 36.288 502.344 33.92C507.368 31.52 513.144 30.32 519.672 30.32C526.2 30.32 531.96 31.52 536.952 33.92C541.976 36.288 545.864 39.632 548.616 43.952C551.4 48.272 552.792 53.232 552.792 58.832C552.792 64.432 551.4 69.392 548.616 73.712C545.864 78.032 541.976 81.392 536.952 83.792C531.96 86.16 526.2 87.344 519.672 87.344ZM519.672 77.552C523.832 77.552 527.448 76.8 530.52 75.296C533.592 73.76 535.96 71.584 537.624 68.768C539.288 65.952 540.12 62.64 540.12 58.832C540.12 55.056 539.288 51.76 537.624 48.944C535.96 46.128 533.592 43.952 530.52 42.416C527.448 40.88 523.832 40.112 519.672 40.112C515.512 40.112 511.896 40.88 508.824 42.416C505.752 43.952 503.384 46.128 501.72 48.944C500.056 51.76 499.224 55.056 499.224 58.832C499.224 62.64 500.056 65.952 501.72 68.768C503.384 71.584 505.752 73.76 508.824 75.296C511.896 76.8 515.512 77.552 519.672 77.552ZM555.761 41.264V35.6L567.377 32.624L572.561 17.456H579.857V31.664H605.105V41.264H579.857V64.784C579.857 67.824 580.273 70.24 581.105 72.032C581.969 73.824 583.297 75.12 585.089 75.92C586.913 76.688 589.329 77.072 592.337 77.072C595.089 77.072 597.553 76.784 599.729 76.208C601.905 75.6 604.017 74.704 606.065 73.52V83.792C604.209 84.752 601.761 85.584 598.721 86.288C595.681 86.992 592.657 87.344 589.649 87.344C582.001 87.344 576.369 85.52 572.753 81.872C569.169 78.192 567.377 73.136 567.377 66.704V41.264H555.761ZM676.658 74.288L704.69 14H718.226L683.474 86H669.362L634.61 14H648.242L676.658 74.288ZM779.395 31.664L776.515 58.832L779.395 86H766.531L765.139 72.512C762.323 77.184 758.755 80.832 754.435 83.456C750.115 86.048 745.347 87.344 740.131 87.344C734.883 87.344 730.195 86.16 726.067 83.792C721.939 81.392 718.723 78.032 716.419 73.712C714.115 69.392 712.963 64.432 712.963 58.832C712.963 53.232 714.115 48.272 716.419 43.952C718.723 39.632 721.939 36.288 726.067 33.92C730.195 31.52 734.883 30.32 740.131 30.32C745.379 30.32 750.147 31.616 754.435 34.208C758.755 36.8 762.323 40.432 765.139 45.104L766.531 31.664H779.395ZM743.107 77.36C746.467 77.36 749.619 76.592 752.563 75.056C755.539 73.488 758.163 71.312 760.435 68.528C762.739 65.744 764.579 62.512 765.955 58.832C764.579 55.184 762.739 51.968 760.435 49.184C758.163 46.4 755.539 44.224 752.563 42.656C749.619 41.088 746.467 40.304 743.107 40.304C739.747 40.304 736.739 41.104 734.083 42.704C731.427 44.272 729.347 46.464 727.843 49.28C726.371 52.064 725.635 55.248 725.635 58.832C725.635 62.416 726.371 65.616 727.843 68.432C729.347 71.248 731.427 73.44 734.083 75.008C736.739 76.576 739.747 77.36 743.107 77.36ZM850.925 86H838.445L836.333 73.04C834.189 77.584 831.181 81.104 827.309 83.6C823.437 86.096 819.053 87.344 814.157 87.344C809.197 87.344 804.957 86.336 801.437 84.32C797.917 82.272 795.229 79.328 793.373 75.488C791.549 71.648 790.637 67.056 790.637 61.712V31.664H803.117V59.792C803.117 65.392 804.397 69.664 806.957 72.608C809.549 75.52 813.293 76.976 818.189 76.976C821.645 76.976 824.653 76.208 827.213 74.672C829.805 73.104 831.789 70.912 833.165 68.096C834.573 65.248 835.277 61.936 835.277 58.16V31.664H847.757V68.336L850.925 86ZM861.718 86V12.08H874.198V86H861.718ZM881.261 41.264V35.6L892.877 32.624L898.061 17.456H905.357V31.664H930.605V41.264H905.357V64.784C905.357 67.824 905.773 70.24 906.605 72.032C907.469 73.824 908.797 75.12 910.589 75.92C912.413 76.688 914.829 77.072 917.837 77.072C920.589 77.072 923.053 76.784 925.229 76.208C927.405 75.6 929.517 74.704 931.565 73.52V83.792C929.709 84.752 927.261 85.584 924.221 86.288C921.181 86.992 918.157 87.344 915.149 87.344C907.501 87.344 901.869 85.52 898.253 81.872C894.669 78.192 892.877 73.136 892.877 66.704V41.264H881.261Z" fill="black"/>
</svg>
