<svg width="56" height="56" viewBox="0 0 56 56" fill="none" xmlns="http://www.w3.org/2000/svg">
<rect width="56" height="56" fill="#3F2667"/>
<path fill-rule="evenodd" clip-rule="evenodd" d="M8 28.0007L28.0071 8L48 28.0059L28.0071 48L8 28.0007ZM39.8212 21.9976C38.99 22.9264 37.1775 25.2652 37.1775 28.0007C37.1775 30.7362 38.99 33.075 39.8212 34.0037C34.4815 33.7211 30.2119 28.0007 30.2119 28.0007C30.2119 28.0007 34.4815 22.2802 39.8212 21.9976ZM16.2077 21.9976C21.5474 22.2802 25.8169 28.0007 25.8169 28.0007C25.8169 28.0007 21.5474 33.7211 16.2077 34.0037C17.0389 33.075 18.8513 30.7362 18.8513 28.0007C18.8513 25.2652 17.0389 22.9264 16.2077 21.9976ZM15.3617 22.033C14.5168 22.9839 12.7486 25.2988 12.7486 28.0007C12.7486 30.7131 14.5307 33.0357 15.3715 33.9795L19.6966 38.3082L19.717 38.2882C21.4485 36.595 24.327 34.3697 27.6084 34.2002C26.7822 35.1212 24.9604 37.4632 24.9604 40.2037C24.9604 42.9443 26.7822 45.2862 27.6084 46.2073L28.0071 46.625L28.4056 46.2073C29.2318 45.2862 31.0536 42.9443 31.0536 40.2037C31.0536 37.4632 29.2318 35.1212 28.4056 34.2002C31.6999 34.3704 34.5881 36.6125 36.3174 38.3082L40.7445 33.8774L40.7548 33.8657C41.6302 32.8597 43.2803 30.6108 43.2803 28.0007C43.2803 25.3805 41.6172 23.1241 40.7445 22.1241L36.338 17.714L36.3177 17.7339C34.5879 19.4293 31.6999 21.6714 28.4056 21.8416C29.2318 20.9204 31.0536 18.5786 31.0536 15.838C31.0536 13.0974 29.2318 10.7555 28.4056 9.83447L28.0071 9.37641L27.6084 9.83447C26.7822 10.7555 24.9604 13.0974 24.9604 15.838C24.9604 18.5786 26.7822 20.9204 27.6084 21.8416C24.3012 21.6708 21.4035 19.4117 19.6761 17.714L15.3617 22.033Z" fill="white"/>
</svg>
