<svg width="157" height="160" viewBox="0 0 157 160" fill="none" xmlns="http://www.w3.org/2000/svg">
<circle cx="78.5" cy="78" r="78" fill="#FFAC7D" fill-opacity="0.12"/>
<path d="M53.8998 108.346H104.1C109.233 108.346 112.433 102.779 109.866 98.3458L84.7664 54.9792C82.1997 50.5458 75.7998 50.5458 73.2331 54.9792L48.1331 98.3458C45.5664 102.779 48.7664 108.346 53.8998 108.346ZM78.9998 85.0125C77.1664 85.0125 75.6664 83.5125 75.6664 81.6792V75.0125C75.6664 73.1792 77.1664 71.6792 78.9998 71.6792C80.8331 71.6792 82.3331 73.1792 82.3331 75.0125V81.6792C82.3331 83.5125 80.8331 85.0125 78.9998 85.0125ZM82.3331 98.3458H75.6664V91.6792H82.3331V98.3458Z" fill="#FD4935"/>
</svg>
