<svg width="56" height="56" viewBox="0 0 56 56" fill="none" xmlns="http://www.w3.org/2000/svg">
<rect width="56" height="56" fill="#8EB002"/>
<path fill-rule="evenodd" clip-rule="evenodd" d="M33.8138 15.2377H19.1724V21.5623H33.8138C35.5734 21.5623 37 20.1466 37 18.4C37 16.6534 35.5734 15.2377 33.8138 15.2377ZM15 12V21.6377V24.8V31.2V34.4377V44H34.9517C38.5131 44 41.4 41.1346 41.4 37.6C41.4 35.6987 40.5646 33.991 39.2384 32.8188C40.5646 31.6466 41.4 29.9389 41.4 28.0377C41.4 26.1159 40.5466 24.392 39.1954 23.2188C40.5466 22.0457 41.4 20.3217 41.4 18.4C41.4 14.8654 38.5131 12 34.9517 12H15ZM33.8138 34.4377H19.1724V40.7623H33.8138C35.5734 40.7623 37 39.3466 37 37.6C37 35.8534 35.5734 34.4377 33.8138 34.4377ZM33.8138 31.2C35.5734 31.2 37 29.7841 37 28.0377C37 26.2911 35.5734 24.8753 33.8138 24.8753H19.1724V31.2H33.8138Z" fill="white"/>
</svg>
