<svg width="56" height="56" viewBox="0 0 56 56" fill="none" xmlns="http://www.w3.org/2000/svg">
<rect width="56" height="56" fill="#2882DA"/>
<path fill-rule="evenodd" clip-rule="evenodd" d="M12 45.9782H19.6083L21.7409 39.2563H39.2053C40.5886 39.2563 41.7815 37.7577 41.0497 35.2793C39.8535 31.2274 37.5176 25.2697 35.6305 20.4565C34.608 17.8488 33.7173 15.5766 33.2109 14.126C31.77 9.9978 25.1154 9.9184 23.5853 14.126C22.0553 18.3336 12 45.9782 12 45.9782ZM28.3693 34.3571C31.9982 34.3571 34.9401 31.4152 34.9401 27.7863C34.9401 24.1574 31.9982 21.2155 28.3693 21.2155C24.7404 21.2155 21.7985 24.1574 21.7985 27.7863C21.7985 31.4152 24.7404 34.3571 28.3693 34.3571ZM35.747 40.1209H42.3178L44.7386 46H37.5914L35.747 40.1209ZM32.4449 27.9425L28.3693 23.8669L24.2937 27.9425L28.3693 32.0182L32.4449 27.9425Z" fill="white"/>
</svg>
