<svg width="56" height="56" viewBox="0 0 56 56" fill="none" xmlns="http://www.w3.org/2000/svg">
<rect width="56" height="56" fill="#E86A18"/>
<path fill-rule="evenodd" clip-rule="evenodd" d="M34.0268 33.3305C34.2654 33.3887 34.5101 33.4191 34.7557 33.4209C35.6202 33.4209 36.1715 32.997 36.4175 32.5298C36.6387 32.1097 36.6505 31.631 36.4702 31.1724L38.8384 30.1764C39.1145 30.0603 39.2442 29.7425 39.1279 29.4667C39.0116 29.1908 38.6935 29.0613 38.4173 29.1775L35.8248 30.2678C35.6075 30.0493 35.3882 29.8325 35.1786 29.6253L35.1312 29.5785C34.751 29.2024 34.4118 28.8667 34.1743 28.6136C34.9822 28.4831 36.443 28.1919 37.0519 28.0366C37.129 28.017 37.2038 27.9966 37.2765 27.9764L37.2791 27.9757C37.7682 27.8423 38.1217 27.7459 38.51 28.063C38.9789 28.4461 40.3355 29.8131 41.4134 30.9885C41.7195 31.3222 42.1448 31.5043 42.5852 31.5628L40.093 39.7512C39.7812 40.7755 39.0322 41.61 38.0467 42.031L27.1461 46.687C26.8706 46.8047 26.7427 47.1232 26.8605 47.3983C26.9784 47.6735 27.2973 47.8012 27.5727 47.6835L38.4733 43.0275C39.7535 42.4807 40.7262 41.397 41.1312 40.0664L43.7378 31.502C43.7448 31.4791 43.7503 31.4559 43.7541 31.4329C43.8057 31.4131 43.8559 31.3916 43.9043 31.3683C44.8179 30.9279 45.1332 30.0976 44.7682 29.0907C44.2214 27.5815 42.4522 25.3645 40.9788 23.7927C40.5202 23.3203 40.0329 22.8764 39.5197 22.4636C39.1211 22.1312 38.7772 21.8444 38.6414 21.6466C37.8382 20.4737 37.14 17.4898 37.5533 16.2595C38.2538 14.1746 39.0249 11.004 38.8938 8.92768C38.8673 8.52294 38.7491 8.25936 38.5304 8.12169C38.2223 7.92819 37.8215 8.071 37.5473 8.19547C37.1346 8.3826 35.5096 9.34007 33.87 10.6268C31.612 9.39282 28.2501 9.93873 26.8715 10.5298C26.2948 10.0904 23.9049 8.28883 23.2753 8.07945C23.1421 8.02444 22.9991 7.99746 22.8551 8.00019C22.711 8.00291 22.5691 8.0353 22.4382 8.09532C22.3498 8.14546 22.2726 8.21323 22.2115 8.2944C22.1498 8.37601 22.105 8.46977 22.0794 8.57013C21.8671 9.31636 22.3276 11.906 22.587 12.8455L22.6058 12.914C22.975 14.2507 23.424 15.8763 23.6422 17.881C23.5842 17.8768 23.5246 17.8819 23.4652 17.8975L17.4143 19.488C16.2007 19.807 15.8547 21.3621 16.8188 22.1645L30.0654 33.1906L25.5981 46.433C25.4381 46.9074 24.8492 47.071 24.4668 46.7472L13.4832 37.4427C13.154 37.1638 13.0132 36.7216 13.1207 36.304L16.6164 22.7252C16.6911 22.4353 16.5163 22.1399 16.2261 22.0654C15.9359 21.9909 15.6401 22.1654 15.5656 22.4553L12.0698 36.0341C11.8587 36.8538 12.1351 37.7218 12.7813 38.2692L23.765 47.5737C24.7321 48.3929 26.2215 47.9793 26.6264 46.7791L31.1342 33.4165L32.5859 32.806C33.0992 33.0459 33.587 33.2265 34.0268 33.3305ZM17.6905 20.5362L23.7348 18.9474C24.099 23.655 24.98 25.5195 25.9285 27.1576C26.8907 28.82 29.1872 30.8552 31.3544 32.1479L30.792 32.3845L17.5135 21.3319C17.2268 21.0933 17.3297 20.6311 17.6905 20.5362ZM34.2396 15.4071C34.426 15.177 34.5994 14.963 34.7945 14.9407L34.7954 14.9415C35.2219 14.8881 35.292 16.102 35.0349 16.6756C34.7886 17.245 33.9382 17.6136 33.6201 17.3268C33.5243 17.2388 33.5224 17.1848 33.5166 17.0295C33.5155 16.9966 33.5141 16.959 33.5116 16.9157C33.4974 16.6681 32.9506 16.714 32.9364 17.0891C32.9334 17.1521 32.9356 17.2172 32.9381 17.2878C32.9434 17.4434 32.9497 17.6257 32.9014 17.8712C32.7428 18.6857 31.2862 18.8342 30.9081 18.7774C30.5309 18.725 30.0735 18.424 30.2988 18.2439C30.8381 17.8111 30.4532 16.7749 29.6252 16.4347C29.3356 16.318 29.2221 16.2754 29.1136 16.388C28.9123 16.5972 29.0677 16.9441 29.3356 17.0216C29.7588 17.1467 30.3481 17.9921 29.3748 18.5307C28.4007 19.0676 27.7413 18.0663 27.6854 17.847C27.6295 17.6277 27.5377 17.581 27.2621 17.5669C26.0867 17.5269 25.9695 17.1078 25.8666 16.7399C25.8537 16.6938 25.841 16.6485 25.8265 16.6048C25.6962 16.2112 26.0343 16.0311 26.0911 16.0737C26.0959 16.077 26.1024 16.0819 26.1107 16.088C26.2069 16.159 26.5237 16.3932 26.7898 16.3671C26.9946 16.3447 27.0399 16.4166 27.1461 16.5853C27.1895 16.6545 27.2432 16.7398 27.3222 16.8415C27.7839 17.4435 28.1821 16.654 27.9216 16.5055C27.3432 16.1729 27.4951 15.6451 27.6996 15.5284C27.9041 15.4117 27.9533 15.1991 27.8231 15.0257C27.6921 14.8523 27.4066 14.9131 27.3081 15.0049C27.132 15.1708 27.1 15.3544 27.0747 15.4994C27.0499 15.6424 27.0316 15.7478 26.8882 15.7619C26.4542 15.8035 25.7281 15.2833 26.016 14.2178C26.309 13.1531 27.5719 13.1531 27.5719 13.1531L27.5435 13.5175C27.5293 13.6734 27.7238 14.3912 28.1745 14.6497C28.9641 15.1032 29.783 14.884 29.8431 14.5788C29.8782 14.3887 29.6202 14.1686 29.2145 14.197C28.8097 14.2253 28.2238 14.0027 28.0936 13.4358C27.9633 12.863 28.4249 12.3319 28.9541 12.1126C29.4758 11.8967 29.9875 12.2861 30.0826 12.5337C30.2729 13.0297 30.6678 12.788 30.6678 12.788C30.6678 12.788 31.1686 12.0059 31.7721 12.0518C32.3822 12.0985 32.6293 12.5545 32.6293 12.5545C32.6293 12.5545 34.0107 12.2786 34.2444 13.5066C34.509 14.9123 33.6551 15.3009 33.1619 15.3758L33.15 15.3776C32.6647 15.4505 32.4838 15.4776 32.4423 15.7969C32.3964 16.1187 33.2362 16.2779 33.8038 15.8636C33.9644 15.7467 34.1054 15.5728 34.2396 15.4071ZM30.7704 16.1896C30.6611 16.3138 30.8622 16.533 31.0133 16.533C31.3589 16.533 31.606 16.087 31.6202 15.5843C31.6452 14.9582 31.4048 14.2286 31.0842 14.3312C30.9365 14.3812 30.813 14.4838 30.8197 14.6463C30.8244 14.7285 30.8628 14.7986 30.9065 14.8783C30.9627 14.9807 31.0277 15.0991 31.0417 15.28C31.0592 15.521 31.0208 15.9136 30.7704 16.1896ZM31.7244 12.5646C31.6431 12.5571 31.4643 12.5407 31.3556 12.8271C31.2496 13.1073 31.2846 13.7117 31.7186 14.1436C32.1243 14.5546 32.883 14.4913 33.1368 14.3245C33.3905 14.1578 33.2111 13.8009 33.0592 13.8043C33.0411 13.8043 33.0132 13.8076 32.9778 13.8118C32.7988 13.8329 32.4258 13.8769 32.1319 13.6375C31.8982 13.4499 32.015 12.8488 32.015 12.8488C32.0258 12.6504 31.8104 12.5687 31.7328 12.5654L31.7244 12.5646ZM20.7502 39.8892C21.1294 40.0929 21.5528 40.2006 21.9834 40.2026C22.5619 40.1819 23.1121 39.9475 23.5276 39.545C24.037 39.0436 24.4018 38.4144 24.5835 37.7234C24.8339 36.9319 24.9297 36.0997 24.8658 35.2721C24.8111 34.4804 24.6143 33.7051 24.2849 32.9829C24.0749 32.5284 23.8095 32.1015 23.4947 31.712C23.1187 31.264 22.6975 30.856 22.2376 30.4945L21.0294 29.4709C21.0038 29.4492 20.9732 29.4344 20.9404 29.4275C20.9077 29.4208 20.8738 29.4224 20.8419 29.4323L19.4719 29.8562C19.44 29.866 19.4111 29.8835 19.3877 29.9072C19.3642 29.9309 19.347 29.9599 19.3375 29.9918L17.1847 37.0339C17.1725 37.0738 17.1725 37.1164 17.1847 37.1563C17.1968 37.1959 17.2205 37.231 17.2528 37.2569L19.413 38.9834C19.8234 39.3344 20.272 39.6382 20.7502 39.8892ZM32.4694 43.2808C32.4983 43.2952 32.5304 43.3022 32.5628 43.3015C32.5836 43.3011 32.6042 43.2973 32.6237 43.2904L34.106 42.7663C34.1355 42.7554 34.1621 42.738 34.1839 42.7153C34.2056 42.6927 34.222 42.6653 34.2316 42.6354L35.1894 39.6216L37.5542 38.7844C37.5842 38.7738 37.6112 38.7563 37.6331 38.7333C37.655 38.7103 37.6712 38.6825 37.6802 38.652L38.1164 37.2408C38.1276 37.2045 38.1286 37.1658 38.1196 37.1287C38.1105 37.0919 38.0916 37.0583 38.0646 37.0316C38.0382 37.0051 38.0047 36.9865 37.9682 36.9782C37.9315 36.9699 37.8933 36.9722 37.858 36.9849L35.7825 37.7199L36.0602 36.855L38.6211 35.9487C38.651 35.9379 38.6781 35.9204 38.7 35.8974C38.7219 35.8745 38.7382 35.8467 38.7474 35.8163L39.1836 34.4055C39.1948 34.3692 39.196 34.3307 39.1868 34.2938C39.1778 34.2571 39.1588 34.2233 39.132 34.1965C39.1055 34.1701 39.0722 34.1516 39.0356 34.1432C38.9991 34.1349 38.961 34.137 38.9257 34.1493L35.6294 35.3065C35.5976 35.3178 35.569 35.337 35.5465 35.3621L34.4258 36.6095C34.4063 36.6312 34.3915 36.657 34.3826 36.685L32.3661 43.0328C32.356 43.064 32.3535 43.0972 32.3587 43.1295C32.364 43.1619 32.3768 43.1926 32.3962 43.2191C32.4152 43.2453 32.4403 43.2664 32.4694 43.2808ZM21.2378 38.1226C21.2588 38.1236 21.2799 38.1242 21.3009 38.1242C21.4882 38.1242 21.6735 38.0848 21.8445 38.0087C22.0165 37.9317 22.1706 37.8199 22.297 37.6803C22.6181 37.2958 22.8475 36.8432 22.9676 36.3571C23.1359 35.8272 23.2077 35.2714 23.1795 34.7162C23.1486 34.1701 22.9997 33.6372 22.7427 33.1541C22.6127 32.9173 22.4591 32.6944 22.2842 32.4885C22.0477 32.2397 21.7927 32.0091 21.5217 31.7983L21.1263 31.4729C21.1263 31.4729 21.0389 31.4252 20.9892 31.4279C20.9394 31.4305 20.8924 31.4516 20.8575 31.4872C20.8341 31.511 20.8168 31.5401 20.8072 31.572L19.2304 36.7641C19.2185 36.8034 19.2184 36.8454 19.2302 36.8849C19.2419 36.924 19.2649 36.9589 19.2964 36.9848L19.6884 37.3075C19.9603 37.541 20.2523 37.7497 20.5612 37.9315L20.573 37.9379C20.7805 38.0419 21.0062 38.1046 21.2378 38.1226Z" fill="white"/>
</svg>
