<svg width="56" height="56" viewBox="0 0 56 56" fill="none" xmlns="http://www.w3.org/2000/svg">
<rect width="56" height="56" fill="#DF5262"/>
<path fill-rule="evenodd" clip-rule="evenodd" d="M25.0318 26.3132H16C16 21.0817 17.5699 15.5758 20.3676 11.984C23.129 13.4651 25.4666 15.6377 27.1502 18.2712C26.4014 19.5382 25.0318 22.3914 25.0318 26.3132ZM27.2881 37.799C26.5497 36.5692 25.1279 33.6827 25.1279 29.6868H16.0961C16.0961 34.9993 17.7149 40.5947 20.5944 44.1814C23.3327 42.6622 25.6405 40.458 27.2881 37.799ZM21.237 44.9253C26.6398 41.8522 30.4121 36.2291 30.9283 29.6868H39.6364C39.6364 38.4579 34.9353 48 27.7221 48C25.1929 48 23.0081 46.8269 21.237 44.9253ZM30.9034 26.3132C30.2914 19.7991 26.4481 14.2281 20.9983 11.2304C22.7943 9.23731 25.0286 8 27.626 8C34.8393 8 39.5403 17.5421 39.5403 26.3132H30.9034Z" fill="white"/>
</svg>
