<svg width="180" height="200" viewBox="0 0 180 200" fill="none" xmlns="http://www.w3.org/2000/svg">
<circle cx="90" cy="90" r="90" fill="#51E591" fill-opacity="0.12"/>
<path d="M117 69H63C59.7 69 57 71.7 57 75V105C57 108.3 59.7 111 63 111H117C120.3 111 123 108.3 123 105V75C123 71.7 120.3 69 117 69ZM111 105H69V75H111V105ZM84 102H96C97.65 102 99 100.65 99 99V90C99 88.35 97.65 87 96 87V84C96 80.67 93.3 78 90 78C86.67 78 84 80.7 84 84V87C82.35 87 81 88.35 81 90V99C81 100.65 82.35 102 84 102ZM86.4 84C86.4 82.02 88.02 80.4 90 80.4C91.98 80.4 93.6 82.02 93.6 84V87H86.4V84Z" fill="#51E591"/>
<rect x="71.5" y="160" width="40" height="40" rx="20" fill="#51E591"/>
<path d="M82.5 182.5L89.1019 189.102C89.5596 189.56 90.3248 189.469 90.6623 188.916L101 172" stroke="#101015" stroke-width="3" stroke-linecap="round"/>
</svg>
