<svg width="180" height="200" viewBox="0 0 180 200" fill="none" xmlns="http://www.w3.org/2000/svg">
<path fill-rule="evenodd" clip-rule="evenodd" d="M91.5 156C79.1903 156 69.0451 165.267 67.6609 177.206C28.7617 167.271 0 131.994 0 90C0 40.2944 40.2944 0 90 0C139.706 0 180 40.2944 180 90C180 130.946 152.657 165.505 115.234 176.414C113.503 164.86 103.536 156 91.5 156ZM57 75C57 71.7 59.7 69 63 69H117C120.3 69 123 71.7 123 75V105C123 108.3 120.3 111 117 111H63C59.7 111 57 108.3 57 105V75ZM99 99C99 100.65 97.65 102 96 102H84C82.35 102 81 100.65 81 99V90C81 88.35 82.35 87 84 87V84C84 80.7 86.67 78 90 78C93.3 78 96 80.67 96 84V87C97.65 87 99 88.35 99 90V99ZM69 105H111V75H69V105ZM90 80.4C88.02 80.4 86.4 82.02 86.4 84V87H93.6V84C93.6 82.02 91.98 80.4 90 80.4ZM71.5 180C71.5 168.954 80.4543 160 91.5 160C102.546 160 111.5 168.954 111.5 180C111.5 191.046 102.546 200 91.5 200C80.4543 200 71.5 191.046 71.5 180ZM101.782 170.72C102.489 171.152 102.712 172.075 102.28 172.782L91.9422 189.698C91.0985 191.079 89.1854 191.307 88.0412 190.163L81.4393 183.561C80.8536 182.975 80.8536 182.025 81.4393 181.439C82.0251 180.854 82.9749 180.854 83.5607 181.439L89.7135 187.592L99.7201 171.218C100.152 170.511 101.075 170.288 101.782 170.72Z" fill="#51E591"/>
</svg>
