<svg width="56" height="56" viewBox="0 0 56 56" fill="none" xmlns="http://www.w3.org/2000/svg">
<rect width="56" height="56" fill="#EA704C"/>
<path fill-rule="evenodd" clip-rule="evenodd" d="M35.7186 34.9163H40.3094C40.8194 34.9164 41.8396 33.8996 41.8396 33.3912C41.8396 32.8828 39.5443 19.6653 39.0342 17.6318C38.5241 15.5982 35.849 15.7226 34.9535 16.6151C34.3697 17.197 32.2707 20.1533 30.8096 22.2111C30.0297 23.3096 29.4314 24.1522 29.3427 24.2406C29.0876 24.4948 29.0876 25.2573 29.3427 25.5115L32.1481 28.3075C32.4031 28.5617 32.9132 28.5617 33.4233 28.3075C33.9334 28.0533 34.4434 27.5449 34.4434 27.5449L35.7186 34.9163ZM12 40H18.376L20.9264 27.5449L21.9466 28.5617C22.2016 28.8159 22.7117 28.8159 22.9667 28.5617L26.0271 25.5115C26.2822 25.2573 26.2822 24.4948 26.0271 24.2406C25.8997 24.1135 24.7521 22.5885 23.5089 20.9364C22.2655 19.2842 20.9264 17.5047 20.4163 16.8692C19.3961 15.5983 16.8457 15.9372 16.3357 17.1234C15.8256 18.3096 12 40 12 40ZM24.4531 31.0142C24.0548 30.6171 24.0548 29.9733 24.4531 29.5763L27.0451 26.993C27.4435 26.5959 28.0894 26.5959 28.4878 26.993L31.0798 29.5763C31.4782 29.9733 31.4782 30.6171 31.0798 31.0142L28.4878 33.5974C28.0894 33.9944 27.4435 33.9944 27.0451 33.5974L24.4531 31.0142ZM36.6978 39.5415L36.0347 36.2371C36.0031 36.0798 36.1238 35.9331 36.2848 35.9331H42.1406C42.2622 35.9331 42.3668 36.0186 42.3907 36.1374L43.0538 39.4417C43.0854 39.5991 42.9646 39.7458 42.8037 39.7458H36.9479C36.8263 39.7458 36.7216 39.6603 36.6978 39.5415Z" fill="white"/>
</svg>
