<svg width="56" height="56" viewBox="0 0 56 56" fill="none" xmlns="http://www.w3.org/2000/svg">
<rect width="56" height="56" fill="#21928F"/>
<path fill-rule="evenodd" clip-rule="evenodd" d="M19.6667 23.7647C19.6667 17.1765 25.0001 12 31.4315 12C37.8629 12 43.1962 17.3333 43.1962 23.7647V24.2354H42.5688H20.2942H19.6667V23.7647ZM17.8626 26.1176C17.4728 26.1176 17.1568 26.4337 17.1568 26.8235C17.1568 27.2134 17.4728 27.5294 17.8626 27.5294H45.3137C45.7035 27.5294 46.0195 27.2134 46.0195 26.8235C46.0195 26.4337 45.7035 26.1176 45.3137 26.1176H17.8626ZM11.51 30.1176C11.51 29.7277 11.8492 29.4117 12.1374 29.4117H32.1845C32.4726 29.4117 32.8433 29.7277 32.8433 30.1176C32.8433 30.5075 32.4726 30.8235 32.1845 30.8235H12.1374C11.8492 30.8235 11.51 30.5075 11.51 30.1176ZM15.3529 27.5294C15.7427 27.5294 16.0588 27.2134 16.0588 26.8235C16.0588 26.4337 15.7427 26.1176 15.3529 26.1176C14.963 26.1176 14.647 26.4337 14.647 26.8235C14.647 27.2134 14.963 27.5294 15.3529 27.5294ZM10.4118 30.1176C10.4118 30.5075 10.0957 30.8235 9.70588 30.8235C9.31603 30.8235 9 30.5075 9 30.1176C9 29.7277 9.31603 29.4117 9.70588 29.4117C10.0957 29.4117 10.4118 29.7277 10.4118 30.1176ZM17.6253 32.7058C17.2799 32.7058 17 33.0218 17 33.4117C17 33.8014 17.2799 34.1175 17.6253 34.1175H41.9433C42.2887 34.1175 42.5686 33.8014 42.5686 33.4117C42.5686 33.0218 42.2887 32.7058 41.9433 32.7058H17.6253ZM25.4707 36.7062C25.4707 36.3164 25.7506 36.0003 26.0959 36.0003L46.0218 36.0002C46.3672 36.0002 46.6471 36.3163 46.6471 36.706C46.6471 37.0959 46.3672 37.4119 46.0218 37.4119L26.0959 37.4121C25.7506 37.4121 25.4707 37.0961 25.4707 36.7062ZM15.196 34.1175C15.5859 34.1175 15.9019 33.8014 15.9019 33.4117C15.9019 33.0218 15.5859 32.7058 15.196 32.7058C14.8062 32.7058 14.4901 33.0218 14.4901 33.4117C14.4901 33.8014 14.8062 34.1175 15.196 34.1175ZM11.8236 36.706C11.8236 37.0959 11.5076 37.4119 11.1177 37.4119C10.7279 37.4119 10.4118 37.0959 10.4118 36.706C10.4118 36.3163 10.7279 36.0002 11.1177 36.0002C11.5076 36.0002 11.8236 36.3163 11.8236 36.706ZM13.6275 36.0002C13.2377 36.0002 12.9216 36.3163 12.9216 36.706C12.9216 37.0959 13.2377 37.4119 13.6275 37.4119H23.1962C23.5861 37.4119 23.9021 37.0959 23.9021 36.706C23.9021 36.3163 23.5861 36.0002 23.1962 36.0002H13.6275ZM28.1373 40.0001C28.1373 40.39 27.8213 40.706 27.4315 40.706C27.0417 40.706 26.7256 40.39 26.7256 40.0001C26.7256 39.6102 27.0417 39.2942 27.4315 39.2942C27.8213 39.2942 28.1373 39.6102 28.1373 40.0001ZM29.9536 39.2942C29.557 39.2942 29.2354 39.6102 29.2354 40.0001C29.2354 40.39 29.557 40.706 29.9536 40.706H42.2427C42.6394 40.706 42.9609 40.39 42.9609 40.0001C42.9609 39.6102 42.6394 39.2942 42.2427 39.2942H29.9536ZM20.6078 43.2942C20.6078 43.6841 20.2918 44 19.9019 44C19.5121 44 19.196 43.6841 19.196 43.2942C19.196 42.9043 19.5121 42.5883 19.9019 42.5883C20.2918 42.5883 20.6078 42.9043 20.6078 43.2942ZM22.424 42.5883C22.0274 42.5883 21.7059 42.9043 21.7059 43.2942C21.7059 43.6841 22.0274 44 22.424 44H34.7132C35.1098 44 35.4313 43.6841 35.4313 43.2942C35.4313 42.9043 35.1098 42.5883 34.7132 42.5883H22.424Z" fill="white"/>
</svg>
