<svg width="105" height="104" viewBox="0 0 105 104" fill="none" xmlns="http://www.w3.org/2000/svg">
<rect x="0.5" width="104" height="104" rx="52" fill="#E6007A"/>
<path fill-rule="evenodd" clip-rule="evenodd" d="M52.5 86.5312C71.5711 86.5312 87.0312 71.0711 87.0312 52C87.0312 32.9289 71.5711 17.4688 52.5 17.4688C33.4289 17.4688 17.9688 32.9289 17.9688 52C17.9688 71.0711 33.4289 86.5312 52.5 86.5312ZM60.6958 51.6204C59.1355 53.2296 57.7813 55.1963 57.7813 57.4377V67.9453C57.7813 70.806 55.4622 73.125 52.6016 73.125C49.7409 73.125 47.4219 70.806 47.4219 67.9453V57.4377C47.4219 55.1963 46.0677 53.2295 44.5074 51.6204C42.5395 49.5909 41.3282 46.8236 41.3282 43.7735C41.3282 37.5473 46.3754 32.5 52.6016 32.5C58.8277 32.5 63.875 37.5473 63.875 43.7735C63.875 46.8237 62.6637 49.5909 60.6958 51.6204Z" fill="white"/>
</svg>
