<svg width="56" height="56" viewBox="0 0 56 56" fill="none" xmlns="http://www.w3.org/2000/svg">
<rect width="56" height="56" fill="#5F6574"/>
<path fill-rule="evenodd" clip-rule="evenodd" d="M12.6305 40.0216C1.52842 26.0944 12.6306 10.3029 22.4858 8C11.645 15.7861 11.0975 28.8359 18.6532 36.7317C26.2089 44.6275 39.5683 44.6275 48 33.6612C43.9484 48.2463 23.7327 53.9489 12.6305 40.0216ZM26.6472 17.7601C21.172 19.076 17.8869 24.5592 17.3393 28.7263C13.1782 12.7156 30.0418 3.50389 40.8826 11.1803C46.3725 15.0676 49.0081 22.1465 47.2337 27.6297C43.4009 39.4732 35.7358 38.4864 33.4363 36.0738C28.8096 31.2197 33.7648 24.4496 40.8826 25.5462C39.8419 24.901 39.0478 24.4804 38.4091 24.1421C37.6367 23.733 37.0915 23.4442 36.6119 23.024C36.5311 22.9531 36.4577 22.7097 36.3524 22.3608C35.8061 20.55 34.4022 15.8962 26.6472 17.7601ZM32.3412 21.9272C32.825 21.9272 33.2172 21.5344 33.2172 21.0499C33.2172 20.5654 32.825 20.1726 32.3412 20.1726C31.8573 20.1726 31.4651 20.5654 31.4651 21.0499C31.4651 21.5344 31.8573 21.9272 32.3412 21.9272Z" fill="white"/>
</svg>
