<svg width="56" height="56" viewBox="0 0 56 56" fill="none" xmlns="http://www.w3.org/2000/svg">
<rect width="56" height="56" fill="#B8028D"/>
<path fill-rule="evenodd" clip-rule="evenodd" d="M48 28C48 39.0457 39.0457 48 28 48C16.9543 48 8 39.0457 8 28C8 16.9543 16.9543 8 28 8C39.0457 8 48 16.9543 48 28ZM27.9319 12.2651C23.8449 12.2651 20.5319 15.5783 20.5319 19.6651V24.4651C20.5319 28.5521 23.8449 31.8651 27.9319 31.8651C28.5055 31.8651 29.0639 31.7999 29.6 31.6763C29.9221 31.6023 30.0122 31.2048 29.7734 30.9767L29.7334 30.9384L25.4703 26.8666C24.8091 26.2246 24.3985 25.3262 24.3985 24.3319V19.7985C24.3985 17.8471 25.9803 16.2651 27.9319 16.2651C29.8832 16.2651 31.4651 17.8471 31.4651 19.7985V21.3334C31.4651 21.6279 31.704 21.8666 31.9985 21.8666H34.7985C35.093 21.8666 35.3319 21.6279 35.3319 21.3334V19.6651C35.3319 15.5783 32.0187 12.2651 27.9319 12.2651ZM35.3334 35.9334C35.3334 40.0202 32.0202 43.3334 27.9334 43.3334C23.8464 43.3334 20.5334 40.0202 20.5334 35.9334V34.2666C20.5334 33.9721 20.7721 33.7334 21.0666 33.7334H23.8666C24.1613 33.7334 24.4 33.9721 24.4 34.2666V35.8C24.4 37.7514 25.9818 39.3334 27.9334 39.3334C29.8848 39.3334 31.4666 37.7514 31.4666 35.8V31.2666C31.4666 30.2722 31.0559 29.3738 30.3947 28.7319L26.1319 24.6601L26.0918 24.6218C25.8528 24.3936 25.9432 23.9962 26.2651 23.9222C26.8014 23.7986 27.3598 23.7334 27.9334 23.7334C32.0202 23.7334 35.3334 27.0464 35.3334 31.1334V35.9334Z" fill="white"/>
</svg>
