<svg width="56" height="56" viewBox="0 0 56 56" fill="none" xmlns="http://www.w3.org/2000/svg">
<rect width="56" height="56" fill="#EC4C77"/>
<path fill-rule="evenodd" clip-rule="evenodd" d="M22.1423 22.1417C25.3775 25.3768 30.6226 25.3768 33.8576 22.1417C37.0929 18.9066 37.0929 13.6614 33.8576 10.4263C30.6226 7.19122 25.3775 7.19122 22.1423 10.4263C18.9073 13.6614 18.9073 18.9066 22.1423 22.1417ZM10.4263 33.8577C13.6614 37.0928 18.9066 37.0928 22.1417 33.8577C25.3769 30.6227 25.3776 25.3768 22.1423 22.1417C18.9073 18.9065 13.6614 18.9072 10.4263 22.1423C7.19122 25.3775 7.19122 30.6227 10.4263 33.8577ZM45.5737 33.8577C42.3387 37.0928 37.0935 37.0928 33.8584 33.8577C30.6232 30.6227 30.6224 25.3768 33.8576 22.1417C37.0927 18.9065 42.3387 18.9072 45.5737 22.1423C48.809 25.3775 48.809 30.6227 45.5737 33.8577ZM33.8584 33.8577C30.6234 30.6227 25.3768 30.6227 22.1417 33.8577C18.9066 37.0929 18.9073 42.3387 22.1423 45.5737C25.3775 48.8088 30.6226 48.8088 33.8576 45.5737C37.0929 42.3387 37.0937 37.0929 33.8584 33.8577Z" fill="white"/>
</svg>
