<svg width="56" height="56" viewBox="0 0 56 56" fill="none" xmlns="http://www.w3.org/2000/svg">
<rect width="56" height="56" fill="#2951F3"/>
<path d="M28.0079 7C23.421 6.99776 18.9594 8.50831 15.3054 11.3008C11.6512 14.0933 9.00552 18.0141 7.77265 22.4638C6.53979 26.9136 6.7876 31.6475 8.47818 35.9421C10.1688 40.2366 13.2091 43.8554 17.1345 46.2454C17.9334 46.7337 18.8499 46.9918 19.7845 46.9918H19.8529C20.5357 46.9955 21.2123 46.863 21.8439 46.6016C22.4753 46.3401 23.049 45.9552 23.5319 45.4689C24.0146 44.9827 24.3969 44.4047 24.6565 43.7689C24.916 43.1328 25.0477 42.4512 25.0439 41.7635V32.1306C25.0429 32.0771 25.0214 32.0263 24.9839 31.9886C24.9463 31.9506 24.8957 31.929 24.8426 31.9279H21.6853C21.2882 31.9426 20.8922 31.8768 20.521 31.7338C20.1498 31.591 19.8111 31.3742 19.5249 31.0966C19.2389 30.8187 19.0112 30.4859 18.8558 30.1176C18.7003 29.7493 18.6202 29.3531 18.6202 28.9529C18.6202 28.5526 18.7003 28.1567 18.8558 27.7883C19.0112 27.42 19.2389 27.0871 19.5249 26.8093C19.8111 26.5315 20.1498 26.3149 20.521 26.172C20.8922 26.029 21.2882 25.9631 21.6853 25.9778H34.3104C34.7077 25.9631 35.1035 26.029 35.4747 26.172C35.8459 26.3149 36.1848 26.5315 36.4708 26.8093C36.757 27.0871 36.9846 27.42 37.14 27.7883C37.2953 28.1567 37.3755 28.5526 37.3755 28.9529C37.3755 29.3531 37.2953 29.7493 37.14 30.1176C36.9846 30.4859 36.757 30.8187 36.4708 31.0966C36.1848 31.3742 35.8459 31.591 35.4747 31.7338C35.1035 31.8768 34.7077 31.9426 34.3104 31.9279H31.1611C31.1081 31.929 31.0575 31.9506 31.0201 31.9886C30.9825 32.0263 30.9609 32.0771 30.9599 32.1306V41.7635C30.9695 43.1509 31.5214 44.4784 32.496 45.4584C33.4707 46.4386 34.7897 46.9925 36.1671 47H36.2355C37.1714 46.9993 38.0889 46.7367 38.8854 46.2414C42.8049 43.8488 45.8398 40.2304 47.5264 35.9385C49.213 31.6463 49.4591 26.9163 48.227 22.4703C46.9946 18.0242 44.352 14.1064 40.7019 11.3145C37.052 8.52269 32.5952 7.01028 28.0119 7.00813L28.0079 7ZM13.1073 32.3335C12.4427 32.3344 11.7928 32.1366 11.2399 31.7653C10.6869 31.3937 10.2558 30.8654 10.0011 30.2472C9.74639 29.629 9.67952 28.9486 9.80898 28.2919C9.93845 27.6353 10.2584 27.0323 10.7284 26.559C11.1984 26.0857 11.7972 25.7634 12.449 25.633C13.101 25.5026 13.7766 25.5699 14.3905 25.8265C15.0043 26.083 15.5289 26.5171 15.8976 27.0741C16.2664 27.631 16.4629 28.2855 16.4621 28.9549C16.4599 29.8475 16.108 30.7031 15.4829 31.3359C14.8576 31.9686 14.0097 32.327 13.1234 32.3335H13.1073ZM28.0079 22.2666C26.9771 22.2674 25.9691 21.9603 25.1117 21.3841C24.2542 20.8079 23.5856 19.9885 23.1906 19.0295C22.7955 18.0705 22.6918 17.0152 22.8923 15.9968C23.093 14.9784 23.589 14.0429 24.3176 13.3085C25.0463 12.5741 25.9749 12.0738 26.9858 11.871C27.9968 11.6681 29.0448 11.7718 29.9973 12.1689C30.9497 12.5661 31.7637 13.2387 32.3366 14.1019C32.9094 14.9651 33.2152 15.98 33.2152 17.0182C33.2066 18.4061 32.6553 19.7347 31.6803 20.7157C30.7056 21.6967 29.3859 22.2511 28.0079 22.2585V22.2666ZM42.8482 32.3335C42.1838 32.3335 41.5342 32.1351 40.9818 31.7631C40.4292 31.3912 39.9988 30.8626 39.7447 30.2445C39.4906 29.6261 39.4243 28.9458 39.5543 28.2895C39.6842 27.6331 40.0046 27.0304 40.4746 26.5576C40.9447 26.0847 41.5436 25.7627 42.1953 25.6327C42.8471 25.5026 43.5227 25.5702 44.1363 25.8269C44.7499 26.0835 45.2742 26.5177 45.6426 27.0745C46.0113 27.6313 46.2075 28.2857 46.2067 28.9549C46.2047 29.8511 45.85 30.7098 45.2204 31.343C44.5908 31.9763 43.7379 32.3325 42.8482 32.3335Z" fill="white"/>
</svg>
