<svg width="56" height="56" viewBox="0 0 56 56" fill="none" xmlns="http://www.w3.org/2000/svg">
<rect width="56" height="56" fill="#309748"/>
<path fill-rule="evenodd" clip-rule="evenodd" d="M11.8108 29.7297L15.0541 26.0541C16.0057 25.1024 17.2422 25.3475 18.2799 25.5531C18.8927 25.6745 19.4362 25.7822 19.8108 25.6216C21.1081 25.0657 30.6216 14.3784 30.6216 14.3784L27.8108 12C27.8108 12 17.8649 22.8108 16.7838 23.8919C16.398 24.2777 15.525 24.2094 14.5937 24.1365C13.5288 24.0532 12.3875 23.9638 11.8108 24.5405C10.7297 25.6216 9 27.5676 9 27.5676L11.8108 29.7297ZM23.0541 28.2162L17.2162 34.4865L14.4054 32.3243C14.4054 32.3243 18.2973 28 19.3784 26.9189C19.9551 26.3422 21.1579 26.37 22.2803 26.3959C23.2618 26.4186 24.1818 26.4398 24.5676 26.0541C25.6486 24.973 33.2162 16.7568 33.2162 16.7568L36.027 19.1351C36.027 19.1351 29.5405 26.2703 28.2432 27.5676C27.9193 27.8915 27.2257 27.7945 26.4173 27.6814C25.2885 27.5235 23.9359 27.3343 23.0541 28.2162ZM22.6216 39.2432L31.0541 30.1622C31.9359 29.2803 33.215 29.4695 34.2826 29.6273C35.0471 29.7404 35.7031 29.8375 36.027 29.5135C36.8919 28.6486 41.4324 23.8919 41.4324 23.8919L38.6216 21.5135C38.6216 21.5135 33.8649 26.9189 32.7838 28C32.2432 28.5405 31.2703 28.4865 30.2973 28.4324C29.3243 28.3784 28.3514 28.3243 27.8108 28.8649C26.7297 29.9459 20.027 37.2973 20.027 37.2973L22.6216 39.2432ZM28.027 44L38.8378 32.5405C39.7007 31.6777 41.1226 31.803 42.3077 31.9075C43.2012 31.9863 43.9601 32.0532 44.2432 31.6757C44.9019 30.7975 46.8378 28.6486 46.8378 28.6486L44.027 26.2703C44.027 26.2703 41.4324 29.2973 40.3514 30.3784C39.943 30.7868 39.0045 30.7131 38.0137 30.6353C36.9059 30.5484 35.7328 30.4564 35.1622 31.027C34.0811 32.1081 25.2162 41.8378 25.2162 41.8378L28.027 44Z" fill="white"/>
</svg>
