<svg width="56" height="56" viewBox="0 0 56 56" fill="none" xmlns="http://www.w3.org/2000/svg">
<rect width="56" height="56" fill="#20B1B4"/>
<path d="M41.4129 14.4348C37.8216 10.9245 32.9909 8.97175 27.9689 9.00031C22.9469 9.02887 18.1388 11.0364 14.5876 14.5874C11.0365 18.1383 9.02887 22.9463 9.00031 27.968C8.97175 32.9897 10.9246 37.8202 14.4351 41.4113C16.2023 43.1884 18.3045 44.5973 20.6199 45.5566C22.9354 46.5159 25.418 47.0065 27.9243 46.9999C31.6973 46.9996 35.3854 45.8806 38.5224 43.7843C41.6593 41.6881 44.1043 38.7088 45.548 35.2232C46.9918 31.7376 47.3695 27.9022 46.6334 24.2019C45.8974 20.5016 44.0806 17.1027 41.4129 14.4348ZM31.7527 24.0938C32.5101 24.8511 33.026 25.816 33.235 26.8665C33.444 27.9169 33.3368 29.0058 32.9269 29.9953C32.5171 30.9849 31.8229 31.8306 30.9324 32.4257C30.0418 33.0208 28.9947 33.3384 27.9236 33.3384C26.8525 33.3384 25.8054 33.0208 24.9149 32.4257C24.0243 31.8306 23.3302 30.9849 22.9203 29.9953C22.5104 29.0058 22.4032 27.9169 22.6122 26.8665C22.8212 25.816 23.3371 24.8511 24.0945 24.0938C25.1108 23.0798 26.4879 22.5103 27.9236 22.5103C29.3593 22.5103 30.7364 23.0798 31.7527 24.0938ZM22.4143 22.4136C21.6114 23.2166 20.9937 24.1854 20.6045 25.2521C20.2154 26.3188 20.0641 27.4577 20.1614 28.589C20.2586 29.7204 20.602 30.8167 21.1675 31.8014C21.733 32.7861 22.5069 33.6353 23.435 34.2895C24.3632 34.9436 25.4231 35.387 26.5406 35.5886C27.6582 35.7901 28.8062 35.745 29.9044 35.4563C31.0027 35.1675 32.0245 34.6422 32.8984 33.9172C33.7723 33.1921 34.4771 32.2847 34.9634 31.2587C35.0966 33.4963 34.546 35.7216 33.3848 37.6391C32.2237 39.5565 30.5068 41.0756 28.4622 41.9946C26.4175 42.9136 24.1417 43.1891 21.9367 42.7845C19.7318 42.38 17.7021 41.3145 16.1169 39.7295C14.5317 38.1445 13.466 36.1149 13.0613 33.9101C12.6565 31.7053 12.9319 29.4296 13.8508 27.3849C14.7697 25.3403 16.2887 23.6234 18.2062 22.4622C20.1237 21.3009 22.349 20.7503 24.5868 20.8832C23.7799 21.2645 23.0449 21.7822 22.4143 22.4136ZM33.4322 41.4006C34.8631 39.9708 35.9525 38.2363 36.6189 36.3264C37.2853 34.4166 37.5116 32.3809 37.2808 30.3714C37.05 28.3619 36.3682 26.4304 35.2861 24.7214C34.2041 23.0124 32.7499 21.5699 31.0321 20.5017C29.3144 19.4335 27.3774 18.7673 25.366 18.5527C23.3546 18.3381 21.3207 18.5807 19.4162 19.2624C17.5117 19.9442 15.7859 21.0474 14.3676 22.4897C12.9494 23.932 11.8753 25.6761 11.2258 27.5917C11.2903 24.3173 12.3162 21.1341 14.1758 18.4382C16.0355 15.7423 18.6469 13.6527 21.685 12.4294C24.7231 11.2061 28.0539 10.903 31.2629 11.5579C34.472 12.2129 37.4176 13.7968 39.7333 16.1128C42.0478 18.4269 43.6313 21.37 44.287 24.5765C44.9427 27.7829 44.6418 31.1114 43.4215 34.1482C42.2013 37.1851 40.1156 39.7964 37.4236 41.6579C34.7316 43.5193 31.5519 44.5488 28.2797 44.6183C30.2213 43.9555 31.9843 42.854 33.4322 41.4006Z" fill="white"/>
</svg>
