<svg width="22" height="22" viewBox="0 0 22 22" fill="none" xmlns="http://www.w3.org/2000/svg">
<path d="M0.5 9.83333H9.83333V0.5H0.5V9.83333ZM2.83333 2.83333H7.5V7.5H2.83333V2.83333Z" fill="white" fill-opacity="0.69"/>
<path d="M0.5 21.5H9.83333V12.1667H0.5V21.5ZM2.83333 14.5H7.5V19.1667H2.83333V14.5Z" fill="white" fill-opacity="0.69"/>
<path d="M12.1667 0.5V9.83333H21.5V0.5H12.1667ZM19.1667 7.5H14.5V2.83333H19.1667V7.5Z" fill="white" fill-opacity="0.69"/>
<path d="M21.5 19.1667H19.1667V21.5H21.5V19.1667Z" fill="white" fill-opacity="0.69"/>
<path d="M14.5 12.1667H12.1667V14.5H14.5V12.1667Z" fill="white" fill-opacity="0.69"/>
<path d="M16.8333 14.5H14.5V16.8333H16.8333V14.5Z" fill="white" fill-opacity="0.69"/>
<path d="M14.5 16.8333H12.1667V19.1667H14.5V16.8333Z" fill="white" fill-opacity="0.69"/>
<path d="M16.8333 19.1667H14.5V21.5H16.8333V19.1667Z" fill="white" fill-opacity="0.69"/>
<path d="M19.1667 16.8333H16.8333V19.1667H19.1667V16.8333Z" fill="white" fill-opacity="0.69"/>
<path d="M19.1667 12.1667H16.8333V14.5H19.1667V12.1667Z" fill="white" fill-opacity="0.69"/>
<path d="M21.5 14.5H19.1667V16.8333H21.5V14.5Z" fill="white" fill-opacity="0.69"/>
</svg>
