<svg width="56" height="56" viewBox="0 0 56 56" fill="none" xmlns="http://www.w3.org/2000/svg">
<rect width="56" height="56" fill="#BE38B9"/>
<path fill-rule="evenodd" clip-rule="evenodd" d="M21.5105 25.182V44H15V25.0768H15.002C15.0203 22.7914 15.6332 20.5493 16.7816 18.571C17.9475 16.5623 19.6239 14.8968 21.6414 13.743C23.6587 12.5892 25.9455 11.988 28.2702 12.0002C30.595 12.0124 32.8753 12.6376 34.8804 13.8126C36.8854 14.9875 38.5444 16.6705 39.6889 18.6913C40.8337 20.7121 41.4238 22.999 41.3993 25.3206C41.3748 27.6422 40.7369 29.9163 39.5497 31.9126C38.3627 33.9088 36.6688 35.5568 34.6394 36.6893L31.4639 31.0139C32.4924 30.44 33.3509 29.6048 33.9525 28.5931C34.5541 27.5813 34.8774 26.4289 34.8898 25.2522C34.9022 24.0756 34.6032 22.9167 34.0231 21.8925C33.443 20.8683 32.6023 20.0154 31.5861 19.4199C30.5698 18.8244 29.4142 18.5075 28.2359 18.5014C27.0578 18.4952 25.8988 18.7999 24.8764 19.3846C23.8539 19.9694 23.0044 20.8135 22.4135 21.8315C21.8226 22.8495 21.5105 24.0053 21.5105 25.182ZM32.5084 37.6422C31.8005 37.8864 31.073 38.0697 30.3339 38.1905L29.2819 31.7748C29.6565 31.7136 30.0251 31.6206 30.384 31.4969L32.5084 37.6422ZM23.7287 37.5843C24.4322 37.8372 25.1561 38.0301 25.8923 38.1607L27.0309 31.7597C26.6577 31.6934 26.2909 31.5957 25.9343 31.4675L23.7287 37.5843Z" fill="white"/>
</svg>
