<svg width="56" height="56" viewBox="0 0 56 56" fill="none" xmlns="http://www.w3.org/2000/svg">
<rect width="56" height="56" fill="#525864"/>
<path d="M44.5082 36.7541L45.1967 36.7213C44.1475 41.213 40.1803 44 34.8688 44H16.0492C15.9275 44 15.8107 43.9516 15.7246 43.8655C15.6385 43.7794 15.5902 43.6627 15.5902 43.5409V39.5082C15.5902 38.769 15.8838 38.0602 16.4064 37.5375C16.9291 37.0149 17.638 36.7213 18.377 36.7213H30.6065C30.9984 36.7044 31.3833 36.6105 31.7388 36.4447C32.0944 36.279 32.4137 36.0448 32.6787 35.7555C32.9436 35.4661 33.1489 35.1274 33.2829 34.7586C33.4167 34.39 33.4766 33.9984 33.459 33.6065C33.459 31.5737 31.9181 30.9508 30.541 30.9508H20.6393C15.5574 30.9508 11.918 28.0983 11 23.6721H15.3935C15.2956 23.1741 15.23 22.6703 15.1967 22.164V20.7869C15.5246 15.5082 19.3934 12 25.0328 12H43.295C43.4168 12 43.5335 12.0484 43.6196 12.1344C43.7057 12.2205 43.754 12.3373 43.754 12.459V16.5245C43.754 17.2637 43.4605 17.9725 42.9378 18.4953C42.4151 19.0179 41.7063 19.3114 40.9671 19.3114H24.9017C24.3305 19.3453 23.7952 19.6006 23.4094 20.0231C23.0237 20.4457 22.8179 21.0019 22.8361 21.5737C22.8091 22.1164 22.9971 22.6477 23.3591 23.0527C23.7212 23.4578 24.2283 23.7039 24.7705 23.7377H31.1967C36.8361 23.7377 40.7049 27.2459 41.0327 32.5246V34.3607C41.0283 35.1653 40.9404 35.9675 40.7704 36.7541H44.5082Z" fill="white"/>
</svg>
