<svg width="56" height="56" viewBox="0 0 56 56" fill="none" xmlns="http://www.w3.org/2000/svg">
<rect width="56" height="56" fill="#565C6A"/>
<path fill-rule="evenodd" clip-rule="evenodd" d="M18.9547 15.5045C21.2389 13.2606 24.3369 12 27.5672 12L27.5779 12.0057C29.3845 12.0088 31.1679 12.4062 32.7989 13.1692C34.43 13.9322 35.8681 15.0417 37.0093 16.4176C38.1504 17.7934 38.9661 19.4011 39.3973 21.1246C39.8285 22.8479 39.8645 24.6439 39.5028 26.3827L38.7682 26.8757C36.2748 28.5548 32.2353 28.5548 29.7418 26.8757L28.8475 26.2721L27.1962 25.1609C24.4287 23.2979 19.942 23.2979 17.1761 25.1609L15.6027 26.2183C15.4594 25.4755 15.3873 24.7211 15.3874 23.965C15.3874 20.7917 16.6706 17.7483 18.9547 15.5045ZM29.5008 29.7742C30.8225 30.665 32.5772 31.153 34.4124 31.153C36.2474 31.153 37.9956 30.6666 39.323 29.7734L40.2894 29.1226C40.4458 29.0174 40.5531 28.8555 40.5878 28.6726C40.6227 28.4897 40.582 28.3007 40.4749 28.1472C40.3679 27.9937 40.2031 27.8883 40.017 27.8541C39.8307 27.8199 39.6384 27.8598 39.482 27.965L38.5156 28.6158C37.2804 29.3586 35.8602 29.7518 34.4119 29.7518C32.9636 29.7518 31.5434 29.3586 30.3082 28.6158L27.7652 26.9033C26.3102 25.9231 24.3906 25.3846 22.3559 25.3846C20.3212 25.3846 18.4017 25.9271 16.9475 26.9033L15.3021 28.0097C15.1488 28.1161 15.0443 28.2775 15.0112 28.459C14.9781 28.6405 15.0189 28.8274 15.125 28.9796C15.231 29.1317 15.3937 29.2368 15.5779 29.272C15.7621 29.3072 15.953 29.2699 16.1095 29.1681L17.7549 28.0618C18.9723 27.2368 20.6078 26.7862 22.3559 26.7862C24.1041 26.7862 25.7396 27.2393 26.9578 28.0618L29.5008 29.7742ZM22.3029 36.178V29.4186C22.2976 29.2763 22.304 29.1337 22.322 28.9924C22.3434 28.8064 22.4337 28.6346 22.5757 28.51C22.7178 28.3853 22.9016 28.3163 23.0922 28.3163C23.277 28.3209 23.4538 28.3924 23.5882 28.5172C23.7227 28.642 23.8056 28.8112 23.8208 28.9924C23.8501 29.2271 23.8587 29.4639 23.8465 29.7V43.1798C23.8051 43.6801 23.4863 44.0088 23.0573 43.9998C22.6283 43.9909 22.3187 43.6484 22.3162 43.1416V38.6478L22.3029 36.178ZM20.8562 36.135V32.776L20.8563 32.2159C20.8565 31.2824 20.8567 30.3491 20.8512 29.4162C20.8488 28.8281 20.5788 28.471 20.1241 28.449C19.6695 28.4271 19.3209 28.8232 19.3209 29.4114V36.1276C19.3234 36.6759 19.6579 37.064 20.101 37.0769C20.544 37.09 20.8562 36.7093 20.8562 36.135ZM25.299 32.771V30.4119C25.299 29.8644 25.5946 29.5106 26.0352 29.5106C26.4757 29.5106 26.8152 29.8758 26.8194 30.3916C26.8371 31.999 26.8371 33.6057 26.8194 35.2115C26.8194 35.759 26.4882 36.0885 26.0402 36.0836C25.5922 36.0787 25.299 35.7435 25.2949 35.1823V32.7694L25.299 32.771ZM16.3389 30.9032V33.2624L16.3348 33.2599V35.6735C16.3348 36.2349 16.6312 36.5701 17.08 36.5749C17.5288 36.5798 17.8601 36.2503 17.8601 35.7029C17.875 34.097 17.875 32.4903 17.8601 30.8828C17.8551 30.3671 17.5165 30.0018 17.0759 30.0018C16.6354 30.0018 16.3389 30.3558 16.3389 30.9032ZM29.0355 31.2523H29.0329C28.6163 31.2523 28.2785 31.5841 28.2785 31.9934V33.2787C28.2785 33.688 28.6163 34.0198 29.0329 34.0198H29.0355C29.4521 34.0198 29.7898 33.688 29.7898 33.2787V31.9934C29.7898 31.5841 29.4521 31.2523 29.0355 31.2523ZM32.0241 32.3773H32.0266C32.4432 32.3773 32.781 32.7091 32.781 33.1185V40.3227C32.781 40.7321 32.4432 41.0639 32.0266 41.0639H32.0241C31.6074 41.0639 31.2697 40.7321 31.2697 40.3227V33.1185C31.2697 32.7091 31.6074 32.3773 32.0241 32.3773ZM34.997 32.6563H34.9945C34.5779 32.6563 34.24 32.9881 34.24 33.3974V39.5206C34.24 39.9299 34.5779 40.2618 34.9945 40.2618H34.997C35.4136 40.2618 35.7514 39.9299 35.7514 39.5206V33.3974C35.7514 32.9881 35.4136 32.6563 34.997 32.6563ZM38.0064 31.9575H38.0088C38.4255 31.9575 38.7633 32.2894 38.7633 32.6986V35.3401C38.7633 35.7494 38.4255 36.0812 38.0088 36.0812H38.0064C37.5897 36.0812 37.252 35.7494 37.252 35.3401V32.6986C37.252 32.2894 37.5897 31.9575 38.0064 31.9575Z" fill="white"/>
</svg>
