<svg width="24" height="24" viewBox="0 0 24 24" fill="none" xmlns="http://www.w3.org/2000/svg">
<path d="M20 5.00006V4.00006C20 3.45006 19.55 3.00006 19 3.00006H17C16.45 3.00006 16 3.45006 16 4.00006V5.00006H15V9.00006C15 9.55006 15.45 10.0001 16 10.0001H17V17.0001C17 18.1001 16.1 19.0001 15 19.0001C13.9 19.0001 13 18.1001 13 17.0001V7.00006C13 4.79006 11.21 3.00006 9 3.00006C6.79 3.00006 5 4.79006 5 7.00006V14.0001H4C3.45 14.0001 3 14.4501 3 15.0001V19.0001H4V20.0001C4 20.5501 4.45 21.0001 5 21.0001H7C7.55 21.0001 8 20.5501 8 20.0001V19.0001H9V15.0001C9 14.4501 8.55 14.0001 8 14.0001H7V7.00006C7 5.90006 7.9 5.00006 9 5.00006C10.1 5.00006 11 5.90006 11 7.00006V17.0001C11 19.2101 12.79 21.0001 15 21.0001C17.21 21.0001 19 19.2101 19 17.0001V10.0001H20C20.55 10.0001 21 9.55006 21 9.00006V5.00006H20Z" fill="white"/>
</svg>
