<svg width="56" height="56" viewBox="0 0 56 56" fill="none" xmlns="http://www.w3.org/2000/svg">
<rect width="56" height="56" fill="#3B7DDC"/>
<path fill-rule="evenodd" clip-rule="evenodd" d="M25.2967 12.792C25.2967 11.7985 26.0972 11 27.0932 11C27.579 11 28.0467 11.1907 28.3956 11.4924C28.7463 11.7956 29.018 12.2496 29.018 12.792C29.018 13.1944 28.8612 13.558 28.6271 13.8559L43.4466 39.4458C43.5531 39.4263 43.6629 39.416 43.775 39.416C44.7671 39.416 45.5715 40.2183 45.5715 41.208C45.5715 42.1977 44.7671 43 43.775 43C43.0089 43 42.3548 42.5216 42.0965 41.848H12.475C12.2167 42.5216 11.5626 43 10.7965 43C9.80431 43 9 42.1977 9 41.208C9 40.2183 9.80432 39.416 10.7965 39.416C10.8443 39.416 10.8918 39.4178 10.9387 39.4215L25.8213 14.0604C25.4968 13.7366 25.2967 13.2887 25.2967 12.792ZM27.5528 14.5616L27.5538 14.5614L42.3518 40.1143C42.2459 40.2512 42.1595 40.4038 42.0965 40.568H12.475C12.3898 40.3459 12.2616 40.145 12.1005 39.9754L27.0023 14.5818C27.0324 14.5833 27.0627 14.584 27.0932 14.584L27.1099 14.584C27.2262 14.5841 27.3944 14.5842 27.5528 14.5616ZM35.3055 36.3442H19.2655L27.2213 22.5201L35.3055 36.3442Z" fill="white"/>
</svg>
