<svg width="56" height="56" viewBox="0 0 56 56" fill="none" xmlns="http://www.w3.org/2000/svg">
<rect width="56" height="56" fill="#D43079"/>
<path fill-rule="evenodd" clip-rule="evenodd" d="M14.1141 27.9841C14.1146 25.4165 14.8273 22.8992 16.1731 20.7124C17.5188 18.5257 19.4447 16.7553 21.7366 15.5981C24.0284 14.4409 26.5964 13.9422 29.1548 14.1577C31.7131 14.3732 34.1615 15.2943 36.2276 16.8186C36.3383 16.9028 36.4647 16.9642 36.5994 16.9991C36.7341 17.0338 36.8744 17.0414 37.012 17.0213C37.2191 16.9909 37.4124 16.8995 37.5674 16.759C37.7225 16.6184 37.8323 16.4349 37.8829 16.2318C37.9335 16.0288 37.9226 15.8152 37.8516 15.6183C37.7807 15.4214 37.6529 15.25 37.4843 15.1259C35.1042 13.3686 32.2833 12.3062 29.3354 12.0569C26.3875 11.8076 23.4282 12.3812 20.7868 13.7139C18.1455 15.0466 15.9257 17.0861 14.3744 19.6055C12.8231 22.1249 12.0012 25.0253 12.0001 27.9841C11.9905 31.4042 13.0869 34.7356 15.1255 37.4814C15.2081 37.5929 15.3117 37.6871 15.4306 37.7586C15.5496 37.83 15.6814 37.8774 15.8186 37.8979C15.9558 37.9184 16.0957 37.9117 16.2304 37.8782C16.365 37.8446 16.4917 37.7849 16.6031 37.7023C16.7147 37.6199 16.8089 37.5161 16.8804 37.3972C16.9518 37.2783 16.9991 37.1464 17.0196 37.0092C17.0402 36.872 17.0334 36.732 16.9999 36.5974C16.9663 36.4628 16.9066 36.3361 16.8241 36.2246C15.0561 33.8418 14.1055 30.9513 14.1141 27.9841ZM40.8537 18.4809C40.6868 18.256 40.4376 18.1064 40.1606 18.065C39.8836 18.0236 39.6015 18.0937 39.3761 18.2599C39.2644 18.3423 39.17 18.4458 39.0983 18.5647C39.0266 18.6835 38.9791 18.8153 38.9584 18.9526C38.9376 19.0898 38.9442 19.2298 38.9776 19.3645C39.0111 19.4992 39.0707 19.6261 39.1532 19.7377C41.1388 22.4094 42.0979 25.7061 41.8553 29.0263C41.6128 32.3464 40.185 35.4687 37.8321 37.8235C35.4794 40.1783 32.3585 41.6087 29.039 41.8536C25.7194 42.0985 22.4225 41.1418 19.7497 39.1579C19.5235 39.0038 19.2465 38.9434 18.9769 38.9892C18.7072 39.035 18.4657 39.1835 18.3031 39.4036C18.1405 39.6236 18.0695 39.8981 18.1049 40.1693C18.1403 40.4406 18.2794 40.6877 18.4929 40.8586C21.5734 43.1407 25.3712 44.2399 29.1942 43.9561C33.0172 43.6722 36.611 42.0243 39.3209 39.3124C42.0307 36.6005 43.6763 33.0051 43.9576 29.1815C44.2389 25.3578 43.1374 21.5603 40.8537 18.4809ZM27.0545 28.495C25.6478 25.9307 23.856 24.4995 21.7298 24.238C20.009 24.0251 18.12 24.8178 17.8605 26.7415C17.801 27.0899 17.8138 27.4467 17.8982 27.79C17.9826 28.1331 18.1367 28.4552 18.351 28.7362C18.8942 29.4437 19.8448 29.9445 20.8968 30.0742C22.2383 30.2201 23.5908 29.9233 24.7479 29.2289C24.8691 29.1604 25.0025 29.1167 25.1406 29.1001C25.2787 29.0836 25.4188 29.0944 25.5527 29.1321C25.6866 29.1697 25.8117 29.2335 25.921 29.3196C26.0302 29.4058 26.1213 29.5127 26.189 29.6343C26.326 29.8792 26.3602 30.1685 26.2842 30.4387C26.2082 30.7089 26.0282 30.9379 25.7836 31.0756C24.2316 31.9993 22.4196 32.3888 20.6252 32.1845C18.9996 31.9838 17.5544 31.2013 16.6626 30.0356C16.2757 29.5321 15.9959 28.9548 15.8401 28.3392C15.6843 27.7236 15.6559 27.0827 15.7566 26.4557C15.8498 25.7247 16.1091 25.0249 16.5145 24.4096C16.9199 23.7944 17.4608 23.2801 18.0956 22.9061C19.2756 22.2261 20.6478 21.9566 21.9974 22.1399C24.7965 22.4845 27.1903 24.3313 28.9172 27.4794C30.3219 30.0417 32.1137 31.4729 34.2419 31.7365C35.9688 31.9493 37.8599 31.1546 38.1295 29.2248C38.185 28.8767 38.1683 28.5208 38.0804 28.1794C37.9925 27.8379 37.8354 27.5183 37.6187 27.2402C37.0776 26.5327 36.1249 26.034 35.0749 25.9023C33.7333 25.7581 32.3812 26.0556 31.2239 26.7496C30.9789 26.8866 30.6897 26.9208 30.4195 26.8449C30.1494 26.7688 29.9204 26.5888 29.7827 26.3442C29.6459 26.0995 29.6117 25.8105 29.6877 25.5407C29.7637 25.2708 29.9437 25.0422 30.1881 24.9049C31.8644 23.9562 33.5993 23.5852 35.3405 23.8001C36.9661 24.0028 38.4092 24.7853 39.3031 25.9489C39.6888 26.4523 39.9679 27.0289 40.1237 27.6437C40.2795 28.2584 40.3085 28.8984 40.2091 29.5248C40.1152 30.2553 39.8558 30.9546 39.4503 31.5695C39.045 32.1843 38.5044 32.6984 37.87 33.0723C36.9334 33.6152 35.8676 33.8953 34.7851 33.8832C34.5141 33.8832 34.2433 33.8663 33.9744 33.8325C31.1732 33.4859 28.7814 31.6411 27.0545 28.495Z" fill="white"/>
</svg>
