<svg width="56" height="56" viewBox="0 0 56 56" fill="none" xmlns="http://www.w3.org/2000/svg">
<rect width="56" height="56" fill="#CFEDFD"/>
<path fill-rule="evenodd" clip-rule="evenodd" d="M21.9996 12.076C22.1753 11.9746 22.3917 11.9747 22.5672 12.0763L27.6346 15.0087L32.7019 12.0763C32.8776 11.9747 33.094 11.9746 33.2696 12.076L38.6341 15.1728C38.8095 15.2741 38.9176 15.4614 38.9176 15.664V21.5177L43.8375 24.3647C43.9809 24.4001 44.1105 24.4911 44.1911 24.6286C44.2459 24.7222 44.2709 24.825 44.2689 24.926L44.2692 24.9416V31.0964C44.2692 31.2989 44.1612 31.486 43.986 31.5873L38.9176 34.5203V40.3481C38.9176 40.5512 38.8092 40.7387 38.6331 40.8399L33.2687 43.9238C33.1646 43.9836 33.0463 44.0079 32.9306 43.9965C32.8424 43.988 32.7601 43.9593 32.6884 43.9151L27.6346 41.0028L22.5909 43.9093C22.5023 43.9666 22.3966 44 22.2831 44C22.1698 44 22.0641 43.9666 21.9755 43.9093L16.636 40.8399C16.4601 40.7387 16.3515 40.5512 16.3515 40.3481V34.5203L11.2832 31.5873C11.108 31.486 11.0001 31.2989 11.0001 31.0964V24.952C10.9993 24.9106 11.0031 24.8689 11.0116 24.8277C11.0438 24.6708 11.1415 24.5327 11.2832 24.4507L16.3515 21.5177V15.6824C16.3482 15.5792 16.3729 15.4738 16.4289 15.3781C16.4767 15.2962 16.5419 15.2308 16.6171 15.1837C16.623 15.18 16.629 15.1764 16.6352 15.1728L21.9996 12.076ZM17.4859 20.8616V16.6529L21.1061 18.7691L17.4859 20.8616ZM17.4857 22.8336V27.7039L21.7158 30.1415V25.3063L17.4857 22.8336ZM22.2846 24.3249L18.0467 21.8476L22.2678 19.4079L26.5159 21.8661L22.2846 24.3249ZM27.0675 22.8576V27.6088L22.8501 30.052V25.3083L27.0675 22.8576ZM28.2018 22.8576L32.4187 25.308V30.1083L28.2018 27.6363V22.8576ZM32.9844 24.3248L28.773 21.8775L33.1193 19.4855L37.2167 21.8509L32.9844 24.3248ZM22.8504 32.1043V36.9737L27.0672 39.4161V34.5343L22.8504 32.1043ZM28.2015 39.363V34.5343L32.4185 32.1043V36.9176L28.2015 39.363ZM31.8783 31.1064L27.6344 33.552L23.3416 31.0782L27.611 28.6049L31.8783 31.1064ZM37.7831 27.7231L33.5531 30.1344V25.3063L37.7831 22.8336V27.7231ZM23.4009 18.7529L27.6401 21.2061L31.971 18.8227L27.623 16.3126L23.4009 18.7529ZM26.4903 15.6571L22.2828 13.2223L18.0476 15.6673L22.2364 18.1158L26.4903 15.6571ZM37.7833 20.8682V16.6525L34.1549 18.7735L37.7833 20.8682ZM33.0239 18.1206L37.2214 15.6671L32.9864 13.2223L28.7676 15.6636L33.0239 18.1206ZM33.5528 31.4402V36.2598L37.7831 33.8066V29.0288L33.5528 31.4402ZM33.5528 37.5711L37.7833 35.1178V40.02L33.5528 42.452V37.5711ZM28.7672 40.3462L32.4185 38.229V42.4503L28.7672 40.3462ZM21.716 36.3166V31.4509L17.4857 29.013V33.8664L21.716 36.3166ZM17.4859 35.1774L21.716 37.6275V42.4518L17.4859 40.02V35.1774ZM22.8504 38.2845L26.4558 40.3729L22.8504 42.4505V38.2845ZM38.9175 33.2099L43.1348 30.7694V25.905L38.9175 28.3762V33.2099ZM38.9175 27.0615L42.5523 24.9316L38.9175 22.8282V27.0615ZM16.3513 22.8285L12.6938 24.945L16.3513 27.0882V22.8285ZM16.3513 28.4029L12.1344 25.9319V30.7694L16.3513 33.2097V28.4029Z" fill="black"/>
</svg>
