<svg width="56" height="56" viewBox="0 0 56 56" fill="none" xmlns="http://www.w3.org/2000/svg">
<rect width="56" height="56" fill="#58B18F"/>
<path fill-rule="evenodd" clip-rule="evenodd" d="M14 12H35.2189C38.7431 12 41.6 14.8516 41.6 18.3693V20.9784H34.9883V20.3645C34.9883 19.305 34.1278 18.4461 33.0663 18.4461H22.7643C21.7029 18.4461 20.8423 19.305 20.8423 20.3645V34.7146C20.8423 36.2828 22.1159 37.5539 23.6869 37.5539H32.1437C33.7147 37.5539 34.9883 36.2828 34.9883 34.7146V30.3406H41.6V37.4772C41.6 41.0797 38.6743 44 35.0651 44H14V12ZM15.0763 13.0743V42.9256H35.0651C38.0798 42.9256 40.5237 40.4863 40.5237 37.4772V31.4149H36.0646V34.7146C36.0646 36.8761 34.3092 38.6283 32.1437 38.6283H23.6869C21.5215 38.6283 19.766 36.8761 19.766 34.7146V20.3645C19.766 18.7116 21.1084 17.3717 22.7643 17.3717H33.0663C34.5654 17.3717 35.8075 18.4698 36.0293 19.9041H40.5237V18.3693C40.5237 15.4449 38.1487 13.0743 35.2189 13.0743H15.0763ZM32.3744 21.0552H23.3025C22.9628 21.0552 22.6875 21.33 22.6875 21.669V34.1008C22.6875 34.4398 22.9628 34.7146 23.3025 34.7146H32.3744C32.7141 34.7146 32.9894 34.4398 32.9894 34.1008V21.669C32.9894 21.33 32.7141 21.0552 32.3744 21.0552ZM41.2924 23.0503H35.2958C35.1259 23.0503 34.9883 23.1877 34.9883 23.3573V27.8082C34.9883 27.9777 35.1259 28.1151 35.2958 28.1151H41.2924C41.4623 28.1151 41.6 27.9777 41.6 27.8082V23.3573C41.6 23.1877 41.4623 23.0503 41.2924 23.0503Z" fill="white"/>
</svg>
