<svg width="56" height="56" viewBox="0 0 56 56" fill="none" xmlns="http://www.w3.org/2000/svg">
<rect width="56" height="56" fill="black"/>
<path fill-rule="evenodd" clip-rule="evenodd" d="M27.1115 9.98831C27.1115 11.0864 26.2292 11.9767 25.1408 11.9767C24.0524 11.9767 23.17 11.0864 23.17 9.98831C23.17 8.8902 24.0524 8 25.1408 8C26.2292 8 27.1115 8.8902 27.1115 9.98831ZM32.4219 12.0068C33.5104 12.0068 34.3925 11.1167 34.3925 10.0186C34.3925 8.92046 33.5104 8.03027 32.4219 8.03027C31.3334 8.03027 30.4512 8.92046 30.4512 10.0186C30.4512 11.1167 31.3334 12.0068 32.4219 12.0068ZM42.2343 13.2309C42.2343 14.3291 41.3519 15.2192 40.2635 15.2192C39.1752 15.2192 38.2928 14.3291 38.2928 13.2309C38.2928 12.1328 39.1752 11.2426 40.2635 11.2426C41.3519 11.2426 42.2343 12.1328 42.2343 13.2309ZM37.9107 14.6771C37.9107 15.5725 37.1913 16.298 36.3041 16.298C35.4171 16.298 34.6977 15.5725 34.6977 14.6771C34.6977 13.7821 35.4171 13.0564 36.3041 13.0564C37.1913 13.0564 37.9107 13.7821 37.9107 14.6771ZM23.5221 29.6153C23.9971 29.6153 24.3822 29.2269 24.3822 28.7476C24.3822 28.2684 23.9971 27.8801 23.5221 27.8801C23.0472 27.8801 22.6622 28.2684 22.6622 28.7476C22.6622 29.2269 23.0472 29.6153 23.5221 29.6153ZM22.8084 30.883C23.3193 30.8951 23.724 31.3229 23.7118 31.8385C23.7 32.3541 23.2759 32.7622 22.7648 32.7502C22.2538 32.738 21.8492 32.3102 21.8612 31.7946C21.8732 31.2789 22.2973 30.8709 22.8084 30.883ZM23.2302 25.2887C23.7941 25.2887 24.2512 24.8273 24.2512 24.2583C24.2512 23.6893 23.7941 23.2281 23.2302 23.2281C22.6662 23.2281 22.2089 23.6893 22.2089 24.2583C22.2089 24.8273 22.6662 25.2887 23.2302 25.2887ZM23.9637 21.4141C23.9637 22.0896 23.4209 22.6373 22.7514 22.6373C22.0819 22.6373 21.5391 22.0896 21.5391 21.4141C21.5391 20.7386 22.0819 20.191 22.7514 20.191C23.4209 20.191 23.9637 20.7386 23.9637 21.4141ZM24.323 27.4761C24.798 27.4761 25.1831 27.0877 25.1831 26.6084C25.1831 26.1294 24.798 25.741 24.323 25.741C23.8481 25.741 23.463 26.1294 23.463 26.6084C23.463 27.0877 23.8481 27.4761 24.323 27.4761ZM26.5499 28.2596C26.5499 28.6556 26.2318 28.9765 25.8394 28.9765C25.4468 28.9765 25.1286 28.6556 25.1286 28.2596C25.1286 27.8635 25.4468 27.5425 25.8394 27.5425C26.2318 27.5425 26.5499 27.8635 26.5499 28.2596ZM25.5881 30.6759C25.9806 30.6759 26.2988 30.3549 26.2988 29.9589C26.2988 29.563 25.9806 29.242 25.5881 29.242C25.1955 29.242 24.8773 29.563 24.8773 29.9589C24.8773 30.3549 25.1955 30.6759 25.5881 30.6759ZM26.7466 24.2464C26.7466 24.7256 26.3616 25.114 25.8867 25.114C25.4118 25.114 25.0267 24.7256 25.0267 24.2464C25.0267 23.7672 25.4118 23.3787 25.8867 23.3787C26.3616 23.3787 26.7466 23.7672 26.7466 24.2464ZM26.4673 26.8616C26.8597 26.8616 27.1779 26.5406 27.1779 26.1445C27.1779 25.7486 26.8597 25.4276 26.4673 25.4276C26.0748 25.4276 25.7567 25.7486 25.7567 26.1445C25.7567 26.5406 26.0748 26.8616 26.4673 26.8616ZM28.0021 30.7181C28.0021 31.0475 27.7375 31.3146 27.4109 31.3146C27.0843 31.3146 26.8196 31.0475 26.8196 30.7181C26.8196 30.3886 27.0843 30.1217 27.4109 30.1217C27.7375 30.1217 28.0021 30.3886 28.0021 30.7181ZM27.859 32.2782C27.8666 31.9488 27.6083 31.6755 27.2819 31.6679C26.9556 31.6603 26.6847 31.921 26.677 32.2502C26.6694 32.5796 26.9277 32.8528 27.2541 32.8604C27.5807 32.8682 27.8514 32.6076 27.859 32.2782ZM28.1204 29.314C28.1204 29.6435 27.8558 29.9104 27.5292 29.9104C27.2027 29.9104 26.9379 29.6435 26.9379 29.314C26.9379 28.9846 27.2027 28.7175 27.5292 28.7175C27.8558 28.7175 28.1204 28.9846 28.1204 29.314ZM27.7275 28.2956C28.0541 28.2956 28.3187 28.0287 28.3187 27.6992C28.3187 27.3698 28.0541 27.1027 27.7275 27.1027C27.4012 27.1027 27.1363 27.3698 27.1363 27.6992C27.1363 28.0287 27.4012 28.2956 27.7275 28.2956ZM28.5518 26.1144C28.5518 26.4438 28.2871 26.7109 27.9605 26.7109C27.6341 26.7109 27.3693 26.4438 27.3693 26.1144C27.3693 25.7849 27.6341 25.5179 27.9605 25.5179C28.2871 25.5179 28.5518 25.7849 28.5518 26.1144ZM28.0727 24.9633C28.4652 24.9633 28.7834 24.6423 28.7834 24.2464C28.7834 23.8503 28.4652 23.5294 28.0727 23.5294C27.6801 23.5294 27.362 23.8503 27.362 24.2464C27.362 24.6423 27.6801 24.9633 28.0727 24.9633ZM32.1585 18.154C32.1585 18.8295 31.6157 19.3771 30.9462 19.3771C30.2767 19.3771 29.7339 18.8295 29.7339 18.154C29.7339 17.4785 30.2767 16.9309 30.9462 16.9309C31.6157 16.9309 32.1585 17.4785 32.1585 18.154ZM29.2625 21.0826C29.8265 21.0826 30.2838 20.6214 30.2838 20.0524C30.2838 19.4832 29.8265 19.0219 29.2625 19.0219C28.6985 19.0219 28.2412 19.4832 28.2412 20.0524C28.2412 20.6214 28.6985 21.0826 29.2625 21.0826ZM29.2914 22.1674C29.2914 22.6466 28.9063 23.0351 28.4314 23.0351C27.9564 23.0351 27.5713 22.6466 27.5713 22.1674C27.5713 21.6884 27.9564 21.2999 28.4314 21.2999C28.9063 21.2999 29.2914 21.6884 29.2914 22.1674ZM26.3592 20.4318C27.0288 20.4318 27.5716 19.8841 27.5716 19.2086C27.5716 18.5331 27.0288 17.9855 26.3592 17.9855C25.6897 17.9855 25.1469 18.5331 25.1469 19.2086C25.1469 19.8841 25.6897 20.4318 26.3592 20.4318ZM26.7779 21.8118C26.7779 22.3808 26.3207 22.842 25.7567 22.842C25.1929 22.842 24.7356 22.3808 24.7356 21.8118C24.7356 21.2428 25.1929 20.7814 25.7567 20.7814C26.3207 20.7814 26.7779 21.2428 26.7779 21.8118ZM25.9927 32.209C26.0024 31.7867 25.6708 31.4362 25.2522 31.4263C24.8333 31.4165 24.4861 31.751 24.4764 32.1736C24.4668 32.5959 24.7981 32.9464 25.2169 32.9563C25.6357 32.9661 25.9831 32.6315 25.9927 32.209ZM34.6436 16.286C34.6436 17.0514 34.0284 17.6719 33.27 17.6719C32.5114 17.6719 31.8965 17.0514 31.8965 16.286C31.8965 15.5208 32.5114 14.9004 33.27 14.9004C34.0284 14.9004 34.6436 15.5208 34.6436 16.286ZM31.1848 13.3755C31.1848 14.2707 30.4655 14.9964 29.5783 14.9964C28.6912 14.9964 27.9718 14.2707 27.9718 13.3755C27.9718 12.4804 28.6912 11.7548 29.5783 11.7548C30.4655 11.7548 31.1848 12.4804 31.1848 13.3755ZM27.6198 17.8105C28.3785 17.8105 28.9933 17.1902 28.9933 16.4248C28.9933 15.6594 28.3785 15.039 27.6198 15.039C26.8612 15.039 26.2462 15.6594 26.2462 16.4248C26.2462 17.1902 26.8612 17.8105 27.6198 17.8105ZM23.6662 16.0268C24.5534 16.0268 25.2725 15.3012 25.2725 14.4061C25.2725 13.5109 24.5534 12.7852 23.6662 12.7852C22.7789 12.7852 22.0597 13.5109 22.0597 14.4061C22.0597 15.3012 22.7789 16.0268 23.6662 16.0268ZM24.268 18.2145C24.268 18.9799 23.6529 19.6002 22.8945 19.6002C22.1359 19.6002 21.5209 18.9799 21.5209 18.2145C21.5209 17.449 22.1359 16.8287 22.8945 16.8287C23.6529 16.8287 24.268 17.449 24.268 18.2145ZM21.5027 27.9339C22.0667 27.9339 22.5239 27.4727 22.5239 26.9037C22.5239 26.3347 22.0667 25.8734 21.5027 25.8734C20.9387 25.8734 20.4815 26.3347 20.4815 26.9037C20.4815 27.4727 20.9387 27.9339 21.5027 27.9339ZM21.0549 24.3188C21.0549 24.9943 20.5121 25.5418 19.8426 25.5418C19.173 25.5418 18.6304 24.9943 18.6304 24.3188C18.6304 23.6431 19.173 23.0956 19.8426 23.0956C20.5121 23.0956 21.0549 23.6431 21.0549 24.3188ZM18.8152 22.4083C19.5738 22.4083 20.1888 21.7879 20.1888 21.0226C20.1888 20.2572 19.5738 19.6367 18.8152 19.6367C18.0566 19.6367 17.4417 20.2572 17.4417 21.0226C17.4417 21.7879 18.0566 22.4083 18.8152 22.4083ZM20.2169 29.5884C20.817 29.6024 21.2922 30.1045 21.2782 30.7099C21.2644 31.3155 20.7665 31.7949 20.1665 31.7808C19.5664 31.7668 19.0912 31.2647 19.1051 30.659C19.1191 30.0537 19.6168 29.5742 20.2169 29.5884ZM19.2705 13.9839C20.3588 13.9839 21.2412 13.0937 21.2412 11.9956C21.2412 10.8975 20.3588 10.0073 19.2705 10.0073C18.182 10.0073 17.2997 10.8975 17.2997 11.9956C17.2997 13.0937 18.182 13.9839 19.2705 13.9839ZM20.1595 16.955C20.1595 17.85 19.4403 18.5757 18.553 18.5757C17.6658 18.5757 16.9465 17.85 16.9465 16.955C16.9465 16.0596 17.6658 15.3341 18.553 15.3341C19.4403 15.3341 20.1595 16.0596 20.1595 16.955ZM15.702 16.4699C15.7259 15.4386 14.9167 14.583 13.8946 14.5589C12.8724 14.5347 12.0245 15.3511 12.0005 16.3825C11.9766 17.4136 12.7858 18.2692 13.8079 18.2933C14.8301 18.3174 15.6781 17.501 15.702 16.4699ZM14.6319 20.0064C15.4792 20.0263 16.1501 20.7358 16.1303 21.5906C16.1105 22.4456 15.4075 23.1224 14.56 23.1025C13.7127 23.0826 13.0418 22.3731 13.0616 21.5183C13.0815 20.6633 13.7845 19.9865 14.6319 20.0064ZM17.3119 25.6285C17.3297 24.8667 16.7319 24.2348 15.9767 24.2169C15.2217 24.199 14.5953 24.8022 14.5777 25.564C14.5599 26.3258 15.1577 26.9576 15.9129 26.9756C16.6679 26.9934 17.2943 26.3903 17.3119 25.6285ZM17.8492 27.3395C18.5251 27.3553 19.0602 27.9212 19.0444 28.6031C19.0285 29.2851 18.4677 29.8251 17.7918 29.8091C17.1159 29.793 16.5808 29.2273 16.5966 28.5453C16.6124 27.8634 17.1732 27.3234 17.8492 27.3395ZM24.5784 47.9697C25.6668 47.9697 26.549 47.0797 26.549 45.9815C26.549 44.8834 25.6668 43.9931 24.5784 43.9931C23.4899 43.9931 22.6077 44.8834 22.6077 45.9815C22.6077 47.0797 23.4899 47.9697 24.5784 47.9697ZM39.1991 26.1932C39.8749 26.2092 40.4101 26.775 40.3942 27.457C40.3784 28.1388 39.8177 28.6787 39.1416 28.6627C38.4658 28.6467 37.9306 28.081 37.9465 27.399C37.9623 26.7172 38.523 26.1772 39.1991 26.1932ZM37.1568 32.9112C37.8263 32.9112 38.3691 32.3636 38.3691 31.6882C38.3691 31.0127 37.8263 30.4652 37.1568 30.4652C36.4873 30.4652 35.9445 31.0127 35.9445 31.6882C35.9445 32.3636 36.4873 32.9112 37.1568 32.9112ZM36.8255 24.222C37.4255 24.2362 37.9006 24.7384 37.8866 25.344C37.8725 25.9494 37.3746 26.4286 36.7746 26.4145C36.1744 26.4002 35.6993 25.8981 35.7135 25.2925C35.7274 24.6871 36.2252 24.2079 36.8255 24.222ZM38.1846 36.3703C38.9433 36.3703 39.5581 35.7498 39.5581 34.9845C39.5581 34.2191 38.9433 33.5986 38.1846 33.5986C37.426 33.5986 36.811 34.2191 36.811 34.9845C36.811 35.7498 37.426 36.3703 38.1846 36.3703ZM34.7925 31.7486C34.7925 32.3177 34.3353 32.7788 33.7712 32.7788C33.2074 32.7788 32.7502 32.3177 32.7502 31.7486C32.7502 31.1795 33.2074 30.7183 33.7712 30.7183C34.3353 30.7183 34.7925 31.1795 34.7925 31.7486ZM34.2482 35.8159C34.9177 35.8159 35.4605 35.2684 35.4605 34.5928C35.4605 33.9173 34.9177 33.3697 34.2482 33.3697C33.5786 33.3697 33.0359 33.9173 33.0359 34.5928C33.0359 35.2684 33.5786 35.8159 34.2482 35.8159ZM29.6316 31.7607C29.6316 32.1566 29.3135 32.4775 28.9211 32.4775C28.5285 32.4775 28.2103 32.1566 28.2103 31.7607C28.2103 31.3646 28.5285 31.0436 28.9211 31.0436C29.3135 31.0436 29.6316 31.3646 29.6316 31.7607ZM29.0399 30.489C29.3665 30.489 29.6312 30.2219 29.6312 29.8926C29.6312 29.5632 29.3665 29.2961 29.0399 29.2961C28.7135 29.2961 28.4487 29.5632 28.4487 29.8926C28.4487 30.2219 28.7135 30.489 29.0399 30.489ZM29.8589 28.3072C29.8589 28.6367 29.5942 28.9038 29.2676 28.9038C28.941 28.9038 28.6764 28.6367 28.6764 28.3072C28.6764 27.9778 28.941 27.7107 29.2676 27.7107C29.5942 27.7107 29.8589 27.9778 29.8589 28.3072ZM29.5898 25.8852C29.9161 25.8852 30.1808 25.6181 30.1808 25.2887C30.1808 24.9591 29.9161 24.6922 29.5898 24.6922C29.2632 24.6922 28.9986 24.9591 28.9986 25.2887C28.9986 25.6181 29.2632 25.8852 29.5898 25.8852ZM29.7447 23.1499C30.0711 23.1577 30.3294 23.4309 30.3218 23.7602C30.3142 24.0896 30.0434 24.3502 29.7169 24.3425C29.3906 24.3349 29.1322 24.0616 29.1398 23.7322C29.1475 23.4029 29.4182 23.1422 29.7447 23.1499ZM29.4696 27.289C29.7962 27.289 30.0609 27.0219 30.0609 26.6924C30.0609 26.363 29.7962 26.0959 29.4696 26.0959C29.1431 26.0959 28.8784 26.363 28.8784 26.6924C28.8784 27.0219 29.1431 27.289 29.4696 27.289ZM31.2316 29.8506C31.2316 30.2464 30.9135 30.5674 30.5211 30.5674C30.1285 30.5674 29.8103 30.2464 29.8103 29.8506C29.8103 29.4545 30.1285 29.1335 30.5211 29.1335C30.9135 29.1335 31.2316 29.4545 31.2316 29.8506ZM31.1072 32.6281C31.5822 32.6281 31.9671 32.2397 31.9671 31.7607C31.9671 31.2814 31.5822 30.893 31.1072 30.893C30.6323 30.893 30.2472 31.2814 30.2472 31.7607C30.2472 32.2397 30.6323 32.6281 31.1072 32.6281ZM31.8705 27.7468C31.8705 28.1429 31.5524 28.4639 31.16 28.4639C30.7675 28.4639 30.4492 28.1429 30.4492 27.7468C30.4492 27.351 30.7675 27.03 31.16 27.03C31.5524 27.03 31.8705 27.351 31.8705 27.7468ZM31.4058 26.7587C31.7982 26.7587 32.1165 26.4378 32.1165 26.0417C32.1165 25.6458 31.7982 25.3248 31.4058 25.3248C31.0132 25.3248 30.695 25.6458 30.695 26.0417C30.695 26.4378 31.0132 26.7587 31.4058 26.7587ZM31.7761 23.0484C32.195 23.0582 32.5266 23.4087 32.5167 23.8312C32.5068 24.2536 32.1596 24.5882 31.7408 24.5783C31.3219 24.5682 30.9905 24.2178 31.0002 23.7953C31.0101 23.3728 31.3575 23.0385 31.7761 23.0484ZM26.0479 39.076C26.7174 39.076 27.2602 38.5284 27.2602 37.853C27.2602 37.1774 26.7174 36.6298 26.0479 36.6298C25.3783 36.6298 24.8356 37.1774 24.8356 37.853C24.8356 38.5284 25.3783 39.076 26.0479 39.076ZM28.7601 35.9546C28.7601 36.5236 28.3029 36.985 27.7389 36.985C27.1748 36.985 26.7176 36.5236 26.7176 35.9546C26.7176 35.3857 27.1748 34.9244 27.7389 34.9244C28.3029 34.9244 28.7601 35.3857 28.7601 35.9546ZM28.568 34.7012C29.0429 34.7012 29.4278 34.3127 29.4278 33.8337C29.4278 33.3544 29.0429 32.9661 28.568 32.9661C28.0929 32.9661 27.7079 33.3544 27.7079 33.8337C27.7079 34.3127 28.0929 34.7012 28.568 34.7012ZM31.8526 36.7983C31.8526 37.4737 31.3099 38.0214 30.6403 38.0214C29.9708 38.0214 29.428 37.4737 29.428 36.7983C29.428 36.1228 29.9708 35.5752 30.6403 35.5752C31.3099 35.5752 31.8526 36.1228 31.8526 36.7983ZM31.2376 35.2255C31.8014 35.2255 32.2586 34.7642 32.2586 34.1952C32.2586 33.6262 31.8014 33.165 31.2376 33.165C30.6736 33.165 30.2163 33.6262 30.2163 34.1952C30.2163 34.7642 30.6736 35.2255 31.2376 35.2255ZM33.5308 29.3986C33.5308 29.8779 33.1457 30.2663 32.6707 30.2663C32.1958 30.2663 31.811 29.8779 31.811 29.3986C31.811 28.9194 32.1958 28.5309 32.6707 28.5309C33.1457 28.5309 33.5308 28.9194 33.5308 29.3986ZM33.4716 28.1266C33.9466 28.1266 34.3317 27.7381 34.3317 27.2589C34.3317 26.7796 33.9466 26.3913 33.4716 26.3913C32.9967 26.3913 32.6116 26.7796 32.6116 27.2589C32.6116 27.7381 32.9967 28.1266 33.4716 28.1266ZM34.2268 23.2527C34.7379 23.2649 35.1426 23.6926 35.1304 24.2083C35.1185 24.7239 34.6945 25.1321 34.1833 25.12C33.6722 25.1079 33.2677 24.6799 33.2797 24.1644C33.2916 23.6488 33.7156 23.2406 34.2268 23.2527ZM16.7366 44.7643C17.825 44.7643 18.7073 43.8741 18.7073 42.7759C18.7073 41.6777 17.825 40.7877 16.7366 40.7877C15.6481 40.7877 14.7659 41.6777 14.7659 42.7759C14.7659 43.8741 15.6481 44.7643 16.7366 44.7643ZM22.3019 41.3296C22.3019 42.2248 21.5826 42.9504 20.6954 42.9504C19.8083 42.9504 19.089 42.2248 19.089 41.3296C19.089 40.4346 19.8083 39.709 20.6954 39.709C21.5826 39.709 22.3019 40.4346 22.3019 41.3296ZM23.7299 41.1007C24.4885 41.1007 25.1035 40.4802 25.1035 39.7148C25.1035 38.9496 24.4885 38.329 23.7299 38.329C22.9712 38.329 22.3564 38.9496 22.3564 39.7148C22.3564 40.4802 22.9712 41.1007 23.7299 41.1007ZM29.0278 42.6314C29.0278 43.5264 28.3086 44.2521 27.4213 44.2521C26.5341 44.2521 25.815 43.5264 25.815 42.6314C25.815 41.7364 26.5341 41.0107 27.4213 41.0107C28.3086 41.0107 29.0278 41.7364 29.0278 42.6314ZM29.38 40.9678C30.1385 40.9678 30.7535 40.3475 30.7535 39.5822C30.7535 38.8169 30.1385 38.1964 29.38 38.1964C28.6214 38.1964 28.0064 38.8169 28.0064 39.5822C28.0064 40.3475 28.6214 40.9678 29.38 40.9678ZM33.8247 46.0118C33.8247 47.1098 32.9423 48 31.854 48C30.7654 48 29.8831 47.1098 29.8831 46.0118C29.8831 44.9136 30.7654 44.0235 31.854 44.0235C32.9423 44.0235 33.8247 44.9136 33.8247 46.0118ZM33.3354 43.2215C34.2227 43.2215 34.9418 42.4959 34.9418 41.6009C34.9418 40.7057 34.2227 39.98 33.3354 39.98C32.4483 39.98 31.7289 40.7057 31.7289 41.6009C31.7289 42.4959 32.4483 43.2215 33.3354 43.2215ZM35.479 37.7924C35.479 38.5578 34.864 39.1783 34.1054 39.1783C33.3468 39.1783 32.7319 38.5578 32.7319 37.7924C32.7319 37.0272 33.3468 36.4067 34.1054 36.4067C34.864 36.4067 35.479 37.0272 35.479 37.7924ZM35.4915 30.1269C36.0555 30.1269 36.5128 29.6656 36.5128 29.0965C36.5128 28.5275 36.0555 28.0663 35.4915 28.0663C34.9275 28.0663 34.4702 28.5275 34.4702 29.0965C34.4702 29.6656 34.9275 30.1269 35.4915 30.1269ZM39.7005 44.0112C39.7005 45.1093 38.8181 45.9996 37.7298 45.9996C36.6413 45.9996 35.759 45.1093 35.759 44.0112C35.759 42.9132 36.6413 42.023 37.7298 42.023C38.8181 42.023 39.7005 42.9132 39.7005 44.0112ZM38.4411 40.6728C39.3284 40.6728 40.0476 39.9471 40.0476 39.0521C40.0476 38.157 39.3284 37.4312 38.4411 37.4312C37.5539 37.4312 36.8348 38.157 36.8348 39.0521C36.8348 39.9471 37.5539 40.6728 38.4411 40.6728ZM41.0782 29.029C41.8333 29.0469 42.4311 29.6787 42.4133 30.4405C42.3957 31.2023 41.7692 31.8055 41.0141 31.7876C40.2592 31.7699 39.6612 31.1379 39.679 30.3761C39.6967 29.6143 40.3231 29.011 41.0782 29.029ZM43.9311 34.4862C43.9509 33.6312 43.2801 32.922 42.4328 32.9021C41.5852 32.882 40.8823 33.559 40.8624 34.4137C40.8426 35.2688 41.5135 35.978 42.3609 35.9982C43.2082 36.0181 43.9112 35.3413 43.9311 34.4862ZM43.1896 37.7101C44.2117 37.7342 45.0209 38.5897 44.9972 39.6209C44.9733 40.6522 44.1254 41.4686 43.1033 41.4446C42.081 41.4205 41.2719 40.5651 41.2956 39.5338C41.3194 38.5027 42.1673 37.6861 43.1896 37.7101Z" fill="white"/>
</svg>
