<svg width="280" height="280" viewBox="0 0 280 280" fill="none" xmlns="http://www.w3.org/2000/svg">
<path fill-rule="evenodd" clip-rule="evenodd" d="M224 8H188.696V0H224C254.928 0 280 25.0721 280 56V91.3045H272V56C272 29.4903 250.51 8 224 8ZM8 91.3045V56C8 29.4903 29.4903 8 56 8H91.3045V0H56C25.0721 0 0 25.0721 0 56V91.3045H8ZM0 188.696V224C0 254.928 25.0721 280 56 280H91.3045V272H56C29.4903 272 8 250.51 8 224V188.696H0ZM272 188.696H280V224C280 254.928 254.928 280 224 280H188.696V272H224C250.51 272 272 250.51 272 224V188.696Z" fill="#E6007A"/>
</svg>
