<svg width="56" height="56" viewBox="0 0 56 56" fill="none" xmlns="http://www.w3.org/2000/svg">
<rect width="56" height="56" fill="#2B2E37"/>
<path d="M48.5263 42.5999V37.1029L39.1079 27.608H33.4354L48.5263 42.5999Z" fill="white"/>
<path d="M8 13.862V19.3474L17.4182 28.8423H23.0909L8 13.862Z" fill="white"/>
<path d="M12.9454 8H18.4512L27.9496 17.4033L37.3712 8H43.1156L27.9496 23.0669L12.9454 8Z" fill="white"/>
<path d="M13.8711 48H19.377L28.8753 38.5967L38.297 48H44.0413L28.8753 32.9331L13.8711 48Z" fill="white"/>
<path d="M28.3299 31.434C29.712 31.434 30.8325 30.3153 30.8325 28.9353C30.8325 27.5554 29.712 26.4367 28.3299 26.4367C26.9477 26.4367 25.8272 27.5554 25.8272 28.9353C25.8272 30.3153 26.9477 31.434 28.3299 31.434Z" fill="white"/>
</svg>
