<svg width="56" height="56" viewBox="0 0 56 56" fill="none" xmlns="http://www.w3.org/2000/svg">
<rect width="56" height="56" fill="#DA3634"/>
<path d="M31.2294 12.092L33.7014 18.2953C34.0222 18.2091 34.3775 18.2642 34.667 18.4764C34.932 18.6706 35.0899 18.9581 35.1286 19.2619L41.8055 20.084C41.8426 19.5012 41.675 18.9055 41.2436 18.3557C40.4378 17.3291 39.3801 16.4703 38.1911 15.8901C37.4048 15.5064 36.6859 14.9796 36.0811 14.3438C35.1643 13.3798 34.0239 12.6291 32.8033 12.1737C32.2424 11.9645 31.7099 11.9532 31.2294 12.092Z" fill="white"/>
<path d="M38.3677 30.2097C37.846 30.0393 37.2907 30.2664 37.0262 30.7249L30.5155 28.5982C30.6289 28.4272 30.7987 28.2902 31.0144 28.2201L39.8951 25.335C41.2794 24.8853 42.796 25.1327 43.6899 25.9649L38.5476 30.2859C38.4908 30.2559 38.4307 30.2303 38.3677 30.2097Z" fill="white"/>
<path d="M38.9579 30.6384L44.0428 26.3501C44.3221 26.7682 44.4761 27.2825 44.4522 27.8852C44.4 29.1969 44.0445 30.5228 43.419 31.7003C43.0063 32.477 42.7317 33.3294 42.613 34.2023C42.4335 35.5222 41.9505 36.8024 41.2315 37.8926C40.8465 38.4765 40.3366 38.8211 39.7757 38.9658L38.4875 32.3063C38.762 32.1753 38.9843 31.935 39.0855 31.6208C39.1962 31.2774 39.1383 30.9196 38.9579 30.6384Z" fill="white"/>
<path d="M36.0156 37.3288C36.8165 38.4387 38.07 39.1228 39.221 39.0893L37.936 32.4699C37.8425 32.4639 37.7483 32.4461 37.6551 32.4157C37.1633 32.2551 36.8536 31.7917 36.8642 31.2977L30.3373 29.1669C30.3405 29.354 30.3985 29.5435 30.5193 29.7109L36.0156 37.3288Z" fill="white"/>
<path d="M28.6711 39.2539L34.2856 42.8068C33.9778 43.2039 33.5404 43.5106 32.9647 43.6739C31.7118 44.0291 30.3518 44.0978 29.0484 43.8617C28.1886 43.7059 27.3 43.7059 26.4402 43.8617C25.1403 44.0973 23.784 44.0295 22.534 43.6768C21.8645 43.4878 21.382 43.1052 21.0723 42.6117L26.9531 39.318C27.1614 39.5409 27.4567 39.6799 27.7842 39.6799C28.1422 39.6799 28.4616 39.5138 28.6711 39.2539Z" fill="white"/>
<path d="M27.998 37.3756C28.5135 37.4869 28.8999 37.9476 28.8999 38.499C28.8999 38.5657 28.8943 38.631 28.8835 38.6945L34.5604 42.2757C35.0716 41.1639 34.837 39.6375 33.9838 38.453L28.5099 30.8538C28.377 30.6693 28.1949 30.5492 27.998 30.4938V37.3756Z" fill="white"/>
<path d="M20.7587 42.0841C20.3714 40.9947 20.6314 39.5852 21.4346 38.4769L26.9466 30.8705C27.0677 30.7033 27.2292 30.5893 27.4053 30.5285V37.4241C26.9345 37.5667 26.5915 38.0059 26.5915 38.5254C26.5915 38.6239 26.6039 38.7194 26.627 38.8106L20.7587 42.0841Z" fill="white"/>
<path d="M16.4966 30.6384L11.4117 26.3501C11.1324 26.7682 10.9785 27.2825 11.0024 27.8853C11.0546 29.1969 11.4101 30.5229 12.0356 31.7003C12.4482 32.477 12.7228 33.3295 12.8415 34.2024C13.0211 35.5223 13.5041 36.8025 14.223 37.8926C14.608 38.4765 15.1179 38.8212 15.6788 38.9658L16.967 32.3063C16.6926 32.1753 16.4702 31.9351 16.369 31.6208C16.2584 31.2774 16.3163 30.9197 16.4966 30.6384Z" fill="white"/>
<path d="M19.4754 37.3035C18.6758 38.4124 17.424 39.0957 16.2748 39.0623L17.5579 32.4496C17.6512 32.4436 17.7453 32.4258 17.8384 32.3955C18.3294 32.235 18.6386 31.772 18.6282 31.2785L25.1452 29.1498C25.1421 29.3367 25.0842 29.5261 24.9636 29.6933L19.4754 37.3035Z" fill="white"/>
<path d="M17.0948 30.2277C17.6172 30.0571 18.1734 30.2844 18.4383 30.7433L24.9587 28.6145C24.8452 28.4433 24.6751 28.3062 24.4591 28.236L15.5651 25.348C14.1787 24.8978 12.6599 25.1455 11.7646 25.9786L16.9146 30.3039C16.9715 30.2739 17.0317 30.2483 17.0948 30.2277Z" fill="white"/>
<path d="M33.2116 20.2253C32.8596 19.8306 32.8164 19.2296 33.1388 18.7835C33.1778 18.7296 33.2205 18.6801 33.2665 18.6351L30.7676 12.3833C29.7039 12.9808 29.0013 14.3543 28.999 15.8168L28.9842 25.199C28.9839 25.4269 29.0609 25.6316 29.1878 25.7928L33.2116 20.2253Z" fill="white"/>
<path d="M39.1214 23.2271C40.4195 22.8048 41.4544 21.8181 41.7783 20.7079L35.1159 19.8904C35.0812 19.978 35.0353 20.0625 34.9777 20.1421C34.6738 20.5624 34.1394 20.7152 33.6751 20.5526L29.6413 26.1311C29.8194 26.186 30.0167 26.1891 30.2126 26.1254L39.1214 23.2271Z" fill="white"/>
<path d="M22.0909 18.2953L24.5629 12.092C24.0824 11.9532 23.5499 11.9645 22.989 12.1737C21.7684 12.6291 20.6281 13.3798 19.7112 14.3438C19.1064 14.9796 18.3875 15.5064 17.6011 15.8901C16.4122 16.4703 15.3545 17.3291 14.5487 18.3557C14.1172 18.9055 13.9497 19.5012 13.9867 20.084L20.6637 19.2619C20.7024 18.9581 20.8603 18.6706 21.1253 18.4764C21.4148 18.2642 21.7701 18.2091 22.0909 18.2953Z" fill="white"/>
<path d="M16.7118 23.2161C15.4156 22.7942 14.3823 21.8085 14.0589 20.6994L20.7114 19.8827C20.746 19.9702 20.7917 20.0546 20.8493 20.1342C21.1528 20.5541 21.6863 20.7067 22.15 20.5442L26.1778 26.1172C26 26.1719 25.8029 26.175 25.6074 26.1115L16.7118 23.2161Z" fill="white"/>
<path d="M22.6701 18.79C22.993 19.2365 22.9497 19.8382 22.5972 20.2332L26.627 25.8064C26.7541 25.6449 26.8312 25.4401 26.8309 25.212L26.8161 15.8203C26.8138 14.3563 26.1101 12.9815 25.0449 12.3833L22.5422 18.6414C22.5882 18.6865 22.6311 18.736 22.6701 18.79Z" fill="white"/>
</svg>
