<svg width="40" height="40" viewBox="0 0 40 40" fill="none" xmlns="http://www.w3.org/2000/svg">
<path fill-rule="evenodd" clip-rule="evenodd" d="M20 40C21.7939 40 23.5332 39.7656 25.1875 39.3203C23.2266 37.4961 22 34.8906 22 32C22 26.4766 26.4771 22 32 22C33.6206 22 35.1509 22.3867 36.5049 23.0703C37.5659 23.6055 38.5186 24.3242 39.3208 25.1875C39.7637 23.5312 40 21.793 40 20C40 8.95312 31.0459 0 20 0C8.9541 0 0 8.95312 0 20C0 31.0469 8.9541 40 20 40ZM18 30H16L18.5 21.5H13L11.5 24H10L11 20L10 16H11.5L13 18.5H18.5L16 10H18L23 18.5H28.5C29.3301 18.5 30 19.1719 30 20C30 20.8281 29.3301 21.5 28.5 21.5H23L18 30ZM40 32C40 36.418 36.4185 40 32 40C27.5815 40 24 36.418 24 32C24 27.582 27.5815 24 32 24C36.4185 24 40 27.582 40 32ZM30.3975 33.9375L28.3125 31.8516L27.6025 32.5586L30.3975 35.3516L36.3975 29.3516L35.6924 28.6484L30.3975 33.9375Z" fill="#51E591"/>
</svg>
