<svg width="40" height="40" viewBox="0 0 40 40" fill="none" xmlns="http://www.w3.org/2000/svg">
<path fill-rule="evenodd" clip-rule="evenodd" d="M20 40C21.7942 40 23.5332 39.7637 25.1876 39.3207C23.2265 37.4949 22 34.8907 22 32C22 26.4772 26.4772 22 32 22C34.8907 22 37.4949 23.2265 39.3207 25.1876C39.7637 23.5332 40 21.7942 40 20C40 8.9543 31.0457 0 20 0C8.9543 0 0 8.9543 0 20C0 31.0457 8.9543 40 20 40ZM18 30H16L18.5 21.5H13L11.5 24H10L11 20L10 16H11.5L13 18.5H18.5L16 10H18L23 18.5H28.5C29.33 18.5 30 19.17 30 20C30 20.83 29.33 21.5 28.5 21.5H23L18 30ZM40 32C40 36.4183 36.4183 40 32 40C27.5817 40 24 36.4183 24 32C24 27.5817 27.5817 24 32 24C36.4183 24 40 27.5817 40 32ZM30.3975 33.9384L28.3125 31.8534L27.6025 32.5584L30.3975 35.3534L36.3975 29.3534L35.6925 28.6484L30.3975 33.9384Z" fill="#48CC81"/>
</svg>
