<svg width="160" height="160" viewBox="0 0 160 160" fill="none" xmlns="http://www.w3.org/2000/svg">
<path fill-rule="evenodd" clip-rule="evenodd" d="M80 160C124.183 160 160 124.183 160 80C160 35.8172 124.183 0 80 0C35.8172 0 0 35.8172 0 80C0 124.183 35.8172 160 80 160ZM99.8537 78.1827C95.9062 82.6708 92.2353 87.8973 92.2353 93.8744V116.941C92.2353 123.569 86.8627 128.941 80.2353 128.941C73.6079 128.941 68.2353 123.569 68.2353 116.941V93.8743C68.2353 87.8973 64.5644 82.6708 60.617 78.1827C56.5712 73.5829 54.1177 67.5486 54.1177 60.9412C54.1177 46.5168 65.8109 34.8236 80.2353 34.8236C94.6597 34.8236 106.353 46.5168 106.353 60.9412C106.353 67.5486 103.899 73.5829 99.8537 78.1827Z" fill="white"/>
</svg>
