<svg width="56" height="56" viewBox="0 0 56 56" fill="none" xmlns="http://www.w3.org/2000/svg">
<rect width="56" height="56" fill="#2398C5"/>
<mask id="mask0_11848_75183" style="mask-type:luminance" maskUnits="userSpaceOnUse" x="8" y="8" width="40" height="40">
<path fill-rule="evenodd" clip-rule="evenodd" d="M28 48C39.0457 48 48 39.0457 48 28C48 16.9543 39.0457 8 28 8C16.9543 8 8 16.9543 8 28C8 39.0457 16.9543 48 28 48ZM28.0001 39.8645C34.5527 39.8645 39.8645 34.5526 39.8645 28.0001C39.8645 21.4475 34.5527 16.1357 28.0001 16.1357C21.4475 16.1357 16.1357 21.4475 16.1357 28.0001C16.1357 34.5526 21.4475 39.8645 28.0001 39.8645Z" fill="white"/>
</mask>
<g mask="url(#mask0_11848_75183)">
<path d="M46.8571 28C46.8571 38.4145 38.4145 46.8571 28 46.8571V49.1429C39.6769 49.1429 49.1429 39.6769 49.1429 28H46.8571ZM28 9.14285C38.4145 9.14285 46.8571 17.5855 46.8571 28H49.1429C49.1429 16.3231 39.6769 6.85714 28 6.85714V9.14285ZM9.14285 28C9.14285 17.5855 17.5855 9.14285 28 9.14285V6.85714C16.3231 6.85714 6.85714 16.3231 6.85714 28H9.14285ZM28 46.8571C17.5855 46.8571 9.14285 38.4145 9.14285 28H6.85714C6.85714 39.6769 16.3231 49.1429 28 49.1429V46.8571ZM38.7216 28.0001C38.7216 33.9215 33.9215 38.7216 28.0001 38.7216V41.0073C35.1838 41.0073 41.0073 35.1838 41.0073 28.0001H38.7216ZM28.0001 17.2785C33.9215 17.2785 38.7216 22.0787 38.7216 28.0001H41.0073C41.0073 20.8163 35.1838 14.9928 28.0001 14.9928V17.2785ZM17.2785 28.0001C17.2785 22.0787 22.0787 17.2785 28.0001 17.2785V14.9928C20.8163 14.9928 14.9928 20.8163 14.9928 28.0001H17.2785ZM28.0001 38.7216C22.0787 38.7216 17.2785 33.9215 17.2785 28.0001H14.9928C14.9928 35.1838 20.8163 41.0073 28.0001 41.0073V38.7216Z" fill="white"/>
</g>
<path fill-rule="evenodd" clip-rule="evenodd" d="M28 48C39.0457 48 48 39.0457 48 28C48 16.9543 39.0457 8 28 8C16.9543 8 8 16.9543 8 28C8 39.0457 16.9543 48 28 48ZM28.0001 39.8645C34.5527 39.8645 39.8645 34.5526 39.8645 28.0001C39.8645 21.4475 34.5527 16.1357 28.0001 16.1357C21.4475 16.1357 16.1357 21.4475 16.1357 28.0001C16.1357 34.5526 21.4475 39.8645 28.0001 39.8645Z" fill="white"/>
</svg>
