<svg width="56" height="56" viewBox="0 0 56 56" fill="none" xmlns="http://www.w3.org/2000/svg">
<rect width="56" height="56" fill="#D43079"/>
<path fill-rule="evenodd" clip-rule="evenodd" d="M26.548 12.4436C25.2516 11.8521 23.8373 11.8521 22.6588 12.4436L9.46668 18.477C8.99526 18.5953 8.51633 19.0684 8.28062 19.6599C7.69135 20.843 8.28062 22.2626 9.45917 22.7358L29.8479 31.8449C31.1443 32.4364 32.5586 32.4364 33.7371 31.8449L46.8189 25.93C47.3521 25.649 47.7695 25.1882 47.9975 24.6286C48.5867 23.4456 47.9975 22.026 46.8189 21.5528L26.548 12.4436ZM46.701 33.3825C47.8795 33.8557 48.4688 35.2753 47.8795 36.3401C47.6516 36.8996 47.2343 37.3604 46.701 37.6414L33.6192 43.5564C32.4407 44.1479 31.0264 44.1479 29.73 43.5564L9.45912 34.4472C8.28059 33.974 7.69132 32.5544 8.16274 31.4898C8.2801 31.1961 8.45548 30.9296 8.67828 30.7059C8.90108 30.4823 9.16671 30.3062 9.45912 30.1884L16.7169 26.9361L29.0664 32.6384C31.1464 33.5433 32.1822 33.5085 34.2413 32.6627L39.9006 30.1251L46.701 33.3825Z" fill="white"/>
</svg>
