<svg width="56" height="56" viewBox="0 0 56 56" fill="none" xmlns="http://www.w3.org/2000/svg">
<rect width="56" height="56" fill="#E78547"/>
<path d="M23.4264 12.3744C23.6358 9.92373 25.6961 8 28.2071 8C30.7181 8 32.7786 9.92373 32.988 12.3744H35.0697C35.2976 12.3744 35.4826 12.5588 35.4826 12.7863C35.4826 13.0137 35.2978 13.1982 35.0697 13.1982H21.3444C21.1164 13.1982 20.9315 13.0137 20.9315 12.7863C20.9315 12.5588 21.1164 12.3744 21.3444 12.3744H23.4264Z" fill="white"/>
<path d="M13.2011 15.7844L27.8757 24.1818C28.1211 24.3225 28.4229 24.3233 28.6685 24.1841L43.412 15.8658C43.9466 15.564 44.6087 15.9493 44.6087 16.562V38.8257C44.6087 39.2674 44.2497 39.6256 43.8068 39.6256H41.2262C40.7835 39.6256 40.4244 39.2674 40.4244 38.8257V23.7191C40.4244 23.1065 39.7622 22.7212 39.2275 23.0228L33.7164 26.1322C33.1754 26.4373 33.1729 27.2141 33.7121 27.5224L37.578 29.7346C37.8274 29.8772 37.981 30.1419 37.981 30.4285V34.2591C37.981 34.7007 37.622 35.059 37.1791 35.059H34.5986C34.1558 35.059 33.7967 34.701 33.7967 34.2591V32.8461C33.7967 32.5595 33.643 32.2948 33.3937 32.1521L28.653 29.4394C28.4075 29.299 28.1057 29.298 27.8592 29.4372L23.151 32.0935C22.8994 32.2357 22.7439 32.5015 22.7439 32.7899V39.4105C22.7439 39.6933 22.8938 39.9552 23.1378 40.0991L28.0542 42.9991C28.3128 43.1517 28.6354 43.1471 28.8898 42.9875L30.7078 41.8458C31.2191 41.5245 31.2042 40.7759 30.6803 40.4754L28.2981 39.1078C27.9141 38.8873 27.782 38.3983 28.0029 38.0153L29.29 35.7843C29.5109 35.4013 30.0012 35.2695 30.3852 35.4899L37.5373 39.5954C37.786 39.7381 37.9392 40.0027 37.9392 40.2888V41.7946C37.9392 42.0695 37.7977 42.3251 37.5646 42.4715L28.9581 47.877C28.704 48.0367 28.3813 48.0412 28.1226 47.8886L18.9534 42.4803C18.7091 42.3363 18.5595 42.0745 18.5595 41.7916V30.3551C18.5595 30.0668 18.715 29.8006 18.9666 29.6587L22.8118 27.4892C23.3527 27.1842 23.3553 26.4074 22.8161 26.0991L17.3855 22.9916C16.8508 22.6857 16.1844 23.0708 16.1844 23.6855V38.7576C16.1844 39.1993 15.8253 39.5575 15.3825 39.5575H12.8019C12.3591 39.5575 12 39.1993 12 38.7576V16.4782C12 15.8633 12.6665 15.4785 13.2011 15.7844Z" fill="white"/>
</svg>
