<svg width="56" height="56" viewBox="0 0 56 56" fill="none" xmlns="http://www.w3.org/2000/svg">
<rect width="56" height="56" fill="#1C2649"/>
<path fill-rule="evenodd" clip-rule="evenodd" d="M17.5482 20.3175C16.8425 20.3229 16.1371 20.2878 15.4355 20.2126C13.9807 20.0407 13.2257 19.6761 13.0624 19.062C12.8 18.0991 14.2008 17.2895 15.278 16.7609C19.3769 14.7618 28.3656 12.6872 35.3172 12.1363C37.4666 11.9659 39.2723 11.9551 40.5465 12.1047C42.0012 12.2766 42.7563 12.6412 42.9195 13.2553C43.182 14.2181 41.7812 15.0278 40.7039 15.5564C36.605 17.5555 27.6163 19.6301 20.6647 20.1809C19.5207 20.2722 18.4722 20.3175 17.5482 20.3175ZM38.4129 12.8684C37.5867 12.8684 36.5879 12.9065 35.3833 13.0021C28.5217 13.5487 19.671 15.583 15.6541 17.5425C13.9282 18.3846 13.893 18.8369 13.893 18.8369C13.9498 19.0469 15.2593 19.7437 20.5979 19.3201C27.4596 18.7765 36.3102 16.7393 40.3272 14.7798C42.053 13.9377 42.0896 13.489 42.0882 13.4854C42.0436 13.3229 41.2504 12.8684 38.4129 12.8684ZM33.1886 22.8185C31.8449 21.4941 30.0329 20.7536 28.1463 20.7576H28.0744C26.1626 20.7671 24.333 21.5357 22.9879 22.8942C21.6428 24.2528 20.8925 26.09 20.902 28.0018C20.9116 29.9135 21.6802 31.7432 23.0387 33.0883C24.3973 34.4333 26.2345 35.1837 28.1463 35.1741H28.2182C29.6437 35.1595 31.0328 34.7226 32.2099 33.9185C33.387 33.1144 34.2993 31.9794 34.8313 30.6569C35.3633 29.3344 35.4913 27.8838 35.1989 26.4885C34.9065 25.0933 34.2069 23.8161 33.1886 22.8185ZM15.406 43.8945C16.1076 43.9698 16.813 44.0048 17.5187 43.9995C18.4413 43.9995 19.4897 43.9534 20.6375 43.8686C27.5889 43.3177 36.5777 41.2432 40.6766 39.2441C41.7538 38.7155 43.1547 37.9058 42.8921 36.9429C42.7253 36.3288 41.9703 35.9642 40.5156 35.7924C39.2413 35.6428 37.4357 35.6536 35.2862 35.824C28.3346 36.3749 19.3459 38.4494 15.247 40.4485C14.1684 40.9742 12.7669 41.7839 13.0329 42.7439C13.1962 43.3581 13.9512 43.7226 15.406 43.8945ZM35.3524 36.6841C36.5569 36.5884 37.5557 36.5503 38.382 36.5503C41.2195 36.5503 42.0127 37.0048 42.0572 37.1673C42.0572 37.1673 42.022 37.6197 40.2962 38.4617C36.2793 40.4212 27.4286 42.4577 20.567 43.0021C15.2248 43.4256 13.9196 42.7288 13.8621 42.5189C13.8606 42.5152 13.8973 42.0665 15.6231 41.2245C19.6401 39.2649 28.4907 37.2277 35.3524 36.6841Z" fill="white"/>
</svg>
