<svg width="42" height="42" viewBox="0 0 42 42" fill="none" xmlns="http://www.w3.org/2000/svg">
<rect x="1" y="1" width="40" height="40" rx="20" fill="#51E591" fill-opacity="0.06"/>
<path d="M10 17.7763L12 19.7763C16.97 14.8063 25.03 14.8063 30 19.7763L32 17.7763C25.93 11.7063 16.08 11.7063 10 17.7763ZM18 25.7763L21 28.7763L24 25.7763C22.35 24.1163 19.66 24.1163 18 25.7763ZM14 21.7763L16 23.7763C18.76 21.0163 23.24 21.0163 26 23.7763L28 21.7763C24.14 17.9163 17.87 17.9163 14 21.7763Z" fill="#51E591"/>
<rect x="25" y="25" width="16" height="16" rx="8" fill="#51E591"/>
<path d="M31.3975 34.9375L29.3125 32.8525L28.6025 33.5575L31.3975 36.3525L37.3975 30.3525L36.6925 29.6475L31.3975 34.9375Z" fill="black"/>
<rect x="1" y="1" width="40" height="40" rx="20" stroke="#51E591" stroke-width="2"/>
</svg>
