<svg width="40" height="40" viewBox="0 0 40 40" fill="none" xmlns="http://www.w3.org/2000/svg">
<path fill-rule="evenodd" clip-rule="evenodd" d="M20 40C21.7939 40 23.5332 39.7656 25.1875 39.3203C23.2266 37.4961 22 34.8906 22 32C22 26.4766 26.4771 22 32 22C34.8906 22 37.4951 23.2266 39.3208 25.1875C39.7637 23.5312 40 21.793 40 20C40 8.95312 31.0459 0 20 0C8.9541 0 0 8.95312 0 20C0 31.0469 8.9541 40 20 40ZM11 18.7734L9 16.7734C15.0801 10.707 24.9302 10.707 31 16.7734L29 18.7734C24.0298 13.8047 15.9702 13.8047 11 18.7734ZM20 27.7734L17 24.7734C18.6602 23.1133 21.3501 23.1133 23 24.7734L20 27.7734ZM15 22.7734L13 20.7734C16.8701 16.9141 23.1401 16.9141 27 20.7734L25 22.7734C22.2402 20.0156 17.7598 20.0156 15 22.7734ZM40 32C40 36.418 36.4185 40 32 40C27.5815 40 24 36.418 24 32C24 27.582 27.5815 24 32 24C36.4185 24 40 27.582 40 32ZM30.3975 33.9375L28.3125 31.8516L27.6025 32.5586L30.3975 35.3516L36.3975 29.3516L35.6924 28.6484L30.3975 33.9375Z" fill="#51E591"/>
</svg>
