<svg width="40" height="40" viewBox="0 0 40 40" fill="none" xmlns="http://www.w3.org/2000/svg">
<path fill-rule="evenodd" clip-rule="evenodd" d="M20 40C21.7942 40 23.5332 39.7637 25.1876 39.3207C23.2265 37.4949 22 34.8907 22 32C22 26.4772 26.4772 22 32 22C34.8907 22 37.4949 23.2265 39.3207 25.1876C39.7637 23.5332 40 21.7942 40 20C40 8.9543 31.0457 0 20 0C8.9543 0 0 8.9543 0 20C0 31.0457 8.9543 40 20 40ZM11 18.7752L9 16.7752C15.08 10.7052 24.93 10.7052 31 16.7752L29 18.7752C24.03 13.8052 15.97 13.8052 11 18.7752ZM20 27.7752L17 24.7752C18.66 23.1152 21.35 23.1152 23 24.7752L20 27.7752ZM15 22.7752L13 20.7752C16.87 16.9152 23.14 16.9152 27 20.7752L25 22.7752C22.24 20.0152 17.76 20.0152 15 22.7752ZM40 32C40 36.4183 36.4183 40 32 40C27.5817 40 24 36.4183 24 32C24 27.5817 27.5817 24 32 24C36.4183 24 40 27.5817 40 32ZM30.3975 33.9384L28.3125 31.8534L27.6025 32.5584L30.3975 35.3534L36.3975 29.3534L35.6925 28.6484L30.3975 33.9384Z" fill="#48CC81"/>
</svg>
