<svg width="56" height="56" viewBox="0 0 56 56" fill="none" xmlns="http://www.w3.org/2000/svg">
<rect width="56" height="56" fill="#DB378A"/>
<path fill-rule="evenodd" clip-rule="evenodd" d="M16.583 19C17.771 19 18.7339 19.9598 18.7339 21.1437C18.7339 22.0707 18.1435 22.8604 17.317 23.1594L17.3171 34.2644C18.8557 34.1967 20.2865 33.9161 21.5576 33.451L21.5575 24.9373C20.7311 24.6383 20.1407 23.8487 20.1407 22.9217C20.1407 21.7377 21.1037 20.778 22.2915 20.778C23.4794 20.778 24.4424 21.7377 24.4424 22.9217C24.4424 23.8487 23.852 24.6383 23.0255 24.9373L23.0256 32.7941C24.4389 32.0326 25.5711 31.0019 26.322 29.7572C25.8126 29.2997 25.4924 28.6371 25.4924 27.9C25.4924 26.5196 26.615 25.4007 28 25.4007C28.1137 25.4007 28.2257 25.4083 28.3354 25.4229C30.2453 22.113 34.3407 20.1083 39.2269 20.0576L39.417 20.0567H47.2661C47.6714 20.0567 48 20.3842 48 20.7882C48 21.1777 47.6945 21.4962 47.3091 21.5184L47.2661 21.5196H45.8593V32.6407C46.6858 32.9397 47.2763 33.7292 47.2763 34.6563C47.2763 35.8402 46.3132 36.8 45.1253 36.8C43.9375 36.8 42.9745 35.8402 42.9745 34.6563C42.9745 33.7291 43.565 32.9395 44.3916 32.6406L44.3914 21.5196H40.1507L40.151 32.6407C40.9773 32.9397 41.5678 33.7292 41.5678 34.6563C41.5678 35.8402 40.6048 36.8 39.417 36.8C38.2291 36.8 37.2661 35.8402 37.2661 34.6563C37.2661 33.7292 37.8565 32.9397 38.683 32.6407L38.6829 21.5357C37.1443 21.6034 35.7135 21.884 34.4424 22.349L34.4425 30.8627C35.269 31.1617 35.8593 31.9513 35.8593 32.8784C35.8593 34.0622 34.8963 35.0221 33.7085 35.0221C32.5207 35.0221 31.5576 34.0622 31.5576 32.8784C31.5576 31.9513 32.148 31.1617 32.9745 30.8627L32.9744 23.006C31.5611 23.7674 30.4289 24.7981 29.678 26.0428C30.1875 26.5003 30.5076 27.1629 30.5076 27.9C30.5076 29.2803 29.3849 30.3993 28 30.3993C27.8863 30.3993 27.7743 30.3918 27.6646 30.3771C25.7547 33.687 21.6593 35.6917 16.7731 35.7424L16.583 35.7434H8.73394C8.3286 35.7434 8 35.4159 8 35.0119C8 34.6223 8.30554 34.3039 8.69082 34.2816L8.73394 34.2804L10.1407 34.2803V23.1594C9.3142 22.8604 8.72375 22.0708 8.72375 21.1437C8.72375 19.9598 9.68676 19 10.8746 19C12.0625 19 13.0255 19.9598 13.0255 21.1437C13.0255 22.0707 12.4352 22.8602 11.6088 23.1593L11.6086 34.2803H15.849L15.8491 23.1594C15.0227 22.8604 14.4322 22.0707 14.4322 21.1437C14.4322 19.9598 15.3952 19 16.583 19Z" fill="white"/>
</svg>
