<svg width="56" height="56" viewBox="0 0 56 56" fill="none" xmlns="http://www.w3.org/2000/svg">
<rect width="56" height="56" fill="#525864"/>
<path d="M34.742 14.0336C32.396 12.4867 29.476 12 25.3598 12H17V14.4743H25.189C28.906 14.4743 31.2067 14.828 33.0624 16.0225C33.968 16.5819 34.7078 17.3723 35.2056 18.3121C35.7035 19.252 35.9413 20.3074 35.8948 21.3697C35.9299 22.3876 35.7098 23.398 35.2537 24.3091C34.7976 25.22 34.1205 26.0028 33.2839 26.5852C31.69 27.6901 29.742 28.2662 25.1846 28.2662H17V44H19.7004V30.6526H24.878C29.2603 30.6526 32.4899 30.2104 34.8805 28.5742C36.0732 27.7751 37.0439 26.6872 37.7021 25.4124C38.36 24.1375 38.6838 22.7167 38.6437 21.2829C38.6791 19.8403 38.3381 18.4133 37.654 17.1424C36.9699 15.8713 35.9663 14.8 34.742 14.0336Z" fill="white"/>
</svg>
