<svg width="40" height="40" viewBox="0 0 40 40" fill="none" xmlns="http://www.w3.org/2000/svg">
<path fill-rule="evenodd" clip-rule="evenodd" d="M20 40C31.0457 40 40 31.0457 40 20C40 8.9543 31.0457 0 20 0C8.9543 0 0 8.9543 0 20C0 31.0457 8.9543 40 20 40ZM13 17C13 13.13 16.13 10 20 10C23.87 10 27 13.13 27 17C27 22.25 20 30 20 30C20 30 13 22.25 13 17ZM20 12C17.24 12 15 14.24 15 17C15 19.85 17.92 24.21 20 26.88C22.12 24.19 25 19.88 25 17C25 14.24 22.76 12 20 12ZM22.5 17C22.5 18.3807 21.3807 19.5 20 19.5C18.6193 19.5 17.5 18.3807 17.5 17C17.5 15.6193 18.6193 14.5 20 14.5C21.3807 14.5 22.5 15.6193 22.5 17Z" fill="#FE8D81"/>
</svg>
