<svg width="56" height="56" viewBox="0 0 56 56" fill="none" xmlns="http://www.w3.org/2000/svg">
<rect width="56" height="56" fill="#6A7080"/>
<path fill-rule="evenodd" clip-rule="evenodd" d="M28.0255 8.05458L10.5277 18.1181L10.956 18.3628L10 18.9126V17.821L10.0061 17.819L10.4323 18.0636L27.9301 8L28.0255 8.05458ZM13.4058 19.7678L30.8995 9.70835L30.733 9.61132L13.2394 19.6729L12.8821 19.4687L10 21.1264V22.1352L13.763 19.972L13.4058 19.7678ZM33.7715 11.3599L16.2818 21.4174L16.568 21.5812L10 25.3575V24.4296L15.7602 21.1182L16.0444 21.2799L33.534 11.2224L33.7715 11.3599ZM44.9978 17.815L44.74 17.6675L30.7353 25.7215L28.9168 24.6764L33.1738 22.2282V21.6156L42.3905 16.315L41.9399 16.0562L33.1738 21.0961V20.5705L27.4765 23.8475L25.511 22.7182L39.5157 14.6641L39.1362 14.4458L25.1314 22.4999L23.2195 21.4001L26.3249 19.6151L25.7452 19.2815L36.6465 13.0125L36.338 12.8346L25.4367 19.1036L24.8846 18.7862L21.7711 20.5713V21.2121L18.8524 22.8901L18.6393 22.7688L10.001 27.7338V28.5789L19.3741 23.1893L19.1589 23.0659L21.7682 21.5659V22.225L23.6883 23.3288L21.6546 24.4973L21.5125 24.4164L10.0002 31.0392V31.8033L22.1802 24.7985L22.0361 24.7155L24.0678 23.5471L26.0326 24.6772L21.7702 27.1294V27.5741L10.0002 34.3425V35.0238L21.7702 28.2554V28.777L23.597 29.8262L10.0022 37.6438V37.9389L10.2681 38.0926L24.1206 30.1274L26.0102 31.213L21.7723 33.6268V34.1807L12.6205 39.445L13.0711 39.7038L21.7723 34.7003V35.3391L27.4777 32.0581L29.2009 33.0486L27.5102 34.021V34.1848L15.4925 41.0947L15.8721 41.313L27.5102 34.6215V34.7852L29.8666 33.4307L31.7359 34.5063L28.6853 36.261L28.9532 36.4146L27.5102 37.2435V37.4901L18.3644 42.7504L18.673 42.9283L27.5081 37.848V38.0926L29.686 36.8392L30.1244 37.0919L33.1749 35.3412V34.8338L44.9998 28.035V27.19L33.1749 33.9887V33.6794L31.3065 32.6039L44.9986 24.7297V23.9655L30.6408 32.2218L28.9175 31.2312L33.1738 28.783V28.2251L44.9986 21.4264V20.7452L33.1738 27.5431V27.1253L31.2577 26.0235L44.9986 18.1211L44.9978 17.815ZM23.2195 27.9542L27.4756 25.506L29.2922 26.5512L27.2646 27.7177L25.036 28.9994L23.2195 27.9542ZM31.7319 27.9542L27.4574 30.3903L25.5616 29.3006L27.5183 28.1746L29.8179 26.8524L31.7319 27.9542ZM21.2362 44.4034L27.5079 40.7968V40.4673L44.9976 30.4098V31.3377L27.5079 41.3952V41.0697L21.4737 44.5388L21.2362 44.4034ZM27.5077 44.1003L24.1101 46.0552L24.2745 46.1502L27.5077 44.2924V44.7007L44.9975 34.6412V33.6325L27.5077 43.6899V44.1003ZM27.5078 47.4056L26.9821 47.7069L27.0775 47.7614L27.5078 47.5148V48L44.9975 37.9424V36.8548L27.5078 46.9124V47.4056Z" fill="white"/>
</svg>
