<svg width="28" height="28" viewBox="0 0 28 28" fill="none" xmlns="http://www.w3.org/2000/svg">
<path d="M2.33341 18.6667H25.6667V21H2.33341V18.6667ZM3.67508 13.9417L4.66675 12.215L5.65841 13.9417L7.17508 13.0667L6.18342 11.34H8.16675V9.59H6.18342L7.17508 7.875L5.65841 7L4.66675 8.715L3.67508 7L2.15841 7.875L3.15008 9.59H1.16675V11.34H3.15008L2.15841 13.0667L3.67508 13.9417ZM11.4917 13.0667L13.0084 13.9417L14.0001 12.215L14.9917 13.9417L16.5084 13.0667L15.5167 11.34H17.5001V9.59H15.5167L16.5084 7.875L14.9917 7L14.0001 8.715L13.0084 7L11.4917 7.875L12.4834 9.59H10.5001V11.34H12.4834L11.4917 13.0667ZM26.8334 9.59H24.8501L25.8417 7.875L24.3251 7L23.3334 8.715L22.3417 7L20.8251 7.875L21.8167 9.59H19.8334V11.34H21.8167L20.8251 13.0667L22.3417 13.9417L23.3334 12.215L24.3251 13.9417L25.8417 13.0667L24.8501 11.34H26.8334V9.59Z" fill="white" fill-opacity="0.69"/>
</svg>
