<svg width="56" height="56" viewBox="0 0 56 56" fill="none" xmlns="http://www.w3.org/2000/svg">
<rect width="56" height="56" fill="#0C0C0C"/>
<path fill-rule="evenodd" clip-rule="evenodd" d="M11.8008 39.8806C10.5825 37.266 9.90191 34.3488 9.90191 31.2725C9.90191 20.026 18.9967 10.9091 30.2155 10.9091C36.4624 10.9091 42.0504 13.736 45.7767 18.1831L47.9999 16.3131C43.7412 11.2307 37.3549 8 30.2155 8C17.3939 8 7 18.4195 7 31.2725C7 34.7884 7.77772 38.1221 9.17013 41.1102L11.8008 39.8806ZM30.2156 45.0911C22.6028 45.0911 16.4314 38.9044 16.4314 31.273C16.4314 23.6416 22.6028 17.4549 30.2156 17.4549C34.4546 17.4549 38.2459 19.3737 40.7744 22.3913L42.9981 20.5209C39.9373 16.868 35.3469 14.5459 30.2156 14.5459C21.0001 14.5459 13.5294 22.0348 13.5294 31.273C13.5294 40.5112 21.0001 48 30.2156 48V45.0911ZM30.2151 37.8174C32.223 37.8174 34.0191 36.9084 35.2168 35.4791L37.2483 38.1028C35.468 39.9445 32.9755 41.0901 30.2151 41.0901C24.806 41.0901 20.4211 36.6942 20.4211 31.2719C20.4211 25.8496 24.806 21.4538 30.2151 21.4538C33.2272 21.4538 35.9208 22.8171 37.7175 24.9613L35.2168 27.0649C34.0191 25.6354 32.223 24.7266 30.2151 24.7266C26.6091 24.7266 23.6858 27.657 23.6858 31.2719C23.6858 34.8869 26.6091 37.8174 30.2151 37.8174Z" fill="white"/>
</svg>
