<svg width="56" height="56" viewBox="0 0 56 56" fill="none" xmlns="http://www.w3.org/2000/svg">
<rect width="56" height="56" fill="#6D82E0"/>
<path fill-rule="evenodd" clip-rule="evenodd" d="M12.776 22.5931L31.1273 9.2841C34.1358 7.10225 38.3465 7.76798 40.5323 10.771C42.7181 13.774 42.0511 17.9773 39.0427 20.1591L36.4241 22.0581C39.3487 20.473 43.0684 21.2585 45.0773 24.0188C47.2631 27.0218 46.5962 31.225 43.5878 33.4069L25.2364 46.7159C22.228 48.8977 18.0173 48.2321 15.8315 45.2289C13.6457 42.2259 14.3126 38.0228 17.3211 35.8409L19.9396 33.9418C17.0151 35.527 13.2954 34.7414 11.2864 31.9812C9.10064 28.9782 9.76755 24.7749 12.776 22.5931ZM21.7658 32.6889L27.0531 28.8544L27.1224 28.8045L38.1515 30.5481L19.9565 43.8795L27.6079 33.6126L21.7658 32.6889ZM29.164 27.2519L18.2112 25.5203L36.4061 12.189L28.7548 22.456L34.5202 23.3674L29.164 27.2519Z" fill="white"/>
</svg>
