<svg width="28" height="28" viewBox="0 0 28 28" fill="none" xmlns="http://www.w3.org/2000/svg">
<path d="M4.66665 6.99992H2.33331V23.3333C2.33331 24.6166 3.38331 25.6666 4.66665 25.6666H21V23.3333H4.66665V6.99992ZM23.3333 2.33325H9.33331C8.04998 2.33325 6.99998 3.38325 6.99998 4.66659V18.6666C6.99998 19.9499 8.04998 20.9999 9.33331 20.9999H23.3333C24.6166 20.9999 25.6666 19.9499 25.6666 18.6666V4.66659C25.6666 3.38325 24.6166 2.33325 23.3333 2.33325ZM23.3333 18.6666H9.33331V4.66659H23.3333V18.6666ZM15.1666 16.3333H17.5V12.8333H21V10.4999H17.5V6.99992H15.1666V10.4999H11.6666V12.8333H15.1666V16.3333Z" fill="white" fill-opacity="0.69"/>
</svg>
