<svg width="64" height="64" viewBox="0 0 64 64" fill="none" xmlns="http://www.w3.org/2000/svg">
<path d="M54.8303 19.6965V4.91895C54.8303 3.81438 53.9349 2.91895 52.8303 2.91895H12.0901C10.9855 2.91895 10.0901 3.81438 10.0901 4.91895V59.0813C10.0901 60.1858 10.9855 61.0813 12.0901 61.0813H52.8303C53.9349 61.0813 54.8303 60.1858 54.8303 59.0813V17.4148" stroke="white" stroke-width="3" stroke-linecap="round" stroke-linejoin="round"/>
<path d="M28.7693 22.9499C28.2062 22.3334 27.7701 21.6119 27.4859 20.8266C27.2017 20.0414 27.0751 19.2077 27.1131 18.3733C27.1512 17.5389 27.3533 16.7201 27.7078 15.9636C28.0624 15.207 28.5624 14.5277 29.1794 13.9642C30.4373 12.8424 32.0887 12.2654 33.771 12.36C35.4533 12.4546 37.0288 13.213 38.1515 14.4686C38.7146 15.0852 39.1508 15.8067 39.4349 16.592C39.7191 17.3772 39.8457 18.2109 39.8077 19.0453C39.7696 19.8797 39.5675 20.6985 39.213 21.455C38.8584 22.2115 38.3584 22.8909 37.7414 23.4544C36.4832 24.5755 34.8319 25.1521 33.1498 25.0575C31.4678 24.963 29.8924 24.205 28.7693 22.9499V22.9499Z" stroke="white" stroke-width="3" stroke-linejoin="round"/>
<path d="M33.8303 25.2598L33.7784 51.7283" stroke="white" stroke-width="3" stroke-linecap="round" stroke-linejoin="round"/>
<path d="M32.5763 38.0537L25.3238 38.0395L25.2973 46.8583L32.5477 46.8704" stroke="white" stroke-width="3" stroke-linecap="round" stroke-linejoin="round"/>
</svg>
