<svg width="56" height="56" viewBox="0 0 56 56" fill="none" xmlns="http://www.w3.org/2000/svg">
<rect width="56" height="56" fill="black"/>
<path d="M10.8945 39.1903V38.7766C10.0205 39.2978 8.98576 39.4591 8 39.2279L9.77982 37.8177H8.54588L20.8991 31.251L18.1468 31.2228C18.1468 31.2228 28.8349 24.233 31.5275 22.5455C34.2202 20.858 35.9128 20.3879 36.5734 19.9178C37.2339 19.4478 38.867 17.812 39.711 17.2526L39.7359 17.2361C40.5794 16.677 41.8148 15.8581 43.0321 16.021C44.0154 16.177 44.929 16.6361 45.6514 17.3372C46.2293 17.8026 48 19.3491 48 19.3491C48 19.3491 45.6789 20.2469 45.1697 20.6464C44.4211 21.2615 43.8501 22.0741 43.5183 22.9967C43.1193 23.9839 42.3945 26.085 41.9128 27.1332C41.4312 28.1815 40.6468 29.5447 37.211 31.3638C34.3165 32.9056 32.8899 33.5026 32.4816 34.5743C32.2776 35.1094 32.2126 35.6895 32.293 36.2581C32.3734 36.8266 32.5965 37.364 32.9404 37.8177C33.5138 38.5275 34.6514 39.8061 35.8303 40.168C37.0092 40.5299 37.0963 41 37.0963 41C36.3619 40.7813 35.6038 40.6566 34.8395 40.6287C33.9921 40.6361 33.1496 40.761 32.3349 41C32.3349 40.5346 33.211 40.168 33.211 40.168C33.211 40.168 33.1789 39.5475 31.4908 38.4053C31.0015 38.0814 30.5885 37.6503 30.2815 37.1431C29.9745 36.6359 29.7812 36.0652 29.7156 35.4721C29.7156 35.4721 26.9128 35.2841 26.7615 35.2841L28.4908 34.7623C25.6239 33.2205 10.8945 39.1903 10.8945 39.1903Z" fill="white"/>
</svg>
