<svg width="28" height="28" viewBox="0 0 28 28" fill="none" xmlns="http://www.w3.org/2000/svg">
<path d="M4.14169 21.6592L5.78669 23.3042L7.87502 21.2042L6.23002 19.5592L4.14169 21.6592ZM12.8334 22.7208H15.1667V26.2208H12.8334V22.7208ZM1.16669 12.2208H4.66669V14.5542H1.16669V12.2208ZM15.1667 4.11251V8.73251L16.3334 9.40917C17.78 10.2492 18.6667 11.7892 18.6667 13.4458C18.6667 16.0242 16.5784 18.1125 14 18.1125C11.4217 18.1125 9.33335 16.0242 9.33335 13.4458C9.33335 11.7892 10.2317 10.2492 11.6667 9.40917L12.8334 8.73251V4.11251H15.1667ZM17.5 1.77917H10.5V7.39084C8.41169 8.60418 7.00002 10.8558 7.00002 13.4458C7.00002 17.3075 10.1384 20.4458 14 20.4458C17.8617 20.4458 21 17.3075 21 13.4458C21 10.8558 19.5884 8.60418 17.5 7.39084V1.77917ZM23.3334 12.2208H26.8334V14.5542H23.3334V12.2208ZM20.1134 21.2158L22.2017 23.3158L23.8467 21.6708L21.7467 19.5825L20.1134 21.2158Z" fill="white"/>
</svg>
