<svg width="56" height="56" viewBox="0 0 56 56" fill="none" xmlns="http://www.w3.org/2000/svg">
<rect width="56" height="56" fill="#676E7E"/>
<path fill-rule="evenodd" clip-rule="evenodd" d="M35.5647 22.693C38.7395 18.9092 38.246 13.2678 34.4621 10.0927C30.6919 6.92908 25.0776 7.40761 21.8962 11.1541L21.8873 11.1296C17.2456 12.8191 14.8524 17.9514 16.5418 22.593C18.2312 27.2348 23.3638 29.6281 28.0052 27.9387L24.9464 19.5341L21.9329 11.2548L28.713 16.9441L35.5647 22.693ZM34.0975 44.8134C38.7392 43.1239 41.1324 37.9915 39.4428 33.3498C37.7536 28.7083 32.6212 26.315 27.9794 28.0044L31.0386 36.4088L32.1724 39.5245L34.0975 44.8134ZM21.4875 45.9072C17.7037 42.7323 17.2101 37.0908 20.3851 33.3069L23.2335 35.697L27.2364 39.0558L34.0879 44.8049C30.913 48.5889 25.2715 49.0824 21.4875 45.9072Z" fill="white"/>
</svg>
