<svg width="71" height="60" viewBox="0 0 71 60" fill="none" xmlns="http://www.w3.org/2000/svg">
<path d="M47.1667 30C47.1667 26.3333 44.1667 23.3333 40.5 23.3333C36.8333 23.3333 33.8333 26.3333 33.8333 30C33.8333 33.6667 36.8333 36.6667 40.5 36.6667C44.1667 36.6667 47.1667 33.6667 47.1667 30ZM40.5 0C23.9333 0 10.5 13.4333 10.5 30H0.5L13.8333 43.3333L27.1667 30H17.1667C17.1667 17.1 27.6 6.66667 40.5 6.66667C53.4 6.66667 63.8333 17.1 63.8333 30C63.8333 42.9 53.4 53.3333 40.5 53.3333C35.4667 53.3333 30.8 51.7 26.9667 49L22.2333 53.8C27.3 57.6667 33.6333 60 40.5 60C57.0667 60 70.5 46.5667 70.5 30C70.5 13.4333 57.0667 0 40.5 0Z" fill="#E6007A"/>
</svg>
