<svg width="56" height="56" viewBox="0 0 56 56" fill="none" xmlns="http://www.w3.org/2000/svg">
<rect width="56" height="56" fill="#F63746"/>
<path d="M35.0298 12L25.0891 20.9513C24.0598 21.8778 22.7205 22.3934 21.33 22.3983L18.367 22.4053L18.3569 12.001H13V41.7349H15.9214C17.5555 41.7349 19.0794 40.8767 19.8788 39.4668C19.8859 39.4567 19.8888 39.4468 19.8949 39.4408C20.4254 38.4964 20.6913 36.6309 20.6397 35.3572C20.5245 32.4452 20.0516 31.688 20.0516 31.688C19.9525 33.6838 17.8486 33.792 17.8486 33.792C19.3452 32.376 18.5297 31.3045 18.5297 31.3045C15.88 33.1741 15.2182 31.1784 15.1676 30.9971C15.2505 31.0672 16.0043 31.6911 17.4373 29.7454C18.9521 27.6895 20.9722 24.2619 22.2575 23.3806C23.5451 22.4964 24.7668 22.5695 24.7668 22.5695C24.7668 22.5695 25.4701 21.6252 27.3305 20.8401C29.1899 20.06 30.3824 21.2046 30.3824 21.2046C28.4805 22.7248 25.8985 25.2212 25.7541 28.7991C25.6389 31.6941 31.9366 36.6619 30.83 44C31.4919 42.3337 31.7577 40.6644 31.5303 38.5986C31.3484 36.9313 30.2642 33.4494 30.2642 33.4494L36.3123 41.7308H43L29.9286 23.9364L43 12H35.0298Z" fill="white"/>
</svg>
