<svg width="56" height="56" viewBox="0 0 56 56" fill="none" xmlns="http://www.w3.org/2000/svg">
<rect width="56" height="56" fill="#3E9AF3"/>
<path fill-rule="evenodd" clip-rule="evenodd" d="M32.4272 47.0082C32.4272 47.558 32.9325 47.9699 33.4645 47.8309C42.1805 45.5552 48.6112 37.6489 48.6112 28.2451C48.6112 17.0641 39.5201 8 28.3056 8C17.0911 8 8 17.0641 8 28.2451C8 37.8648 14.7295 45.9176 23.7508 47.979C24.2768 48.099 24.7644 47.6892 24.7644 47.1498V42.3612C24.7644 41.9711 24.5032 41.6313 24.1318 41.5119C21.2752 40.5947 18.965 38.97 17.2007 36.638C15.3216 34.1361 14.3819 31.2373 14.3819 27.9412C14.3819 23.5864 16.023 20.0189 19.305 17.2391C22.0315 14.9359 25.135 13.7843 28.6156 13.7843C33.1021 13.7843 36.7218 15.4058 39.4746 18.6489C41.6979 21.2699 42.8097 24.2945 42.8097 27.7229C42.8097 31.085 41.8238 34.0964 39.8517 36.7571C38.1976 39.0042 35.9331 40.5892 33.0585 41.5118C32.6875 41.6309 32.4272 41.9705 32.4272 42.36V47.0082ZM32.1692 30.9935C32.1692 30.5141 31.7804 30.1254 31.301 30.1254H25.9105C25.4309 30.1254 25.0424 30.5141 25.0424 30.9935V31.3215C25.0424 32.0555 24.2106 32.4218 23.7909 31.8195C23.037 30.7379 22.6601 29.4584 22.6601 27.9811C22.6601 26.2999 23.249 24.8439 24.427 23.6128C25.6048 22.3818 27.0011 21.7662 28.6156 21.7662C30.217 21.7662 31.6067 22.3818 32.7845 23.6128C33.9624 24.8439 34.5513 26.2999 34.5513 27.9811C34.5513 29.4136 34.1787 30.6755 33.4336 31.7665C33.015 32.3792 32.1692 32.0159 32.1692 31.2738V30.9935Z" fill="white"/>
</svg>
