<svg width="56" height="56" viewBox="0 0 56 56" fill="none" xmlns="http://www.w3.org/2000/svg">
<rect width="56" height="56" fill="#4E535F"/>
<path d="M14 44V12H29.1078C31.9877 12 34.3187 12.4352 36.1007 13.3057C37.8829 14.1614 39.1875 15.3417 40.015 16.8464C40.8423 18.3366 41.256 20.0332 41.256 21.9363C41.256 24.4297 40.6991 26.3771 39.5854 27.7787C38.4715 29.1655 37.1111 30.2721 35.5041 31.0982L41.7333 44H33.3799L28.0576 32.3153H22.1386V44H14ZM22.1386 26.628H27.986C29.5135 26.628 30.7386 26.1853 31.6616 25.3002C32.6002 24.4002 33.0697 23.3232 33.0697 22.0692C33.0697 20.7708 32.5923 19.7086 31.6377 18.8824C30.6829 18.0562 29.5453 17.6431 28.2247 17.6431H22.1386V26.628Z" fill="white"/>
</svg>
