<svg width="40" height="40" viewBox="0 0 40 40" fill="none" xmlns="http://www.w3.org/2000/svg">
<path fill-rule="evenodd" clip-rule="evenodd" d="M20 40C31.0457 40 40 31.0457 40 20C40 8.9543 31.0457 0 20 0C8.9543 0 0 8.9543 0 20C0 31.0457 8.9543 40 20 40ZM11 18.7752L9 16.7752C15.08 10.7052 24.93 10.7052 31 16.7752L29 18.7752C24.03 13.8052 15.97 13.8052 11 18.7752ZM20 27.7752L17 24.7752C18.66 23.1152 21.35 23.1152 23 24.7752L20 27.7752ZM15 22.7752L13 20.7752C16.87 16.9152 23.14 16.9152 27 20.7752L25 22.7752C22.24 20.0152 17.76 20.0152 15 22.7752Z" fill="#FE8D81"/>
</svg>
