<svg width="56" height="56" viewBox="0 0 56 56" fill="none" xmlns="http://www.w3.org/2000/svg">
<rect width="56" height="56" fill="#B338B5"/>
<path fill-rule="evenodd" clip-rule="evenodd" d="M48 28.0104C48 38.7529 39.5248 47.5183 28.8883 48C35.6343 45.8349 40.5163 39.5165 40.5163 32.0592C40.5163 22.8138 33.0125 15.319 23.7559 15.319C16.5114 15.319 10.3403 19.9098 8 26.3378C8.85081 16.069 17.4647 8 27.9655 8C39.0302 8 48 16.959 48 28.0104ZM9.95814 32.0591C9.95814 24.4478 16.1358 18.2776 23.7563 18.2776C23.9571 18.2776 24.157 18.282 24.3557 18.2904C21.0058 19.8755 18.6889 23.2834 18.6889 27.2317C18.6889 32.693 23.1215 37.1201 28.5893 37.1201C32.5424 37.1201 35.9545 34.8059 37.5415 31.4599C37.55 31.6586 37.5543 31.8584 37.5543 32.0591C37.5543 39.6704 31.3766 45.8406 23.7563 45.8406C16.1358 45.8406 9.95814 39.6704 9.95814 32.0591Z" fill="white"/>
</svg>
