<svg width="56" height="56" viewBox="0 0 56 56" fill="none" xmlns="http://www.w3.org/2000/svg">
<rect width="56" height="56" fill="#CE6639"/>
<path d="M32.0726 20.1162C31.0284 19.5207 29.9325 19.1588 28.8354 19.0472C28.5304 19.0163 27.68 19.022 27.3553 19.0571C26.4347 19.1569 25.598 19.4001 24.7367 19.8181C24.4702 19.9474 23.9468 20.2323 23.9073 20.2694C23.9004 20.2758 24.0664 20.5902 24.4033 21.2085L24.6311 21.6265C24.7808 21.9014 25.2246 22.7204 26.2054 24.5317C26.4356 24.957 26.6322 25.3203 26.6421 25.339C26.6582 25.369 26.6804 25.3648 26.8409 25.3014C27.1078 25.1957 27.4286 25.1312 27.8221 25.104C28.3978 25.064 28.8032 25.1259 29.2112 25.316C29.2832 25.3496 29.3434 25.3749 29.3454 25.3724C29.3472 25.3698 29.4445 25.2031 29.5616 25.002C29.7726 24.6396 30.6673 23.1192 31.0128 22.5357C31.1115 22.3691 31.3056 22.0398 31.4439 21.8043C31.5823 21.5686 31.8261 21.1548 31.9855 20.8846C32.1451 20.6144 32.2902 20.3655 32.3082 20.3313L32.3407 20.269L32.0726 20.1162Z" fill="white"/>
<path d="M29.4899 26.4021C29.1726 26.0708 28.7254 25.8545 28.2415 25.7985C27.618 25.7261 26.9741 25.9455 26.5347 26.38C25.9695 26.939 25.7919 27.8331 26.0978 28.5794C26.204 28.8386 26.3273 29.0189 26.545 29.2339C26.9283 29.6122 27.3517 29.797 27.896 29.8237C28.711 29.8638 29.4461 29.4604 29.8139 28.7711C29.9957 28.4304 30.0672 28.1049 30.0471 27.7085C30.0318 27.4035 29.9795 27.1919 29.8553 26.9338C29.741 26.6957 29.6647 26.5849 29.4899 26.4021Z" fill="white"/>
<path d="M36.5982 29.5783C36.6372 29.2716 36.6627 28.3785 36.6407 28.0888L36.6252 27.8861H30.7781L30.768 27.954C30.6848 28.5177 30.6278 28.717 30.4363 29.1132C30.2109 29.5803 29.9685 29.8912 29.6468 30.1263C29.568 30.1838 29.5037 30.2383 29.5037 30.2473C29.5037 30.2599 32.1296 34.4118 32.333 34.7206C32.3596 34.7608 32.4455 34.8947 32.5241 35.0184C32.6028 35.142 32.6721 35.2431 32.6782 35.2431C32.7044 35.2431 33.0569 35.0223 33.3315 34.8338C34.2099 34.231 34.8798 33.5663 35.4049 32.7762C36.0462 31.8111 36.4525 30.7223 36.5982 29.5783Z" fill="white"/>
<path d="M25.2698 28.2414C25.2517 28.0748 25.2334 27.9266 25.229 27.9122C25.2226 27.8915 24.6195 27.8861 22.3056 27.8861C20.6132 27.8861 19.3853 27.8939 19.3785 27.9048C19.3505 27.9494 19.3413 28.7935 19.3651 29.1191C19.4421 30.1737 19.6627 31.0027 20.1073 31.9095C20.4932 32.6959 20.868 33.2257 21.4659 33.8296C21.8115 34.1788 22.1307 34.4503 22.5369 34.741C22.807 34.9341 23.2933 35.2433 23.3262 35.2428C23.3353 35.2427 23.427 35.1086 23.5299 34.945C23.6327 34.7813 24.0368 34.1442 24.4277 33.5291C24.8187 32.9143 25.4489 31.9222 25.8283 31.3248L26.5179 30.2385L26.4686 30.2065C26.0402 29.9289 25.7155 29.5767 25.5151 29.1723C25.385 28.9101 25.3122 28.6332 25.2698 28.2414Z" fill="white"/>
<path fill-rule="evenodd" clip-rule="evenodd" d="M28 48C39.0457 48 48 39.0457 48 28C48 16.9543 39.0457 8 28 8C16.9543 8 8 16.9543 8 28C8 39.0457 16.9543 48 28 48ZM32.3068 8.99874C31.2044 8.7494 30.0665 8.59373 28.902 8.54054C28.8358 9.32757 28.7734 10.068 28.7216 10.6779C28.6237 11.8311 28.525 12.9966 28.4277 14.1476C29.2804 14.1556 30.1145 14.2425 30.9233 14.4012C31.0425 13.9358 31.126 13.6083 31.1611 13.4689C31.285 12.9755 31.5774 11.8317 31.8103 10.9271C31.9083 10.5475 32.087 9.85309 32.3068 8.99874ZM35.5958 10.0598C36.687 10.5233 37.7271 11.0836 38.7056 11.7299C37.8669 12.977 36.7646 14.6187 35.6368 16.3007C34.9137 15.8359 34.1447 15.4379 33.3383 15.1151C33.8226 14.0309 34.1322 13.3372 34.206 13.1699C34.2854 12.9903 34.8378 11.7542 35.5958 10.0598ZM43.8609 16.71C43.1575 15.7216 42.3643 14.8019 41.493 13.9626C40.2868 15.2176 38.9965 16.5596 37.6918 17.9162C38.3375 18.5309 38.9244 19.2082 39.443 19.9386C40.3145 19.3022 41.2168 18.6428 41.9841 18.0815C42.2726 17.8702 42.8952 17.4154 43.3674 17.0705L43.8609 16.71ZM13.7044 14.7823C12.9306 15.6204 12.2296 16.5266 11.6111 17.4911C13.0242 18.523 14.7509 19.7836 16.4538 21.0265C16.8559 20.3321 17.3157 19.6761 17.8266 19.0654L13.7044 14.7823ZM10.0301 20.5098C9.59339 21.5585 9.2457 22.6537 8.99643 23.786C10.2645 24.1408 11.4205 24.4654 11.837 24.5844C12.388 24.7418 13.6544 25.0966 14.6514 25.373L14.8216 25.4202C14.9697 24.6373 15.1824 23.8778 15.454 23.1475C14.3206 22.5962 13.0647 21.9854 11.6939 21.3189L10.0301 20.5098ZM8.70714 30.5572C8.59725 29.7194 8.54054 28.8647 8.54054 27.9968C8.54054 27.7169 8.54644 27.4383 8.55812 27.1612L8.74905 27.1788C10.5032 27.3404 12.789 27.5498 14.5802 27.7132C14.5776 27.8258 14.5762 27.9387 14.5762 28.0519C14.5762 28.7178 14.6223 29.3728 14.7117 30.0136C12.9415 30.1749 11.0017 30.3506 9.73818 30.4642L8.70714 30.5572ZM9.42827 33.8303C9.76291 34.8987 10.187 35.9275 10.6919 36.9077C11.4793 36.5245 12.3359 36.1072 13.1727 35.6992C14.1334 35.2309 15.135 34.7429 16.0378 34.3032C15.7062 33.6367 15.426 32.9394 15.2024 32.2168L9.42827 33.8303ZM14.5499 42.0722C13.7736 41.3289 13.0586 40.5219 12.4134 39.6595C14.2863 38.2841 14.7808 37.9235 16.2256 36.8783C16.4268 36.7328 16.7592 36.4911 17.1712 36.1909C17.5993 36.7909 18.0736 37.3548 18.5886 37.8774L14.5499 42.0722ZM16.9863 44.0559C17.8472 44.6484 18.758 45.1734 19.7112 45.6233C20.3865 44.1131 21.1637 42.3753 22.0351 40.4273C21.3917 40.0923 20.7779 39.7072 20.1985 39.2772L17.6829 43.0187C17.4504 43.3643 17.2055 43.7289 16.9863 44.0559ZM25.6553 47.3336C24.6118 47.2081 23.5938 47 22.6077 46.7159C22.7664 46.0987 22.9377 45.4317 23.0951 44.8177C23.4674 43.3649 23.8773 41.7726 24.0059 41.2792L24.0098 41.2643C24.6916 41.4914 25.3971 41.6659 26.1216 41.7829C26.0116 43.0898 25.863 44.8592 25.6553 47.3336ZM28.7475 47.4594C29.8166 47.419 30.8636 47.2923 31.8819 47.0859C31.8037 46.777 31.7219 46.4569 31.6328 46.1136C31.4553 45.4283 31.1153 44.1049 30.8775 43.173C30.7937 42.8446 30.6677 42.3532 30.5195 41.7755C29.7964 41.8948 29.0543 41.9568 28.298 41.9568H28.2869C28.361 42.8417 28.4308 43.6753 28.4887 44.3692C28.5592 45.2129 28.6502 46.2995 28.7475 47.4594ZM37.8803 44.7796C36.9519 45.3283 35.974 45.8021 34.9549 46.1925L34.5132 45.2205C33.9611 44.0058 33.6012 43.2139 33.517 43.0235C33.3936 42.7443 33.077 42.0343 32.7136 41.2212C33.4598 40.9643 34.1774 40.6442 34.8596 40.2669C35.8142 41.691 36.6797 42.9836 37.0721 43.5717C37.3112 43.93 37.5957 44.3552 37.8803 44.7796ZM40.6031 42.8371C41.4715 42.0977 42.2742 41.2832 43.0011 40.4038L41.9594 39.6405C40.9496 38.9005 39.5109 37.849 38.6273 37.2055C38.087 37.8313 37.4921 38.4074 36.8503 38.9263C37.4924 39.5958 38.1527 40.284 38.8261 40.9857L40.6031 42.8371ZM46.4389 34.2384C46.0509 35.3871 45.5589 36.4876 44.9738 37.5288C44.4756 37.2876 43.9471 37.031 43.4628 36.7951C42.256 36.2074 41.0538 35.6224 40.7916 35.4953C40.7027 35.4523 40.4541 35.3311 40.096 35.1565C40.5365 34.4069 40.9094 33.6117 41.2062 32.7796L42.3657 33.1023C43.3835 33.3851 45.1253 33.8712 46.4389 34.2384ZM47.4594 27.9968C47.4594 27.67 47.4514 27.345 47.4355 27.0222C47.0661 27.0559 46.6735 27.0913 46.2771 27.1265C44.9831 27.2416 43.2258 27.4005 42.0097 27.5125C42.0164 27.6914 42.0198 27.8713 42.0198 28.0519C42.0198 28.7867 41.9635 29.5081 41.8552 30.2121C43.4224 30.3542 44.845 30.4825 45.7524 30.5636C46.2789 30.6107 46.7965 30.6576 47.2735 30.7013C47.3961 29.8175 47.4594 28.9146 47.4594 27.9968ZM45.6882 19.8662C46.2005 20.9811 46.6108 22.1527 46.907 23.3691L46.8496 23.3854C44.1848 24.1341 42.9814 24.4695 41.6505 24.8341C41.441 23.9383 41.1461 23.0758 40.7748 22.2564C42.7247 21.3086 44.3621 20.512 45.6882 19.8662ZM22.1917 9.40251C23.1766 9.09458 24.1952 8.8629 25.2404 8.71436C25.4812 10.5189 25.7211 12.3763 25.9368 14.3521C25.1389 14.4924 24.3646 14.7024 23.6203 14.9759L23.4636 14.366C23.0976 12.9406 22.6322 11.124 22.4293 10.329C22.3582 10.0509 22.2757 9.72933 22.1917 9.40251ZM20.5652 14.0171C20.3685 13.5732 19.7957 12.2902 19.0773 10.6838C17.9071 11.2891 16.8062 12.0098 15.7895 12.8308C17.0168 14.1202 18.2472 15.5844 19.4836 17.3947C20.0957 16.8744 20.7531 16.4072 21.4491 16.0002C21.0222 15.0439 20.6988 14.3188 20.5652 14.0171ZM38.8108 28C38.8108 33.9706 33.9706 38.8108 28 38.8108C22.0294 38.8108 17.1892 33.9706 17.1892 28C17.1892 22.0294 22.0294 17.1892 28 17.1892C33.9706 17.1892 38.8108 22.0294 38.8108 28Z" fill="white"/>
</svg>
