<svg width="56" height="56" viewBox="0 0 56 56" fill="none" xmlns="http://www.w3.org/2000/svg">
<rect width="56" height="56" fill="#DC6665"/>
<path d="M42.3517 20.6567C40.5829 19.6345 38.2897 20.6033 37.8275 22.5855C37.5253 23.8832 38.0141 25.1543 39.1074 25.9542C39.2763 26.0787 39.2585 26.1853 39.223 26.3274C39.0274 27.1808 38.6453 27.9452 38.1209 28.6385C36.6898 30.3628 34.4233 31.1628 32.2279 30.665C31.3745 30.4784 30.4146 29.9007 29.7835 30.5317C29.3213 30.9939 29.3479 31.4561 29.4724 31.8827C29.9879 33.6515 29.8012 35.4737 28.8147 37.0203C27.8991 38.4513 26.1126 39.1979 24.886 39.4823C24.6993 39.5267 24.4327 39.6245 24.3082 39.3578C23.8549 38.3535 22.975 37.8646 21.9084 37.7313C18.3264 37.4113 17.1976 42.14 20.3529 43.6954C21.8906 44.4509 23.8283 43.7487 24.4949 42.1666C24.5749 41.9799 24.6727 41.8999 24.8771 41.8821C26.1393 41.7667 27.3214 41.3577 28.388 40.6822C29.4013 40.0423 30.2368 39.1979 30.8768 38.1846C31.7923 36.7269 32.1922 35.127 32.1389 33.4027C32.1301 33.0827 32.1211 33.0915 32.4501 33.136C35.4187 33.5804 38.5475 32.2916 40.2718 29.8117C40.7518 29.1184 41.2762 27.563 41.5784 26.7364C41.6495 26.5408 41.694 26.443 41.8895 26.3897C44.5027 25.5809 44.716 21.9633 42.3517 20.6567ZM21.6595 41.9889C20.184 41.9533 20.0952 39.749 21.624 39.7223C23.0461 39.7401 23.215 41.8999 21.6595 41.9889ZM40.894 24.5321C40.254 24.5231 39.7385 24.0165 39.7474 23.3943C39.7829 21.8389 42.005 21.9544 41.9962 23.4654C41.9784 24.0698 41.4984 24.5409 40.894 24.5321ZM24.0594 34.4604C20.0685 34.3982 15.5621 33.2338 13.3666 29.6073C10.7979 25.5898 12.5756 20.7189 12.9133 16.3458C13.0022 15.3592 13.0378 14.3726 12.9578 13.386C12.8333 12.4883 13.6244 11.8394 14.4688 12.0349C15.251 12.1772 16.042 12.3016 16.8331 12.2749C19.784 12.1949 25.8104 11.7061 28.3169 12.7905C31.7123 14.2659 33.8633 17.6702 34.2277 21.2167C34.3965 22.541 34.4055 23.8832 34.281 25.2164C34.2188 25.8831 33.7033 26.3364 33.0455 26.3097C32.4678 26.2919 31.9434 25.803 31.89 25.2342C31.8812 25.1809 31.89 25.1187 31.89 25.0565C32.2722 20.239 31.0279 15.1193 25.4193 14.5948C23.8194 14.4348 22.2195 14.5415 20.6196 14.6126C18.9486 14.6837 17.2864 14.7281 15.6154 14.577C15.4821 14.5682 15.3932 14.5592 15.3932 14.7459C15.3843 16.9236 15.0288 19.0657 14.7176 21.2077C14.2822 24.0965 14.0155 27.2518 16.2732 29.4829C18.3619 31.4561 21.3484 32.0338 24.1394 32.0516C25.6327 32.1228 25.7482 34.4515 24.0594 34.4604ZM22.6816 25.9098C24.806 26.0075 24.8504 29.0562 22.7083 29.1096C21.8106 29.1007 21.0995 28.3541 21.1084 27.4385C21.1084 26.5763 21.8017 25.9008 22.6816 25.9098ZM27.4815 21.5367C29.6235 21.5989 29.6679 24.6742 27.5525 24.7453C26.6726 24.7453 25.9259 24.0077 25.9171 23.1454C25.9171 22.2299 26.5926 21.5277 27.4815 21.5367Z" fill="white"/>
</svg>
