<svg width="28" height="28" viewBox="0 0 28 28" fill="none" xmlns="http://www.w3.org/2000/svg">
<path d="M14 2.33334C7.57171 2.33334 2.33337 7.57168 2.33337 14C2.33337 20.4283 7.57171 25.6667 14 25.6667C20.4284 25.6667 25.6667 20.4283 25.6667 14C25.6667 7.57168 20.4284 2.33334 14 2.33334ZM14 23.3333C8.85504 23.3333 4.66671 19.145 4.66671 14C4.66671 8.85501 8.85504 4.66668 14 4.66668C19.145 4.66668 23.3334 8.85501 23.3334 14C23.3334 19.145 19.145 23.3333 14 23.3333ZM17.0217 10.0217L18.6667 11.6667L14 16.3333L9.33337 11.6667L10.9784 10.0217L12.8334 11.865V7.00001H15.1667V11.865L17.0217 10.0217ZM19.8334 19.8333H8.16671V17.5H19.8334V19.8333Z" fill="white" fill-opacity="0.69"/>
</svg>
