<svg width="56" height="56" viewBox="0 0 56 56" fill="none" xmlns="http://www.w3.org/2000/svg">
<rect width="56" height="56" fill="#0C0C0C"/>
<path fill-rule="evenodd" clip-rule="evenodd" d="M48 28C48 39.0457 39.0457 48 28 48C16.9543 48 8 39.0457 8 28C8 16.9543 16.9543 8 28 8C39.0457 8 48 16.9543 48 28ZM20.991 32.5961L27.1843 20.4064L41.3333 15.7778V18.907L29.1411 22.6875L23.1425 34.6166L14.6665 40.2222V36.1807L20.991 32.5961ZM22.0346 26.9248L23.403 24.3823L20.7306 21.1885H14.6666V23.7957H19.1008L22.0346 26.9248ZM26.272 31.8783L27.576 29.2712L32.5325 35.3982H41.3335V37.8103H31.1627L26.272 31.8783Z" fill="white"/>
</svg>
