<svg width="56" height="56" viewBox="0 0 56 56" fill="none" xmlns="http://www.w3.org/2000/svg">
<rect width="56" height="56" fill="#303E8D"/>
<path fill-rule="evenodd" clip-rule="evenodd" d="M37.3961 44L16.5894 29.3957L14.0229 31.1891C13.4811 31.5682 13.0387 32.0725 12.7333 32.6591C12.4278 33.2458 12.2684 33.8974 12.2684 34.5589C12.2684 35.2203 12.4278 35.872 12.7333 36.4586C13.0387 37.0452 13.4811 37.5495 14.0229 37.9286L18.6768 41.1944L24.0775 37.4239L26.0557 38.8192L18.6817 43.9802L12.7222 39.7941C11.8814 39.2039 11.1951 38.4199 10.7212 37.5081C10.2474 36.5964 10 35.584 10 34.5564C10 33.5289 10.2474 32.5163 10.7212 31.6046C11.1951 30.693 11.8814 29.9088 12.7222 29.3187L14.1413 28.3273L14.1325 28.3146L14.5915 27.9933L12.7222 26.6813C11.8814 26.0912 11.1951 25.307 10.7212 24.3954C10.2474 23.4837 10 22.4712 10 21.4437C10 20.416 10.2474 19.4036 10.7212 18.4919C11.1951 17.5802 11.8814 16.7961 12.7222 16.206L18.7015 12L39.5104 26.6059L42.0649 24.8208C42.6067 24.4417 43.049 23.9375 43.3545 23.3508C43.66 22.7642 43.8195 22.1126 43.8195 21.4511C43.8195 20.7896 43.66 20.1379 43.3545 19.5512C43.049 18.9647 42.6067 18.4604 42.0649 18.0814L37.411 14.8155L32.0202 18.591L30.042 17.1956L37.4209 12.0297L43.3854 16.2158L43.3804 16.201C44.2212 16.7911 44.9075 17.5753 45.3814 18.4869C45.8552 19.3987 46.1027 20.4111 46.1027 21.4387C46.1027 22.4663 45.8552 23.4787 45.3814 24.3904C44.9075 25.3022 44.2212 26.0862 43.3804 26.6764L42.333 27.4086C42.3359 27.4119 42.3388 27.4152 42.3417 27.4185L41.5038 28.0051L43.3755 29.3187C44.2162 29.9088 44.9026 30.693 45.3764 31.6046C45.8502 32.5163 46.0976 33.5288 46.0976 34.5563C46.0976 35.584 45.8502 36.5964 45.3764 37.5081C44.9026 38.4198 44.2162 39.2039 43.3755 39.794L37.3961 44ZM39.5068 29.4031L42.0599 31.1941C42.6016 31.5731 43.0441 32.0773 43.3495 32.664C43.6549 33.2506 43.8144 33.9023 43.8144 34.5638C43.8144 35.2252 43.6549 35.8769 43.3495 36.4636C43.0441 37.0502 42.6016 37.5544 42.0599 37.9336L37.4011 41.1944L18.5889 27.9984L26.0607 22.7772L24.0823 21.3818L23.5325 21.7661L23.5175 21.7447L16.5886 26.5953L14.0377 24.8059C13.496 24.4269 13.0536 23.9227 12.7481 23.336C12.4427 22.7494 12.2832 22.0977 12.2832 21.4362C12.2832 20.7748 12.4427 20.1231 12.7481 19.5364C13.0536 18.9498 13.496 18.4456 14.0377 18.0665L18.6966 14.8056L37.5109 28.0031L30.0272 33.2327L32.0054 34.6281L37.5891 30.7249L37.5989 30.7387L39.5068 29.4031Z" fill="white"/>
</svg>
