<svg width="75" height="40" viewBox="0 0 75 40" fill="none" xmlns="http://www.w3.org/2000/svg">
<path d="M4.16683 33.3333H70.8335V40H4.16683V33.3333ZM8.00016 19.8333L10.8335 14.9L13.6668 19.8333L18.0002 17.3333L15.1668 12.4H20.8335V7.4H15.1668L18.0002 2.5L13.6668 0L10.8335 4.9L8.00016 0L3.66683 2.5L6.50016 7.4H0.833496V12.4H6.50016L3.66683 17.3333L8.00016 19.8333ZM30.3335 17.3333L34.6668 19.8333L37.5002 14.9L40.3335 19.8333L44.6668 17.3333L41.8335 12.4H47.5002V7.4H41.8335L44.6668 2.5L40.3335 0L37.5002 4.9L34.6668 0L30.3335 2.5L33.1668 7.4H27.5002V12.4H33.1668L30.3335 17.3333ZM74.1668 7.4H68.5002L71.3335 2.5L67.0002 0L64.1668 4.9L61.3335 0L57.0002 2.5L59.8335 7.4H54.1668V12.4H59.8335L57.0002 17.3333L61.3335 19.8333L64.1668 14.9L67.0002 19.8333L71.3335 17.3333L68.5002 12.4H74.1668V7.4Z" fill="#E6007A"/>
</svg>
