<svg width="56" height="56" viewBox="0 0 56 56" fill="none" xmlns="http://www.w3.org/2000/svg">
<rect width="56" height="56" fill="#4E6FD4"/>
<path fill-rule="evenodd" clip-rule="evenodd" d="M37.8654 19.9546H43.8681C45.6416 19.9546 45.6416 16 41.5486 16H31.0108H24.462H12.761C9.35013 16 9.35014 19.9546 11.3967 19.9546H17.6075C16.9342 21.1179 16.5488 22.4685 16.5488 23.9091V25.8181H11.3643C10.6108 25.8181 10 26.4287 10 27.1818V28.8182C10 29.5713 10.6108 30.1819 11.3643 30.1819H16.5488V32.0909C16.5488 33.5315 16.9342 34.8821 17.6075 36.0454H11.3966C9.35016 36.0454 9.35016 40 12.7609 40H24.462H31.0108H41.5474C45.6403 40 45.6403 36.0454 43.8668 36.0454H37.8654C38.5387 34.8821 38.9241 33.5315 38.9241 32.0909V30.1819H43.8357C44.5892 30.1819 45.2 29.5713 45.2 28.8182V27.1818C45.2 26.4287 44.5892 25.8181 43.8357 25.8181H38.9241V23.9091C38.9241 22.4685 38.5387 21.1179 37.8654 19.9546ZM34.0124 25.8181V24.4055C34.0124 22.1462 32.1799 20.3146 29.9194 20.3146H25.5535C23.293 20.3146 21.4605 22.1462 21.4605 24.4055V25.8181H34.0124ZM21.4605 30.1819V31.5945C21.4605 33.8538 23.293 35.6854 25.5535 35.6854H29.9194C32.1799 35.6854 34.0124 33.8538 34.0124 31.5945V30.1819H21.4605Z" fill="white"/>
</svg>
