<svg width="18" height="18" viewBox="0 0 18 18" fill="none" xmlns="http://www.w3.org/2000/svg">
<path d="M12 18H10V16H12V18ZM10 11H8V16H10V11ZM18 9H16V13H18V9ZM16 7H14V9H16V7ZM4 9H2V11H4V9ZM2 7H0V9H2V7ZM9 2H11V0H9V2ZM1.5 1.5V4.5H4.5V1.5H1.5ZM5 6H1C0.45 6 0 5.55 0 5V1C0 0.45 0.45 0 1 0H5C5.55 0 6 0.45 6 1V5C6 5.55 5.55 6 5 6ZM1.5 13.5V16.5H4.5V13.5H1.5ZM5 18H1C0.45 18 0 17.55 0 17V13C0 12.45 0.45 12 1 12H5C5.55 12 6 12.45 6 13V17C6 17.55 5.55 18 5 18ZM13.5 1.5V4.5H16.5V1.5H13.5ZM17 6H13C12.45 6 12 5.55 12 5V1C12 0.45 12.45 0 13 0H17C17.55 0 18 0.45 18 1V5C18 5.55 17.55 6 17 6ZM16 16V13H12V15H14V18H18V16H16ZM14 9H10V11H14V9ZM10 7H4V9H6V11H8V9H10V7ZM11 6V4H9V2H7V6H11ZM3.75 2.25H2.25V3.75H3.75V2.25ZM3.75 14.25H2.25V15.75H3.75V14.25ZM15.75 2.25H14.25V3.75H15.75V2.25Z" fill="white" fill-opacity="0.69"/>
</svg>
