<svg width="56" height="56" viewBox="0 0 56 56" fill="none" xmlns="http://www.w3.org/2000/svg">
<rect width="56" height="56" fill="#D1305D"/>
<path fill-rule="evenodd" clip-rule="evenodd" d="M28 48C39.0457 48 48 39.0457 48 28C48 16.9543 39.0457 8 28 8C16.9543 8 8 16.9543 8 28C8 39.0457 16.9543 48 28 48ZM28.0816 46.1224C38.0904 46.1224 46.2041 38.0087 46.2041 28C46.2041 17.9913 38.0904 9.87755 28.0816 9.87755C18.0729 9.87755 9.95919 17.9913 9.95919 28C9.95919 38.0087 18.0729 46.1224 28.0816 46.1224ZM28 44.7347C37.2423 44.7347 44.7347 37.2423 44.7347 28C44.7347 18.7577 37.2423 11.2653 28 11.2653C18.7577 11.2653 11.2653 18.7577 11.2653 28C11.2653 37.2423 18.7577 44.7347 28 44.7347ZM28.0408 42.6938C36.1785 42.6938 42.7755 36.0969 42.7755 27.9592C42.7755 19.8215 36.1785 13.2245 28.0408 13.2245C19.9031 13.2245 13.3062 19.8215 13.3062 27.9592C13.3062 36.0969 19.9031 42.6938 28.0408 42.6938ZM27.2093 16.0542L37.8766 34.56L39.0205 32.5755L29.497 16.0542H27.2093ZM16.9795 32.5422L26.1096 16.7033L26.1285 16.7359L26.1464 16.7047L36.9659 35.4747H34.6782L31.9448 30.7328C30.7027 30.3401 29.3805 30.1285 28.0085 30.1285C27.3013 30.1285 26.6112 30.1778 25.9402 30.2763L27.2578 27.9942C27.5065 27.9821 27.7568 27.9759 28.0085 27.9759C28.8466 27.9759 29.6688 28.0438 30.4701 28.1743L26.1275 20.6409L18.1235 34.5265L16.9795 32.5422ZM23.1865 32.3014L27.289 25.1841L26.1453 23.1998L19.0696 35.4746H21.3574L21.3791 35.4369C23.3413 34.2555 25.5929 33.6584 28.0515 33.6584C29.6215 33.6584 31.1266 33.9357 32.5207 34.4441L30.988 31.7894C30.0206 31.6005 29.0371 31.5055 28.0515 31.5059C26.3502 31.5059 24.7139 31.7856 23.1865 32.3014Z" fill="white"/>
</svg>
