<svg width="56" height="56" viewBox="0 0 56 56" fill="none" xmlns="http://www.w3.org/2000/svg">
<rect width="56" height="56" fill="#E48C3A"/>
<path fill-rule="evenodd" clip-rule="evenodd" d="M29.5747 19.0599C29.4041 17.2409 28.4947 15.081 27.8694 14.9674C27.5284 14.9105 26.8463 15.5358 26.2779 16.3884C25.4253 17.5251 23.7769 21.163 23.038 23.4365C22.9243 23.7776 22.7538 24.1755 22.697 24.2891C22.585 24.5692 22.6385 24.5733 23.347 24.6277L23.3791 24.6302C23.8338 24.6302 24.6864 24.5733 25.198 24.5165C26.96 24.4028 28.3241 23.7207 29.063 22.6407C29.4041 22.1861 29.5178 21.9019 29.5747 20.9356C29.5747 20.7272 29.5809 20.4935 29.5872 20.2598C29.5999 19.7925 29.6125 19.3251 29.5747 19.0599ZM26.1642 10.2497C26.6758 10.0791 27.0168 10.0223 27.301 10.0223C27.6421 9.96546 28.0399 10.0223 28.6083 10.136C29.7452 10.3065 29.9725 10.3633 30.7114 10.8749C33.0419 12.6938 34.3492 16.2747 34.1786 20.3103C34.0081 23.3797 33.0988 25.1986 30.9388 26.7901C28.9494 28.2679 26.3348 28.8363 23.1517 28.5521C22.2991 28.4385 21.5601 28.4953 21.4465 28.5521C21.1055 28.95 20.537 35.6003 20.5939 39.8065C20.5939 43.2737 20.4802 44.0695 19.9686 44.8084C19.5139 45.4337 19.116 45.7179 18.3202 45.8883C17.5245 46.1157 17.1267 46.0021 16.3878 45.4904C15.6488 44.9789 15.2509 44.1831 15.0804 43.0464C15.0236 42.3074 14.9667 38.556 15.0236 34.5772C15.0236 32.8152 16.5014 23.664 17.4109 19.2304C17.9224 16.7863 17.9793 16.3884 17.8087 16.0474C17.5245 15.4789 17.8087 14.5127 18.6044 13.1485C19.0591 12.4095 19.5139 11.6707 19.6844 11.4433C20.0255 10.9317 20.8781 10.5907 21.5601 10.7044C22.2423 10.7612 22.9812 11.3865 23.038 11.8411C23.0949 12.1253 23.2085 12.0686 24.118 11.3865C24.7433 10.8749 25.4253 10.477 26.1642 10.2497ZM37.8561 27.4156C38.254 27.1883 38.7087 27.1314 39.1634 27.1314C39.8456 27.1883 40.5845 27.5861 40.8687 28.2114C41.778 29.9165 39.9023 31.9628 38.1403 31.0533C37.515 30.7123 36.9466 29.9165 36.9466 29.2913C36.9466 28.5523 37.3446 27.7566 37.8561 27.4156Z" fill="white"/>
</svg>
