<svg width="28" height="28" viewBox="0 0 28 28" fill="none" xmlns="http://www.w3.org/2000/svg">
<path d="M2.77539 15.4238C2.77539 17.8691 3.5749 20.1276 4.92676 21.9523M4.48265 9.54167C5.90307 7.30772 8.10877 5.62199 10.7112 4.87305M16.7949 4.87305C19.3973 5.62199 21.603 7.30772 23.0234 9.54167M24.6831 14.3948C24.7146 14.7335 24.7307 15.0768 24.7307 15.4238C24.7307 17.7525 24.0056 19.9119 22.7688 21.6884M9.22288 25.4261C10.604 26.0526 12.1378 26.4014 13.753 26.4014C15.3683 26.4014 16.9021 26.0526 18.2832 25.4261" stroke="white" stroke-width="2" stroke-linecap="round" stroke-linejoin="round"/>
<path d="M13.7536 7.38907C15.379 7.38907 16.6967 6.07141 16.6967 4.446C16.6967 2.82059 15.379 1.50293 13.7536 1.50293C12.1282 1.50293 10.8105 2.82059 10.8105 4.446C10.8105 6.07141 12.1282 7.38907 13.7536 7.38907Z" stroke="white" stroke-width="2" stroke-linecap="round" stroke-linejoin="round"/>
<path d="M6.81709 26.9897C8.4425 26.9897 9.76016 25.672 9.76016 24.0466C9.76016 22.4212 8.4425 21.1035 6.81709 21.1035C5.19168 21.1035 3.87402 22.4212 3.87402 24.0466C3.87402 25.672 5.19168 26.9897 6.81709 26.9897Z" stroke="white" stroke-width="2" stroke-linecap="round" stroke-linejoin="round"/>
<path d="M3.94307 15.2372C5.56848 15.2372 6.88614 13.9196 6.88614 12.2941C6.88614 10.6687 5.56848 9.35107 3.94307 9.35107C2.31766 9.35107 1 10.6687 1 12.2941C1 13.9196 2.31766 15.2372 3.94307 15.2372Z" stroke="white" stroke-width="2" stroke-linecap="round" stroke-linejoin="round"/>
<path d="M23.5632 15.2372C25.1886 15.2372 26.5063 13.9196 26.5063 12.2941C26.5063 10.6687 25.1886 9.35107 23.5632 9.35107C21.9378 9.35107 20.6201 10.6687 20.6201 12.2941C20.6201 13.9196 21.9378 15.2372 23.5632 15.2372Z" stroke="white" stroke-width="2" stroke-linecap="round" stroke-linejoin="round"/>
<path d="M20.611 26.9999C22.2365 26.9999 23.5541 25.6823 23.5541 24.0568C23.5541 22.4314 22.2365 21.1138 20.611 21.1138C18.9856 21.1138 17.668 22.4314 17.668 24.0568C17.668 25.6823 18.9856 26.9999 20.611 26.9999Z" stroke="white" stroke-width="2" stroke-linecap="round" stroke-linejoin="round"/>
</svg>
