<svg width="26" height="24" viewBox="0 0 26 24" fill="none" xmlns="http://www.w3.org/2000/svg">
<path d="M13 4.97083C17.4216 4.97083 21.365 7.45583 23.29 11.3875C22.6016 12.8108 21.6333 14.0358 20.4783 15.0275L22.1233 16.6725C23.745 15.2375 25.0283 13.4408 25.8333 11.3875C23.815 6.26583 18.8333 2.6375 13 2.6375C11.5183 2.6375 10.095 2.87083 8.75329 3.3025L10.6783 5.2275C11.4366 5.07583 12.2066 4.97083 13 4.97083ZM11.7516 6.30083L14.1666 8.71583C14.8316 9.0075 15.3683 9.54416 15.66 10.2092L18.075 12.6242C18.1683 12.2275 18.2383 11.8075 18.2383 11.3758C18.25 8.4825 15.8933 6.1375 13 6.1375C12.5683 6.1375 12.16 6.19583 11.7516 6.30083ZM1.34496 2.48583L4.47163 5.6125C2.56996 7.10583 1.06496 9.08916 0.166626 11.3875C2.18496 16.5092 7.16663 20.1375 13 20.1375C14.7733 20.1375 16.4766 19.7992 18.04 19.1808L22.03 23.1708L23.675 21.5258L2.98996 0.829163L1.34496 2.48583ZM10.095 11.2358L13.14 14.2808C13.0933 14.2925 13.0466 14.3042 13 14.3042C11.39 14.3042 10.0833 12.9975 10.0833 11.3875C10.0833 11.3292 10.095 11.2942 10.095 11.2358ZM6.12829 7.26916L8.16996 9.31083C7.90163 9.9525 7.74996 10.6525 7.74996 11.3875C7.74996 14.2808 10.1066 16.6375 13 16.6375C13.735 16.6375 14.435 16.4858 15.065 16.2175L16.2083 17.3608C15.1816 17.6408 14.1083 17.8042 13 17.8042C8.57829 17.8042 4.63496 15.3192 2.70996 11.3875C3.52663 9.71916 4.71663 8.3425 6.12829 7.26916Z" fill="white" fill-opacity="0.48"/>
</svg>
