<svg width="56" height="56" viewBox="0 0 56 56" fill="none" xmlns="http://www.w3.org/2000/svg">
<rect width="56" height="56" fill="#6846EB"/>
<path fill-rule="evenodd" clip-rule="evenodd" d="M25.1405 8.67108L24.8822 8.43345L24.8502 8.08314L25.7525 8L25.1405 8.67108ZM9.5023 22.5775C9.53462 22.5839 9.56889 22.5903 9.60503 22.5966C9.88331 22.6445 10.2748 22.6825 10.7346 22.6444C11.6608 22.5677 12.8514 22.1827 13.9345 20.9822C14.9495 19.8572 17.7505 16.78 20.2987 13.9829C21.5727 12.5846 22.7831 11.2566 23.675 10.2783C24.121 9.78906 24.4874 9.38726 24.7422 9.10776L25.1405 8.67108C25.1406 8.671 25.1405 8.67108 24.8822 8.43345C24.8502 8.08314 24.8504 8.08312 24.8502 8.08314L24.8478 8.08336L24.8431 8.08382C24.8391 8.08422 24.8336 8.08478 24.8265 8.08553C24.8124 8.08703 24.7921 8.08929 24.7658 8.09247C24.7135 8.09881 24.6372 8.10881 24.5392 8.12371C24.3432 8.15352 24.0596 8.20297 23.7034 8.2821C22.9911 8.44034 21.9872 8.7175 20.8111 9.19418C18.4586 10.1477 15.4151 11.9006 12.6406 15.0972C10.2074 17.9007 9.05013 21.1637 8.49964 23.7144C8.22407 24.9912 8.09953 26.0942 8.04385 26.8794C8.01601 27.2721 8.00536 27.5858 8.0017 27.8024C7.99987 27.9107 7.9998 27.9947 8.00019 28.0524C8.00039 28.0811 8.0007 28.1034 8.00097 28.1187C8.00112 28.1263 8.00124 28.1323 8.00134 28.1364L8.00146 28.1413L8.00151 28.1433C8.00152 28.1435 8.00152 28.1436 8.3516 28.1335L8.00151 28.1433L8.02973 29.1257L8.62852 28.3489L8.62942 28.3476L8.63272 28.3434C8.63573 28.3395 8.64031 28.3336 8.64642 28.3258C8.65864 28.3101 8.67697 28.2868 8.70099 28.2565C8.74905 28.1959 8.81982 28.1074 8.90991 27.9975C9.09017 27.7774 9.34728 27.4714 9.654 27.1285C10.2708 26.4392 11.0751 25.6159 11.8519 25.0392C12.1825 24.7938 12.5847 24.6338 13.3085 24.596C14.0469 24.5574 15.0965 24.6473 16.7043 24.893C17.7079 25.0464 18.8513 24.9334 19.8429 24.6778C20.8206 24.4257 21.7217 24.0164 22.1931 23.5222C23.8077 21.83 26.9977 18.344 29.7812 15.2844C31.1736 13.7538 32.4653 12.3288 33.4088 11.2865C33.8806 10.7654 34.2654 10.3399 34.5323 10.0446C34.6383 9.92717 34.7258 9.83034 34.7927 9.75631C35.6185 10.0618 36.7747 10.6929 37.8683 11.3633C38.8459 11.9627 39.7427 12.5741 40.271 12.9773L40.0793 13.1882C39.7956 13.5003 39.3893 13.9474 38.8985 14.4878C37.9167 15.5684 36.5968 17.0218 35.244 18.5126C32.5402 21.4922 29.7004 24.6263 29.1726 25.2271C28.9162 25.519 28.3531 25.8623 27.6323 26.0879C26.9199 26.311 26.1077 26.4015 25.3769 26.2419C24.7785 26.1112 24.2741 25.9622 23.8039 25.8233C23.6524 25.7785 23.5044 25.7348 23.358 25.6931C22.7652 25.5243 22.2011 25.3895 21.5901 25.3895C20.3456 25.3895 19.0665 25.9449 17.6881 27.4753C17.0245 28.212 15.0477 30.3557 13.2345 32.3178C12.3283 33.2984 11.4638 34.2327 10.8258 34.922C10.5068 35.2665 10.2444 35.5499 10.0618 35.747L9.77637 36.0552C9.77633 36.0552 9.7763 36.0552 10.0327 36.2949L9.77637 36.0552L9.64161 36.2006L9.69592 36.3915C9.81531 36.8112 10.1051 37.3653 10.4732 37.9576C10.8465 38.5581 11.3178 39.2254 11.8222 39.8789C12.8237 41.1759 13.987 42.4584 14.7999 43.0523L15.0497 43.2347L15.2611 43.0086C16.0745 42.139 17.8469 40.1781 19.7896 38.0289C20.4463 37.3022 21.1227 36.554 21.7879 35.8192C23.1056 34.3637 24.3809 32.9598 25.379 31.876C25.8781 31.3338 26.3071 30.8729 26.637 30.526C26.9738 30.1717 27.1915 29.9535 27.2778 29.8813C28.0475 29.237 29.0099 28.9118 30.115 28.9771C30.4944 28.9996 31.0297 29.0646 31.623 29.1367C31.9432 29.1757 32.2803 29.2167 32.6189 29.2541C33.094 29.3067 33.5671 29.3514 33.9813 29.3699C34.3866 29.388 34.7682 29.3829 35.0447 29.3211C35.9557 29.1178 37.6654 28.6713 38.7965 27.4594C39.3115 26.9076 40.6312 25.4448 42.0455 23.877C43.3268 22.4566 44.6858 20.9501 45.5947 19.9568C46.2688 21.4572 47.2043 24.4288 47.293 27.3637C46.9105 27.7697 46.5903 28.1177 46.3119 28.4205C45.6541 29.1356 45.2292 29.5975 44.7663 29.9695C44.1385 30.474 42.9863 30.9289 41.6341 30.6055L41.4953 30.5724C40.799 30.4057 40.0485 30.2262 39.4133 30.0853C39.0745 30.0102 38.7654 29.9454 38.5129 29.8992C38.2704 29.8548 38.0521 29.822 37.9105 29.822H37.9051C37.4689 29.822 35.8044 29.8219 34.511 31.1211C33.9077 31.727 31.0792 34.8508 28.1078 38.1338L27.8323 38.4382C24.9381 41.6362 21.9603 44.9262 20.7753 46.1845L20.3939 46.5896L20.9221 46.761C25.5322 48.2572 29.1493 48.1679 31.6036 47.6862C35.369 46.9472 44.218 44.0373 47.2832 33.2251L47.3803 32.883L47.0386 32.7894C46.1938 32.558 45.3044 32.6228 44.5394 32.8404C43.7797 33.0566 43.1034 33.4351 42.6971 33.8744C41.7864 34.8597 38.7041 38.2045 35.8499 41.3026C34.4228 42.8516 33.0525 44.3392 32.039 45.4395L30.4548 47.1594C28.2688 47.4389 25.31 47.361 21.6674 46.2579C23.0359 44.7838 25.7271 41.8103 28.3433 38.9196L28.6261 38.6071C31.6086 35.3117 34.4186 32.2088 35.0062 31.6186C36.0889 30.5311 37.4979 30.5256 37.9105 30.5256C37.9792 30.5256 38.1374 30.5456 38.3873 30.5914C38.6274 30.6353 38.9269 30.698 39.2622 30.7724C39.8915 30.9119 40.6366 31.0902 41.3347 31.2571L41.4718 31.29C43.0615 31.6701 44.4309 31.1401 45.204 30.5189C45.7097 30.1124 46.1867 29.5939 46.8719 28.8491C47.1693 28.526 47.5058 28.1602 47.9008 27.7425L48 27.6376L47.997 27.4929C47.9257 24.0548 46.7181 20.5541 45.9955 19.175L45.765 18.735L45.4286 19.0998C44.5312 20.0734 42.9726 21.8013 41.5183 23.4135C40.1126 24.972 38.8044 26.4222 38.2855 26.9782C37.3152 28.0178 35.8029 28.4312 34.8928 28.6343C34.7139 28.6743 34.4127 28.6848 34.0124 28.667C33.6211 28.6496 33.166 28.6068 32.6956 28.5548C32.3808 28.52 32.0564 28.4806 31.7416 28.4424C31.1311 28.3682 30.5564 28.2984 30.1562 28.2748C28.8798 28.1994 27.7408 28.5779 26.8294 29.3407C26.7056 29.4444 26.457 29.6965 26.1304 30.0401C25.7968 30.391 25.3649 30.8552 24.8648 31.3981C23.8645 32.4844 22.5874 33.8903 21.2697 35.3459C20.6018 36.0835 19.9236 36.8339 19.2657 37.5618C17.4842 39.5327 15.8505 41.3401 14.9687 42.2924C14.2498 41.6937 13.2655 40.6 12.3758 39.4477C11.8821 38.8082 11.4253 38.1607 11.0674 37.585C10.7682 37.1035 10.5496 36.6902 10.4312 36.3811L10.5746 36.2263C10.7573 36.0291 11.0197 35.7457 11.3387 35.401C11.9768 34.7117 12.8415 33.7771 13.7478 32.7965C15.5594 30.8363 17.5402 28.6882 18.2075 27.9473C19.4907 26.5227 20.5932 26.0931 21.5901 26.0931C22.0997 26.0931 22.5865 26.2047 23.1669 26.37C23.3027 26.4086 23.4437 26.4503 23.591 26.4938C24.065 26.634 24.6026 26.7927 25.2281 26.9294C26.1084 27.1216 27.0472 27.008 27.8407 26.7596C28.6259 26.5139 29.3237 26.1184 29.6978 25.6927C30.2207 25.0974 33.0544 21.9698 35.7617 18.9866C37.1143 17.4959 38.4342 16.0427 39.4159 14.9621C39.9067 14.4217 40.313 13.9747 40.5966 13.6625L41.0406 13.174C41.0407 13.1739 41.041 13.1735 40.7824 12.9363L41.0406 13.174L41.2863 12.9037L41.0086 12.6678C40.5324 12.2629 39.4282 11.4954 38.2331 10.7628C37.0419 10.0325 35.7146 9.30854 34.7952 9.01304L34.5805 8.94402L34.4291 9.1118L34.6885 9.34809C34.4291 9.1118 34.4291 9.11173 34.4291 9.1118L34.3214 9.23108C34.2508 9.30916 34.1469 9.42416 34.0136 9.57171C33.7469 9.86682 33.3623 10.2922 32.8906 10.8132C31.9473 11.8552 30.6561 13.2797 29.2642 14.8098C26.4791 17.8712 23.2951 21.3504 21.6875 23.0354C21.3535 23.3855 20.6085 23.754 19.6687 23.9963C18.7429 24.235 17.6972 24.3331 16.8097 24.1975C15.1954 23.9508 14.0861 23.8508 13.2722 23.8933C12.4437 23.9366 11.9003 24.1283 11.4355 24.4735C10.6013 25.0928 9.7595 25.9581 9.13304 26.6583C8.98676 26.8217 8.85151 26.977 8.73002 27.1192C8.73372 27.0583 8.73788 26.995 8.74253 26.9294C8.7963 26.1711 8.91691 25.1018 9.18419 23.8635C9.27314 23.4513 9.37822 23.021 9.5023 22.5775ZM9.70411 21.8997C9.71048 21.9009 9.71692 21.902 9.72346 21.9031C9.95558 21.9431 10.287 21.9755 10.677 21.9432C11.4505 21.8792 12.4673 21.5607 13.4155 20.5097C14.4319 19.3832 17.2344 16.3043 19.782 13.5079C21.056 12.1095 22.2665 10.7815 23.1584 9.8031C23.4558 9.47692 23.7178 9.18961 23.9349 8.95149C23.9086 8.95717 23.8819 8.96303 23.8546 8.96908C23.1749 9.12008 22.2086 9.38641 21.0732 9.84663C18.8028 10.7669 15.8576 12.4615 13.1685 15.5596C11.4204 17.5738 10.3538 19.8441 9.70411 21.8997ZM31.5802 46.9736C35.2544 46.2295 43.4846 43.4309 46.5043 33.3927C45.9099 33.2976 45.2903 33.358 44.7304 33.5173C44.0542 33.7097 43.5048 34.0348 43.2105 34.3531C42.3002 35.3379 39.2185 38.6821 36.364 41.7804C34.9368 43.3295 33.5665 44.817 32.5531 45.9173L31.5802 46.9736Z" fill="white"/>
</svg>
