<svg width="26" height="18" viewBox="0 0 26 18" fill="none" xmlns="http://www.w3.org/2000/svg">
<path d="M13.0001 2.58333C17.4217 2.58333 21.3651 5.06833 23.2901 9C21.3651 12.9317 17.4334 15.4167 13.0001 15.4167C8.56675 15.4167 4.63508 12.9317 2.71008 9C4.63508 5.06833 8.57842 2.58333 13.0001 2.58333ZM13.0001 0.25C7.16675 0.25 2.18508 3.87833 0.166748 9C2.18508 14.1217 7.16675 17.75 13.0001 17.75C18.8334 17.75 23.8151 14.1217 25.8334 9C23.8151 3.87833 18.8334 0.25 13.0001 0.25ZM13.0001 6.08333C14.6101 6.08333 15.9167 7.39 15.9167 9C15.9167 10.61 14.6101 11.9167 13.0001 11.9167C11.3901 11.9167 10.0834 10.61 10.0834 9C10.0834 7.39 11.3901 6.08333 13.0001 6.08333ZM13.0001 3.75C10.1067 3.75 7.75008 6.10667 7.75008 9C7.75008 11.8933 10.1067 14.25 13.0001 14.25C15.8934 14.25 18.2501 11.8933 18.2501 9C18.2501 6.10667 15.8934 3.75 13.0001 3.75Z" fill="white" fill-opacity="0.48"/>
</svg>
