<svg width="56" height="56" viewBox="0 0 56 56" fill="none" xmlns="http://www.w3.org/2000/svg">
<rect width="56" height="56" fill="#EA5C8E"/>
<path d="M26.2817 44C22.8197 44 20.0792 42.9826 18.1363 40.9763C17.3614 40.1663 16.7259 39.2337 16.2556 38.2163C15.8465 37.3363 15.5369 36.4135 15.3324 35.465C15.18 34.7688 15.0783 34.0626 15.0283 33.3518C14.9923 32.8296 15.0009 32.51 15.0009 32.5068C15.0009 32.3419 15.0461 15.976 15.0245 14.9345C15.0285 14.6093 15.0998 14.2885 15.234 13.9923C15.3953 13.6221 15.623 13.2846 15.9058 12.9964C16.2274 12.6709 16.6123 12.4147 17.0368 12.2436C17.4612 12.0724 17.9162 11.9898 18.3737 12.001H18.4398C18.9747 12.0056 19.5047 12.1038 20.0056 12.2911C20.4289 12.4498 20.8202 12.6832 21.1609 12.9803C21.4545 13.2345 21.6979 13.5413 21.8788 13.8848C22.0327 14.1727 22.117 14.4927 22.1248 14.819C22.1248 15.968 22.1248 19.0089 22.1248 19.1373H22.2549C24.1356 19.134 28.9018 19.1259 32.5771 19.1259C35.1864 19.1259 36.771 19.1297 37.2874 19.1373C37.6808 19.1362 38.0685 19.2323 38.4158 19.4171C38.7256 19.5898 38.9897 19.8338 39.1863 20.1288C39.3909 20.437 39.5406 20.7784 39.6286 21.1376C39.7246 21.5207 39.7719 21.9143 39.7694 22.3092C39.7701 22.711 39.7173 23.1111 39.6125 23.4991C39.5142 23.8721 39.3562 24.2267 39.1444 24.5492C38.9452 24.8553 38.6803 25.1133 38.369 25.3045C38.0421 25.4992 37.6696 25.6044 37.289 25.6096C36.4513 25.6283 32.453 25.6326 29.2419 25.6326C25.6751 25.6326 22.2667 25.6278 22.1233 25.6278C22.1233 25.6493 22.1233 30.5924 22.1233 31.8622C22.1296 32.3293 22.1792 32.7949 22.2716 33.2529C22.39 33.8895 22.5944 34.507 22.8793 35.0884C23.1806 35.7206 23.6316 36.2699 24.193 36.6886C24.4973 36.9068 24.8343 37.0752 25.1914 37.1877C25.602 37.3138 26.0295 37.3763 26.459 37.373H26.5101C27.6503 37.3617 28.9818 37.3558 30.5814 37.3558C32.2837 37.3558 33.9059 37.3622 35.209 37.367H35.2138C36.0199 37.3703 36.6528 37.373 37.0682 37.373C37.4573 37.3733 37.8398 37.4737 38.1789 37.6646C38.514 37.8549 38.8075 38.1107 39.0418 38.4167C39.282 38.7259 39.4709 39.0718 39.6011 39.4411C39.7293 39.7981 39.7965 40.1742 39.8 40.5535C39.7912 40.9493 39.7109 41.3402 39.563 41.7073C39.4082 42.1061 39.1987 42.4814 38.9408 42.8225C38.6984 43.1504 38.4023 43.4351 38.0649 43.6643C37.9119 43.766 37.7467 43.8483 37.5732 43.9092C37.4109 43.9662 37.2403 43.996 37.0682 43.9973H36.4405C35.9645 43.9978 34.9694 44 26.2817 44ZM32.8582 42.2971C35.094 42.2971 36.1396 42.2971 36.642 42.3004H37.0139C37.1535 42.2927 37.287 42.2405 37.3949 42.1516C37.5344 42.0424 37.6548 41.9108 37.7512 41.7622C37.8636 41.5929 37.9539 41.4098 38.0198 41.2175C38.0891 41.0193 38.1287 40.8121 38.1374 40.6024C38.1433 40.3737 38.0979 40.1465 38.0048 39.9374C37.9165 39.7348 37.794 39.5489 37.6425 39.3879C37.4567 39.1641 37.1933 39.0185 36.9048 38.9802C36.6028 38.9726 34.2117 38.9614 31.5288 38.9614C30.1038 38.9614 28.085 38.9646 26.5589 38.9802H26.4842C25.699 39.0061 24.9172 38.8651 24.1906 38.5664C23.4639 38.2678 22.8089 37.8183 22.2689 37.2478C21.7074 36.6246 21.279 35.8935 21.0099 35.0992C20.686 34.1354 20.5152 33.1269 20.5037 32.1104C20.4457 29.7468 20.45 27.6594 20.4618 26.3235C20.4758 24.8763 20.5037 23.976 20.5037 23.9669C20.544 23.9669 27.6605 23.9755 32.5965 23.9755C35.4686 23.9755 37.0176 23.9723 37.2008 23.9669C37.3543 23.9551 37.5012 23.9002 37.6248 23.8085C37.7483 23.717 37.8435 23.5924 37.8995 23.4491C38.0645 23.0792 38.1416 22.6762 38.1245 22.2716C38.1232 22.0654 38.0954 21.8601 38.0418 21.6609C37.9976 21.4949 37.928 21.3367 37.8355 21.192C37.7596 21.0715 37.6599 20.9679 37.5426 20.8873C37.4412 20.8176 37.3226 20.7771 37.1998 20.7703C37.0601 20.7638 35.5341 20.7606 32.6604 20.7606C27.862 20.7606 20.8041 20.7697 20.5059 20.7703H20.5032C20.5032 20.7472 20.5032 19.7497 20.5032 18.5974C20.5032 17.031 20.5032 15.2562 20.5032 15.1214C20.4743 14.812 20.3571 14.5175 20.1658 14.2727C20.0167 14.0764 19.8243 13.917 19.6037 13.807C19.3077 13.6657 18.9827 13.5958 18.6547 13.6028C18.3247 13.5971 17.9966 13.6538 17.6875 13.7699C17.4573 13.8589 17.2492 13.9969 17.0777 14.1744C16.94 14.3184 16.8315 14.4877 16.758 14.6729C16.7 14.8158 16.6666 14.9674 16.6591 15.1214C16.6478 15.4668 16.6521 21.2392 16.6558 26.3315C16.6558 28.5812 16.6591 30.7056 16.6591 32.1104C16.6591 34.9413 17.2733 37.2263 18.4861 38.9034C18.8524 39.4115 19.2819 39.8708 19.7643 40.2704C20.291 40.7024 20.872 41.0636 21.4924 41.3448C22.2084 41.6664 22.9598 41.9026 23.731 42.0485C24.6571 42.2223 25.5978 42.3068 26.5402 42.301H26.5611C29.0146 42.2971 31.1338 42.2971 32.8582 42.2971Z" fill="white"/>
</svg>
