<svg width="56" height="56" viewBox="0 0 56 56" fill="none" xmlns="http://www.w3.org/2000/svg">
<rect width="56" height="56" fill="#5530C4"/>
<path d="M39.9791 19.6363C40.7807 19.6363 41.4305 20.2876 41.4305 21.0909C41.4305 21.8773 40.8077 22.518 40.0294 22.5446L38.2561 25.2103L38.2367 25.239C37.8373 25.8192 37.1825 26.1703 36.4793 26.1815L36.4446 26.1819L34.2952 26.1817C34.4966 26.6436 34.6514 27.1303 34.754 27.6363L39.3242 27.6364L39.3476 27.636C39.5736 27.6287 39.7833 27.5162 39.9147 27.3318L39.928 27.3125L41.6355 24.7457C41.5054 24.5277 41.4305 24.2726 41.4305 24C41.4305 23.1967 42.0803 22.5454 42.8819 22.5454C43.6835 22.5454 44.3333 23.1967 44.3333 24C44.3333 24.7944 43.6979 25.4401 42.9086 25.4543L41.1357 28.1193L41.1162 28.1481C40.7169 28.7283 40.0621 29.0795 39.3589 29.0906L39.3242 29.0909L34.8991 29.0908C34.8991 29.5891 34.8491 30.0755 34.754 30.5456L39.3242 30.5454C40.0406 30.5454 40.7103 30.8985 41.1162 31.4883L41.1357 31.517L42.9086 34.182C43.6979 34.1964 44.3333 34.842 44.3333 35.6364C44.3333 36.4397 43.6835 37.0909 42.8819 37.0909C42.0803 37.0909 41.4305 36.4397 41.4305 35.6364C41.4305 35.3638 41.5054 35.1087 41.6355 34.8906L39.928 32.3239C39.7978 32.128 39.5814 32.0079 39.3476 32.0004L39.3242 32L34.2952 32.0001C34.0688 32.5194 33.7836 33.007 33.4481 33.4547L36.4214 33.4546C37.1377 33.4546 37.8075 33.8076 38.2134 34.3974L38.2328 34.4261L40.0057 37.0912C40.795 37.1054 41.4305 37.7511 41.4305 38.5454C41.4305 39.3488 40.7807 40 39.9791 40C39.1775 40 38.5276 39.3488 38.5276 38.5454C38.5276 38.2729 38.6025 38.0178 38.7327 37.7997L37.0252 35.233C36.8949 35.0372 36.6785 34.917 36.4448 34.9095L36.4214 34.9091L31.9968 34.9092C30.7838 35.8224 29.2759 36.3636 27.642 36.3636C26.008 36.3636 24.5002 35.8224 23.2873 34.9092L18.912 34.9091L18.8885 34.9095C18.6626 34.9168 18.4528 35.0292 18.3215 35.2137L18.3082 35.233L16.6007 37.7998C16.7309 38.0178 16.8057 38.2729 16.8057 38.5454C16.8057 39.3488 16.1559 40 15.3543 40C14.5527 40 13.9028 39.3488 13.9028 38.5454C13.9028 37.7511 14.5383 37.1053 15.3277 37.0912L17.1005 34.4261L17.1199 34.3974C17.5193 33.8171 18.1741 33.466 18.8774 33.4548L18.912 33.4546L21.8359 33.4547C21.5004 33.007 21.2152 32.5194 20.9888 32.0001L16.0092 32L15.9857 32.0004C15.7598 32.0077 15.55 32.1202 15.4186 32.3045L15.4053 32.3239L13.6979 34.8907C13.828 35.1087 13.9028 35.3638 13.9028 35.6364C13.9028 36.4397 13.253 37.0909 12.4514 37.0909C11.6498 37.0909 11 36.4397 11 35.6364C11 34.842 11.6355 34.1963 12.4248 34.182L14.1977 31.517L14.2171 31.4883C14.6165 30.9081 15.2712 30.5569 15.9745 30.5458L16.0092 30.5454L20.5301 30.5456C20.4405 30.1032 20.391 29.6463 20.3854 29.1787L20.3849 29.0908L16.0092 29.0909C15.2928 29.0909 14.623 28.7378 14.2171 28.1481L14.1977 28.1193L12.4248 25.4543C11.6355 25.4401 11 24.7944 11 24C11 23.1967 11.6498 22.5454 12.4514 22.5454C13.253 22.5454 13.9028 23.1967 13.9028 24C13.9028 24.2725 13.828 24.5276 13.6979 24.7457L15.4053 27.3125C15.5356 27.5083 15.752 27.6284 15.9857 27.636L16.0092 27.6364L20.5301 27.6363C20.6325 27.1303 20.7875 26.6436 20.9888 26.1817L18.8887 26.1819C18.1723 26.1819 17.5026 25.8287 17.0966 25.239L17.0773 25.2103L15.3039 22.5446C14.5256 22.518 13.9028 21.8773 13.9028 21.0909C13.9028 20.2876 14.5527 19.6363 15.3543 19.6363C16.1559 19.6363 16.8057 20.2876 16.8057 21.0909C16.8057 21.3712 16.7266 21.6329 16.5896 21.8549L18.2849 24.4034C18.4152 24.5992 18.6316 24.7193 18.8653 24.7269L18.8887 24.7273L21.8359 24.7271C23.1599 22.9607 25.2678 21.8182 27.642 21.8182C30.0162 21.8182 32.1241 22.9607 33.4481 24.7271L36.4446 24.7273L36.468 24.7269C36.694 24.7196 36.9038 24.6071 37.0351 24.4228L37.0485 24.4034L38.7438 21.8549C38.6067 21.6329 38.5276 21.3712 38.5276 21.0909C38.5276 20.2876 39.1775 19.6363 39.9791 19.6363ZM27.642 23.2727C24.4356 23.2727 21.8364 25.8776 21.8364 29.0909C21.8364 32.3042 24.4356 34.9091 27.642 34.9091C30.8484 34.9091 33.4477 32.3042 33.4477 29.0909C33.4477 25.8776 30.8484 23.2727 27.642 23.2727ZM27.642 24.7273C30.0468 24.7273 31.9963 26.6809 31.9963 29.0909C31.9963 31.5009 30.0468 33.4546 27.642 33.4546C25.2372 33.4546 23.2878 31.5009 23.2878 29.0909C23.2878 26.6809 25.2372 24.7273 27.642 24.7273ZM32.722 16L32.77 16.0004C34.3511 16.0261 35.6249 17.3185 35.6249 18.9091C35.6249 20.5158 34.3251 21.8182 32.722 21.8182C31.1188 21.8182 29.8191 20.5158 29.8191 18.9091C29.8191 18.1196 30.1329 17.4036 30.6424 16.8795L30.6694 16.8521L32.722 18.9091V16ZM22.5621 16V18.9091L24.6147 16.8521C25.14 17.3785 25.4648 18.1057 25.4648 18.9091C25.4648 20.5158 24.1652 21.8182 22.5621 21.8182C20.9588 21.8182 19.6592 20.5158 19.6592 18.9091C19.6592 17.3185 20.933 16.0261 22.514 16.0004L22.5621 16Z" fill="white"/>
</svg>
