<svg width="56" height="56" viewBox="0 0 56 56" fill="none" xmlns="http://www.w3.org/2000/svg">
<rect width="56" height="56" fill="#2092A9"/>
<path fill-rule="evenodd" clip-rule="evenodd" d="M35.6114 18.3472C36.3171 19.934 36.7581 21.6972 36.7581 23.5043V23.6806L42.7564 18.3472V12L35.6114 18.3472ZM34.8614 23.548C34.8614 17.2009 29.1718 12.0437 22.2034 12.0437V16.8041C26.4814 16.8041 29.9656 19.7133 30.098 23.3277L26.8784 26.1926C27.7165 27.6914 28.2898 29.3663 28.5103 31.1293L31.3771 28.573C33.4058 32.4518 37.7722 35.0965 42.8002 35.0965V30.336C38.3897 30.2919 34.8614 27.2506 34.8614 23.548ZM34.5528 39.1515V43.9119C29.0396 43.9119 24.3646 40.6942 22.6445 36.3306L14 44V37.6527L16.5581 35.4048L19.9982 32.3195L21.6742 30.8209C20.8362 27.8675 17.7048 25.6636 14 25.6636V20.9033C20.9685 20.9033 26.658 26.0603 26.658 32.4075C26.658 36.11 30.1864 39.1515 34.5528 39.1515Z" fill="white"/>
</svg>
