<svg width="24" height="24" viewBox="0 0 24 24" fill="none" xmlns="http://www.w3.org/2000/svg">
<path d="M12.0001 1.71436C17.6807 1.71436 22.2858 6.31943 22.2858 12.0001C22.2858 17.6807 17.6807 22.2858 12.0001 22.2858C6.31943 22.2858 1.71436 17.6807 1.71436 12.0001C1.71436 6.31943 6.31943 1.71436 12.0001 1.71436ZM12.0001 3.00007C7.02951 3.00007 3.00007 7.02951 3.00007 12.0001C3.00007 16.9706 7.02951 21.0001 12.0001 21.0001C16.9706 21.0001 21.0001 16.9706 21.0001 12.0001C21.0001 7.02951 16.9706 3.00007 12.0001 3.00007ZM12.0001 10.5001C12.3342 10.5001 12.6088 10.755 12.64 11.081L12.6429 11.1429V15.8572C12.6429 16.2123 12.3551 16.5001 12.0001 16.5001C11.6659 16.5001 11.3913 16.2451 11.3602 15.9191L11.3572 15.8572V11.1429C11.3572 10.7879 11.645 10.5001 12.0001 10.5001ZM12.0001 7.28578C12.4735 7.28578 12.8572 7.66954 12.8572 8.14293C12.8572 8.61631 12.4735 9.00007 12.0001 9.00007C11.5267 9.00007 11.1429 8.61631 11.1429 8.14293C11.1429 7.66954 11.5267 7.28578 12.0001 7.28578Z" fill="#FE8D81"/>
</svg>
