<svg width="56" height="56" viewBox="0 0 56 56" fill="none" xmlns="http://www.w3.org/2000/svg">
<rect width="56" height="56" fill="#DF8633"/>
<path fill-rule="evenodd" clip-rule="evenodd" d="M22.6564 19.7669C23.9814 18.7611 25.5258 18.0935 27.0419 18.0935C27.6188 18.0935 28.0865 18.5612 28.0865 19.1381C28.0865 19.715 27.6188 20.1827 27.0419 20.1827C26.1208 20.1827 25.01 20.6033 23.9194 21.431C22.8401 22.2502 21.8561 23.4137 21.1877 24.7602C19.867 27.4213 19.7987 30.7104 22.5676 33.5563C23.9774 35.0053 25.4596 35.6618 26.8768 35.8378C28.3103 36.0159 29.7477 35.7099 31.0492 35.1183C32.3531 34.5256 33.4786 33.6646 34.2672 32.7982C34.6608 32.3656 34.9551 31.9486 35.1461 31.5829C35.3431 31.2054 35.3988 30.9433 35.3988 30.8028C35.3988 30.2258 35.8664 29.7582 36.4433 29.7582C37.0203 29.7582 37.4879 30.2258 37.4879 30.8028C37.4879 31.4022 37.2824 32.0051 36.998 32.5499C36.7075 33.1062 36.2999 33.6685 35.8122 34.2044C34.8379 35.2749 33.4825 36.3072 31.9137 37.0203C30.3426 37.7344 28.5155 38.1466 26.6193 37.9111C24.7069 37.6736 22.7941 36.785 21.0702 35.0132C17.5717 31.4174 17.6775 27.1333 19.3164 23.8314C20.1279 22.1964 21.32 20.7811 22.6564 19.7669Z" fill="white"/>
<path fill-rule="evenodd" clip-rule="evenodd" d="M13.1035 22.2499C15.4551 16.4411 21.437 12 30.1758 12C30.7527 12 31.2204 12.4677 31.2204 13.0446C31.2204 13.6215 30.7527 14.0892 30.1758 14.0892C22.201 14.0892 17.0407 18.0919 15.04 23.0339C13.0315 27.9948 14.1348 34.0537 19.0287 38.3767C23.895 42.6752 29.5179 42.6701 33.9674 40.4049C38.4746 38.1103 41.6664 33.5581 41.6664 28.8877C41.6664 28.3108 42.1341 27.8431 42.711 27.8431C43.2879 27.8431 43.7557 28.3108 43.7557 28.8877C43.7557 34.4891 39.9835 39.6865 34.9153 42.2667C29.7892 44.8763 23.2252 44.8711 17.6456 39.9424C12.0936 35.0381 10.7595 28.0395 13.1035 22.2499Z" fill="white"/>
<path fill-rule="evenodd" clip-rule="evenodd" d="M37.3808 15.3661C36.5654 16.7259 35.1176 19.157 33.7982 21.4573C32.9905 22.8655 32.2376 24.2131 31.7081 25.2327C31.6933 25.2613 31.6787 25.2894 31.6643 25.3173C31.6785 25.3137 31.6928 25.3102 31.7072 25.3065C32.8097 25.0279 34.287 24.6023 35.8387 24.1349C38.3775 23.3701 41.0791 22.5043 42.5856 22.0163C41.9776 20.9253 41.0379 19.3102 40.3195 18.3866C39.6097 17.4739 38.2892 16.2045 37.3808 15.3661ZM36.0337 13.5521C36.4893 12.796 37.5049 12.6628 38.1459 13.2376C38.8901 13.9049 40.9298 15.7683 41.9687 17.104C43.0049 18.4362 44.3518 20.8784 44.8294 21.7622C45.2368 22.5158 44.876 23.4672 44.042 23.7395C42.9239 24.1046 39.564 25.1946 36.4413 26.1353C34.8823 26.6049 33.3686 27.0416 32.219 27.332C31.6483 27.4762 31.1426 27.5908 30.7575 27.6536C30.5708 27.684 30.3717 27.7093 30.192 27.7108C30.1059 27.7116 29.9741 27.7079 29.8305 27.6752C29.7315 27.6527 29.3725 27.5637 29.1326 27.2038C28.9215 26.8871 28.9429 26.5631 28.9484 26.4814C28.9574 26.351 28.9846 26.2347 29.0067 26.1537C29.0524 25.9862 29.123 25.8026 29.1978 25.6261C29.3512 25.2642 29.5807 24.7964 29.8539 24.27C30.4042 23.2105 31.1746 21.8322 31.986 20.4178C33.6107 17.5851 35.4253 14.5615 36.0337 13.5521Z" fill="white"/>
</svg>
