<svg width="56" height="56" viewBox="0 0 56 56" fill="none" xmlns="http://www.w3.org/2000/svg">
<rect width="56" height="56" fill="#F8A65A"/>
<path fill-rule="evenodd" clip-rule="evenodd" d="M29.4193 12.1885L16.7097 19.5335C16.4946 19.6536 16.3154 19.829 16.1908 20.0415C16.0661 20.254 16.0004 20.4959 16.0004 20.7423V27.5701L29.4045 19.7551C29.6258 19.6315 29.8752 19.5666 30.1287 19.5666C30.3822 19.5666 30.6315 19.6315 30.8528 19.7551L34.7248 21.9867C34.9945 22.1455 35.3095 22.2099 35.62 22.1698C35.9304 22.1297 36.2187 21.9872 36.4391 21.765L39.1436 19.0458C39.2949 18.8905 39.409 18.703 39.4772 18.4973C39.5455 18.2916 39.5662 18.0731 39.5377 17.8582C39.5093 17.6434 39.4324 17.4377 39.3129 17.2569C39.1935 17.076 39.0345 16.9246 38.848 16.8142L30.838 12.1885C30.622 12.065 30.3775 12 30.1287 12C29.8798 12 29.6353 12.065 29.4193 12.1885ZM30.8377 43.8116L38.8772 39.1711C38.9887 39.11 39.0887 39.0299 39.1728 38.9346C39.4354 38.6691 39.5827 38.3106 39.5827 37.9371C39.5827 37.5635 39.4354 37.2051 39.1728 36.9395L36.4535 34.2202C36.2311 34.0013 35.9432 33.8612 35.6337 33.8212C35.3241 33.7812 35.0101 33.8434 34.7393 33.9986L30.8377 36.2449C30.6217 36.3684 30.3772 36.4334 30.1283 36.4334C29.8795 36.4334 29.635 36.3684 29.4189 36.2449L23.2563 32.6833C23.0402 32.5598 22.8607 32.3811 22.7361 32.1656C22.6115 31.9502 22.5462 31.7056 22.5469 31.4567V25.2497L16 29.0477V35.2399C15.9993 35.4889 16.0646 35.7336 16.1892 35.949C16.3138 36.1645 16.4933 36.343 16.7094 36.4666L29.4189 43.8116C29.635 43.9351 29.8795 44 30.1283 44C30.3772 44 30.6217 43.9351 30.8377 43.8116Z" fill="black"/>
</svg>
