<svg width="56" height="56" viewBox="0 0 56 56" fill="none" xmlns="http://www.w3.org/2000/svg">
<rect width="56" height="56" fill="#8D273C"/>
<path fill-rule="evenodd" clip-rule="evenodd" d="M41.68 18.9819C43.624 18.9819 45.2 17.4189 45.2 15.4909C45.2 13.5629 43.624 12 41.68 12C39.736 12 38.16 13.5629 38.16 15.4909C38.16 17.4189 39.736 18.9819 41.68 18.9819ZM38.7467 29.7455C38.7467 37.618 32.3115 44 24.3733 44C16.4352 44 10 37.618 10 29.7455C10 21.8729 16.4352 15.4909 24.3733 15.4909C32.3115 15.4909 38.7467 21.8729 38.7467 29.7455ZM33.408 29.7455C33.408 34.6939 29.363 38.7055 24.3733 38.7055C19.3836 38.7055 15.3387 34.6939 15.3387 29.7455C15.3387 24.797 19.3836 20.7855 24.3733 20.7855C29.363 20.7855 33.408 24.797 33.408 29.7455Z" fill="white"/>
</svg>
