<svg width="56" height="56" viewBox="0 0 56 56" fill="none" xmlns="http://www.w3.org/2000/svg">
<rect width="56" height="56" fill="#5C49D9"/>
<path fill-rule="evenodd" clip-rule="evenodd" d="M33.0711 12.6819C31.6032 12.2384 30.046 12 28.4333 12H17V19.5298C19.4156 18.9386 28.8229 14.9025 33.0711 12.6819ZM17 22.6823C20.7 21.7857 32.5779 16.554 36.6693 14.2777C38.7729 15.5419 40.5619 17.2757 41.8911 19.334C36.9887 22.1136 23.8912 28.5375 17 29.9823V22.6823ZM17 33.1716C22.3287 32.1254 37.6577 25.5224 43.2525 21.9413C44.018 23.8101 44.4399 25.8558 44.4399 28C44.4399 28.4716 44.4195 28.9383 44.3796 29.3996C39.0349 32.7362 24.1366 39.031 17 40.5151V33.1716ZM17 43.8587V44H28.4333C35.5481 44 41.5787 39.36 43.6618 32.9421C38.1418 36.3181 22.5257 42.6016 17 43.8587Z" fill="white"/>
</svg>
