<svg width="56" height="56" viewBox="0 0 56 56" fill="none" xmlns="http://www.w3.org/2000/svg">
<rect width="56" height="56" fill="#5F10C9"/>
<mask id="mask0_11848_75396" style="mask-type:luminance" maskUnits="userSpaceOnUse" x="7" y="24" width="42" height="9">
<path d="M49 24H7V32.1712H49V24Z" fill="white"/>
</mask>
<g mask="url(#mask0_11848_75396)">
<path d="M15.6659 25.6339H10.7634C10.3122 25.6339 9.94641 25.9996 9.94641 26.4509C9.94641 26.9021 10.3122 27.2678 10.7634 27.2678H14.4355C15.5665 27.2678 16.4829 28.1842 16.4829 29.3151V30.1584C16.4829 31.2696 15.5821 32.1695 14.4717 32.1695H9.12945C8.67824 32.1712 8.3125 31.8054 8.3125 31.3534C8.3125 30.9022 8.67824 30.5365 9.12945 30.5365H14.032C14.4832 30.5365 14.849 30.1707 14.849 29.7195C14.849 29.2683 14.4832 28.9025 14.032 28.9025H10.3532C9.22644 28.9025 8.3125 27.9886 8.3125 26.8618V26.0547C8.3125 24.9197 9.23219 24 10.3672 24H15.6659C16.1171 24 16.4829 24.3657 16.4829 24.817C16.4837 25.2682 16.1179 25.6339 15.6659 25.6339Z" fill="white"/>
<path d="M26.8603 26.0449V31.3534C26.8603 31.8046 26.4946 32.1704 26.0434 32.1704C25.5921 32.1704 25.2264 31.8046 25.2264 31.3534V26.4509C25.2264 25.9996 24.8607 25.6339 24.4094 25.6339H21.1408C20.6896 25.6339 20.3238 25.9996 20.3238 26.4509V31.3534C20.3238 31.8046 19.9581 32.1704 19.5069 32.1704C19.0557 32.1704 18.6899 31.8046 18.6899 31.3534V26.0646C18.6891 24.9246 19.6137 24 20.7537 24H24.8155C25.9447 24 26.8603 24.9156 26.8603 26.0449Z" fill="white"/>
<path d="M37.2377 26.0744V30.1066C37.2377 31.2466 36.3131 32.1712 35.1731 32.1712H31.1484C29.9985 32.1712 29.0665 31.2392 29.0665 30.0894V26.0785C29.0665 24.9304 29.9969 24 31.1451 24H35.1633C36.309 24 37.2377 24.9287 37.2377 26.0744ZM30.7004 26.4509V29.7195C30.7004 30.1707 31.0662 30.5365 31.5174 30.5365H34.786C35.2372 30.5365 35.603 30.1707 35.603 29.7195V26.4509C35.603 25.9996 35.2372 25.6339 34.786 25.6339H31.5174C31.0662 25.6339 30.7004 25.9996 30.7004 26.4509Z" fill="white"/>
<path d="M41.1502 24.817V29.7195C41.1502 30.1707 41.516 30.5365 41.9672 30.5365C42.4184 30.5365 42.7841 30.1707 42.7841 29.7195V24.817C42.7841 24.3657 43.1499 24 43.6011 24C44.0523 24 44.418 24.3657 44.418 24.817V29.7195C44.418 30.1707 44.7838 30.5365 45.235 30.5365C45.6862 30.5365 46.052 30.1707 46.052 29.7195V24.817C46.052 24.3657 46.4177 24 46.8689 24C47.3201 24 47.6859 24.3657 47.6859 24.817V30.1074C47.6859 31.2466 46.7621 32.1704 45.6229 32.1704H41.5735C40.4368 32.1704 39.5155 31.249 39.5155 30.1124V24.817C39.5155 24.3657 39.8812 24 40.3325 24C40.7845 24 41.1502 24.3657 41.1502 24.817Z" fill="white"/>
<path d="M34.3918 30.5635C34.3967 30.5273 34.423 30.51 34.4501 30.4928C34.4551 30.4895 34.46 30.487 34.4649 30.4854C34.4748 30.4821 34.474 30.4772 34.4707 30.4698C34.4608 30.4484 34.4468 30.4295 34.4304 30.4122C34.391 30.3703 34.3449 30.3358 34.2964 30.3054C34.1978 30.2429 34.1427 30.1525 34.1222 30.0399C34.1206 30.0317 34.1181 30.0276 34.1082 30.0276C34.0458 30.0243 33.9825 30.0202 33.92 30.0169C33.8954 30.0153 33.8699 30.0136 33.8452 30.0128C33.8452 30.0128 33.8419 30.0111 33.8436 30.0095C33.8937 29.9947 33.9447 29.9807 33.9948 29.9659C33.9973 29.9651 34.0006 29.9643 34.0038 29.9635C33.9775 29.9503 33.9504 29.9454 33.9225 29.9429C33.8543 29.9364 33.7869 29.9429 33.7195 29.952C33.5913 29.9692 33.4655 29.9996 33.3406 30.0325C33.117 30.0917 32.8976 30.1632 32.6798 30.2396C32.5434 30.2873 32.4077 30.3374 32.273 30.3892C32.273 30.3892 32.2697 30.3917 32.2664 30.39C32.2664 30.3777 32.2664 30.3654 32.2664 30.3506C32.2039 30.3843 32.139 30.4032 32.0683 30.4032C32.0379 30.4032 32.0083 30.3991 31.9763 30.3917C32.0338 30.3481 32.0897 30.3054 32.148 30.2602C32.1061 30.2602 32.0675 30.2602 32.028 30.2602C32.0289 30.2561 32.033 30.2561 32.0354 30.2544C32.0683 30.238 32.1004 30.2207 32.1332 30.2043C32.1702 30.1862 32.2056 30.1657 32.2425 30.1468C32.2639 30.1353 32.2861 30.1254 32.3075 30.1139C32.3436 30.0942 32.3798 30.0761 32.4168 30.0572C32.4587 30.0358 32.4998 30.0144 32.5417 29.9931C32.5803 29.9725 32.619 29.952 32.6584 29.9314C32.6962 29.9117 32.734 29.8928 32.7718 29.8739C32.8129 29.8525 32.854 29.8303 32.8951 29.809C32.9321 29.7901 32.9683 29.772 33.0053 29.7531C33.0644 29.7227 33.1244 29.6914 33.1836 29.661C33.2058 29.6495 33.228 29.638 33.2494 29.6249C33.1606 29.6249 33.0727 29.6249 32.9839 29.6249L32.9831 29.6232C32.997 29.6142 33.011 29.606 33.0242 29.5969C33.062 29.5723 33.0998 29.5476 33.1384 29.5238C33.1918 29.4909 33.2444 29.4556 33.2987 29.4227C33.3365 29.3997 33.3735 29.3742 33.4113 29.3504C33.4499 29.3257 33.4885 29.3019 33.5263 29.2772C33.5609 29.2558 33.5945 29.2336 33.6282 29.2115C33.6743 29.1827 33.7211 29.1539 33.7663 29.1243C33.8008 29.1013 33.8362 29.0791 33.8707 29.0578C33.9167 29.0298 33.9611 28.9994 34.0071 28.9723C34.0458 28.9493 34.0828 28.9238 34.1206 28.9008C34.1584 28.8769 34.1953 28.8531 34.234 28.8301C34.2611 28.8137 34.2874 28.7964 34.3145 28.7791C34.317 28.7775 34.3195 28.7767 34.3219 28.775C34.3236 28.7709 34.3277 28.7693 34.3318 28.7668C34.3836 28.7364 34.4362 28.7068 34.4896 28.6805C34.5537 28.6493 34.6186 28.6205 34.6844 28.5926C34.7164 28.5794 34.7485 28.5655 34.7781 28.5482C34.792 28.54 34.8044 28.5309 34.8159 28.5202C34.8635 28.4775 34.9112 28.4364 34.9597 28.3945C35.0074 28.3526 35.0559 28.3115 35.1076 28.2737C35.157 28.2375 35.2079 28.2038 35.263 28.1775C35.3 28.1603 35.3386 28.1455 35.3789 28.1405C35.4323 28.134 35.4832 28.1414 35.5342 28.1603C35.5958 28.1841 35.6493 28.2194 35.6994 28.2614C35.7298 28.2868 35.7627 28.3098 35.7939 28.3345C35.8367 28.369 35.8802 28.4044 35.9221 28.4397C35.9262 28.443 35.9303 28.4471 35.9328 28.4529V28.4545C35.9197 28.4635 35.904 28.4668 35.8901 28.4718C35.8186 28.4989 35.7487 28.5301 35.6805 28.5646C35.6616 28.5737 35.6452 28.586 35.6304 28.6008C35.5917 28.6386 35.5572 28.6789 35.5293 28.7249C35.5128 28.752 35.4989 28.7808 35.4882 28.8112C35.4504 28.9205 35.4052 29.0274 35.3624 29.1342C35.3476 29.1712 35.3353 29.2082 35.3189 29.2443C35.3016 29.283 35.2786 29.3183 35.2515 29.3512C35.203 29.4112 35.143 29.458 35.0805 29.5016C35.0156 29.5468 34.9466 29.5854 34.8759 29.6216C34.8077 29.6569 34.7386 29.6906 34.6704 29.726C34.6137 29.7555 34.557 29.7843 34.5052 29.8205C34.4789 29.8386 34.4534 29.8591 34.432 29.8838C34.4082 29.9117 34.3951 29.9454 34.3877 29.9807C34.3688 30.0761 34.391 30.1632 34.446 30.2421C34.469 30.2758 34.4945 30.307 34.5241 30.335C34.566 30.3761 34.612 30.4106 34.6622 30.4394C34.7016 30.4624 34.7444 30.4772 34.7871 30.4944C34.815 30.5051 34.8405 30.5207 34.8561 30.5478C34.8586 30.5519 34.8627 30.5561 34.8594 30.561H34.8553C34.8109 30.5503 34.7666 30.538 34.7205 30.533C34.6975 30.5306 34.6745 30.5289 34.6507 30.5281C34.5948 30.5256 34.5405 30.5314 34.4863 30.5404C34.4633 30.5446 34.4403 30.5503 34.4173 30.5561C34.4099 30.5577 34.4025 30.5585 34.3951 30.561C34.3959 30.5635 34.3942 30.5635 34.3918 30.5635Z" fill="white"/>
<path d="M33.8444 30.0088L33.846 30.012C33.8428 30.012 33.8395 30.012 33.8345 30.0129C33.8386 30.0096 33.8411 30.0079 33.8444 30.0088Z" fill="white"/>
</g>
</svg>
