<svg width="28" height="28" viewBox="0 0 28 28" fill="none" xmlns="http://www.w3.org/2000/svg">
<path d="M12.8334 21H15.1667V18.6667H12.8334V21ZM14 2.33337C7.56004 2.33337 2.33337 7.56004 2.33337 14C2.33337 20.44 7.56004 25.6667 14 25.6667C20.44 25.6667 25.6667 20.44 25.6667 14C25.6667 7.56004 20.44 2.33337 14 2.33337ZM14 23.3334C8.85504 23.3334 4.66671 19.145 4.66671 14C4.66671 8.85504 8.85504 4.66671 14 4.66671C19.145 4.66671 23.3334 8.85504 23.3334 14C23.3334 19.145 19.145 23.3334 14 23.3334ZM14 7.00004C11.4217 7.00004 9.33337 9.08837 9.33337 11.6667H11.6667C11.6667 10.3834 12.7167 9.33337 14 9.33337C15.2834 9.33337 16.3334 10.3834 16.3334 11.6667C16.3334 14 12.8334 13.7084 12.8334 17.5H15.1667C15.1667 14.875 18.6667 14.5834 18.6667 11.6667C18.6667 9.08837 16.5784 7.00004 14 7.00004Z" fill="white"/>
</svg>
