<svg width="56" height="56" viewBox="0 0 56 56" fill="none" xmlns="http://www.w3.org/2000/svg">
<rect width="56" height="56" fill="#5F6574"/>
<path d="M37.3118 30.086H41.9694C42.0783 30.0861 42.183 30.0438 42.2614 29.968C42.3397 29.8923 42.3855 29.7889 42.3891 29.6801V26.3199C42.3891 26.2085 42.3449 26.1017 42.2662 26.023C42.1875 25.9443 42.0806 25.9 41.9694 25.9H35.4422L30.3004 14.3332C30.2569 14.2349 30.1861 14.1511 30.0962 14.092C30.0064 14.033 29.9014 14.001 29.794 14H25.5954C25.4875 14.0005 25.3819 14.0322 25.2915 14.0913C25.2012 14.1504 25.1298 14.2344 25.086 14.3332L19.9472 25.886H13.4201C13.3637 25.886 13.308 25.8973 13.2561 25.9193C13.2042 25.9412 13.1573 25.9733 13.1181 26.0139C13.079 26.0544 13.0483 26.1023 13.0281 26.155C13.0078 26.2076 12.9984 26.2637 13.0002 26.3199V29.6801C13.0002 29.7915 13.0445 29.8983 13.1232 29.977C13.2019 30.0556 13.3087 30.1 13.4201 30.1H18.0776L13.0394 41.4233C13.014 41.4863 13.0043 41.5545 13.0111 41.6221C13.0179 41.6898 13.0411 41.7547 13.0785 41.8115C13.1159 41.8682 13.1666 41.9151 13.2261 41.9479C13.2856 41.9806 13.3521 41.9986 13.4201 42H17.1679C17.2763 42 17.3825 41.9686 17.4734 41.9094C17.5644 41.8503 17.6361 41.766 17.6801 41.6668L27.6946 19.166L37.7093 41.6668C37.7532 41.766 37.8251 41.8503 37.916 41.9094C38.0069 41.9686 38.1131 42 38.2215 42H41.9694C42.0393 42 42.1081 41.9825 42.1696 41.9491C42.2311 41.9157 42.2832 41.8673 42.3213 41.8087C42.3594 41.75 42.3823 41.6827 42.3878 41.6129C42.3932 41.5431 42.3812 41.4731 42.3528 41.4091L37.3118 30.086Z" fill="white"/>
</svg>
