<svg width="56" height="56" viewBox="0 0 56 56" fill="none" xmlns="http://www.w3.org/2000/svg">
<rect width="56" height="56" fill="#E6007A"/>
<mask id="mask0_11848_75140" style="mask-type:luminance" maskUnits="userSpaceOnUse" x="9" y="8" width="38" height="40">
<path d="M46.64 8H9V48H46.64V8Z" fill="white"/>
</mask>
<g mask="url(#mask0_11848_75140)">
<path d="M27.8164 16.3897C31.8024 16.3897 35.0336 14.5117 35.0336 12.1949C35.0336 9.8781 31.8024 8 27.8164 8C23.8306 8 20.5993 9.8781 20.5993 12.1949C20.5993 14.5117 23.8306 16.3897 27.8164 16.3897Z" fill="white"/>
<path d="M27.8164 47.9972C31.8024 47.9972 35.0336 46.119 35.0336 43.8023C35.0336 41.4855 31.8024 39.6074 27.8164 39.6074C23.8306 39.6074 20.5993 41.4855 20.5993 43.8023C20.5993 46.119 23.8306 47.9972 27.8164 47.9972Z" fill="white"/>
<path d="M17.7585 22.1962C19.7514 18.7466 19.7385 15.0104 17.7296 13.8512C15.7207 12.6921 12.4765 14.5489 10.4836 17.9985C8.49061 21.4482 8.50354 25.1843 10.5125 26.3435C12.5213 27.5027 15.7656 25.6459 17.7585 22.1962Z" fill="white"/>
<path d="M45.1452 37.9981C47.1383 34.5485 47.1264 30.8129 45.1188 29.6545C43.1113 28.4961 39.8682 30.3536 37.8753 33.8032C35.8824 37.2529 35.8941 40.9885 37.9017 42.1469C39.9092 43.3051 43.1523 41.4478 45.1452 37.9981Z" fill="white"/>
<path d="M17.7307 42.1459C19.7396 40.9869 19.7525 37.2506 17.7596 33.801C15.7666 30.3513 12.5225 28.4945 10.5136 29.6537C8.50466 30.8128 8.49173 34.549 10.4847 37.9986C12.4777 41.4483 15.7218 43.3051 17.7307 42.1459Z" fill="white"/>
<path d="M45.1211 26.3447C47.1287 25.1863 47.1404 21.4507 45.1475 18.001C43.1546 14.5514 39.9115 12.6939 37.904 13.8523C35.8964 15.0107 35.8845 18.7463 37.8776 22.1959C39.8705 25.6456 43.1136 27.5031 45.1211 26.3447Z" fill="white"/>
</g>
</svg>
