<svg width="465" height="123" viewBox="0 0 465 123" fill="none" xmlns="http://www.w3.org/2000/svg">
<g clip-path="url(#clip0_73_1402)">
<path d="M123 77.6C121.866 77.5996 120.733 77.6798 119.61 77.84C118.085 78.0177 116.679 78.7534 115.664 79.9054C114.648 81.0575 114.095 82.5444 114.11 84.08V97.4C114.11 100.67 116.79 103.25 120.49 103.53C121.33 103.59 122.19 103.63 123.01 103.63C123.768 103.647 124.526 103.617 125.28 103.54C129.11 103.24 131.46 101.13 131.88 97.54C132.309 92.8832 132.309 88.1968 131.88 83.54C131.766 82.1218 131.173 80.7845 130.199 79.7472C129.225 78.7098 127.928 78.0338 126.52 77.83C125.353 77.6788 124.177 77.602 123 77.6V77.6ZM113.24 119.84C111.54 119.84 108.31 118.91 108.31 115.4V82.18C108.31 78.83 110.83 75.92 112.52 74.8C114.541 73.6532 116.772 72.9222 119.08 72.65C120.538 72.4817 122.003 72.3883 123.47 72.37C125.151 72.3589 126.828 72.5367 128.47 72.9C133.34 74.02 136.29 77.19 137.26 82.22C137.491 83.5072 137.608 84.8123 137.61 86.12V87.38C137.61 90.22 137.7 93.15 137.61 96.04C137.52 97.8339 137.159 99.6039 136.54 101.29C135.08 105.23 132.08 107.66 127.62 108.47C126.356 108.698 125.074 108.812 123.79 108.81C122.67 108.807 121.551 108.733 120.44 108.59C119.154 108.474 117.908 108.083 116.786 107.443C115.665 106.803 114.694 105.929 113.94 104.88V119.82L113.24 119.84Z" fill="black"/>
<path d="M246.17 119.7C245.937 119.72 245.703 119.72 245.47 119.7L244.63 119.57L249.56 107.69C250.06 106.775 250.233 105.717 250.05 104.69C247.05 97.35 244.25 90.28 241.37 83.06L238.56 76.06C238.05 74.81 237.76 73.92 238.19 73.31C238.62 72.7 239.56 72.67 240.84 72.67C241.499 72.6121 242.156 72.798 242.687 73.1924C243.218 73.5869 243.585 74.1625 243.72 74.81C244.4 76.5 252.06 95.81 253.49 99.36L263.28 75.02C263.483 74.311 263.903 73.6833 264.48 73.2243C265.057 72.7653 265.763 72.4981 266.5 72.46C267.022 72.4708 267.538 72.5793 268.02 72.78C268.38 72.8807 268.685 73.1181 268.872 73.4414C269.059 73.7646 269.112 74.1482 269.02 74.51C269.02 74.51 269.02 74.61 269.02 74.66L252.56 115.38C252.057 116.667 251.17 117.769 250.02 118.537C248.87 119.304 247.512 119.699 246.13 119.67" fill="black"/>
<path d="M157.91 92C155.77 92 153.83 92.06 152.43 92.19C148.87 92.51 147.5 93.84 147.43 97.11V99.11C147.411 99.673 147.504 100.234 147.703 100.761C147.901 101.288 148.202 101.771 148.587 102.182C148.973 102.592 149.436 102.923 149.949 103.154C150.463 103.385 151.017 103.513 151.58 103.53C151.7 103.54 151.82 103.54 151.94 103.53C152.94 103.53 153.78 103.59 154.56 103.59C155.34 103.59 156.2 103.59 156.94 103.52C158.386 103.467 159.797 103.06 161.048 102.335C162.3 101.61 163.355 100.588 164.12 99.36C165.2 97.72 165.2 95.91 165.12 94V93C165.14 92.7471 165.14 92.4929 165.12 92.24C164.846 92.1898 164.568 92.1597 164.29 92.15C162.5 92.06 160.14 92 157.91 92ZM169.91 108.8C168.26 108.8 165.14 107.87 165.14 104.34V104.11L165.06 104.2C164.013 105.582 162.668 106.71 161.126 107.501C159.584 108.292 157.883 108.726 156.15 108.77H154.62C153.053 108.782 151.488 108.668 149.94 108.43C148.154 108.218 146.474 107.47 145.121 106.285C143.768 105.099 142.806 103.533 142.36 101.79C141.59 99.2164 141.59 96.4736 142.36 93.9C142.769 92.1988 143.706 90.6708 145.038 89.5354C146.369 88.3999 148.026 87.7154 149.77 87.58C152.573 87.27 155.39 87.1198 158.21 87.13C160.35 87.13 162.5 87.21 164.32 87.35H164.74C164.869 87.3699 165.001 87.3699 165.13 87.35C165.173 87.0181 165.173 86.6819 165.13 86.35C165.07 84.5519 164.88 82.7605 164.56 80.99C164.23 79.41 163.13 78.42 161.19 77.99C159.91 77.7006 158.602 77.5497 157.29 77.54C155.583 77.4762 153.881 77.7778 152.3 78.4245C150.719 79.0712 149.293 80.0482 148.12 81.29C147.9 81.6148 147.615 81.8902 147.283 82.0986C146.95 82.3069 146.578 82.4436 146.19 82.5C145.912 82.498 145.639 82.422 145.4 82.28C144.63 81.8006 143.912 81.2408 143.26 80.61C142.9 80.25 142.72 79.48 143.49 78.46C145.321 76.1442 147.784 74.4077 150.58 73.46C152.777 72.7735 155.068 72.4361 157.37 72.46C159.171 72.4473 160.969 72.6317 162.73 73.01C164.469 73.3072 166.081 74.1141 167.361 75.3282C168.641 76.5423 169.531 78.1091 169.92 79.83C170.327 81.4372 170.562 83.0831 170.62 84.74C170.9 91.17 170.62 107.98 170.62 108.14V108.79L169.91 108.8Z" fill="black"/>
<path d="M182.7 108.79C181.02 108.79 177.86 107.88 177.86 104.42V72.52H178.52C180.22 72.52 183.44 73.39 183.44 76.69V76.75H183.5C184.44 75.7821 185.494 74.9325 186.64 74.22C188.494 73.1159 190.623 72.5578 192.78 72.61C193.516 72.6098 194.251 72.6599 194.98 72.76C196.125 72.8601 197.254 73.102 198.34 73.48C198.746 73.5859 199.094 73.8484 199.308 74.21C199.522 74.5716 199.583 75.003 199.48 75.41C199.461 75.4814 199.438 75.5516 199.41 75.62C199.231 76.1472 198.99 76.6509 198.69 77.12V77.2C198.567 77.4699 198.371 77.6995 198.123 77.8623C197.875 78.0251 197.586 78.1145 197.29 78.12C196.926 78.1025 196.564 78.0489 196.21 77.96C195.059 77.6908 193.882 77.5499 192.7 77.54C191.333 77.5192 189.974 77.7638 188.7 78.26C187.606 78.7371 186.561 79.3199 185.58 80C184.852 80.4719 184.268 81.1345 183.89 81.9156C183.513 82.6968 183.357 83.5665 183.44 84.43V108.89L182.7 108.79Z" fill="black"/>
<path d="M208.71 108.28C207.04 108.28 203.87 107.45 203.87 104.28V72.42H204.55C205.169 72.4054 205.784 72.5128 206.361 72.7361C206.938 72.9594 207.465 73.2942 207.913 73.7214C208.361 74.1486 208.72 74.6597 208.97 75.2257C209.22 75.7917 209.356 76.4014 209.37 77.02C209.38 77.0863 209.38 77.1537 209.37 77.22V108.3L208.71 108.28Z" fill="black"/>
<path d="M225.25 108.28C223.64 108.28 220.61 107.45 220.61 104.28V78.28H216.56C215.73 78.28 215.29 77.35 215.29 76.68V74.08C215.29 73.39 215.71 73.01 216.56 73.01H220.61V63.15H221.27C222.88 63.15 225.92 63.75 225.92 67.08V73H233.82C234.98 73 235.22 73.55 235.22 74.07V76.7C235.215 77.0895 235.071 77.4644 234.814 77.7576C234.558 78.0508 234.205 78.243 233.82 78.3H225.92V108.3L225.25 108.28Z" fill="black"/>
<path d="M206.61 65.5C205.864 65.4941 205.136 65.2674 204.518 64.8484C203.901 64.4295 203.421 63.8371 203.139 63.1459C202.858 62.4547 202.787 61.6956 202.936 60.9643C203.086 60.2331 203.448 59.5624 203.978 59.0367C204.508 58.5111 205.181 58.154 205.914 58.0106C206.646 57.8672 207.404 57.9437 208.093 58.2307C208.782 58.5177 209.371 59.0022 209.785 59.6231C210.199 60.2441 210.42 60.9737 210.42 61.72C210.421 62.2193 210.323 62.7139 210.132 63.1751C209.941 63.6363 209.66 64.0549 209.305 64.4065C208.951 64.7582 208.53 65.036 208.067 65.2237C207.605 65.4114 207.109 65.5053 206.61 65.5" fill="black"/>
<path d="M320.25 98.3C320.25 105.61 314.7 108.42 308.32 108.42H305.5C299.07 108.42 294.89 105.25 293.83 99.7C293.69 99.07 294.04 98.63 294.75 98.63H296.51C296.762 98.6292 297.005 98.7235 297.19 98.8941C297.376 99.0646 297.49 99.2989 297.51 99.55V99.61C298.42 103.41 300.88 104.97 305.51 104.97H308.33C313.09 104.97 316.82 103.5 316.82 98.22C316.82 92.94 312.26 92.38 307.05 91.79C299.46 90.96 294.4 89.65 294.4 82.03C294.4 75.35 298.91 72.69 305.86 72.69H307.86C314.39 72.69 318.86 75.63 319.1 82.03C319.1 82.73 318.9 83.16 318.1 83.16H316.6C316.316 83.16 316.044 83.0473 315.843 82.8466C315.643 82.6459 315.53 82.3738 315.53 82.09V82C315.17 77.78 312.58 75.82 307.73 75.82H306C300.94 75.82 297.84 77.28 297.84 82.06C297.84 87.13 301.5 87.97 307.05 88.6C314.29 89.59 320.25 90.42 320.25 98.3Z" fill="black"/>
<path d="M329 72.92H330.34C330.461 72.9 330.584 72.9041 330.704 72.932C330.823 72.9599 330.936 73.0111 331.035 73.0827C331.134 73.1542 331.219 73.2447 331.283 73.3489C331.347 73.4531 331.391 73.5691 331.41 73.69C331.43 73.789 331.43 73.891 331.41 73.99V106.99C331.437 107.136 331.427 107.287 331.383 107.429C331.339 107.571 331.261 107.7 331.155 107.805C331.05 107.911 330.921 107.989 330.779 108.033C330.637 108.077 330.486 108.087 330.34 108.06H329C328.86 108.074 328.718 108.056 328.587 108.006C328.455 107.957 328.336 107.878 328.239 107.776C328.143 107.673 328.071 107.55 328.029 107.416C327.988 107.281 327.978 107.139 328 107V74C327.982 73.8792 327.987 73.7559 328.016 73.6372C328.045 73.5185 328.098 73.4068 328.17 73.3083C328.243 73.2099 328.334 73.1267 328.438 73.0635C328.543 73.0003 328.659 72.9583 328.78 72.94C328.852 72.9247 328.926 72.918 329 72.92V72.92ZM329.14 58.87H330.21C330.453 58.8442 330.697 58.9083 330.896 59.0502C331.095 59.192 331.235 59.4019 331.29 59.64C331.3 59.7397 331.3 59.8403 331.29 59.94V61.49C331.312 61.7356 331.243 61.9807 331.095 62.1782C330.947 62.3757 330.732 62.5117 330.49 62.56H329.14C329.019 62.58 328.896 62.5759 328.776 62.548C328.657 62.5201 328.544 62.4689 328.445 62.3973C328.346 62.3258 328.261 62.2353 328.197 62.1311C328.133 62.0269 328.089 61.9109 328.07 61.79C328.05 61.691 328.05 61.589 328.07 61.49V59.94C328.026 59.7 328.08 59.4524 328.218 59.2518C328.357 59.0511 328.57 58.9138 328.81 58.87C328.926 58.8494 329.044 58.8494 329.16 58.87H329.14Z" fill="black"/>
<path d="M367.49 74V110.13C367.49 118.21 362.49 122.13 352.94 122.13C350.835 122.196 348.73 121.984 346.68 121.5C346.27 121.44 346.05 121.22 346.05 120.87V118.73C346.05 118.31 346.27 118.09 346.68 118.17C348.731 118.649 350.835 118.861 352.94 118.8C359.76 118.8 364.05 117.32 364.05 110.23V102.72C362.57 106.24 359.68 108.42 354.49 108.42H352C344.69 108.42 339.55 103.71 339.55 95.48V85.48C339.55 77.11 344.69 72.68 352 72.68H354.53C359.72 72.68 362.61 74.51 364.09 77.95V74C364.069 73.8797 364.071 73.7564 364.098 73.6372C364.125 73.5179 364.175 73.4052 364.246 73.3056C364.316 73.206 364.406 73.1215 364.51 73.057C364.614 72.9925 364.729 72.9493 364.85 72.93C364.952 72.91 365.058 72.91 365.16 72.93H366.5C366.741 72.9076 366.981 72.9812 367.168 73.1347C367.356 73.2881 367.475 73.5092 367.5 73.75C367.506 73.8334 367.503 73.9173 367.49 74V74ZM364.05 95.79V85.64C364.05 79.1 360.83 76 354.98 76H351.98C346.14 76 342.91 79.16 342.91 85.64V95.77C342.91 101.77 346.13 105.04 351.98 105.04H354.98C360.81 105 364.05 101.81 364.05 95.77V95.79Z" fill="black"/>
<path d="M402 85.08V107C402.027 107.146 402.017 107.297 401.973 107.439C401.929 107.581 401.851 107.71 401.745 107.815C401.64 107.921 401.511 107.999 401.369 108.043C401.227 108.087 401.076 108.097 400.93 108.07H399.59C399.444 108.097 399.293 108.087 399.151 108.043C399.009 107.999 398.88 107.921 398.775 107.815C398.669 107.71 398.591 107.581 398.547 107.439C398.503 107.297 398.493 107.146 398.52 107V85.3C398.52 79.18 397.12 75.94 390.86 75.94H389.67C387.618 75.9108 385.593 76.4051 383.786 77.3762C381.978 78.3473 380.448 79.7631 379.34 81.49V107C379.36 107.121 379.356 107.244 379.328 107.364C379.3 107.483 379.249 107.596 379.177 107.695C379.106 107.794 379.015 107.879 378.911 107.943C378.807 108.007 378.691 108.051 378.57 108.07C378.471 108.09 378.369 108.09 378.27 108.07H376.94C376.82 108.091 376.696 108.089 376.577 108.062C376.458 108.035 376.345 107.985 376.246 107.914C376.146 107.844 376.062 107.754 375.997 107.65C375.933 107.546 375.889 107.431 375.87 107.31C375.85 107.208 375.85 107.102 375.87 107V74C375.852 73.8779 375.857 73.7533 375.887 73.6334C375.917 73.5135 375.97 73.4006 376.043 73.3013C376.117 73.2019 376.209 73.1179 376.315 73.0542C376.421 72.9905 376.538 72.9483 376.66 72.93H378.27C378.392 72.9115 378.517 72.9173 378.637 72.9471C378.757 72.9768 378.869 73.0299 378.969 73.1032C379.068 73.1766 379.152 73.2688 379.216 73.3747C379.279 73.4805 379.322 73.5978 379.34 73.72C379.35 73.8131 379.35 73.9069 379.34 74V78.43C380.538 76.6182 382.174 75.139 384.098 74.1301C386.021 73.1212 388.169 72.6155 390.34 72.66H390.91C399.19 72.64 402 76.86 402 85.08Z" fill="black"/>
<path d="M436.58 85.36V89.79C436.581 90.0719 436.527 90.3512 436.42 90.612C436.313 90.8728 436.156 91.1099 435.957 91.3097C435.758 91.5095 435.522 91.668 435.261 91.7762C435.001 91.8843 434.722 91.94 434.44 91.94H413V96.08C413 101.78 416.21 105.01 422.07 105.01H424.38C429.3 105.01 430.64 103.01 432.82 100.38C433.31 99.81 433.59 99.67 434.29 100.16L435.21 100.8C435.91 101.29 435.84 101.71 435.42 102.27C432.89 105.36 430.35 108.38 424.42 108.38H422C414.61 108.38 409.34 103.74 409.34 95.88V85.4C409.34 77.03 414.61 72.6 422 72.6H424.31C430.4 72.64 436.58 77.14 436.58 85.36ZM433 85.64C433 79.1 429.27 76 424.35 76H422C416.15 76 412.93 79.16 412.93 85.64V88.86H432.93L433 85.64Z" fill="black"/>
<path d="M462.16 76.51C461.009 76.1113 459.798 75.9183 458.58 75.94H457.73C455.678 75.9108 453.653 76.4051 451.846 77.3762C450.038 78.3473 448.508 79.7631 447.4 81.49V107C447.427 107.146 447.417 107.297 447.373 107.439C447.329 107.581 447.251 107.71 447.145 107.815C447.04 107.921 446.911 107.999 446.769 108.043C446.627 108.087 446.476 108.097 446.33 108.07H445C444.854 108.097 444.703 108.087 444.561 108.043C444.419 107.999 444.29 107.921 444.185 107.815C444.079 107.71 444.001 107.581 443.957 107.439C443.913 107.297 443.903 107.146 443.93 107V74C443.91 73.8791 443.914 73.7555 443.942 73.6363C443.97 73.517 444.021 73.4044 444.093 73.305C444.164 73.2056 444.255 73.1213 444.359 73.0569C444.463 72.9926 444.579 72.9494 444.7 72.93C444.799 72.9101 444.901 72.9101 445 72.93H446.34C446.461 72.91 446.584 72.9141 446.704 72.942C446.823 72.9699 446.936 73.0211 447.035 73.0927C447.134 73.1642 447.219 73.2547 447.283 73.3589C447.347 73.4631 447.391 73.5791 447.41 73.7C447.43 73.799 447.43 73.901 447.41 74V78.43C448.669 76.5652 450.386 75.0552 452.396 74.0448C454.406 73.0345 456.642 72.5576 458.89 72.66C460.43 72.6697 461.964 72.861 463.46 73.23C463.701 73.3044 463.906 73.4674 464.032 73.6863C464.158 73.9052 464.197 74.1638 464.14 74.41C464.128 74.4614 464.111 74.5116 464.09 74.56L463.52 76C463.438 76.2315 463.269 76.4214 463.047 76.5281C462.826 76.6349 462.572 76.65 462.34 76.57C462.278 76.5557 462.218 76.5357 462.16 76.51V76.51Z" fill="black"/>
<path d="M66.67 0L0 41.66L8.76 55.66L27.24 44.23V35.23H41.71L75.59 14.23L66.67 0ZM77.92 18L50.08 35.28H81.26L86.62 32L77.92 18ZM89 35.67L81.9 40V48.09H68.85L50.74 59.35H80.28L97.2 48.86L89 35.67ZM29.32 48.13L11.1 59.45L19.8 73.38L27.31 68.73V59.35H42.39L60.5 48.13H29.32ZM99.53 52.59L82 63.49V72.21H67.88L32.72 94L41.66 108.3L108.33 66.64L99.53 52.59ZM30 72.21L22.15 77.08L30.41 90.28L59.52 72.21H30Z" fill="black"/>
</g>
<defs>
<clipPath id="clip0_73_1402">
<rect width="464.16" height="122.13" fill="white"/>
</clipPath>
</defs>
</svg>
