<svg width="81" height="80" viewBox="0 0 81 80" fill="none" xmlns="http://www.w3.org/2000/svg">
<path d="M60.5002 28.3333H57.1668V21.6667C57.1668 12.4667 49.7002 5 40.5002 5C31.3002 5 23.8335 12.4667 23.8335 21.6667H30.5002C30.5002 16.1333 34.9668 11.6667 40.5002 11.6667C46.0335 11.6667 50.5002 16.1333 50.5002 21.6667V28.3333H20.5002C16.8335 28.3333 13.8335 31.3333 13.8335 35V68.3333C13.8335 72 16.8335 75 20.5002 75H60.5002C64.1668 75 67.1668 72 67.1668 68.3333V35C67.1668 31.3333 64.1668 28.3333 60.5002 28.3333ZM60.5002 68.3333H20.5002V35H60.5002V68.3333ZM40.5002 58.3333C44.1668 58.3333 47.1668 55.3333 47.1668 51.6667C47.1668 48 44.1668 45 40.5002 45C36.8335 45 33.8335 48 33.8335 51.6667C33.8335 55.3333 36.8335 58.3333 40.5002 58.3333Z" fill="#E6007A"/>
</svg>
