<svg width="56" height="56" viewBox="0 0 56 56" fill="none" xmlns="http://www.w3.org/2000/svg">
<rect width="56" height="56" fill="#D04A4C"/>
<path fill-rule="evenodd" clip-rule="evenodd" d="M28.041 15.2623L23.4088 12.0006H19.7644C19.5919 11.9932 19.4233 12.0529 19.294 12.1673C19.1646 12.2817 19.0848 12.4418 19.0711 12.6139V16.3472L22.747 18.9424L19 21.5472V31.3248C19.0093 30.6364 19.1741 29.9592 19.4819 29.3435C19.7897 28.7278 20.2327 28.1897 20.7777 27.7693L37.0886 16.3473V12.4895C37.0438 12.3443 36.9526 12.2178 36.829 12.1294C36.7052 12.0411 36.556 11.9958 36.4041 12.0006H32.7331L28.041 15.2623ZM37.0886 21.6004L34.0664 19.4849L28.7865 23.1737L33.5139 26.4794L28.0641 30.294L23.3466 26.987L20.7777 28.7647C19.933 29.4326 19.3507 30.3768 19.1333 31.4313L22.7866 33.9879L19.0356 36.6135V44L37.0886 31.3602V21.6094L37.0885 21.6252L37.0886 21.6004ZM34.0664 34.498L28.7865 38.1868L32.822 41.0045H36.3775C36.4807 41.0058 36.5832 40.9877 36.6797 40.9512C36.7543 40.9254 36.8235 40.8863 36.8841 40.8356C36.9499 40.7855 37.0032 40.721 37.0402 40.647C37.0772 40.5731 37.0968 40.4917 37.0974 40.409V36.6046L34.0664 34.498Z" fill="white"/>
</svg>
