<svg width="56" height="56" viewBox="0 0 56 56" fill="none" xmlns="http://www.w3.org/2000/svg">
<rect width="56" height="56" fill="#C9256F"/>
<path fill-rule="evenodd" clip-rule="evenodd" d="M31.1493 8.07345C31.1392 8.04816 31.1276 8.03013 31.1143 8.01978C30.6481 7.65716 25.9995 12.2983 22.2298 20.4605C22.6946 21.9465 23.971 24.5301 25.3199 26.9707C25.6309 27.5333 25.9451 28.0875 26.2535 28.6177C26.4605 24.8117 26.7407 20.7585 27.0776 18.5517C27.4569 16.0671 28.5275 13.3591 29.4985 11.2784C29.9847 10.2367 30.4473 9.34945 30.7884 8.72252C30.9329 8.45679 31.0557 8.23774 31.1493 8.07345ZM26.552 28.7636C26.5521 28.763 26.5521 28.7624 26.5521 28.7618C28.2002 27.1042 29.8714 25.2287 31.8327 22.4246C40.3781 21.7293 46.7768 24.5891 47.402 25.4241C44.8964 25.2476 41.6752 25.0601 37.6441 25.5207C36.5586 25.6448 35.274 25.9791 33.8329 26.4209C32.9013 26.7064 31.8988 27.0386 30.8388 27.39L30.8363 27.3909L30.8331 27.3919C30.2557 27.5833 29.6611 27.7804 29.0515 27.9786C28.2446 28.241 27.4102 28.506 26.552 28.7636ZM26.2234 29.1807C26.2118 29.184 26.2004 29.1874 26.189 29.1908L26.1644 29.198L26.144 29.2039C26.127 29.209 26.1099 29.214 26.0929 29.219C25.5378 29.7663 24.9824 30.2964 24.4166 30.8366C23.4862 31.7248 22.5275 32.6399 21.4951 33.7032C20.4847 34.7437 19.0853 36.7867 17.7532 39.2715C16.5136 41.5839 15.3382 44.2677 14.5926 46.8631C14.8142 46.6883 15.2388 46.2217 15.8103 45.5935C16.8027 44.5028 18.2383 42.9248 19.8255 41.5403C22.4382 39.2611 25.3541 37.5878 25.8657 37.3008C25.8682 37.2325 25.8709 37.1558 25.8739 37.0712C25.8883 36.6731 25.9097 36.0992 25.9377 35.3951C25.9937 33.9869 26.0762 32.0579 26.1821 29.9749C26.1955 29.7124 26.2092 29.4474 26.2234 29.1807ZM26.1679 37.4122C26.1711 37.3218 26.175 37.2112 26.1796 37.0822C26.194 36.6846 26.2154 36.111 26.2433 35.4073C26.2993 33.9998 26.3818 32.072 26.4877 29.9904C26.4935 29.8761 26.4994 29.7612 26.5054 29.6461C26.7131 29.9926 26.9156 30.3235 27.1097 30.6339C27.7403 31.6416 28.2881 32.4399 28.6441 32.8415C31.7471 36.3419 34.2489 39.4601 36.0248 42.0811C37.6875 44.5352 38.7015 46.5363 38.9894 48C38.818 47.997 38.6715 47.7988 38.3894 47.4171C37.9205 46.783 37.0773 45.6423 35.1226 44.049C31.9159 41.4351 27.2378 38.1568 26.1679 37.4122ZM26.5774 28.3011C26.7823 24.5944 27.0553 20.725 27.3801 18.5979C27.7527 16.1568 28.8085 13.4802 29.7758 11.4078C30.2587 10.3729 30.7183 9.4914 31.057 8.86874C31.1085 8.77434 31.157 8.68589 31.2025 8.60377C31.2054 9.22177 31.1224 10.2612 31.0291 11.4304C30.91 12.9221 30.7741 14.625 30.7783 15.9329C30.7805 16.6178 30.9877 18.0604 31.1859 19.4399C31.3537 20.6073 31.5148 21.7298 31.5398 22.3094C29.7024 24.9296 28.1262 26.7249 26.5774 28.3011ZM8.11437 20.6802C9.31011 20.0045 18.4946 19.9932 22.0015 20.7474C22.522 22.2912 23.762 24.7843 25.0522 27.1186C25.3617 27.6788 25.6747 28.2308 25.9819 28.7593C24.225 28.0731 22.7462 27.2964 20.8518 26.3016L20.8483 26.2996C20.4957 26.1145 20.1286 25.9218 19.7428 25.7206L19.7389 25.7186L19.735 25.7169C19.0724 25.4176 18.305 25.056 17.4636 24.6594C14.7708 23.3904 11.3191 21.7637 8.11437 20.6802ZM34.8741 31.3945C39.2504 38.6546 39.1904 44.794 39.0786 47.1371C38.6239 45.7198 37.6655 43.9572 36.2781 41.9095C34.4919 39.2731 31.9806 36.1441 28.873 32.6384C28.536 32.2584 28.0002 31.4803 27.369 30.4716C27.1499 30.1212 26.9199 29.7442 26.6835 29.3478C28.695 30.0657 31.1431 30.6971 34.8741 31.3945ZM25.4725 29.3978C22.9968 30.0998 20.3397 30.7112 17.5849 31.0118C16.5956 33.1794 15.6806 35.7134 15.1446 38.0831C14.5778 40.5886 14.2875 45.1836 14.3663 46.5464C15.1217 43.9977 16.2735 41.3841 17.4835 39.1269C18.8209 36.6324 20.2362 34.5605 21.2755 33.4901C22.3207 32.4137 23.286 31.4923 24.2195 30.6011C24.6422 30.1977 25.0584 29.8004 25.4725 29.3978ZM20.7067 26.5709C22.5595 27.5441 24.0308 28.3168 25.7548 28.9988C23.1851 29.7416 20.419 30.395 17.5492 30.7081C17.1776 30.1686 15.8191 28.3077 13.6149 26.5184C11.1387 24.5084 8.23291 21.9512 8 20.9645C11.1899 22.0413 14.6236 23.6594 17.3198 24.93L17.3207 24.9305C18.1645 25.3281 18.936 25.6916 19.6051 25.9939C19.989 26.194 20.3547 26.3861 20.7067 26.5709ZM29.1462 28.2695C28.3616 28.5247 27.55 28.7826 26.715 29.0342C28.7158 29.754 31.1562 30.3877 34.9139 31.0907C35.537 30.6691 37.9253 29.1073 40.752 27.9564C43.0308 26.9929 44.7056 26.6104 45.8107 26.358C46.7377 26.1464 47.264 26.0262 47.41 25.7314C44.9045 25.5546 41.6971 25.3654 37.6789 25.8246C36.6228 25.9453 35.3604 26.2726 33.9227 26.7134C32.9942 26.9979 31.9979 27.3282 30.9406 27.6785C30.3607 27.8708 29.7617 28.0693 29.1462 28.2695Z" fill="white"/>
</svg>
