<svg width="56" height="56" viewBox="0 0 56 56" fill="none" xmlns="http://www.w3.org/2000/svg">
<rect width="56" height="56" fill="#434852"/>
<path fill-rule="evenodd" clip-rule="evenodd" d="M46.2487 28.003L43.4978 23.275H35.8769L39.6904 16.7281L36.9395 12H31.4378L27.6243 18.547L23.8168 12.006H18.3152L15.5644 16.7341L19.3779 23.281H11.7569L9 28.003L11.7508 32.7311H19.3718L15.5583 39.278L18.3092 44H23.8108L27.6243 37.453L31.4378 44H31.4925H36.9395L39.6904 39.278L35.8769 32.7311H43.4978L46.2487 28.003ZM38.2998 16.7281L34.4862 23.275H31.0735L36.5934 13.8009L38.2998 16.7281ZM32.1302 13.1986H35.5428L30.023 22.6788L28.3166 19.7455L32.1302 13.1986ZM29.3307 23.8773L27.6243 26.8105L21.7583 16.7341L23.4647 13.8009L29.3307 23.8773ZM16.955 16.7281L19.0075 13.1986H22.4202L20.3677 16.7281L26.5798 27.4007H23.1672L16.955 16.7281ZM12.4492 24.4736H20.0701L21.7765 27.4067H10.7428L12.4492 24.4736ZM12.4492 31.5324L10.7428 28.5993H21.7765L20.0701 31.5324H12.4492ZM23.1672 28.5993H26.5798L20.7139 38.6757H17.3011L23.1672 28.5993ZM23.1185 42.8075H19.0075L17.3011 39.8743H21.4121L27.6243 29.2015L29.3307 32.1348L23.1185 42.8075ZM32.1302 42.8075L28.3166 36.2605L30.023 33.3273L35.5428 42.8075H32.1302ZM38.2998 39.278L36.5934 42.2052L31.0735 32.725H34.4862L38.2998 39.278ZM30.3752 31.5324L28.6688 28.5993H40.4008L42.1072 31.5324H30.3752ZM41.0992 27.4067H41.0445H28.6748L30.3812 24.4736H42.8116L44.8642 28.003L43.1517 30.9362L41.0992 27.4067Z" fill="white"/>
</svg>
