<svg width="40" height="40" viewBox="0 0 40 40" fill="none" xmlns="http://www.w3.org/2000/svg">
<path fill-rule="evenodd" clip-rule="evenodd" d="M25.1876 39.3207C23.5332 39.7637 21.7942 40 20 40C8.9543 40 0 31.0457 0 20C0 8.9543 8.9543 0 20 0C31.0457 0 40 8.9543 40 20C40 21.7942 39.7637 23.5332 39.3207 25.1876C37.4949 23.2265 34.8907 22 32 22C26.4772 22 22 26.4772 22 32C22 34.8907 23.2265 37.4949 25.1876 39.3207ZM20 10C16.13 10 13 13.13 13 17C13 22.25 20 30 20 30C20 30 27 22.25 27 17C27 13.13 23.87 10 20 10ZM15 17C15 14.24 17.24 12 20 12C22.76 12 25 14.24 25 17C25 19.88 22.12 24.19 20 26.88C17.92 24.21 15 19.85 15 17ZM20 19.5C21.3807 19.5 22.5 18.3807 22.5 17C22.5 15.6193 21.3807 14.5 20 14.5C18.6193 14.5 17.5 15.6193 17.5 17C17.5 18.3807 18.6193 19.5 20 19.5Z" fill="#48CC81"/>
<path fill-rule="evenodd" clip-rule="evenodd" d="M32 40C36.4183 40 40 36.4183 40 32C40 27.5817 36.4183 24 32 24C27.5817 24 24 27.5817 24 32C24 36.4183 27.5817 40 32 40ZM28.3125 31.8534L30.3975 33.9384L35.6925 28.6484L36.3975 29.3534L30.3975 35.3534L27.6025 32.5584L28.3125 31.8534Z" fill="#48CC81"/>
</svg>
