<svg width="56" height="56" viewBox="0 0 56 56" fill="none" xmlns="http://www.w3.org/2000/svg">
<rect width="56" height="56" fill="#7DAF10"/>
<path fill-rule="evenodd" clip-rule="evenodd" d="M29.9558 11.2788L26.0451 18.0551C25.853 18.3873 25.5769 18.6631 25.2446 18.8549C24.9122 19.0466 24.5353 19.1476 24.1515 19.1476C23.7678 19.1476 23.3908 19.0466 23.0584 18.8549C22.726 18.6631 22.45 18.3873 22.2579 18.0551L22.1951 17.9458C24.3747 14.1697 25.158 12.8136 26.9314 9.74364L27.9387 8H28.0622C28.446 7.9997 28.8232 8.1005 29.1556 8.29226C29.4882 8.48402 29.7643 8.75998 29.9563 9.09235C30.1482 9.42473 30.2492 9.80181 30.2491 10.1856C30.249 10.5695 30.1478 10.9465 29.9558 11.2788ZM21.3347 12.5406V20.3638C21.3345 20.7477 21.2334 21.1249 21.0414 21.4572C20.8494 21.7897 20.5732 22.0657 20.2407 22.2576C19.9083 22.4495 19.5311 22.5504 19.1472 22.5504C18.7633 22.5504 18.3862 22.4494 18.0537 22.2575L17.9464 22.1946V10.7098L18.0537 10.647C18.3862 10.4551 18.7633 10.354 19.1472 10.354C19.5311 10.3539 19.9083 10.455 20.2407 10.6468C20.5732 10.8387 20.8494 11.1148 21.0414 11.4472C21.2334 11.7796 21.3345 12.1567 21.3347 12.5406ZM38.0543 14.4968L31.2901 18.4075C30.9576 18.6025 30.5795 18.7062 30.1941 18.7078C29.8086 18.7096 29.4295 18.6094 29.0954 18.4172C28.7611 18.2251 28.4837 17.9482 28.2912 17.6142C28.0987 17.2803 27.9979 16.9014 27.9991 16.5159V16.3903L37.9449 10.6469L38.0543 10.7097C38.3871 10.9014 38.6635 11.1773 38.8556 11.5097C39.0478 11.8421 39.1489 12.2193 39.1489 12.6033C39.1489 12.9872 39.0478 13.3644 38.8556 13.6968C38.6635 14.0293 38.3871 14.3051 38.0543 14.4968ZM38.0541 22.1942L37.9447 22.257C37.6126 22.449 37.3367 22.7251 37.1449 23.0575C36.9531 23.3898 36.8522 23.7669 36.8522 24.1505C36.8522 24.5342 36.9531 24.9113 37.1449 25.2436C37.3367 25.576 37.6126 25.8521 37.9447 26.0442L44.7211 29.9548C45.0534 30.1468 45.4304 30.248 45.8143 30.2481C46.1981 30.2482 46.5753 30.1471 46.9076 29.9552C47.24 29.7632 47.5159 29.4872 47.7077 29.1546C47.8995 28.8221 48.0003 28.445 48 28.0612V27.9357L38.0541 22.1942ZM11.2788 26.0441L18.0553 29.9547C18.3874 30.1468 18.6633 30.4229 18.8551 30.7552C19.0469 31.0876 19.1477 31.4645 19.1477 31.8483C19.1477 32.232 19.0469 32.6089 18.8551 32.9413C18.6633 33.2737 18.3874 33.5498 18.0553 33.7418L17.9459 33.8046L8 28.0612V27.9377C7.9997 27.5538 8.1005 27.1766 8.29227 26.8442C8.48403 26.5117 8.75999 26.2355 9.09237 26.0436C9.42476 25.8516 9.80184 25.7507 10.1857 25.7508C10.5695 25.7508 10.9465 25.8519 11.2788 26.0441ZM34.6661 35.6356V43.459C34.6664 43.8426 34.7676 44.2193 34.9595 44.5515C35.1514 44.8835 35.4272 45.1594 35.7595 45.3513C36.0916 45.5431 36.4684 45.6442 36.8519 45.6444C37.2356 45.6446 37.6125 45.544 37.9449 45.3525L38.0542 45.2898V33.8049L37.9449 33.7421C37.6126 33.55 37.2355 33.4488 36.8517 33.4487C36.4678 33.4487 36.0908 33.5497 35.7584 33.7416C35.4261 33.9336 35.1501 34.2098 34.9583 34.5422C34.7665 34.8747 34.6658 35.2518 34.6661 35.6356ZM17.9455 41.5032L24.7198 37.5925C25.0519 37.4005 25.4288 37.2993 25.8125 37.2991C26.1962 37.299 26.5731 37.3998 26.9053 37.5916C27.2377 37.7833 27.5137 38.0591 27.7056 38.3913C27.8976 38.7235 27.9985 39.1004 27.9986 39.4841V39.6096L18.0528 45.353L17.9455 45.2903C17.6127 45.0986 17.3363 44.8226 17.1442 44.4903C16.952 44.1578 16.8508 43.7807 16.8508 43.3967C16.8508 43.0127 16.952 42.6355 17.1442 42.3032C17.3363 41.9707 17.6127 41.6948 17.9455 41.5032ZM37.5909 31.2895L41.5036 38.0637C41.6952 38.3965 41.9711 38.6728 42.3036 38.8649C42.6359 39.057 43.0132 39.1582 43.3971 39.1582C43.7811 39.1582 44.1583 39.057 44.4907 38.8649C44.8232 38.6728 45.0991 38.3965 45.2907 38.0637L45.3536 37.9544C43.0103 33.8997 42.28 32.6345 40.2043 29.0383L40.2022 29.0346L39.61 28.0086H39.4844C39.1005 28.0087 38.7234 28.1099 38.391 28.3019C38.0586 28.4939 37.7825 28.77 37.5906 29.1025C37.3988 29.435 37.2978 29.8122 37.2978 30.1959C37.2978 30.5798 37.3989 30.957 37.5909 31.2895ZM43.4602 21.3343H35.6368C35.2529 21.3342 34.8757 21.233 34.5434 21.041C34.2109 20.849 33.9349 20.5729 33.743 20.2404C33.5511 19.9079 33.4501 19.5308 33.4501 19.1469C33.4502 18.7631 33.5512 18.386 33.7432 18.0535L33.8059 17.9462H45.291L45.3538 18.0535C45.5458 18.386 45.6468 18.7631 45.6469 19.1469C45.6469 19.5308 45.5459 19.9079 45.354 20.2404C45.1621 20.5729 44.886 20.849 44.5536 21.041C44.2212 21.233 43.8441 21.3342 43.4602 21.3343ZM33.8061 38.0543L33.7433 37.9449C33.5513 37.6128 33.2752 37.3369 32.9429 37.1451C32.6104 36.9534 32.2335 36.8525 31.8498 36.8525C31.466 36.8525 31.089 36.9534 30.7567 37.1451C30.4243 37.3369 30.1482 37.6128 29.9562 37.9449L26.0454 44.7212C25.8533 45.0535 25.7522 45.4305 25.7521 45.8144C25.752 46.1982 25.853 46.5753 26.045 46.9076C26.237 47.24 26.513 47.5161 26.8456 47.7077C27.1781 47.8995 27.5552 48.0003 27.939 48H28.0625L29.0704 46.2554C30.8434 43.1861 31.6268 41.8299 33.8061 38.0543ZM20.3649 34.6653H12.5415C12.1579 34.6657 11.7811 34.7669 11.449 34.9588C11.1168 35.1507 10.841 35.4266 10.6492 35.7588C10.4574 36.0909 10.3562 36.4677 10.356 36.8513C10.3558 37.2349 10.4564 37.6117 10.6479 37.9442L10.7107 38.0535H22.1957L22.2585 37.9442C22.45 37.6117 22.5505 37.2349 22.5503 36.8513C22.5501 36.4677 22.449 36.0909 22.2571 35.7588C22.0654 35.4266 21.7895 35.1507 21.4574 34.9588C21.1253 34.7669 20.7485 34.6657 20.3649 34.6653ZM14.4976 17.9461L18.4083 24.7203C18.6003 25.0525 18.7015 25.4293 18.7016 25.813C18.7018 26.1967 18.6009 26.5736 18.4092 26.9059C18.2176 27.2382 17.9417 27.5142 17.6095 27.7061C17.2773 27.898 16.9004 27.9991 16.5167 27.9992H16.3912L10.6476 18.0534L10.7104 17.9461C10.902 17.6133 11.178 17.337 11.5104 17.1448C11.8428 16.9527 12.22 16.8515 12.604 16.8515C12.988 16.8515 13.3652 16.9527 13.6976 17.1448C14.03 17.337 14.306 17.6133 14.4976 17.9461Z" fill="white"/>
</svg>
