<svg width="56" height="56" viewBox="0 0 56 56" fill="none" xmlns="http://www.w3.org/2000/svg">
<rect width="56" height="56" fill="#1A98F1"/>
<path d="M18.7219 17.7243C18.7219 19.145 19.0265 20.4944 19.574 21.711C21.3702 19.1325 24.2495 17.3649 27.5527 17.0671C25.8108 14.7078 23.0279 13.1641 19.882 13.114C19.1419 14.486 18.7219 16.0562 18.7219 17.7243Z" fill="white"/>
<path d="M18.5599 23.5076C15.5762 23.8637 13.0072 25.5709 11.4824 28C13.0154 30.442 15.6036 32.1545 18.6077 32.498C17.9731 31.1132 17.6192 29.5729 17.6192 27.9499C17.6192 26.3681 17.9553 24.8649 18.5599 23.5076Z" fill="white"/>
<path d="M10.8408 29.2015C10.3004 30.4114 10 31.752 10 33.1628C10 38.1192 13.7081 42.2096 18.5015 42.8109C17.8705 41.4295 17.5188 39.8936 17.5188 38.2756C17.5188 36.6414 17.8775 35.091 18.5206 33.6988C15.3592 33.3523 12.6034 31.6574 10.8408 29.2015Z" fill="white"/>
<path d="M10.8408 26.7985C10.3004 25.5885 10 24.2479 10 22.8371C10 17.8807 13.7081 13.7904 18.5015 13.189C17.8705 14.5705 17.5188 16.1064 17.5188 17.7244C17.5188 19.3586 17.8775 20.909 18.5206 22.3012C15.3592 22.6476 12.6034 24.3425 10.8408 26.7985Z" fill="white"/>
<path d="M20.6061 23.478C22.1683 25.6032 24.574 27.07 27.3297 27.385C27.2426 27.1953 27.1609 27.0026 27.0847 26.8073C25.4817 24.9526 23.1894 23.7101 20.6061 23.478Z" fill="white"/>
<path d="M26.4776 24.5719C24.8459 23.2875 22.8395 22.4578 20.6493 22.2743C22.1898 20.1345 24.5787 18.6462 27.3235 18.3018C26.6924 19.6833 26.3407 21.2192 26.3407 22.8372C26.3407 23.4276 26.3875 24.007 26.4776 24.5719Z" fill="white"/>
<path d="M28.4965 26.6458C28.3807 26.4902 28.2608 26.3377 28.1371 26.1886C27.7536 25.1439 27.5442 24.015 27.5442 22.8372C27.5442 21.3321 27.886 19.9069 28.4965 18.6349C29.1069 19.9069 29.4489 21.3321 29.4489 22.8372C29.4489 24.015 29.2395 25.1439 28.856 26.1886C28.7321 26.3377 28.6123 26.4902 28.4965 26.6458Z" fill="white"/>
<path d="M29.9082 29.1926C29.8336 29.0016 29.7538 28.8131 29.6691 28.6274C32.3759 28.9671 34.7366 30.4192 36.279 32.5117C33.7396 32.2551 31.4888 31.0215 29.9082 29.1926Z" fill="white"/>
<path d="M28.856 29.8116C28.7321 29.6624 28.6123 29.51 28.4965 29.3543C28.3806 29.51 28.2608 29.6624 28.1371 29.8115C27.7535 30.8563 27.5442 31.9851 27.5442 33.1629C27.5442 34.668 27.886 36.0932 28.4965 37.3652C29.1069 36.0932 29.4489 34.668 29.4489 33.1629C29.4489 31.9852 29.2395 30.8563 28.856 29.8116Z" fill="white"/>
<path d="M29.7108 37.6053C30.3154 36.2481 30.6515 34.7448 30.6515 33.163C30.6515 32.5726 30.6046 31.9933 30.5146 31.4283C32.1526 32.7177 34.1684 33.5487 36.3685 33.728C34.8149 35.8279 32.4359 37.28 29.7108 37.6053Z" fill="white"/>
<path d="M28.4965 39.6802C30.3025 42.107 33.0918 43.7587 36.2747 44.0456C34.5038 46.4443 31.6568 48 28.4464 48C25.2397 48 22.3955 46.4478 20.624 44.0538C23.8461 43.7912 26.6727 42.1309 28.4965 39.6802Z" fill="white"/>
<path d="M27.6213 38.8386C25.8845 41.251 23.0695 42.8353 19.882 42.886C19.1419 41.5139 18.7219 39.9439 18.7219 38.2757C18.7219 36.8314 19.0367 35.4606 19.6016 34.2282C21.4122 36.803 24.3064 38.5607 27.6213 38.8386Z" fill="white"/>
<path d="M18.8223 27.9498C18.8223 29.3272 19.1087 30.6377 19.6252 31.8251C20.8952 30.0912 22.6642 28.7456 24.7206 27.9999C22.6495 27.2488 20.87 25.8894 19.598 24.1374C19.0987 25.3081 18.8223 26.5967 18.8223 27.9498Z" fill="white"/>
<path d="M20.7182 33.72C22.2515 35.7968 24.5917 37.2418 27.2758 37.5921C26.6748 36.2382 26.3409 34.7396 26.3409 33.163C26.3409 32.5726 26.3877 31.9933 26.4779 31.4283C24.8633 32.6993 22.8816 33.5249 20.7182 33.72Z" fill="white"/>
<path d="M37.0113 42.8839C33.8679 42.8024 31.0957 41.2293 29.3765 38.8462C32.6565 38.5998 35.5326 36.9054 37.3675 34.4005C37.884 35.5877 38.1703 36.8983 38.1703 38.2757C38.1703 39.9431 37.7507 41.5124 37.0113 42.8839Z" fill="white"/>
<path d="M45.5101 28C43.9953 30.4134 41.4498 32.114 38.4909 32.4853C39.122 31.1038 39.4736 29.5679 39.4736 27.95C39.4736 26.3733 39.1397 24.8747 38.5388 23.5209C41.4773 23.9044 44.0035 25.5998 45.5101 28Z" fill="white"/>
<path d="M38.2708 27.95C38.2708 26.5293 37.9662 25.1798 37.4186 23.9632C36.1396 25.7994 34.3114 27.2242 32.172 28.0001C34.296 28.7704 36.1134 30.1805 37.391 31.9975C37.956 30.7651 38.2708 29.3943 38.2708 27.95Z" fill="white"/>
<path d="M38.1704 17.7244C38.1704 19.0775 37.8942 20.3661 37.3948 21.5367C35.5741 19.029 32.7133 17.3253 29.4459 17.0592C31.1698 14.7292 33.91 13.1966 37.0114 13.1162C37.7509 14.4877 38.1704 16.057 38.1704 17.7244Z" fill="white"/>
<path d="M36.4381 22.2666C34.8775 20.1033 32.4492 18.6075 29.6632 18.289C30.298 19.6737 30.6519 21.2141 30.6519 22.837C30.6519 23.4275 30.605 24.0068 30.5149 24.5718C32.1701 23.2688 34.211 22.4339 36.4381 22.2666Z" fill="white"/>
<path d="M27.0847 29.1926C25.4817 31.0473 23.1894 32.2898 20.6061 32.5219C22.1683 30.3967 24.574 28.9299 27.3297 28.6148C27.2426 28.8046 27.1609 28.9972 27.0847 29.1926Z" fill="white"/>
<path d="M29.6691 27.3726C29.7538 27.187 29.8336 26.9985 29.9082 26.8075C31.4888 24.9786 33.7396 23.745 36.279 23.4884C34.7366 25.5808 32.3759 27.033 29.6691 27.3726Z" fill="white"/>
<path d="M28.4964 16.3198C30.3024 13.893 33.0917 12.2413 36.2746 11.9543C34.5037 9.5557 31.6567 8 28.4463 8C25.2396 8 22.3954 9.55222 20.624 11.9463C23.846 12.2088 26.6726 13.8691 28.4964 16.3198Z" fill="white"/>
<path d="M46.1518 29.2015C44.3714 31.6821 41.5778 33.3864 38.3764 33.7088C39.0165 35.0984 39.3735 36.6454 39.3735 38.2756C39.3735 39.8985 39.0197 41.4389 38.3849 42.8237C43.2296 42.2698 46.9925 38.1557 46.9925 33.1628C46.9925 31.752 46.6921 30.4114 46.1518 29.2015Z" fill="white"/>
<path d="M46.9925 22.837C46.9925 24.2478 46.6921 25.5884 46.1518 26.7984C44.3714 24.3178 41.5778 22.6134 38.3764 22.291C39.0165 20.9014 39.3735 19.3545 39.3735 17.7243C39.3735 16.1013 39.0197 14.5609 38.3849 13.1761C43.2296 13.73 46.9925 17.8441 46.9925 22.837Z" fill="white"/>
</svg>
