<svg width="56" height="56" viewBox="0 0 56 56" fill="none" xmlns="http://www.w3.org/2000/svg">
<rect width="56" height="56" fill="#E79317"/>
<path fill-rule="evenodd" clip-rule="evenodd" d="M16.9434 12.3806C19.7986 9.57574 23.6711 8 27.709 8L27.7224 8.00712C29.9807 8.01098 32.2098 8.50775 34.2487 9.46151C36.2875 10.4153 38.0851 11.8022 39.5117 13.5219C40.9381 15.2417 41.9576 17.2514 42.4967 19.4057C43.0357 21.5599 43.0807 23.8049 42.6285 25.9784L41.7103 26.5946C38.5935 28.6935 33.5441 28.6935 30.4273 26.5946L29.3094 25.8401L27.2453 24.4511C23.7858 22.1224 18.1775 22.1224 14.7201 24.4511L12.7534 25.7729C12.5743 24.8443 12.4841 23.9014 12.4842 22.9562C12.4842 18.9896 14.0882 15.1854 16.9434 12.3806ZM30.1261 30.2177C31.7782 31.3312 33.9715 31.9413 36.2655 31.9413C38.5593 31.9413 40.7445 31.3333 42.4038 30.2167L43.6118 29.4032C43.8072 29.2718 43.9414 29.0694 43.9848 28.8408C44.0283 28.6121 43.9775 28.3759 43.8437 28.184C43.7098 27.9921 43.5039 27.8603 43.2712 27.8176C43.0384 27.7749 42.7979 27.8247 42.6025 27.9562L41.3945 28.7697C39.8505 29.6983 38.0753 30.1897 36.2649 30.1897C34.4545 30.1897 32.6793 29.6983 31.1353 28.7697L27.9565 26.6291C26.1377 25.4039 23.7383 24.7307 21.1949 24.7307C18.6515 24.7307 16.2521 25.4089 14.4344 26.6291L12.3776 28.0121C12.1861 28.1451 12.0554 28.3469 12.0141 28.5737C11.9726 28.8006 12.0237 29.0343 12.1562 29.2245C12.2888 29.4146 12.4921 29.5459 12.7224 29.5901C12.9527 29.6341 13.1913 29.5874 13.3869 29.4601L15.4437 28.0773C16.9654 27.0461 19.0097 26.4827 21.1949 26.4827C23.3801 26.4827 25.4245 27.0491 26.9472 28.0773L30.1261 30.2177ZM21.1287 38.2225V29.7733C21.1221 29.5953 21.1301 29.4171 21.1525 29.2405C21.1792 29.008 21.2921 28.7933 21.4696 28.6375C21.6472 28.4816 21.877 28.3954 22.1152 28.3954C22.3463 28.4011 22.5672 28.4905 22.7353 28.6465C22.9034 28.8025 23.007 29.0141 23.0261 29.2405C23.0626 29.5338 23.0734 29.8298 23.0582 30.125V46.9748C23.0064 47.6001 22.6079 48.011 22.0717 47.9998C21.5354 47.9886 21.1483 47.5605 21.1453 46.927V41.3097L21.1287 38.2225ZM19.3202 38.1687V33.9699L19.3203 33.2698C19.3207 32.103 19.3209 30.9363 19.3141 29.7703C19.311 29.0351 18.9735 28.5887 18.4051 28.5613C17.8369 28.5338 17.4011 29.029 17.4011 29.7642V38.1595C17.4042 38.8449 17.8224 39.3299 18.3762 39.3462C18.9299 39.3625 19.3202 38.8866 19.3202 38.1687ZM24.8737 33.9638V31.0149C24.8737 30.3305 25.2433 29.8882 25.7939 29.8882C26.3447 29.8882 26.769 30.3448 26.7743 30.9895C26.7963 32.9987 26.7963 35.0071 26.7743 37.0144C26.7743 37.6987 26.3602 38.1106 25.8002 38.1045C25.2402 38.0984 24.8737 37.6794 24.8686 36.9778V33.9617L24.8737 33.9638ZM13.6736 31.629V34.5779L13.6685 34.5749V37.5919C13.6685 38.2936 14.039 38.7126 14.6 38.7186C15.161 38.7247 15.5751 38.3129 15.5751 37.6286C15.5937 35.6213 15.5937 33.6129 15.5751 31.6035C15.5689 30.9589 15.1456 30.5023 14.5949 30.5023C14.0442 30.5023 13.6736 30.9447 13.6736 31.629ZM29.5443 32.0654H29.5411C29.0203 32.0654 28.5982 32.4801 28.5982 32.9918V34.5984C28.5982 35.1101 29.0203 35.5248 29.5411 35.5248H29.5443C30.0651 35.5248 30.4873 35.1101 30.4873 34.5984V32.9918C30.4873 32.4801 30.0651 32.0654 29.5443 32.0654ZM33.2801 33.4717H33.2832C33.804 33.4717 34.2263 33.8864 34.2263 34.3981V43.4034C34.2263 43.9151 33.804 44.3298 33.2832 44.3298H33.2801C32.7593 44.3298 32.3371 43.9151 32.3371 43.4034V34.3981C32.3371 33.8864 32.7593 33.4717 33.2801 33.4717ZM36.9962 33.8203H36.9931C36.4723 33.8203 36.0501 34.2351 36.0501 34.7467V42.4008C36.0501 42.9123 36.4723 43.3272 36.9931 43.3272H36.9962C37.517 43.3272 37.9392 42.9123 37.9392 42.4008V34.7467C37.9392 34.2351 37.517 33.8203 36.9962 33.8203ZM40.7579 32.9469H40.761C41.2818 32.9469 41.7041 33.3617 41.7041 33.8733V37.1751C41.7041 37.6867 41.2818 38.1015 40.761 38.1015H40.7579C40.2371 38.1015 39.815 37.6867 39.815 37.1751V33.8733C39.815 33.3617 40.2371 32.9469 40.7579 32.9469Z" fill="white"/>
</svg>
