<svg width="56" height="56" viewBox="0 0 56 56" fill="none" xmlns="http://www.w3.org/2000/svg">
<rect width="56" height="56" fill="white"/>
<path fill-rule="evenodd" clip-rule="evenodd" d="M37.1527 21.4688C37.1491 21.4783 37.1391 21.484 37.123 21.4863C37.1611 21.5724 37.1724 21.6379 37.1528 21.6781C37.0665 21.8552 36.4309 21.5558 35.4305 21.0844C35.2432 20.9961 35.0429 20.9018 34.8312 20.8034C32.6175 20.1786 29.2704 19.588 26.8367 21.3073C24.536 23.207 23.7109 26.333 24.536 29.0807C24.982 30.5647 25.1983 31.1721 25.9304 32.2179C26.4672 32.9849 27.2202 33.8215 28.2659 34.414C28.5044 34.5901 31.7078 36.5197 35.5977 36.0618C41.7158 35.3422 46.4556 27.3091 46.4556 27.3091C46.4556 27.3091 45.3519 29.6848 45.25 29.9016C42.2953 36.1903 37.3856 37.8664 37.3856 37.8664C34.9214 38.7077 32.456 38.4659 30.6896 38.0521L30.7612 38.0752L30.8338 38.0985C33.5082 38.9202 36.3706 38.8939 39.0296 38.0231C41.0888 37.3565 42.7583 36.2422 43.7635 35.5715C44.3556 35.1763 44.717 34.9351 44.7916 35.03C44.9162 35.1891 44.0739 36.0757 43.489 36.6178C41.7042 38.2382 39.5179 39.3483 37.1586 39.832C35.4956 40.1633 33.788 40.2047 32.111 39.954L32.1057 39.9533C30.9663 39.786 27.9881 39.3487 25.2165 37.2476C26.6237 38.5428 27.921 39.279 28.5653 39.6445C28.8514 39.8069 29.0087 39.8962 28.9894 39.9288C28.875 40.1244 22.3649 38.3734 19.3958 32.7893C19.017 32.0772 17.2793 28.7838 17.5827 25.6738C17.0126 26.8799 16.9668 27.9428 16.9064 29.3399L16.9049 29.3757C16.8548 31.2019 17.3663 32.6458 17.8329 33.9626C18.3304 35.367 19.0551 36.8417 19.3773 37.4972C19.4851 37.7163 19.5478 37.8439 19.5419 37.8468C19.541 37.8468 19.538 37.8432 19.5365 37.8413L19.5359 37.8404C16.0546 32.7443 15.683 30.3409 15.683 30.3409C15.526 29.326 14.8555 24.9894 17.7456 21.3286C18.3638 20.5457 19.0803 19.8897 19.8283 19.3422C18.4387 20.3337 17.5472 21.3296 17.2611 21.6594C14.1472 25.2499 12.6812 30.7786 14.4326 35.0808C16.1719 39.3531 21.177 42.6429 23.0826 43.6666L23.0771 43.6645C22.2732 43.346 12.41 38.9522 12.0566 30.0535C11.8138 33.6753 12.6203 36.4121 12.9949 37.6828C13.139 38.1718 13.2191 38.4437 13.1509 38.4657C12.8304 38.5685 9.43319 33.279 10.0822 26.5734C10.2341 25.003 10.6291 21.4155 13.2968 18.0715C15.6633 15.1053 18.5178 13.9183 19.839 13.3892C21.1287 12.8725 26.7596 10.6184 31.6053 13.2568C32.7775 13.9079 33.8228 14.7656 34.6911 15.7888C36.844 18.3208 37.3966 21.3597 37.1527 21.4688ZM23.774 43.9293L23.0826 43.6666C23.6706 43.9826 23.9635 44.0827 23.774 43.9293Z" fill="black"/>
</svg>
