<svg width="56" height="56" viewBox="0 0 56 56" fill="none" xmlns="http://www.w3.org/2000/svg">
<rect width="56" height="56" fill="#6B4EBC"/>
<path fill-rule="evenodd" clip-rule="evenodd" d="M25.9976 14.0658C21.0749 16.8933 18.4735 20.0672 18.2598 23.5022C17.9417 28.6204 23.1807 32.643 23.1807 32.643C23.1807 32.643 17.0174 28.9209 16.7227 23.6868C16.5544 20.6848 18.4399 13.2166 33.6551 8.88208C36.0279 8.20602 37.6884 8.00199 37.705 8L39.5064 9.30293C39.5064 9.30293 37.2664 9.52836 34.6163 10.2834C31.4916 11.1736 28.5918 12.4462 25.9976 14.0658ZM40.4483 10.0849C40.4637 10.0953 41.2225 10.6019 41.9821 11.2413L42.2207 11.4418L41.9166 11.5051C40.1796 11.8677 38.5119 12.2753 36.959 12.7178C19.2191 17.7719 19.4614 26.4262 19.466 26.513L19.5085 27.33C19.5085 27.33 18.0968 24.12 19.8508 21.4371C23.5437 15.5312 30.3638 12.5689 35.435 11.1246C38.2356 10.3267 40.2782 10.0699 40.3463 10.0614L40.3479 10.0612L40.402 10.0548L40.4483 10.0849ZM24.1858 23.6349C28.6688 19.5839 33.5629 17.6075 36.8797 16.6626C39.5606 15.8988 41.4086 15.7527 41.4789 15.7472L41.4808 15.7469L41.7737 15.7263L40.5803 17.6607L40.515 17.6727C39.5756 17.8453 38.62 18.0695 37.6748 18.3388C30.2612 20.4506 25.1636 24.853 25.113 24.8973C21.1196 28.6491 22.7707 31.6941 22.7707 31.6941C22.7391 31.6566 19.6805 27.8751 24.1858 23.6349ZM43.0547 12.3718C43.0317 12.3742 40.6979 12.6225 37.4466 13.5486C34.0056 14.529 28.9952 16.43 24.6688 19.9178C22.1176 21.8997 20.5028 24.2907 20.2385 26.4782C20.1089 27.5457 21.36 29.8117 21.36 29.8117L21.0969 29.0068C21.0849 28.9702 19.9669 25.3041 25.6323 21.0502C28.8068 18.6663 32.115 17.0347 36.0427 15.916C38.0675 15.3391 40.0077 14.9602 42.1524 14.5594L42.2278 14.5452L42.2606 14.4754C42.4225 14.128 43.1952 12.6066 43.2033 12.5914L43.3286 12.3438L43.0547 12.3718ZM18.4486 39.3367C21.7653 38.3918 26.6595 36.4155 31.1425 32.3644C35.6477 28.1243 32.5893 24.3428 32.5577 24.3052C32.5577 24.3052 34.2086 27.3502 30.2154 31.1021C30.1646 31.1464 25.0672 35.5488 17.6535 37.6606C16.7082 37.9299 15.7527 38.1541 14.8132 38.3268L14.748 38.3387L13.5545 40.273L13.8474 40.2524L13.8494 40.2522C13.9198 40.2466 15.7678 40.1005 18.4486 39.3367ZM14.8804 45.9151C14.8728 45.9101 14.1099 45.4014 13.3463 44.7586L13.1078 44.5581L13.4119 44.4948C15.1489 44.1321 16.8166 43.7245 18.3695 43.2821C36.1094 38.228 35.867 29.5735 35.8624 29.4869L35.8199 28.6699C35.8199 28.6699 37.2317 31.8799 35.4776 34.5628C31.7846 40.4687 24.9647 43.431 19.8935 44.8753C17.0894 45.6742 15.0451 45.9305 14.9819 45.9385L14.9806 45.9386L14.9265 45.945L14.8804 45.9151ZM12.2739 43.6282C12.2969 43.6258 14.6306 43.3775 17.8819 42.4514C21.3229 41.471 26.3333 39.57 30.6598 36.0822C33.2111 34.1004 34.8256 31.7093 35.09 29.5219C35.2197 28.4543 33.9686 26.1883 33.9686 26.1883L34.2316 26.9932C34.2436 27.0298 35.3616 30.696 29.6963 34.9498C26.5218 37.3337 23.2136 38.9653 19.2859 40.084C17.261 40.6609 15.3209 41.0398 13.1762 41.4406L13.1007 41.4548L13.068 41.5247C12.9059 41.872 12.1334 43.3934 12.1253 43.4086L12 43.6562L12.2739 43.6282ZM29.3308 41.9343C34.2534 39.1067 36.8549 35.9328 37.0686 32.4978C37.3867 27.3796 32.1477 23.357 32.1477 23.357C32.1477 23.357 38.311 27.0793 38.6058 32.3132C38.7741 35.3152 36.8885 42.7834 21.6733 47.1179C19.3006 47.7941 17.64 47.9981 17.6234 48L15.8219 46.697C15.8219 46.697 18.062 46.4717 20.7121 45.7167C23.8368 44.8264 26.7366 43.554 29.3308 41.9343Z" fill="white"/>
</svg>
