<svg width="56" height="56" viewBox="0 0 56 56" fill="none" xmlns="http://www.w3.org/2000/svg">
<rect width="56" height="56" fill="#FBE257"/>
<path fill-rule="evenodd" clip-rule="evenodd" d="M24.1371 15.5302C24.2476 15.4196 24.4267 15.4196 24.5376 15.5302L27.5003 18.4942L32.9188 13.074C35.6815 10.3087 40.1629 10.3087 42.9274 13.074C45.6906 15.8396 45.6906 20.3213 42.9274 23.0866L42.0739 23.9403C41.9634 24.0512 41.784 24.0512 41.6735 23.9403L39.4714 21.7377C39.3609 21.6268 39.3609 21.4475 39.4714 21.3369L40.3242 20.4841C41.6493 19.1587 41.6493 17.0022 40.3242 15.6765C39.0009 14.3527 36.8449 14.3527 35.5202 15.6765L30.1016 21.0972C30.0978 21.0931 30.0931 21.0887 30.0891 21.0843L30.0877 21.0849L34.9058 25.9037L37.8699 22.939C37.9804 22.8284 38.1598 22.8284 38.2703 22.939L40.4727 25.1419C40.5832 25.2525 40.5832 25.4318 40.4727 25.5424L37.509 28.5073L42.9273 33.9265C44.3092 35.3093 44.9999 37.1217 44.9999 38.9338C44.9999 40.7281 44.3215 42.5245 42.9638 43.9026C40.211 46.6959 35.6027 46.6242 32.8298 43.8507L32.0642 43.0848C31.9536 42.9743 31.9536 42.7949 32.0642 42.6843L34.2663 40.4814C34.3768 40.3708 34.5559 40.3708 34.6667 40.4814L35.4662 41.2814C36.8093 42.6251 39.0441 42.661 40.3647 41.2954C41.6489 39.9675 41.6367 37.8421 40.3248 36.5299L34.9066 31.1108C34.1202 31.8963 31.9046 34.1101 30.1 35.9133L33.0651 38.8794C33.1759 38.99 33.1759 39.1693 33.0651 39.2799L30.8633 41.4828C30.7527 41.5934 30.5733 41.5934 30.4628 41.4828L27.494 38.5128L22.0834 43.9268C20.7006 45.309 18.8888 46 17.077 46C15.2666 46.0015 13.4562 45.309 12.0734 43.9268C9.30898 41.1612 9.30898 36.6798 12.0734 33.9142L12.921 33.0663C13.0318 32.9558 13.2109 32.9558 13.3215 33.0663L15.5232 35.269C15.6338 35.3798 15.6338 35.5589 15.5232 35.6697L14.6762 36.5167C13.3515 37.8421 13.3515 39.9975 14.6762 41.3228C15.9995 42.6482 18.1555 42.6482 19.4806 41.3228L24.8924 35.9101L20.0863 31.1046L17.1247 34.0676C17.0142 34.1781 16.8348 34.1781 16.7243 34.0676L14.5225 31.8649C14.412 31.7544 14.412 31.575 14.5228 31.4645L17.4842 28.5028L17.4813 28.4999L17.4829 28.4983L12.0729 23.0864C9.30904 20.3214 9.30904 15.8388 12.0729 13.0738C14.8367 10.3087 19.3179 10.3087 22.082 13.0738L22.936 13.928C23.0463 14.0386 23.0463 14.218 22.936 14.3285L20.7339 16.5315C20.6234 16.642 20.4443 16.642 20.3338 16.5315L19.534 15.7314C18.1903 14.3874 15.9553 14.3515 14.6346 15.7183C13.3507 17.0465 13.3644 19.1716 14.6751 20.483L20.0922 25.9022L24.869 21.0684L21.935 18.1333C21.8245 18.0228 21.8245 17.8437 21.935 17.7328L24.1371 15.5302ZM28.2734 24.4608C27.8463 24.0336 27.1538 24.0336 26.7266 24.4608L23.4783 27.709C23.0512 28.1362 23.0512 28.8287 23.4783 29.2558L26.7266 32.5041C27.1538 32.9312 27.8463 32.9312 28.2734 32.5041L31.5217 29.2558C31.9488 28.8287 31.9488 28.1362 31.5217 27.709L28.2734 24.4608Z" fill="black"/>
</svg>
