<svg width="56" height="56" viewBox="0 0 56 56" fill="none" xmlns="http://www.w3.org/2000/svg">
<rect width="56" height="56" fill="#4FA4E7"/>
<path d="M18.2584 28.8346L27.8536 12.3101C28.091 11.9013 28.6781 11.8956 28.9234 12.2997L34.6273 21.7007C35.0241 22.3546 34.7452 23.2092 34.0396 23.5018L19.0344 29.725C18.4839 29.9532 17.9588 29.3507 18.2584 28.8346Z" fill="white"/>
<path d="M46.6913 42.5894L36.7084 25.594C36.3939 25.0586 35.7342 24.8367 35.1611 25.0735L19.4117 31.5814C18.8879 31.7978 18.6756 32.4283 18.9615 32.9186L25.2428 43.6909C25.3544 43.8824 25.559 44 25.7802 44H45.8866C46.6089 44 47.0577 43.2133 46.6913 42.5894Z" fill="white"/>
<path d="M22.8529 43.0614L17.2129 33.3889C16.8504 32.7673 15.9525 32.7717 15.5961 33.3968L10.0829 43.0667C9.84581 43.4825 10.1454 44 10.6234 44H22.3154C22.796 44 23.0953 43.4773 22.8529 43.0614Z" fill="white"/>
</svg>
