<svg width="56" height="56" viewBox="0 0 56 56" fill="none" xmlns="http://www.w3.org/2000/svg">
<rect width="56" height="56" fill="#BA72CB"/>
<path fill-rule="evenodd" clip-rule="evenodd" d="M17.299 42.3439C12.9322 39.0809 10.1053 33.8706 10.1053 28C10.1053 18.117 18.117 10.1053 28 10.1053C36.1566 10.1053 45.0639 14.9797 47.2182 22.445C44.8109 14.1029 37.1195 8 28 8C16.9543 8 8 16.9543 8 28C8 39.0457 16.9543 48 28 48C39.0457 48 48 39.0457 48 28V26.9474L46.9012 26.9472C46.8686 26.9469 46.8192 26.9464 46.7547 26.9454C46.626 26.9435 46.4371 26.9395 46.2017 26.9315C45.7301 26.9155 45.0747 26.8835 44.3405 26.8196C42.8397 26.6891 41.1285 26.4344 39.9629 25.9689C38.0876 25.2199 37.0289 24.2272 35.8191 23.0655L35.7492 22.9983C34.5375 21.8341 33.1759 20.5263 30.8165 19.4159C28.4921 18.3221 25.9217 18.4975 24.033 18.8862C23.0739 19.0835 22.2523 19.3438 21.6694 19.5548C21.3772 19.6606 21.143 19.7549 20.9792 19.8239C20.0287 20.224 19.1062 20.6975 18.1734 21.1368C18.1734 21.1368 20.0035 21.6387 20.9087 21.919C20.9415 21.9291 20.9925 21.9454 21.0595 21.9679C21.1934 22.013 21.3893 22.0828 21.6264 22.1788C22.1039 22.3721 22.7319 22.6646 23.3518 23.0631C24.3283 23.6908 25.1377 24.4804 25.4697 25.4499C23.397 25.7225 21.453 26.6323 19.9992 27.4875C19.1177 28.006 18.3845 28.5234 17.8708 28.9121C17.6134 29.1067 17.4097 29.2701 17.2687 29.3862C17.1503 29.4838 15.2788 31.1334 15.2788 31.1334C15.2788 31.1334 17.6933 31.3902 18.8847 31.6303C19.6773 31.7899 20.7459 32.0469 21.8605 32.4359C22.9802 32.8266 24.1115 33.3384 25.0501 33.9937C25.9907 34.6502 26.6797 35.4093 27.0198 36.2783C28.0099 38.8087 27.0383 41.2737 25.0875 42.6604C23.1598 44.0305 20.2292 44.3561 17.299 42.3439ZM24.123 45.4736C24.9111 45.2176 25.6467 44.8457 26.3072 44.3763C28.9617 42.4895 30.3585 39.0334 28.9802 35.5112C28.4387 34.1275 27.4041 33.0693 26.2551 32.2674C25.1042 31.4641 23.7798 30.8759 22.5541 30.4482C21.7481 30.167 20.9697 29.9499 20.2878 29.7851C20.5297 29.6273 20.7902 29.4646 21.0666 29.302C22.6868 28.349 24.7274 27.4736 26.6842 27.4736C29.6336 27.4736 31.8303 28.3788 33.9276 29.35C34.1183 29.4382 34.3097 29.5279 34.502 29.6183C36.3762 30.4975 38.3446 31.4211 40.6316 31.4211C42.8495 31.4211 44.577 30.794 45.7674 30.1455C44.7075 39.0169 37.1569 45.8947 28 45.8947C26.6687 45.8947 25.3713 45.7493 24.123 45.4736ZM43.4927 28.8525C42.7044 29.1214 41.7489 29.3158 40.6316 29.3158C38.8376 29.3158 37.2961 28.5971 35.3393 27.6847C35.167 27.6044 34.9915 27.5225 34.8123 27.4396C32.8529 26.5322 30.586 25.5706 27.6353 25.3964C27.2393 23.4426 25.7586 22.1075 24.4902 21.2922C24.349 21.2013 24.2079 21.1153 24.0682 21.034C24.1948 21.0043 24.3247 20.9756 24.4574 20.9482C26.1617 20.5976 28.1967 20.5098 29.9201 21.3208C31.9656 22.2834 33.1195 23.3916 34.3199 24.5444L34.3609 24.5839C35.5962 25.7701 36.9026 27.0137 39.182 27.9239C40.4483 28.4297 42.0872 28.7017 43.4927 28.8525Z" fill="white"/>
</svg>
