<svg width="18" height="18" viewBox="0 0 18 18" fill="none" xmlns="http://www.w3.org/2000/svg">
<path d="M17 2.00006V1.00006C17 0.450061 16.55 6.10352e-05 16 6.10352e-05L14 6.10352e-05C13.45 6.10352e-05 13 0.450061 13 1.00006V2.00006H12V6.00006C12 6.55006 12.45 7.00006 13 7.00006L14 7.00006V14.0001C14 15.1001 13.1 16.0001 12 16.0001C10.9 16.0001 10 15.1001 10 14.0001V4.00006C10 1.79006 8.21 6.10352e-05 6 6.10352e-05C3.79 6.10352e-05 2 1.79006 2 4.00006L2 11.0001H1C0.45 11.0001 0 11.4501 0 12.0001L0 16.0001H1V17.0001C1 17.5501 1.45 18.0001 2 18.0001H4C4.55 18.0001 5 17.5501 5 17.0001V16.0001H6L6 12.0001C6 11.4501 5.55 11.0001 5 11.0001H4L4 4.00006C4 2.90006 4.9 2.00006 6 2.00006C7.1 2.00006 8 2.90006 8 4.00006L8 14.0001C8 16.2101 9.79 18.0001 12 18.0001C14.21 18.0001 16 16.2101 16 14.0001V7.00006H17C17.55 7.00006 18 6.55006 18 6.00006V2.00006H17Z" fill="white" fill-opacity="0.48"/>
</svg>
