<svg width="56" height="56" viewBox="0 0 56 56" fill="none" xmlns="http://www.w3.org/2000/svg">
<rect width="56" height="56" fill="#8832E9"/>
<path fill-rule="evenodd" clip-rule="evenodd" d="M27.9056 18.8142L30.8295 17.1476C36.5625 13.8799 43.6912 17.9973 43.729 24.5983L43.8072 38.2611C43.8148 39.5944 42.3729 40.4327 41.2187 39.7661L27.8984 32.0724L14.5889 39.7645C13.4348 40.4314 11.9927 39.5934 12 38.2601L12.0747 24.5973C12.1108 17.9963 19.2384 13.877 24.9724 17.1433L27.9056 18.8142ZM27.9058 20.8009L35.9867 25.4041L27.8982 30.0788L19.8172 25.4113L27.9058 20.8009ZM29.649 19.8073L31.6837 18.6476C36.2701 16.0334 41.9731 19.3275 42.0034 24.6082L42.0815 38.271L29.6236 31.0754L36.8499 26.899C38.004 26.232 37.9988 24.5637 36.8406 23.9039L29.649 19.8073ZM26.173 31.0758L13.7257 38.2695L13.8003 24.6067C13.8292 19.326 19.5314 16.0305 24.1185 18.6436L26.1623 19.8078L18.963 23.9113C17.8049 24.5714 17.8002 26.2397 18.9544 26.9064L26.173 31.0758Z" fill="white"/>
</svg>
