<svg width="33" height="32" viewBox="0 0 33 32" fill="none" xmlns="http://www.w3.org/2000/svg">
<path d="M20.5 28H17.8333V25.3333H20.5V28ZM17.8333 18.6667H15.1667V25.3333H17.8333V18.6667ZM28.5 16H25.8333V21.3333H28.5V16ZM25.8333 13.3333H23.1667V16H25.8333V13.3333ZM9.83333 16H7.16667V18.6667H9.83333V16ZM7.16667 13.3333H4.5V16H7.16667V13.3333ZM16.5 6.66667H19.1667V4H16.5V6.66667ZM6.5 6V10H10.5V6H6.5ZM11.1667 12H5.83333C5.1 12 4.5 11.4 4.5 10.6667V5.33333C4.5 4.6 5.1 4 5.83333 4H11.1667C11.9 4 12.5 4.6 12.5 5.33333V10.6667C12.5 11.4 11.9 12 11.1667 12ZM6.5 22V26H10.5V22H6.5ZM11.1667 28H5.83333C5.1 28 4.5 27.4 4.5 26.6667V21.3333C4.5 20.6 5.1 20 5.83333 20H11.1667C11.9 20 12.5 20.6 12.5 21.3333V26.6667C12.5 27.4 11.9 28 11.1667 28ZM22.5 6V10H26.5V6H22.5ZM27.1667 12H21.8333C21.1 12 20.5 11.4 20.5 10.6667V5.33333C20.5 4.6 21.1 4 21.8333 4H27.1667C27.9 4 28.5 4.6 28.5 5.33333V10.6667C28.5 11.4 27.9 12 27.1667 12ZM25.8333 25.3333V21.3333H20.5V24H23.1667V28H28.5V25.3333H25.8333ZM23.1667 16H17.8333V18.6667H23.1667V16ZM17.8333 13.3333H9.83333V16H12.5V18.6667H15.1667V16H17.8333V13.3333ZM19.1667 12V9.33333H16.5V6.66667H13.8333V12H19.1667ZM9.5 7H7.5V9H9.5V7ZM9.5 23H7.5V25H9.5V23ZM25.5 7H23.5V9H25.5V7Z" fill="white"/>
</svg>
