<svg width="56" height="56" viewBox="0 0 56 56" fill="none" xmlns="http://www.w3.org/2000/svg">
<rect width="56" height="56" fill="#DD037D"/>
<path fill-rule="evenodd" clip-rule="evenodd" d="M48 28C48 39.0457 39.0457 48 28 48C16.9543 48 8 39.0457 8 28C8 16.9543 16.9543 8 28 8C39.0457 8 48 16.9543 48 28ZM29.6666 43.4167C23.8334 43.625 20.7083 41.9583 18 39.875C22.7967 40.2303 25.7753 38.7678 27.1946 38.0709C27.4397 37.9505 27.6383 37.853 27.7917 37.7917C28.2242 38.0275 28.6122 38.2561 28.9782 38.4715C30.5507 39.3977 31.7149 40.0833 34.2501 40.0833C37.9254 40.0833 38.2083 37.375 38.2083 36.7499C38.2083 34.4583 36.5417 33.2083 35.5 33.2083C33.2083 33.2083 32.5833 34.0417 31.9583 34.875L31.5417 34.6666C33.2083 32.7917 35.2917 29.6666 35.5 28C38.2083 29.4583 40.5 33.625 39.6666 36.9583C38.7813 40.5 33.4167 43.2827 29.6666 43.4167ZM24.261 21.3577C26.1254 20.9177 30.0838 20.9177 31.9694 21.5661L31.9587 21.1261C29.8754 20.7094 28.1042 19.0758 28.8443 16.5661C29.4587 14.4826 32.6655 13.2912 35.0838 15.7094C36.4025 17.0282 36.7504 19.8761 36.7504 23.4177C37.9897 24.0195 41.3337 26.3344 43.417 30.7094C44.2504 22.1678 40.292 17.3761 35.7193 14.4826C31.5421 11.8395 28.3878 14.0683 27.5944 14.691C25.5003 16.3344 24.261 19.6678 24.261 21.3577ZM19.8753 35.501C14.2503 35.501 12.5298 31.3343 12.4794 28.2094C12.3753 21.751 16.7503 15.2927 22.5837 13.4177C20.7087 16.3343 19.8753 18.6261 19.8753 22.7927C16.5419 24.251 14.2503 26.5426 13.8336 28.2094C13.417 29.6677 13.8336 31.2186 14.667 31.9593C16.5419 33.6261 18.7742 32.7927 19.667 31.751C20.8231 30.4022 20.5003 28.6261 20.0837 27.7927H20.5003C20.917 29.0426 22.792 33.2094 24.2503 34.4593C23.0003 35.0843 21.1254 35.501 19.8753 35.501ZM24.6662 25.9177C27.1662 25.2927 29.1559 25.2927 31.3328 25.9177C31.3328 27.5843 29.4578 30.501 27.9995 31.9593C26.5411 30.501 24.8745 27.7927 24.6662 25.9177Z" fill="white"/>
</svg>
