<svg width="56" height="56" viewBox="0 0 56 56" fill="none" xmlns="http://www.w3.org/2000/svg">
<rect width="56" height="56" fill="#D43079"/>
<path d="M28.0146 8C16.9766 8 8 16.9682 8 27.9959C8 35.9221 12.6402 42.7898 19.3501 46.0226V46.039H19.383C21.9946 47.2943 24.9266 48 28.0146 48C39.0526 48 48.0292 39.0318 48.0292 28.0041C48.0292 16.9682 39.0526 8 28.0146 8ZM28.0146 9.64103C38.1411 9.64103 46.3867 17.879 46.3867 27.9959C46.3867 30.9006 45.705 33.6576 44.4977 36.1026C41.8531 34.8226 39.1675 33.8708 36.4573 33.2226V17.9119C36.4573 17.3785 36.0385 16.9518 35.5129 16.9518H32.1456H23.6618H20.2946C19.7772 16.9518 19.3501 17.3785 19.3501 17.9119V33.2966C16.722 33.9446 14.1103 34.88 11.5397 36.1108C10.3242 33.6576 9.64256 30.9087 9.64256 27.9959C9.64256 17.879 17.8883 9.64103 28.0146 9.64103ZM12.5992 37.9569C14.7755 36.8822 17.0341 36.0534 19.3583 35.4791V44.1765C16.607 42.7078 14.2828 40.558 12.5992 37.9569ZM23.6618 45.8257V25.3374C23.6618 22.9662 25.6083 21.0051 27.9325 21.0051C30.2567 21.0051 32.1456 22.9252 32.1456 25.2883C32.1456 25.3047 32.1374 25.3211 32.1374 25.3374H32.1456V32.4677C30.1663 32.2381 28.1789 32.1641 26.1914 32.2708L24.557 34.6421C27.1029 34.4288 29.5832 34.4452 32.0307 34.7242C32.0553 34.7242 32.0717 34.7242 32.0964 34.7324C32.1129 34.7324 32.1292 34.7324 32.1538 34.7407C32.581 34.7898 34.1332 34.9868 35.554 35.3395L32.1538 36.4964V45.8914C30.8233 46.1949 29.4437 46.3672 28.031 46.3672C26.5117 46.3508 25.058 46.1621 23.6618 45.8257ZM36.4491 44.2914V35.52C38.7651 36.1026 41.0565 36.956 43.3561 38.0718C41.6314 40.6894 39.2497 42.8391 36.4491 44.2914Z" fill="white"/>
</svg>
