<svg width="28" height="32" viewBox="0 0 28 32" fill="none" xmlns="http://www.w3.org/2000/svg">
<path d="M22.5613 11.3863V7.09473C22.5613 5.99016 21.6658 5.09473 20.5613 5.09473H7.78369C6.67912 5.09473 5.78369 5.99016 5.78369 7.09473V24.9056C5.78369 26.0102 6.67912 26.9056 7.78369 26.9056H20.5613C21.6658 26.9056 22.5613 26.0102 22.5613 24.9056V10.5307" stroke="white" stroke-width="1.7" stroke-linecap="round" stroke-linejoin="round"/>
<path d="M12.7886 12.6063C12.5774 12.3751 12.4138 12.1046 12.3073 11.8101C12.2007 11.5156 12.1532 11.203 12.1675 10.8901C12.1818 10.5772 12.2575 10.2702 12.3905 9.98646C12.5234 9.70276 12.711 9.44799 12.9423 9.2367C13.414 8.81603 14.0333 8.59966 14.6642 8.63513C15.295 8.6706 15.8859 8.955 16.3069 9.42586C16.5181 9.65707 16.6816 9.92764 16.7882 10.2221C16.8947 10.5166 16.9422 10.8292 16.9279 11.1421C16.9137 11.455 16.8379 11.7621 16.7049 12.0458C16.572 12.3294 16.3845 12.5842 16.1531 12.7955C15.6813 13.2159 15.062 13.4322 14.4313 13.3967C13.8005 13.3612 13.2097 13.077 12.7886 12.6063V12.6063Z" stroke="white" stroke-width="1.7" stroke-linejoin="round"/>
<path d="M14.6865 13.4727L14.6671 23.3984" stroke="white" stroke-width="1.7" stroke-linecap="round" stroke-linejoin="round"/>
<path d="M14.2161 18.2702L11.4965 18.2649L11.4865 21.5719L14.2054 21.5765" stroke="white" stroke-width="1.7" stroke-linecap="round" stroke-linejoin="round"/>
</svg>
