<svg width="28" height="28" viewBox="0 0 28 28" fill="none" xmlns="http://www.w3.org/2000/svg">
<path d="M18.0833 14C18.0833 12.7167 17.0333 11.6667 15.75 11.6667C14.4667 11.6667 13.4167 12.7167 13.4167 14C13.4167 15.2833 14.4667 16.3333 15.75 16.3333C17.0333 16.3333 18.0833 15.2833 18.0833 14ZM15.75 3.5C9.95167 3.5 5.25 8.20167 5.25 14H1.75L6.41667 18.6667L11.0833 14H7.58333C7.58333 9.485 11.235 5.83333 15.75 5.83333C20.265 5.83333 23.9167 9.485 23.9167 14C23.9167 18.515 20.265 22.1667 15.75 22.1667C13.9883 22.1667 12.355 21.595 11.0133 20.65L9.35667 22.33C11.13 23.6833 13.3467 24.5 15.75 24.5C21.5483 24.5 26.25 19.7983 26.25 14C26.25 8.20167 21.5483 3.5 15.75 3.5Z" fill="white" fill-opacity="0.69"/>
</svg>
