<svg width="56" height="56" viewBox="0 0 56 56" fill="none" xmlns="http://www.w3.org/2000/svg">
<rect width="56" height="56" fill="#DA4153"/>
<path fill-rule="evenodd" clip-rule="evenodd" d="M30.0709 41.1514L30.0722 41.1529L34.3002 45.8918C34.4242 46.0303 34.4915 46.2103 34.4885 46.3959C34.4855 46.5816 34.4125 46.7592 34.2839 46.8936C34.1987 46.9827 34.0926 47.049 33.975 47.0865L33.9733 47.0871C29.4586 48.5002 24.5867 48.2667 20.2289 46.4286C15.8696 44.5902 12.3033 41.2661 10.1633 37.0471C8.02311 32.8257 7.4482 27.9866 8.54006 23.384C9.63188 18.781 12.32 14.7139 16.1272 11.9053C19.9306 9.09776 24.6119 7.7293 29.3344 8.04444C34.055 8.3601 38.5107 10.3391 41.9099 13.6296C45.3093 16.9199 47.4318 21.3087 47.9011 26.016C48.3709 30.7216 47.1568 35.4414 44.4733 39.3413L44.4718 39.3434L44.4703 39.3456C44.3952 39.4504 44.2938 39.5338 44.1763 39.5875C44.0589 39.6411 43.9294 39.6632 43.8007 39.6514C43.672 39.6393 43.5487 39.5938 43.4432 39.5195C43.3376 39.4451 43.2535 39.3446 43.1992 39.2277L40.2248 32.8306L40.2208 32.8218L40.2173 32.8128C40.1123 32.5408 40.1113 32.2399 40.2144 31.9672C41.0589 29.3881 41.065 26.6093 40.2321 24.0264C39.4002 21.4441 37.7693 19.1906 35.5733 17.589C33.3811 15.9904 30.736 15.1275 28.0197 15.125C25.3034 15.1234 22.6569 15.9822 20.4624 17.5773C18.2638 19.1755 16.6294 21.4265 15.7935 24.0075C14.9559 26.5913 14.9586 29.3727 15.8011 31.9549C16.6421 34.5342 18.2807 36.7819 20.4823 38.3761C22.68 39.967 25.3281 40.8206 28.0445 40.8137C28.213 40.8137 28.3838 40.8032 28.5633 40.7919L28.5707 40.7914C28.7408 40.7807 28.9199 40.7694 29.0984 40.7689C29.2787 40.7544 29.46 40.7811 29.6283 40.8472C29.7967 40.9133 29.9475 41.0168 30.0696 41.1499L30.0709 41.1514ZM36.2687 30.3915L36.2291 30.4419L33.4609 33.9629L33.46 33.9639L33.4593 33.965C33.3154 34.1446 33.1177 34.2735 32.8951 34.3328L32.8937 34.3333L32.8925 34.3335L28.5654 35.4445L28.5297 35.4537H28.1334L28.0974 35.205C28.0933 35.1763 28.0918 35.1475 28.0929 35.1186C28.0891 35.0755 28.0922 35.032 28.1022 34.9896L28.1031 34.9862L28.104 34.9826L29.4914 29.7189C29.5184 29.6037 29.5679 29.4949 29.6371 29.3987C29.7064 29.3026 29.7941 29.221 29.895 29.1587C30.0888 29.0312 30.3238 28.9809 30.553 29.0181L35.9496 29.8031H36.2078L36.2639 30.0206C36.2734 30.057 36.2773 30.0945 36.2755 30.1321C36.2959 30.1959 36.2986 30.264 36.2834 30.3291L36.2687 30.3915ZM28.7447 36.3118L28.7591 36.308L33.5967 35.0359L33.5991 35.0351L33.6014 35.0347C33.7013 35.0101 33.7897 34.9523 33.8522 34.871L33.8533 34.8695L33.8544 34.8682L36.9362 30.9619L37.0234 30.8512H37.4582L37.5362 31.0192L43.2696 43.3471L43.2715 43.351L43.2731 43.3549C43.3555 43.5467 43.3879 43.7562 43.367 43.9639L43.3666 43.9666L43.3662 43.9694C43.341 44.1787 43.2605 44.3776 43.1327 44.5456L41.7379 46.5038L41.7327 46.5112L41.727 46.5181C41.5998 46.6749 41.4279 46.7895 41.2338 46.8469L41.2302 46.8478L41.2266 46.8488L38.8457 47.4843L38.8446 47.4846C38.639 47.541 38.4218 47.5409 38.2162 47.4843L38.2115 47.4831L38.2069 47.4816C38.0009 47.4175 37.8165 47.2986 37.6731 47.1378L28.5447 36.9515L28.4707 36.869V36.7568C28.4637 36.723 28.4618 36.6882 28.4651 36.6538C28.4621 36.5898 28.4775 36.5262 28.5096 36.4706L28.5615 36.3805L28.6592 36.3439L28.7309 36.317L28.7447 36.3118Z" fill="white"/>
</svg>
