<svg width="56" height="56" viewBox="0 0 56 56" fill="none" xmlns="http://www.w3.org/2000/svg">
<rect width="56" height="56" fill="#CA28CC"/>
<path fill-rule="evenodd" clip-rule="evenodd" d="M19.555 8.73951L15.7699 10.8418L16.4118 14.426C16.0895 14.702 15.7794 14.987 15.4814 15.281L19.1067 18.8909C19.7535 18.2502 20.4671 17.6802 21.2356 17.1905L23.3495 15.85V28.5136L25.7086 29.8702L28.0675 31.2267L30.4266 29.8702L32.7857 28.5136V15.85L34.8996 17.1905C35.6153 17.6439 36.2839 18.1669 36.8957 18.7519L40.5223 15.1408C40.2786 14.9034 40.0285 14.6746 39.7722 14.4544L40.4818 10.9767L36.7617 8.76378L33.968 11.1088C33.1471 10.8239 32.3066 10.5986 31.4531 10.4346L30.321 7.06337L25.9876 7L24.7471 10.4184C23.891 10.581 23.0483 10.8064 22.2255 11.0927L19.555 8.73951ZM45.1416 15.5844L41.4175 16.0578L41.4189 16.0591L37.7625 19.6663C38.9377 21.0591 39.7984 22.6871 40.2866 24.4402C40.7746 26.1933 40.8784 28.0303 40.5912 29.8267C40.3039 31.6233 39.6322 33.3372 38.6214 34.8526C37.6107 36.3679 36.2846 37.6493 34.7331 38.6098V45.4263L36.5193 47L40.3043 44.8977L39.6624 41.3189C40.3235 40.7541 40.9418 40.1415 41.5123 39.4862L45.0062 40.1942L47.2285 36.4886L44.8721 33.7053C45.1583 32.8881 45.3846 32.0511 45.5492 31.2012L48.9347 30.0726L48.9998 25.7574L45.5669 24.5222C45.4033 23.6703 45.1769 22.8315 44.8897 22.0126L47.2528 19.3522L45.1416 15.5844ZM15.6832 24.5733C16.1478 22.8301 16.9802 21.2055 18.125 19.8079L14.4618 16.1643L10.9922 15.4618L8.77132 19.1674L11.1263 21.9507C10.8399 22.7679 10.6136 23.6048 10.4492 24.4548L7.06365 25.5834L7 29.8986L10.4329 31.1338C10.5963 31.9861 10.8226 32.8255 11.11 33.6446L8.74694 36.3052L10.8582 40.0742L14.4537 39.435C15.0208 40.0928 15.636 40.708 16.294 41.2757L15.5844 44.7534L19.3058 46.9663L21.2735 45.3157V38.6084C19.7352 37.6563 18.4185 36.3886 17.4109 34.8899C16.4033 33.3913 15.7281 31.696 15.4301 29.917C15.1322 28.1382 15.2185 26.3163 15.6832 24.5733Z" fill="white"/>
</svg>
